<svg xmlns="http://www.w3.org/2000/svg" viewBox="0 0 119.07 118.45"><defs><style>.cls-1{isolation:isolate;}.cls-2{fill:#c0955f;}.cls-3{fill:none;}.cls-4{opacity:0.5;mix-blend-mode:darken;}.cls-5{fill:#231f20;}.cls-6{opacity:0.25;mix-blend-mode:screen;}.cls-7{fill:#fff;}</style></defs><g class="cls-1"><g id="Calque_1" data-name="Calque 1"><path class="cls-2" d="M60.16,119.31a66.68,66.68,0,0,1-8.93-.64,66.53,66.53,0,0,1-8.74-2,66.28,66.28,0,0,1-8.35-3.27A62.21,62.21,0,0,1,26.39,109a59,59,0,0,1-5.54-93.32,59.56,59.56,0,0,1,92.33,17.52,55.58,55.58,0,0,1,3.48,8.28,54.76,54.76,0,0,1,2.17,8.72,56.88,56.88,0,0,1,.77,8.94A55.51,55.51,0,0,1,119,68h-.1a59.51,59.51,0,0,0-6.33-34.57A59.4,59.4,0,0,0,21.38,16.23a58.47,58.47,0,0,0,5.18,92.47,60.42,60.42,0,0,0,7.69,4.51,65.23,65.23,0,0,0,8.3,3.31,66.44,66.44,0,0,0,8.7,2,66.44,66.44,0,0,0,8.91.69Z" transform="translate(-0.54 -0.86)"/><path class="cls-3" d="M119,68" transform="translate(-0.54 -0.86)"/><g id="illustrator"><g class="cls-4"><path class="cls-5" d="M76.09,87.46H63.78L59.16,73.09H44.6L40.21,87.46H28.34l17-52.82H58.82l.07.24ZM46.77,64H57L53.39,52.87C52.8,51,52.27,49,51.77,47.1c-.49,1.93-1,3.93-1.48,5.73Z" transform="translate(-0.54 -0.86)"/><path class="cls-5" d="M85.61,45.55a6.07,6.07,0,1,1,6.37-6A6,6,0,0,1,85.61,45.55Z" transform="translate(-0.54 -0.86)"/><path class="cls-5" d="M91.37,87.46H79.93V48.7H91.37Z" transform="translate(-0.54 -0.86)"/></g><path class="cls-2" d="M45.28,34.35,28.48,86.47H39.59L44,72.1H59.07l4.62,14.37H75.25l-17-52.12ZM51.17,46l.24-1c.59,2.3,1.24,4.82,2,7.11L57.1,63.69H45.94l3.66-11.6C50.13,50.17,50.66,48,51.17,46Z" transform="translate(-0.54 -0.86)"/><path class="cls-2" d="M85.26,44.56a5.71,5.71,0,1,0-5.86-5.67A5.66,5.66,0,0,0,85.26,44.56Z" transform="translate(-0.54 -0.86)"/><rect class="cls-2" x="79.39" y="47.55" width="10.73" height="38.05"/><g class="cls-6"><path class="cls-2" d="M57.82,34.88,74.51,85.94H64.08l-4.5-14-.12-.38H43.59l-.12.38-4.28,14h-10L45.68,34.88H57.82M45.21,64.23H57.84l-.23-.7L53.9,52c-.73-2.27-1.37-4.74-2-7.08l-.52-2.06-.52,2.06,0,.18-.19.77c-.51,2.07-1,4.2-1.57,6.1l-3.65,11.6-.22.7m13-29.88H45.28L28.48,86.47H39.59L44,72.1H59.07l4.62,14.37H75.25l-17-52.12ZM45.94,63.69l3.66-11.6c.53-1.92,1.06-4.06,1.57-6.13l.24-1c.59,2.3,1.24,4.82,2,7.11L57.1,63.69Z" transform="translate(-0.54 -0.86)"/><path class="cls-7" d="M85.34,33.68a5.18,5.18,0,1,1-5.4,5.21,5.16,5.16,0,0,1,5.4-5.21m0-.53a5.71,5.71,0,1,0,5.93,5.72,5.65,5.65,0,0,0-5.93-5.72Z" transform="translate(-0.54 -0.86)"/><path class="cls-7" d="M90.13,49v37H80.47V49h9.66m.54-.53H79.93V86.47H90.67v-38Z" transform="translate(-0.54 -0.86)"/></g></g></g></g></svg>