<svg id="Calque_1" data-name="Calque 1" xmlns="http://www.w3.org/2000/svg" viewBox="0 0 443.77 389.87"><defs><style>.cls-1{fill:#96724b;}.cls-2,.cls-3{fill:#c0955f;}.cls-3{stroke:#96724b;stroke-miterlimit:10;}.cls-4{fill:#fddcbd;}.cls-5{fill:#8d2342;}.cls-6{fill:#f9f4f6;}.cls-7{fill:none;}</style></defs><g id="bateau"><path class="cls-1" d="M200.18,256.55c-7.53-20-16.28-43.36-23.79-63.67-9.57-25.85-17.15-46.79-17.72-49.74-2.52.58-5.58,1.41-9.09,2.45-3.35,1-7.1,2.18-11.15,3.53-35,11.64-92.37,35.45-108.63,52.06,0,0,46.76,129.26,52.43,141.39,15.22,0,85.5-18.93,118.85-31.08,3.8-1.38,7.12-2.67,9.82-3.84a31.11,31.11,0,0,0,7.12-3.82S210.17,283.12,200.18,256.55Zm3,47.07c-3,1-6.52,2.17-10.46,3.38-31.8,9.73-89.92,24-96.31,23.44,0,0-44.61-102.78-45.39-123.39,10.08-9.61,47.63-24.11,76.43-34.3h0l2.77-1c18.32-6.43,32.44-10.9,32.44-10.9s5.38,14.77,12.61,34.68c6.71,18.51,15,41.48,22.05,61.15,8.35,23.35,14.91,42.07,14.91,43.21A55.94,55.94,0,0,1,203.22,303.62ZM348.45,118.09a1105.41,1105.41,0,0,0-111.13,8.61c1.18,1.19,3.76,7,7.19,15.63,16.13-2.84,70.27-12,88-10.67,14.37,24.78,36.07,71,36.07,71l-79.38,57.83a48.56,48.56,0,0,0,3.21,6.35c14.83-8,81.78-58.05,92.86-75.91Z" transform="translate(-0.24)"/><path class="cls-2" d="M279.71,267.17c.92.83,1.74,1.74,2.65,2.57a8.64,8.64,0,0,0,1.45,1.12,1,1,0,0,0,.41.13.23.23,0,0,0,.26-.2A3.42,3.42,0,0,0,284,270c-1.43-2-3-3.88-4.57-5.78-.78-1-1.58-1.89-2.34-2.86a15.12,15.12,0,0,1-2-3.12,8.11,8.11,0,0,1-.78-3.6,13.55,13.55,0,0,1,.3-1.82c.09-.6.14-1.22.17-1.83.23-4.91.09-9.83-.07-14.75s-.42-9.83-.86-14.72h0v0l-14.34-38.95c-2.41-6.49-4.75-13-7.23-19.45L245,143.72l.06.06a22.13,22.13,0,0,0-11.75.59,28.85,28.85,0,0,0-10,6.26l-.07.06-.07-.06a7,7,0,0,0-1.74-1c-.62-.27-1.25-.5-1.89-.74-1.27-.45-2.57-.86-3.87-1.22-.64-.19-1.33-.26-2-.5s-1.28-.43-1.92-.67l-3.81-1.41-7.6-2.93-3.78-1.48a16,16,0,0,1-3.62-1.89c-1.13-.75-2.23-1.55-3.32-2.36a29.86,29.86,0,0,1-3.14-2.62c-.82-1.12-1.44-2.31-2.16-3.46a16.43,16.43,0,0,0-2.37-3.25,1.51,1.51,0,0,0-.38-.26c-.07,0,0,0,0,0a.73.73,0,0,0,0,.21,5.55,5.55,0,0,0,.25.95c.22.64.48,1.27.74,1.89l.4.93.21.47.1.23a.76.76,0,0,1,.09.3.37.37,0,0,1-.58.27c-.16-.14-.25-.25-.38-.38l-.68-.75c-1.82-2-3.52-4.15-5.41-6.06l.11,0c-16,3.79-32,8.12-47.58,13.33a454.31,454.31,0,0,0-46,17.94,391.94,391.94,0,0,0-43.57,23.24c-6.95,4.42-13.84,8.93-20.47,13.83l-5,3.66-4.86,3.8a26.16,26.16,0,0,0-4.59,4,14.61,14.61,0,0,0-1.72,2.5,6.12,6.12,0,0,0-.85,2.8v0h0a139,139,0,0,0,1,38.7,203.61,203.61,0,0,0,9.85,37.52,223.46,223.46,0,0,0,16.31,35.21,161.28,161.28,0,0,0,10.63,16.24,94,94,0,0,0,6.19,7.45,43.69,43.69,0,0,0,7.17,6.43h0a10.83,10.83,0,0,0,3.72,1.81,18.19,18.19,0,0,0,4.17.62A28.77,28.77,0,0,0,65,354a34.58,34.58,0,0,0,4.2-.63h.05c13.31-1.08,26.55-3,39.69-5.33s26.2-5.23,39.14-8.55,25.77-7.07,38.45-11.26,25.21-8.84,37.56-13.93l0,.71-13.39-7h.35c-5.2,2-10.37,4.12-15.65,5.9l-7.92,2.67-8,2.55q-15.94,5-32.05,9.45c-10.73,3-21.5,5.82-32.34,8.41-2.71.64-5.41,1.3-8.14,1.88s-5.44,1.21-8.17,1.74A107.09,107.09,0,0,1,82.23,343H82l-.11-.26c-2.53-5.81-4.68-11.69-7-17.56l-6.62-17.65L55.19,272.18,29.35,201.34l-.1-.29.21-.2,3.32-3c1.16-1,2.37-1.82,3.55-2.73s2.43-1.71,3.66-2.55,2.45-1.68,3.74-2.43c2.54-1.53,5.07-3.09,7.69-4.5l3.89-2.15,3.95-2.06c10.54-5.45,21.35-10.36,32.26-15s22-9,33.11-13c5.59-2,11.17-4,16.84-5.74,2.83-.88,5.65-1.81,8.49-2.66l8.61-2.3.42-.12.12.47c.59,2.35,1.46,4.76,2.26,7.13l2.49,7.12L169,171.52q5.16,14.17,10.42,28.33l21.07,56.59-.3-.19A70.46,70.46,0,0,0,214.71,254a20.32,20.32,0,0,0,6.6-3.06,6.92,6.92,0,0,0,2.19-2.76,18.05,18.05,0,0,0,1-3.5A100.22,100.22,0,0,0,225.77,230l.12-3.71a15.43,15.43,0,0,1,.14-1.88,6.42,6.42,0,0,1,.77-1.77,43.63,43.63,0,0,1,4.57-5.88l.1-.12.15,0a40.2,40.2,0,0,0,16.31,2.48c2.77-.27,5.55-.55,8.3-.92a53.77,53.77,0,0,0,8.15-1.66l.14.37-.91.43.11-.17a71.3,71.3,0,0,0,.41,13.39,21.27,21.27,0,0,0,1.8,6.39,19.25,19.25,0,0,1,1.56,6.58,81.75,81.75,0,0,1-.24,13.46l-.13,1.68c0,.53,0,1.12-.05,1.68a11.85,11.85,0,0,1-.7,3.32,3.53,3.53,0,0,0-.25,1.59c0,.55.05,1.11.11,1.66a18.07,18.07,0,0,0,.61,3.28h0c0,.06.2.23.27.36a3.09,3.09,0,0,1,.24.43c.14.3.26.6.37.9l.3.9c.05.15.11.3.17.44s.18.31.14.3h0a1,1,0,0,0,.19-.34,2.53,2.53,0,0,0,.14-.49,4.56,4.56,0,0,0,.14-1,2.26,2.26,0,0,0-.2-1,9,9,0,0,1-.27-1.05,4.82,4.82,0,0,1,0-2.17c.11-.34.35-.78.81-.8a1.81,1.81,0,0,1,1,.43,33.5,33.5,0,0,1,3.21,2.85l1.51,1.51a7,7,0,0,1,1.25,1.76l2.06,3.74c.35.63.69,1.25,1.06,1.86a8.77,8.77,0,0,0,.58.87c0,.06.14.14.12.13s0,0,0-.05l0-.12a1,1,0,0,0,.11-.49,9.4,9.4,0,0,0-1.08-4q-.43-1-.93-1.92l-.5-.94-.25-.48-.12-.24a.61.61,0,0,1-.08-.33v-.11l.12.07a3.69,3.69,0,0,1,1.12,1.21c.3.45.57.92.83,1.38l1.55,2.83a12.46,12.46,0,0,0,.85,1.36c.15.19.36.46.53.44a1,1,0,0,0,.32-.62,6,6,0,0,0-.79-3c-.45-1-1-1.91-1.52-2.84l-.39-.71-.18-.36c0-.15-.16-.21-.08-.46s.23,0,.27,0l.14.15.26.32.49.64,1.93,2.59c.32.42.65.85,1,1.26.17.2.35.4.54.59s.42.41.59.39h0c.21-.34,0-.84-.15-1.24a10.47,10.47,0,0,0-.6-1.21c-.44-.8-.92-1.56-1.42-2.32s-1-1.5-1.55-2.24l-.78-1.11-.39-.56-.18-.29-.09-.16a.56.56,0,0,1,0-.07.07.07,0,0,1,.11,0Zm-.06.08,1.42,2c.53.74,1.05,1.48,1.55,2.24s1,1.52,1.44,2.32a11.48,11.48,0,0,1,.6,1.22,3.93,3.93,0,0,1,.22.66.94.94,0,0,1-.08.71h0c-.2.07-.32-.06-.43-.13A4,4,0,0,1,284,276c-.19-.19-.37-.4-.55-.6-.35-.41-.68-.84-1-1.26l-1.93-2.59-.49-.64-.25-.3a1,1,0,0,0-.21-.2,2.54,2.54,0,0,0,.11.3l.18.35.39.71c.53.93,1.07,1.87,1.53,2.84a13.23,13.23,0,0,1,.61,1.51,3.7,3.7,0,0,1,.2,1.62,1.06,1.06,0,0,1-.44.75.54.54,0,0,1-.43-.18,2.69,2.69,0,0,1-.27-.32,12.49,12.49,0,0,1-.86-1.37l-1.56-2.83c-.27-.47-.54-.93-.83-1.37a3.65,3.65,0,0,0-1.05-1.15l.12,0,.45.88.5,1c.34.63.65,1.27.95,1.92a9.56,9.56,0,0,1,1.1,4.14,1.18,1.18,0,0,1-.12.54l-.05.13s0,.09-.15.17-.21-.14-.29-.21a8.8,8.8,0,0,1-.6-.9c-.37-.61-.72-1.23-1.06-1.86L276,273.3a12.91,12.91,0,0,0-2.73-3.22,31.43,31.43,0,0,0-3.19-2.81,1.54,1.54,0,0,0-.88-.39c-.3,0-.5.32-.6.63a4.62,4.62,0,0,0,0,2.06,7.63,7.63,0,0,0,.26,1l.17.51a2.2,2.2,0,0,1,.05.57,6.65,6.65,0,0,1-.14,1.08,5.34,5.34,0,0,1-.16.53c-.09.16-.08.37-.41.5h0c-.21,0-.22-.16-.28-.23l-.11-.23c-.06-.15-.11-.3-.16-.45l-.31-.9a8.36,8.36,0,0,0-.36-.87,1.94,1.94,0,0,0-.22-.4c-.08-.15-.17-.19-.29-.41h0A19.76,19.76,0,0,1,266,267c-.06-.56-.1-1.12-.11-1.69a3.71,3.71,0,0,1,.27-1.7,11.76,11.76,0,0,0,.67-3.23c.06-.56,0-1.1,0-1.68L267,257a81.21,81.21,0,0,0,.21-13.41,19.15,19.15,0,0,0-1.53-6.45,21.13,21.13,0,0,1-1.85-6.5,70.42,70.42,0,0,1-.44-13.46V217l.11,0,.91-.44.14.37a55.12,55.12,0,0,1-8.21,1.69c-2.77.37-5.54.66-8.32.94a40.56,40.56,0,0,1-16.51-2.47l.25-.06a42.59,42.59,0,0,0-4.49,5.82,5.93,5.93,0,0,0-.71,1.62,16.92,16.92,0,0,0-.13,1.8l-.11,3.7A100.87,100.87,0,0,1,225,244.77a18.77,18.77,0,0,1-1,3.61,7.59,7.59,0,0,1-2.35,3,20.66,20.66,0,0,1-6.77,3.17,70.29,70.29,0,0,1-14.68,2.33l-.22,0-.08-.21-21.21-56.55c-3.55-9.42-7-18.86-10.49-28.31l-5.15-14.2-2.51-7.12c-.81-2.4-1.67-4.73-2.31-7.25l.54.35-8.55,2.31c-2.83.86-5.64,1.78-8.47,2.67-5.64,1.77-11.21,3.78-16.79,5.77q-16.68,6.09-33,13C81,172,70.22,176.85,59.7,182.27l-3.93,2-3.88,2.14c-2.61,1.4-5.12,2.95-7.65,4.48-1.29.74-2.48,1.6-3.72,2.41s-2.48,1.59-3.63,2.52-2.36,1.76-3.5,2.69l-3.25,2.95.11-.49L56,271.87l13.05,35.37,6.62,17.65c2.26,5.85,4.43,11.77,6.91,17.5l-.39-.25a106.13,106.13,0,0,0,16.43-2.37c2.73-.53,5.44-1.11,8.16-1.73s5.42-1.23,8.13-1.87c10.82-2.58,21.58-5.41,32.31-8.38s21.41-6.1,32-9.43l7.94-2.54,7.91-2.66c5.28-1.78,10.43-3.86,15.6-5.88l.18-.07.17.09,13.37,7,.75.39-.78.33q-18.56,7.63-37.62,13.92T148.3,340.22q-19.43,5-39.19,8.52c-13.17,2.35-26.42,4.24-39.76,5.31h.05a37.17,37.17,0,0,1-4.3.64,29.93,29.93,0,0,1-4.34.11,19.21,19.21,0,0,1-4.32-.65,11.34,11.34,0,0,1-4-1.94l0,0a44.42,44.42,0,0,1-7.29-6.53A94.91,94.91,0,0,1,39,338.19a162.53,162.53,0,0,1-10.66-16.31A224.71,224.71,0,0,1,12,286.56a204.59,204.59,0,0,1-9.84-37.64,138.88,138.88,0,0,1-1-38.84v0a6.92,6.92,0,0,1,.92-3.05,15,15,0,0,1,1.79-2.58,13.59,13.59,0,0,1,2.21-2.21l2.44-1.9,4.88-3.81,5-3.66C25,188,31.94,183.48,38.9,179.07a392.2,392.2,0,0,1,43.66-23.21A455.11,455.11,0,0,1,128.66,138c15.65-5.2,31.57-9.5,47.64-13.27l.06,0,0,0c1.92,2,3.6,4.08,5.41,6.09l.69.75.34.35c.05,0,.18,0,.18-.09s0-.09-.07-.18l-.1-.23-.2-.47-.41-.93c-.26-.63-.52-1.26-.74-1.91a4.68,4.68,0,0,1-.26-1,.77.77,0,0,1,0-.3.24.24,0,0,1,.15-.17.26.26,0,0,1,.2,0,1.55,1.55,0,0,1,.46.31c1.93,2,3,4.57,4.55,6.74a29.94,29.94,0,0,0,3.1,2.59c1.08.81,2.17,1.61,3.3,2.35a15.06,15.06,0,0,0,3.57,1.88l3.79,1.49,7.59,2.92,3.81,1.43c.64.23,1.27.45,1.92.66s1.3.31,2,.5c1.31.36,2.61.77,3.89,1.23.63.23,1.27.47,1.9.74a7.1,7.1,0,0,1,1.8,1h-.14a29.1,29.1,0,0,1,10.11-6.3,22.4,22.4,0,0,1,11.85-.59h.05v0l7.36,19.41c2.49,6.45,4.82,13,7.22,19.46l14.32,39h0c.43,4.9.68,9.81.85,14.73s.29,9.84.06,14.76a16.37,16.37,0,0,1-.18,1.84,14.19,14.19,0,0,0-.29,1.81,7.82,7.82,0,0,0,.77,3.55,14.29,14.29,0,0,0,2,3.09c.75,1,1.55,1.91,2.33,2.86,1.56,1.9,3.14,3.78,4.58,5.79a3.62,3.62,0,0,1,.46.82.33.33,0,0,1-.36.33,1.19,1.19,0,0,1-.46-.15,8.17,8.17,0,0,1-1.46-1.14C281.38,269,280.55,268.07,279.65,267.25Z" transform="translate(-0.24)"/><path class="cls-2" d="M438,129.73a360.24,360.24,0,0,1-39.73,60.05,394.64,394.64,0,0,1-50.55,51.31l-7,5.71c-1.17.95-2.31,1.92-3.5,2.85l-3.58,2.73-7.17,5.47-7.34,5.24-3.67,2.62-3.74,2.51-7.5,5L296.57,278l-3.82,2.39-3.89,2.29-7.78,4.55-7.9,4.35c-2.62,1.48-5.29,2.85-8,4.23s-5.32,2.79-8,4.11c-10.78,5.34-21.75,10.27-32.83,14.92l-.09,0-.08,0-13.39-7-.39-.21.41-.17c1.23-.54,2.46-1.1,3.66-1.7a18.56,18.56,0,0,0,3.4-2.09l-.06.24-17.88-47.27-.12-.32.34,0a70.7,70.7,0,0,0,14.56-2.3,20.29,20.29,0,0,0,6.59-3.07,7,7,0,0,0,2.2-2.77,18.76,18.76,0,0,0,1-3.5A98.84,98.84,0,0,0,225.74,230l.12-3.71a15.74,15.74,0,0,1,.14-1.89,6.29,6.29,0,0,1,.77-1.77,42.53,42.53,0,0,1,4.56-5.9l.12-.15.18.07a40.16,40.16,0,0,0,16.3,2.45c2.76-.28,5.54-.57,8.29-.93a54.92,54.92,0,0,0,8.14-1.67l.21.55-.91.43.16-.25a71.09,71.09,0,0,0,.43,13.37,21.09,21.09,0,0,0,1.8,6.34,19.66,19.66,0,0,1,1.58,6.62,82.07,82.07,0,0,1-.22,13.49l-.13,1.68c0,.5,0,1.11,0,1.68a12.07,12.07,0,0,1-.71,3.38,3.15,3.15,0,0,0-.23,1.52c0,.54.05,1.1.1,1.65a19.19,19.19,0,0,0,.61,3.23v0c-.05-.05.18.21.25.33a3.37,3.37,0,0,1,.25.45,8.84,8.84,0,0,1,.37.92l.31.9c.05.15.1.29.16.43l.08.18,0,0h0a.13.13,0,0,0-.12,0h0c-.17.05-.07,0-.06,0a1.72,1.72,0,0,0,.09-.19,3.64,3.64,0,0,0,.14-.47,5.71,5.71,0,0,0,.13-1,1.85,1.85,0,0,0,0-.43l-.17-.5a9.85,9.85,0,0,1-.27-1.07,4.89,4.89,0,0,1,0-2.28,1.65,1.65,0,0,1,.31-.58,1,1,0,0,1,.67-.35,1.91,1.91,0,0,1,1.18.47,31.68,31.68,0,0,1,3.24,2.86l1.51,1.52.38.38a4.45,4.45,0,0,1,.35.48c.2.31.38.62.56.93l2.07,3.74c.34.63.69,1.25,1,1.85a7.7,7.7,0,0,0,.57.84s.05.07.06.07v0a.22.22,0,0,0-.13,0,.26.26,0,0,0-.21.1c-.06.09,0,0,0,0l0-.05,0-.1a1.13,1.13,0,0,0,.1-.43,9.33,9.33,0,0,0-1.07-3.91c-.29-.65-.61-1.28-.94-1.91l-.49-.94-.25-.48a2,2,0,0,1-.13-.25l-.06-.14a.73.73,0,0,1,0-.4l.13-.33.31.18a3.8,3.8,0,0,1,1.22,1.29c.31.46.58.93.85,1.4l1.55,2.83a14.33,14.33,0,0,0,.83,1.33l.23.26c.06.09.18.08,0,.09s-.06,0-.06,0l0-.06a.31.31,0,0,0,.08-.11.84.84,0,0,0,.09-.28,6,6,0,0,0-.78-2.88c-.45-1-1-1.88-1.51-2.82l-.4-.71-.19-.38-.09-.22,0-.14a.66.66,0,0,1,0-.14.21.21,0,0,1,0-.08.5.5,0,0,1,.1-.17.34.34,0,0,1,.27-.13.33.33,0,0,1,.21,0,1,1,0,0,1,.17.12l.17.17.26.33.5.64,1.93,2.59c.32.42.65.84,1,1.24.18.2.35.4.53.58l.26.24.11.07s0,0-.13,0l-.09.07a1.21,1.21,0,0,0-.11-.72,7.23,7.23,0,0,0-.42-.95c-.33-.63-.7-1.25-1.08-1.86-.78-1.22-1.62-2.41-2.46-3.6l-.63-.89-.31-.46-.16-.26,0-.09a.31.31,0,0,1,0-.12.34.34,0,0,1,0-.22c.18-.27.41-.19.38-.19a.38.38,0,0,1,.16.06l.05,0,.07,0c.58.52,1.06,1,1.59,1.55s1,1,1.57,1.47a5.51,5.51,0,0,0,.83.59.79.79,0,0,0,.32.12s-.05,0,0,0h0s0,.08,0,.12,0,0,0,0a31.31,31.31,0,0,0-2.54-3.44L278.86,264c-.93-1.12-1.87-2.23-2.74-3.44a11.36,11.36,0,0,1-1.89-4.06,6.78,6.78,0,0,1-.13-2.29c0-.38.15-.77.2-1.12a8.23,8.23,0,0,0,.15-1c.13-1.42.16-2.88.18-4.33,0-2.91,0-5.82-.09-8.73-.17-5.81-.43-11.64-.94-17.42l-.25-2.8,1,2.63c2.84,7.64,5.7,15.27,8.65,22.87,1.48,3.79,3,7.58,4.54,11.34q1.17,2.82,2.42,5.6a44.55,44.55,0,0,0,2.77,5.37l-.52-.13c4.35-2.42,8.49-5.28,12.63-8.1s8.2-5.76,12.24-8.72Q329.2,240.74,341,231.4c7.85-6.23,15.61-12.59,23.12-19.22,3.76-3.32,7.45-6.71,11-10.23a73,73,0,0,0,9.74-11.3l0,.43L348,118.3l.42.25a1109.86,1109.86,0,0,0-111.08,8.63l.29-.82a10.68,10.68,0,0,1,1.34,2.07c.38.7.72,1.41,1.06,2.12q1,2.13,1.9,4.29c1.23,2.87,2.39,5.77,3.54,8.67l.34.85-.9-.19a21.85,21.85,0,0,0-11.54.58,28.59,28.59,0,0,0-9.89,6.18l-.33.3-.36-.32a6.8,6.8,0,0,0-1.62-.87c-.61-.26-1.24-.5-1.86-.73-1.27-.45-2.55-.87-3.84-1.22-.32-.08-.65-.17-.95-.22-.13,0-.36-.08-.54-.13l-.5-.16c-.66-.21-1.3-.44-1.94-.67l-3.82-1.43-7.59-2.94-3.79-1.48-.95-.38c-.34-.14-.65-.31-1-.47-.6-.35-1.19-.71-1.76-1.09-1.14-.76-2.25-1.56-3.33-2.38-.55-.41-1.08-.83-1.62-1.26a15.42,15.42,0,0,1-1.58-1.41c-.87-1.19-1.46-2.35-2.18-3.51a16.7,16.7,0,0,0-2.29-3.18.51.51,0,0,0-.16-.12l-.12-.08a.31.31,0,0,0,.18,0,.31.31,0,0,0,.18-.18s0,0,0,.07a5,5,0,0,0,.24.89c.21.62.47,1.25.73,1.87l.4.93.2.46.1.24.05.11a.81.81,0,0,1,.06.33.68.68,0,0,1-1.06.5,1.13,1.13,0,0,1-.15-.14l-.09-.09-.18-.19-.69-.76c-1.81-2-3.52-4.17-5.37-6l-.54-.55.73-.17a681.85,681.85,0,0,1,71-12.25q35.76-4.31,71.8-5.53,18-.6,36-.6t36,.63c6,.2,12,.46,18,.73l18,.8c3,.16,6,.32,9,.78a20.78,20.78,0,0,1,4.37,1.12,5.67,5.67,0,0,1,3.3,3,7.46,7.46,0,0,1,.09,4.46,25.22,25.22,0,0,1-1.5,4.25A77.64,77.64,0,0,1,438,129.73Zm-.08,0a82.69,82.69,0,0,0,4.21-8,25.25,25.25,0,0,0,1.48-4.23,7.35,7.35,0,0,0-.09-4.38,5.62,5.62,0,0,0-3.23-2.87,20.15,20.15,0,0,0-4.34-1.09,89.27,89.27,0,0,0-8.95-.76l-18-.76c-6-.25-12-.5-18-.68q-18-.54-36-.54t-36,.69q-36,1.35-71.74,5.7a682.79,682.79,0,0,0-70.86,12.44l.19-.71c2,2,3.63,4.08,5.45,6.09l.68.74.29.31a.19.19,0,0,0-.3.14.38.38,0,0,0,0,.08l0-.12-.1-.23-.21-.47-.4-.93c-.27-.63-.53-1.27-.76-1.93a5.73,5.73,0,0,1-.28-1.07,1,1,0,0,1,0-.43.54.54,0,0,1,.33-.37.61.61,0,0,1,.43,0,2,2,0,0,1,.31.18,1.8,1.8,0,0,1,.25.18,17,17,0,0,1,2.48,3.39c.71,1.13,1.38,2.39,2.11,3.39a14.51,14.51,0,0,0,1.46,1.28c.53.42,1.06.84,1.6,1.24,1.07.81,2.17,1.6,3.29,2.34.56.37,1.13.72,1.7,1.05.29.15.58.3.86.42l.94.37,3.79,1.47,7.59,2.92,3.81,1.41c.63.23,1.27.46,1.9.66l.47.15c.16,0,.24.07.45.1.37.07.69.15,1,.24,1.33.36,2.63.78,3.92,1.23.65.24,1.29.47,1.93.75a7.25,7.25,0,0,1,1.92,1.09l-.69,0a29.51,29.51,0,0,1,10.25-6.38,22.79,22.79,0,0,1,12.06-.6l-.56.66c-1.14-2.89-2.3-5.79-3.52-8.65-.61-1.43-1.23-2.85-1.89-4.26-.33-.69-.67-1.39-1-2.07A10.31,10.31,0,0,0,237,127l-.63-.71.92-.11a1108.58,1108.58,0,0,1,111.18-8.58h.29l.13.26,36.76,72.8.11.22-.13.2a74.09,74.09,0,0,1-9.88,11.45c-3.57,3.54-7.28,6.93-11,10.25-7.54,6.64-15.31,13-23.18,19.24s-15.86,12.3-24,18.22c-4,3-8.13,5.89-12.27,8.73s-8.28,5.68-12.7,8.14l-.32.18L292,267a45.27,45.27,0,0,1-2.83-5.49c-.83-1.86-1.64-3.74-2.42-5.62-1.56-3.77-3.06-7.56-4.54-11.36-2.95-7.61-5.8-15.24-8.63-22.89l.72-.16c.52,5.82.77,11.64.94,17.47.07,2.92.12,5.84.08,8.76,0,1.46-.06,2.92-.19,4.39a9,9,0,0,1-.16,1.13c-.06.38-.17.68-.19,1a6.22,6.22,0,0,0,.11,2.06c.59,2.77,2.65,4.95,4.48,7.2l2.77,3.38,1.35,1.73a14.94,14.94,0,0,1,1.28,1.87,1.3,1.3,0,0,1,.07.23.61.61,0,0,1,0,.25l-.06.11a.63.63,0,0,1-.49.29,1.34,1.34,0,0,1-.72-.2,6.6,6.6,0,0,1-.94-.67c-.57-.49-1.1-1-1.62-1.51s-1-1.06-1.54-1.51l0,0h0l.09,0a.36.36,0,0,0,.36-.18.32.32,0,0,0,0-.2c0-.07,0,0,0-.05l0,0,.13.21.3.44.62.89c.85,1.19,1.69,2.39,2.47,3.63.39.62.78,1.25,1.12,1.91a9,9,0,0,1,.46,1.05,3.18,3.18,0,0,1,.15.59,1,1,0,0,1-.17.79l0,.05-.05,0a.55.55,0,0,1-.52,0,1.54,1.54,0,0,1-.23-.14c-.13-.1-.23-.2-.34-.3s-.38-.41-.56-.62c-.36-.42-.69-.84-1-1.27l-1.93-2.59-.48-.64-.25-.29-.11-.12s-.05,0,0,0h.12a.32.32,0,0,0,.18-.09.27.27,0,0,0,.07-.14v0s0,0,0,0l0,.05.07.15.17.35.38.69c.53.94,1.07,1.88,1.54,2.87a13,13,0,0,1,.62,1.54,4.16,4.16,0,0,1,.21,1.75,1.59,1.59,0,0,1-.16.48,1.07,1.07,0,0,1-.15.22l-.08.1a.74.74,0,0,1-.23.14.68.68,0,0,1-.68-.24,3,3,0,0,1-.3-.34,12.6,12.6,0,0,1-.88-1.41L278.84,274c-.26-.46-.53-.92-.82-1.36a3.51,3.51,0,0,0-.94-1l.44-.16c.07,0,0-.17,0-.14l.05.11.11.22.25.47.5.95c.33.63.65,1.27.94,1.93a9.63,9.63,0,0,1,1.12,4.26,1.62,1.62,0,0,1-.13.6l-.06.15,0,.08s0,0-.06.09a.52.52,0,0,1-.27.13.66.66,0,0,1-.25-.09l-.09-.07a1.31,1.31,0,0,1-.12-.13,9.39,9.39,0,0,1-.62-.93c-.38-.62-.72-1.24-1.07-1.87l-2.06-3.73c-.17-.31-.35-.62-.54-.91a2.88,2.88,0,0,0-.28-.38l-.37-.38-1.5-1.51a31.61,31.61,0,0,0-3.15-2.79c-.28-.19-.58-.39-.75-.36s-.33.21-.43.49a4.47,4.47,0,0,0,0,2c.07.34.15.67.25,1l.17.51a2.06,2.06,0,0,1,.06.63,5.92,5.92,0,0,1-.15,1.12,3.92,3.92,0,0,1-.16.56c0,.09-.08.18-.14.29a1.1,1.1,0,0,1-.12.16.29.29,0,0,1-.1.09.6.6,0,0,1-.21.08h0a.45.45,0,0,1-.23-.08c-.08,0-.07-.06-.1-.09a.55.55,0,0,1-.11-.15l-.12-.25c-.07-.16-.12-.32-.17-.47l-.31-.9a7.92,7.92,0,0,0-.34-.85,4.32,4.32,0,0,0-.21-.38c-.09-.16-.12-.11-.32-.44h0a18.88,18.88,0,0,1-.64-3.37,16,16,0,0,1-.1-1.71,6.43,6.43,0,0,1,0-.87,3.69,3.69,0,0,1,.08-.46l.09-.26.08-.17a11.32,11.32,0,0,0,.66-3.19c.06-.55,0-1.06.05-1.67l.13-1.69a82,82,0,0,0,.23-13.38,19.21,19.21,0,0,0-1.51-6.4,21.53,21.53,0,0,1-1.85-6.54,70.75,70.75,0,0,1-.42-13.49V217l.16-.08.91-.43.21.55a52.56,52.56,0,0,1-8.22,1.68c-2.78.37-5.54.66-8.32.94a40.79,40.79,0,0,1-16.53-2.5l.3-.08a42.39,42.39,0,0,0-4.5,5.81,5.81,5.81,0,0,0-.71,1.6,17.12,17.12,0,0,0-.13,1.8l-.12,3.71a99.52,99.52,0,0,1-1.25,14.8,17.83,17.83,0,0,1-1,3.6,7.53,7.53,0,0,1-2.35,3,20.81,20.81,0,0,1-6.77,3.15,70.93,70.93,0,0,1-14.67,2.31l.22-.35,17.8,47.29.06.15-.12.09a18,18,0,0,1-3.49,2.15c-1.21.61-2.44,1.17-3.69,1.71l0-.39,13.37,7.05h-.17c11.09-4.64,22.06-9.54,32.84-14.87,2.7-1.3,5.35-2.73,8-4.09s5.34-2.73,8-4.21l7.9-4.33,7.79-4.54,3.89-2.28,3.82-2.38,7.65-4.77,7.5-5,3.75-2.5,3.67-2.62,7.34-5.23,7.17-5.46,3.58-2.73c1.18-.93,2.33-1.89,3.5-2.84l7-5.7a395,395,0,0,0,50.56-51.26A360.49,360.49,0,0,0,437.89,129.68Z" transform="translate(-0.24)"/><path class="cls-3" d="M351.53,386.86l-.2.26a5.78,5.78,0,0,1-7.37,1.53l-76.77-41.46-52.83-28.53-13.28-7.17L192.76,307l-25.51-13.78a3.52,3.52,0,0,1-1.43-4.75l.11-.2A3.75,3.75,0,0,1,171,286.7l32.23,16.92,7.68,4,13.38,7,61.92,32.51,63.9,33.55A4.11,4.11,0,0,1,351.53,386.86Z" transform="translate(-0.24)"/><path class="cls-3" d="M250.63,8.53l-63.37,86-24.9,33.78-12.78,17.33-19.31,26.19-.36.49a3,3,0,0,1-2.41.48h0c-1.89-.37-3.56-2.24-2.87-4.22l13.81-19.41,12.68-17.83L177.3,94.48l66.18-93C246.48-1.29,254.18,2.14,250.63,8.53Z" transform="translate(-0.24)"/><path class="cls-4" d="M284.75,276.39c-.63.38-4.72-5.91-5.13-6-.8-.2,4.27,6.37,2.62,8-.76.76-3.55-6.5-5-7.17-.12.24,4,6.54,2.79,8.64-.28.5-4-7.11-4.79-7.94s-4.67-4.8-5.78-5.14-1.56,1.63-.59,4.28c.22.6-.17,2.55-.53,2.58s-.78-2.53-1.53-3.29a.32.32,0,0,1-.08-.12c-.53-1.67-1-5.52-.55-6.44a11.91,11.91,0,0,0,.79-4.6c-.06-1.39,1.94-16.31-1.21-22.26s-2.21-19.78-2.21-19.78l.91-.43,6.59-3.14,1.91-.91a.37.37,0,0,1,0,.11c0,1.19-.38,2.06-.15,2.18.43.2.84,2.79,1.19,6.54h0c.94,10.19,1.43,29,.66,31.77-1.07,3.88,2.12,7.47,2.6,8.13s7.51,8.9,7.3,9.42c-.44,1.13-3.81-2.76-4.85-3.63S285.78,275.16,284.75,276.39Z" transform="translate(-0.24)"/><path class="cls-4" d="M95.41,284.16c3.66-1.39,8.65-2.79,11.18-3.7-1,1.12-1.74,2-2.18,2.56-2,2.38-9.42,5.38-10.93,7.07A10.72,10.72,0,0,0,92,292.34c-4.32,1.05-7.87,1.37-8.57-1.34C83,289.37,91.32,285.72,95.41,284.16Z" transform="translate(-0.24)"/><path class="cls-4" d="M184.22,249.49c-3.5,1.36-6.6,2.62-7.59,3-2.34,1-8.34,3.3-10.13,5.15S148.59,270.5,146.33,271s-22,9.63-23.59,9.78a19.85,19.85,0,0,0-6.29,2.48c-1.4.9-2.06,3.86-2.89,4.64s-4.08,2.07-5,1.7a2.92,2.92,0,0,0-.42-.13c.19-.23.39-.45.58-.64,2.9.15,4.34-.09,4.65-2.36a3.92,3.92,0,0,1,2.09-3.4c.83-.49,2.52-3.49,5.25-4.84S148,258.62,153,254.59c4.35-3.44,10.48-6.62,14.14-11.08l2.31-1.67s5.76-4,10.36-7C181,239.88,182.14,245.3,184.22,249.49Z" transform="translate(-0.24)"/><path class="cls-4" d="M179.36,232.84a100.58,100.58,0,0,0-10.62,8.38,14.73,14.73,0,0,1-1.6,2.29c-3.66,4.46-9.79,7.64-14.14,11.08-5,4-29.58,22.33-32.31,23.68s-4.42,4.35-5.25,4.84a3.92,3.92,0,0,0-2.09,3.4c-.31,2.27-1.75,2.51-4.65,2.36-.19.19-.39.41-.58.64-1.36,1.62-2.71,3.95-3.55,5.07-.94,1.28-9.49,4.73-10.44,4.8s-1.5-1.13-1.49-2.27-1.08-1.09-1.46-1.7c-.25-.38.12-1.71.81-3.07a10.72,10.72,0,0,1,1.49-2.25c1.51-1.69,8.92-4.69,10.93-7.07.44-.53,1.23-1.44,2.18-2.56l8.81-10.36c3.29-6.29,26.33-28.93,32.55-32,2.08-.87,12.43-7,14.14-11.26s7.7-7.88,9-10.63c.32-.67,1.06-1.92,2-3.46a36,36,0,0,0,3.44,11.17A45.13,45.13,0,0,1,179.36,232.84Z" transform="translate(-0.24)"/><path class="cls-4" d="M227.45,154l-.73.72a36.38,36.38,0,0,0-6.73,5.63c-.78-.33-2.13-.92-3.77-1.67-3.92-1.81-9.45-4.62-12.45-7.26-5-4.39-14.1-6.75-15.65-6.75s-3.1.77-8.66,0-6.89-3.42-6.2-3.7,7.5,2.07,7.59.68-9.66-11.9-8.73-13.46c.28-.48,6.94,7.67,6.79,6.8-.38-2.12-5.76-8.24-4.85-9.09.16-.15,4.73,5.16,6,6.81,0,0,.2,0,.18-.09a87.72,87.72,0,0,1-4.25-7.72.74.74,0,0,1-.08-.36c0-.06.19,0,.44.28,1.27,1.18,4.92,5.65,6.42,7.16a.24.24,0,0,0,.39-.27c-.59-1.36-2.45-5.41-1.51-4.95,1.42.68,4.12,6.16,5,7.11s6.75,5.48,9.06,6.39,17.49,6.89,18.84,7.08,7.51,2.14,8.59,3.14l.07.06C224.28,151.56,226.3,153.09,227.45,154Z" transform="translate(-0.24)"/><path class="cls-5" d="M231.54,216.86c-2.43,2.74-5.13,6.12-5.31,7.75-.33,3,0,18.78-2.67,24.11-2.33,4.63-11.73,7.06-23.38,7.83-.92.07-1.86.12-2.81.16s-1.77.07-2.66.09c-5.16.13-8.32-2.92-10.49-7.31-2.08-4.19-3.27-9.61-4.41-14.67-.16-.67-.3-1.33-.45-2a45.13,45.13,0,0,0-2.77-8.9,36.13,36.13,0,0,1-3.44-11.17,35.55,35.55,0,0,1,2.17-17.21c.32-.88.68-1.78,1.07-2.68.06-.15.13-.31.2-.46,1.35-3,23.88-.68,23.88-.68l8.77-6.88a21.73,21.73,0,0,0,1,3.51c5.9,15.9,10,22.24,10.81,23.25C221.48,212.18,225.68,214.8,231.54,216.86Z" transform="translate(-0.24)"/><path class="cls-6" d="M284.87,200c-3.87,6.09-7.84,10.1-11.93,12.8h0c-.59.4-1.19.76-1.79,1.1a32.15,32.15,0,0,1-6.7,2.84c-5,1.49-10.18,1.93-15.64,2.53a39.94,39.94,0,0,1-17.26-2.4c-5.86-2.06-10.06-4.68-10.53-5.24-.86-1-4.91-7.35-10.81-23.25a21.73,21.73,0,0,1-1-3.51c-1.6-8.5,1.61-18.26,7-26.17a46.89,46.89,0,0,1,4.95-6.15q1-1,2-2a34.19,34.19,0,0,1,4.71-3.66,25.53,25.53,0,0,1,4.43-2.28,22,22,0,0,1,12.73-.93c8.76,1.86,15.78,8,17.26,10.56,2.15,3.69,8.42,9.57,9.9,9.86C277.66,165.13,295.89,182.68,284.87,200Z" transform="translate(-0.24)"/><path class="cls-2" d="M284.91,200A42.14,42.14,0,0,1,273,212.86h0a34.67,34.67,0,0,1-13,5.06c-2.3.45-4.61.75-6.93,1l-3.48.39a34.11,34.11,0,0,1-3.51.27,41.66,41.66,0,0,1-13.82-2.25,54.89,54.89,0,0,1-6.52-2.64c-1.05-.51-2.1-1.05-3.11-1.65a17.36,17.36,0,0,1-1.49-1,5.83,5.83,0,0,1-1.14-1.44,96.13,96.13,0,0,1-6.27-12.56c-.93-2.15-1.79-4.32-2.65-6.49l-1.25-3.28a22.85,22.85,0,0,1-.92-3.43,30.08,30.08,0,0,1,1-14A46.21,46.21,0,0,1,216,158.21a44.67,44.67,0,0,1,9.61-10.32,28.67,28.67,0,0,1,6.13-3.58,21.65,21.65,0,0,1,6.95-1.6,27.32,27.32,0,0,1,13.75,3.11,34.26,34.26,0,0,1,6,3.8,25,25,0,0,1,2.66,2.38,15.7,15.7,0,0,1,1.18,1.37c.38.53.65,1,1,1.49a37.79,37.79,0,0,0,4.5,5.23c.82.81,1.67,1.6,2.56,2.33a15.79,15.79,0,0,0,1.36,1l.35.2a2.76,2.76,0,0,0,.32.12,5.15,5.15,0,0,1,.89.29,20.28,20.28,0,0,1,5.76,4.15,35.44,35.44,0,0,1,4.52,5.41,32.75,32.75,0,0,1,3.27,6.23,24.75,24.75,0,0,1,1.58,6.84,20.47,20.47,0,0,1-.6,7A22.67,22.67,0,0,1,284.91,200Zm-.08-.06a22.57,22.57,0,0,0,2.77-6.37,19.86,19.86,0,0,0,.53-6.91,26.71,26.71,0,0,0-5-12.81,34.29,34.29,0,0,0-4.54-5.23,19.57,19.57,0,0,0-5.61-3.89,4.55,4.55,0,0,0-.77-.24,3,3,0,0,1-.51-.17l-.42-.23a14.27,14.27,0,0,1-1.46-1.05c-.93-.74-1.8-1.53-2.65-2.35a38.26,38.26,0,0,1-4.67-5.32c-.35-.5-.65-1-1-1.44a16.53,16.53,0,0,0-1.11-1.27,27.9,27.9,0,0,0-2.57-2.28,33.79,33.79,0,0,0-5.81-3.69,26.45,26.45,0,0,0-13.25-3,21,21,0,0,0-6.63,1.52,27.2,27.2,0,0,0-6,3.43,43.62,43.62,0,0,0-9.46,10,45.16,45.16,0,0,0-6.08,12.41,29.47,29.47,0,0,0-1.08,13.66,21.5,21.5,0,0,0,.88,3.33l1.23,3.27c.84,2.17,1.69,4.34,2.6,6.48a96.83,96.83,0,0,0,6.17,12.51,5.72,5.72,0,0,0,1,1.3,16.12,16.12,0,0,0,1.43.95c1,.59,2,1.13,3.06,1.65a56.17,56.17,0,0,0,6.44,2.64,41.15,41.15,0,0,0,13.67,2.36,33.69,33.69,0,0,0,3.47-.23l3.48-.36c2.32-.25,4.64-.54,6.93-1a34.09,34.09,0,0,0,12.94-5h0A41.83,41.83,0,0,0,284.83,200Z" transform="translate(-0.24)"/><path class="cls-2" d="M264.33,187.56a15.75,15.75,0,0,1-5.62,8,16.66,16.66,0,0,1-9.24,3.31,16.72,16.72,0,0,1-13.41-5.64,16.22,16.22,0,0,1-2.66-4.26,15,15,0,0,1-1.18-4.9,14.48,14.48,0,0,1,.44-5,15.71,15.71,0,0,1,5.47-8.36,17.81,17.81,0,0,1,4.4-2.47,17,17,0,0,1,4.92-1,16.29,16.29,0,0,1,9.53,2.37l-.05.09a16.82,16.82,0,0,0-18.17,1.83,15.32,15.32,0,0,0-5.14,7.83,13.68,13.68,0,0,0-.51,4.72,14,14,0,0,0,1,4.65,15.85,15.85,0,0,0,2.46,4.1,16.8,16.8,0,0,0,3.64,3.14,16.52,16.52,0,0,0,18.29-.59,15.51,15.51,0,0,0,5.71-7.75Z" transform="translate(-0.24)"/><path class="cls-7" d="M257,169.55" transform="translate(-0.24)"/></g></svg>