<?xml version="1.0" encoding="utf-8"?>
<!-- Generator: Adobe Illustrator 25.0.0, SVG Export Plug-In . SVG Version: 6.00 Build 0)  -->
<svg version="1.1" id="Calque_1" xmlns="http://www.w3.org/2000/svg" xmlns:xlink="http://www.w3.org/1999/xlink" x="0px" y="0px"
	 viewBox="0 0 68.6 152.7" style="enable-background:new 0 0 68.6 152.7;" xml:space="preserve">
<style type="text/css">
	.st0{fill:none;stroke:#BA9664;stroke-width:0.5;stroke-miterlimit:10;}
	.st1{fill:#BA9664;}
</style>
<path class="st0" d="M67.9,125.3l0.1,11.1l0,2.8c0,0.9,0,1.9-0.1,2.8c-0.3,1.8-1,3.6-2,5.1c-1.1,1.5-2.5,2.8-4.1,3.7
	c-1.6,0.9-3.5,1.4-5.4,1.5c-3.7,0.1-7.4,0-11.1,0.1l-22.1,0.1c-3.7,0-7.3,0.1-11.1,0c-3.8-0.1-7.4-2.3-9.6-5.4
	c-1.1-1.6-1.8-3.4-2-5.3c-0.1-0.9-0.1-1.9-0.1-2.8l0-2.8l0-11.1l0-22.1l0.2-22.1l0.1-11.1l0.2-11.1h0.1L1,69.8l0.1,11.1L1.3,103
	l0,22.1l0,11.1l0,2.8c0,0.9,0,1.8,0.1,2.7c0.2,1.8,0.9,3.5,1.9,4.9c2,2.9,5.4,5,9,5.1c3.6,0.1,7.4,0,11,0.1l22.1,0.1
	c3.7,0,7.4,0.1,11,0c1.8-0.1,3.6-0.5,5.2-1.4c1.6-0.9,3-2.1,4-3.6c1.1-1.5,1.8-3.2,2-5c0.2-0.9,0.2-1.8,0.2-2.7l0-2.8l0-11.1H67.9z"
	/>
<path class="st1" d="M68.1,82.3h-0.6l-0.2-9.9l-0.3-29l0-19.4l0-9.7c0-1.5,0-3.1-0.4-4.6c-0.4-1.5-1.1-2.9-2-4.1
	c-1.9-2.4-4.8-4-7.8-4.3c-0.7-0.1-1.5-0.1-2.4-0.1L13.4,1c-1.8,0-3.3,0.2-4.6,0.7c-2.9,1-5.4,3.4-6.7,6.2C1,10.1,1,12.6,1.1,15
	c0,0.7,0,1.5,0,2.3l0,0.2H0.5l0-5.1c0-1.7,0.4-3.3,1-4.8c1.3-3,4-5.5,7.1-6.7c1.4-0.5,3.1-0.8,4.9-0.8L54.5,0c0.9,0,1.7,0,2.5,0
	c3.4,0.3,6.6,2,8.7,4.7c1.1,1.3,1.9,2.9,2.3,4.5c0.5,1.6,0.5,3.2,0.5,5l0,9.7l0,19.4l-0.3,29L68.1,82.3z M54.9,0.7
	c0.8,0,1.4,0,2,0.1c3.2,0.3,6.2,2,8.2,4.5c1,1.2,1.7,2.7,2.1,4.2c0.5,1.6,0.4,3.3,0.4,4.8l0,9.7l0,19.4L67.9,70l0.2-26.7l0-19.4
	l0-9.7c0-1.8,0-3.3-0.5-4.8c-0.4-1.6-1.2-3.1-2.2-4.3c-2-2.6-5.2-4.3-8.4-4.5c-0.7,0-1.5-0.1-2.4,0L27.9,0.6h0l26.6,0.1
	C54.7,0.7,54.8,0.7,54.9,0.7z"/>
</svg>
