<svg id="ba5b7a11-a2cc-4f3a-802d-b23920bad44d" data-name="Calque 1" xmlns="http://www.w3.org/2000/svg" width="98.71mm" height="222.74mm" viewBox="0 0 279.82 631.4"><path d="M2.77,243.88l.88,45.76.54,45.77,1,91.54.21,91.54-.08,45.77,0,11.44c0,3.82-.1,7.62.28,11.32A47.59,47.59,0,0,0,13,607.89,48.29,48.29,0,0,0,29.05,623a45.09,45.09,0,0,0,21.14,6.15l45.73.15,45.77.08,45.76.21,45.74.32a48.21,48.21,0,0,0,21.4-5.51,50.61,50.61,0,0,0,16.69-14.63,47.51,47.51,0,0,0,8.47-20.56,69.92,69.92,0,0,0,.71-11.27l.15-11.44.74-45.76h.3l.33,45.77L282,578a72.48,72.48,0,0,1-.56,11.55A49.47,49.47,0,0,1,273,611a51.74,51.74,0,0,1-17.25,15.5,50.7,50.7,0,0,1-22.48,6l-45.8.09-45.77-.09-45.77-.23-45.8-.44a47.6,47.6,0,0,1-22.33-6.64,50.72,50.72,0,0,1-16.83-16,50.14,50.14,0,0,1-7.6-22c-.37-3.9-.24-7.75-.23-11.55l.08-11.44.3-45.77L3.73,427l-.44-91.53-.24-45.77-.58-45.76Z" transform="translate(-2.2 -1.24)" style="fill:#ba9663"/><path d="M281.92,340.68h-.57v-.15l-.89-40.07-.53-40.07-1-80.15-.22-80.15L278.75,60c.05-6.68.23-13.34-1.38-19.64A47.27,47.27,0,0,0,254.16,10.3a46.08,46.08,0,0,0-18.51-5.55c-3.28-.21-6.57-.23-9.92-.19H195.67L155.6,4.47l-40.08-.22L75.45,3.84,55.4,3.63A53.71,53.71,0,0,0,36.06,6.3,49.11,49.11,0,0,0,7.67,32.07C4.67,38,3.55,44.6,3.18,51.22s-.1,13.34-.41,20v.15H2.2v-.3h.42l-.16.15c.13-6.67-.34-13.34-.12-20.05s1.15-13.53,4.09-19.7A50.86,50.86,0,0,1,35.35,4.32,54.22,54.22,0,0,1,55.43,1.25h60.11l40.07.1,40.07.23,20,.15,10,.07c3.34,0,6.73,0,10.11.27a49.75,49.75,0,0,1,43.75,37.74C281.26,46.53,281,53.4,280.93,60l-.31,40.07-.23,80.14.44,80.14.24,40.07.58,40.07-.15-.15h.42Z" transform="translate(-2.2 -1.24)" style="fill:#ba9663"/></svg>