<?xml version="1.0" encoding="utf-8"?>
<!-- Generator: Adobe Illustrator 25.0.0, SVG Export Plug-In . SVG Version: 6.00 Build 0)  -->
<svg version="1.1" id="Calque_1" xmlns="http://www.w3.org/2000/svg" xmlns:xlink="http://www.w3.org/1999/xlink" x="0px" y="0px"
	 viewBox="0 0 141.7 134.7" style="enable-background:new 0 0 141.7 134.7;" xml:space="preserve">
<style type="text/css">
	.st0{fill:#C0955E;}
</style>
<g>
	<path class="st0" d="M90.8,107.3c-4.5-0.7-8.6-3.3-11.4-6.9c-1.4-1.8-2.4-3.9-2.9-6.1c-0.5-2.2-0.4-4.6,0.1-6.8l0.4-1.7l0.6-1.6
		c0.4-1.1,0.9-2.1,1.4-3.1c1-2,2.2-4,3.4-5.9c2.4-3.8,5.2-7.5,8.2-10.9c1.5-1.7,3.1-3.3,4.8-4.8c1.7-1.5,3.5-2.9,5.6-4
		c1-0.5,2.1-1,3.3-1.1c0.3-0.1,0.6,0,0.9-0.1c0.3,0,0.5,0,0.8,0c0.6,0,1.1-0.1,1.7-0.2c2.2-0.4,4.4-1.1,6.4-1.9
		c2.1-0.8,4.1-1.8,6.1-2.8c2-1.1,4-2.2,5.6-3.6c0.2-0.2,0.4-0.4,0.4-0.5c0-0.1,0.1-0.3,0.3-0.4c0.2-0.1,0.3,0,0.4,0
		c0.2,0,0.3,0.1,0.5,0.2c0.5,0.3,1,0.7,1.4,1.1c0.8,0.8,1.6,1.6,2.3,2.5c1.5,1.8,2.7,3.7,3.9,5.7c1.1,2,2,4.1,2.6,6.4
		c0.6,2.2,0.8,4.6,0.3,6.9c-0.5,2.2-0.8,4.4-0.7,6.6c0.1,2.2,0.7,4.3,1.6,6.4c0.8,2.1,1.9,4.1,2.5,6.4l0.2,0.9
		c0,0.3,0.1,0.6,0.1,0.9c0,0.6,0,1.2-0.1,1.8c-0.1,1.2-0.3,2.3-0.6,3.4c-1.1,4.5-2.8,8.7-5,12.7c-2.3,3.9-5.2,7.6-9,10.3
		c-3.7,2.8-8.2,4.3-12.8,4.4c-2.3,0-4.6-0.2-6.8-0.8c-0.6-0.1-1.1-0.3-1.6-0.5c-0.5-0.2-1.1-0.3-1.6-0.5c-1.1-0.4-2.1-0.9-3.1-1.5
		c-2-1.1-3.9-2.3-5.5-4c-0.8-0.8-1.5-1.8-1.8-2.9c-0.1-0.6-0.2-1.2-0.1-1.7c0.1-0.6,0.4-1.1,0.7-1.6l0.1,0.1c-0.3,0.5-0.5,1-0.6,1.5
		c-0.1,0.5,0,1.1,0.1,1.6c0.3,1.1,1,2,1.8,2.7c1.6,1.6,3.6,2.7,5.6,3.8c1,0.5,2,1,3.1,1.4c0.5,0.2,1.1,0.3,1.6,0.5
		c0.5,0.2,1.1,0.3,1.6,0.4c2.2,0.5,4.4,0.7,6.7,0.7c4.5-0.1,8.8-1.7,12.4-4.4c3.6-2.7,6.4-6.3,8.6-10.2c2.2-3.9,3.9-8.1,4.9-12.5
		c0.2-1.1,0.5-2.2,0.6-3.3c0.1-0.5,0.1-1.1,0.1-1.6c0-0.3,0-0.5-0.1-0.8l-0.2-0.8c-0.5-2.1-1.6-4.1-2.5-6.2
		c-0.9-2.1-1.5-4.4-1.6-6.7c-0.1-2.3,0.3-4.6,0.8-6.8c0.5-2.1,0.3-4.4-0.3-6.5c-0.5-2.1-1.4-4.2-2.5-6.2c-1.1-2-2.3-3.8-3.8-5.6
		c-0.7-0.9-1.5-1.7-2.3-2.5c-0.4-0.4-0.8-0.7-1.3-1c-0.1-0.1-0.2-0.1-0.3-0.1c0,0,0,0,0,0c0,0,0.1-0.1,0.1-0.1
		c-0.2,0.4-0.4,0.6-0.6,0.8c-1.8,1.6-3.8,2.6-5.8,3.7c-2,1.1-4.1,2-6.2,2.8c-2.1,0.8-4.3,1.5-6.6,1.9c-0.6,0.1-1.1,0.1-1.7,0.2
		c-0.3,0-0.6,0-0.9,0c-0.3,0-0.5,0-0.8,0c-1.1,0.1-2.1,0.5-3.1,1c-2,1-3.8,2.4-5.5,3.9c-1.7,1.5-3.3,3.1-4.8,4.8
		c-3,3.3-5.8,6.9-8.2,10.7c-1.2,1.9-2.4,3.8-3.4,5.9c-0.5,1-1,2-1.4,3.1l-0.6,1.6l-0.4,1.6c-0.5,2.2-0.6,4.5-0.1,6.7
		c0.5,2.2,1.5,4.3,2.8,6.1C82.3,103.8,86.4,106.4,90.8,107.3L90.8,107.3z"/>
</g>
<g>
	<path class="st0" d="M126.7,46.5c-0.1,2.1-0.5,4.3-0.8,6.4c-0.3,2.1-0.7,4.2-1.2,6.3c-0.3,1-0.5,2.1-1.1,3.1
		c-0.6,0.9-1.2,1.8-2,2.6c-1.4,1.6-2.9,3.2-4.2,4.8c-0.7,0.8-1.2,1.7-1.8,2.6c-0.5,0.9-0.9,1.9-1.4,2.9c-0.9,2-1.6,3.9-2.3,6
		c-0.3,1-0.6,2-0.9,3.1c-0.3,1-0.4,2.1-0.7,3.1c-0.6,2.1-1.5,4.1-2.6,6c-1.1,1.9-2.4,3.7-4.1,5.1c-1.7,1.3-3.4,2.6-5,4.1
		c-3.2,2.8-6.3,5.8-9.1,9c-2.8,3.2-5.4,6.6-7.5,10.3c-1,1.9-1.9,3.8-2.6,5.8c-0.7,2-1.1,4.1-1.1,6.3l-0.1,0
		c-0.1-2.2,0.2-4.3,0.8-6.4c0.6-2.1,1.4-4.1,2.4-6c2-3.9,4.6-7.4,7.4-10.6c2.9-3.2,5.9-6.3,9.2-9.1c1.6-1.4,3.3-2.7,5.1-4
		c1.6-1.3,2.9-3,4-4.8c1.1-1.8,2-3.7,2.6-5.8c0.3-1,0.5-2.1,0.8-3.1c0.3-1,0.6-2.1,0.9-3.1c0.7-2,1.5-4,2.4-6c0.5-1,0.9-2,1.4-2.9
		c0.5-0.9,1.2-1.8,1.8-2.7c1.3-1.7,2.9-3.2,4.3-4.8c0.7-0.8,1.4-1.6,2-2.5c0.6-0.9,0.8-1.9,1.1-3c0.5-2.1,0.9-4.2,1.3-6.3
		C126,50.8,126.4,48.6,126.7,46.5L126.7,46.5z"/>
</g>
<g>
	<path class="st0" d="M117.4,52.1c0.3,1,0.6,2.1,1.1,3c0.5,0.9,1.1,1.8,1.7,2.8c0.5,1,1.1,2,1.2,3.1c0.2,1.1,0,2.3-0.5,3.3l-0.1,0
		c-0.1-1.1-0.1-2.1-0.4-3.1c-0.3-1-0.5-2-1-3c-0.4-1-1-1.9-1.4-2.9C117.6,54.3,117.4,53.2,117.4,52.1L117.4,52.1z"/>
</g>
<g>
	<path class="st0" d="M114.3,53.4c1,2.4,1.2,5.1,2.5,7.2c0.3,0.5,0.7,1.2,0.8,1.9c0.1,0.7,0.1,1.4,0,2.1c-0.2,1.3-0.7,2.5-1,3.8
		l-0.1,0c-0.2-1.3,0.1-2.7,0.2-3.9c0.1-1.2,0.1-2.4-0.5-3.5c-0.6-1.2-0.9-2.5-1.2-3.8C114.7,55.9,114.6,54.6,114.3,53.4L114.3,53.4z
		"/>
</g>
<g>
	<path class="st0" d="M105.4,56.5c-0.1,2-0.5,4-0.4,5.9c0,1,0.2,1.9,0.6,2.8c0.4,0.9,1,1.6,1.6,2.5c1.2,1.6,2.4,3.3,3.2,5.1
		c0.4,0.9,0.8,1.9,1,2.9c0.2,1,0.3,2.1,0,3l-0.1,0c-0.1-2-0.9-3.8-1.8-5.5c-0.9-1.7-1.9-3.4-3-5.1c-0.5-0.8-1.1-1.7-1.5-2.7
		c-0.4-1-0.6-2-0.5-3C104.5,60.3,105.1,58.4,105.4,56.5L105.4,56.5z"/>
</g>
<g>
	<path class="st0" d="M98.7,60.4c0.8,2,2,3.7,3.1,5.5c0.5,0.9,1.1,1.9,1.4,2.9c0.2,0.5,0.2,1.1,0.2,1.7c0,0.3,0,0.5,0,0.7
		c0,0.2,0.1,0.5,0.1,0.7c0.4,2,1.3,3.9,2.2,5.8c0.4,1,0.9,1.9,1.3,2.8c0.2,0.5,0.5,0.9,0.8,1.4c0.3,0.5,0.6,0.9,1,1.2l-0.1,0.1
		c-1-0.5-1.6-1.4-2.3-2.3c-0.6-0.9-1.2-1.8-1.7-2.8c-1-1.9-1.7-4-2-6.1c0-0.3-0.1-0.6-0.1-0.8c0-0.3,0-0.6,0-0.8c0-0.5,0-1-0.1-1.5
		c-0.2-1-0.7-1.9-1.2-2.8C100.4,64.3,99.3,62.4,98.7,60.4L98.7,60.4z"/>
</g>
<g>
	<path class="st0" d="M97.5,61.8c1.1,1.9,1.8,4,2.3,6.2c0.1,0.5,0.2,1.1,0.2,1.7c0,0.3,0,0.6,0,0.9c0,0.3-0.1,0.5,0,0.8
		c0.1,1,0.5,2,1,2.9c0.5,0.9,1.2,1.7,1.9,2.5l0.5,0.6c0.2,0.2,0.4,0.5,0.5,0.7c0.3,0.5,0.5,1,0.7,1.6c0.4,1.1,0.6,2.1,0.9,3.2
		c0.3,1,0.7,2,1.4,2.8l-0.1,0.1c-0.5-0.3-0.9-0.7-1.2-1.2c-0.3-0.5-0.6-1-0.8-1.5c-0.5-1-0.8-2.1-1.2-3c-0.2-0.5-0.4-1-0.7-1.4
		c-0.1-0.2-0.3-0.4-0.4-0.6l-0.5-0.6c-0.7-0.9-1.3-1.8-1.9-2.8c-0.5-1-1-2.1-1-3.3c0-0.3,0-0.6,0.1-0.9c0-0.2,0.1-0.5,0.1-0.8
		c0-0.5,0-1.1-0.1-1.6C98.9,65.9,98.3,63.8,97.5,61.8L97.5,61.8z"/>
</g>
<g>
	<path class="st0" d="M90.9,68.3c1,2.4,2.5,4.4,4,6.5c1.5,2.1,3.1,4.1,4.1,6.6c0.2,0.6,0.5,1.3,0.5,2c0,0.4,0,0.7-0.1,1
		c0,0.3,0,0.6,0,0.9c0,1.2,0.1,2.5,0.3,3.8c0.1,1.3,0.3,2.5,0.6,3.8c0.3,1.2,0.5,2.5,1.1,3.6l-0.1,0.1c-0.8-1-1.3-2.3-1.7-3.5
		c-0.4-1.2-0.7-2.5-0.9-3.8c-0.2-1.3-0.3-2.6-0.3-3.9c0-0.3,0-0.7,0.1-1c0.1-0.3,0.1-0.7,0.1-0.9c0-0.5-0.1-1.1-0.3-1.7
		c-0.9-2.3-2.4-4.4-3.8-6.6C93.2,73,91.7,70.8,90.9,68.3L90.9,68.3z"/>
</g>
<g>
	<path class="st0" d="M89,69.5c0.1,2.6,0.4,5.2,0.9,7.7c0.4,2.5,1,5.1,1.7,7.5c0.4,1.2,0.9,2.4,1.5,3.5l2.1,3.2
		c0.7,1.1,1.4,2.2,2.1,3.2c0.4,0.5,0.7,1.1,1.1,1.6c0.4,0.5,0.7,1.1,1.2,1.5l-0.1,0.1c-1.1-0.8-1.9-1.8-2.8-2.8
		c-0.8-1-1.6-2-2.4-3.1c-0.8-1.1-1.5-2.2-2.1-3.3c-0.7-1.2-1.1-2.5-1.4-3.7c-0.7-2.5-1.1-5.1-1.5-7.7C89.1,74.7,88.9,72.1,89,69.5
		L89,69.5z"/>
</g>
<g>
	<path class="st0" d="M85.1,75.6c-0.3,2.5-0.3,5.1-0.2,7.6c0.1,2.5,0.4,5.1,1.1,7.4c0.4,1.2,0.9,2.3,1.7,3.1
		c0.9,0.9,1.8,1.7,2.8,2.6c0.9,0.9,1.8,1.8,2.6,2.8c0.4,0.5,0.8,1.1,1,1.7c0.2,0.6,0.4,1.3,0.2,2l-0.1,0c0-0.6-0.2-1.2-0.5-1.7
		c-0.3-0.5-0.7-1-1.1-1.4c-0.9-0.9-1.8-1.7-2.8-2.5c-1-0.8-1.9-1.7-2.8-2.6c-1-1-1.5-2.3-1.8-3.6c-0.7-2.5-0.8-5.1-0.8-7.7
		C84.4,80.7,84.6,78.1,85.1,75.6L85.1,75.6z"/>
</g>
<g>
	<path class="st0" d="M82.3,79.1c-0.1,2.4-0.1,4.8,0.1,7.2c0.2,2.4,0.5,4.8,1.7,6.8c0.3,0.5,0.6,0.9,1.1,1.3
		c0.4,0.4,0.9,0.8,1.4,1.2c0.9,0.8,1.8,1.6,2.7,2.5c0.8,0.9,1.7,1.8,2.4,2.8c0.7,1,1.3,2.2,1.3,3.4l-0.1,0c-0.3-1.2-1-2.1-1.8-3
		c-0.8-0.9-1.6-1.7-2.5-2.5l-2.7-2.4c-0.4-0.4-0.9-0.8-1.3-1.3c-0.5-0.5-0.8-1-1.1-1.6c-0.6-1.1-1-2.3-1.2-3.5
		c-0.2-1.2-0.3-2.4-0.4-3.7C81.9,83.9,82,81.5,82.3,79.1L82.3,79.1z"/>
</g>
<g>
	<path class="st0" d="M133.3,56.1c-0.8,0.5-1.6,1-2.4,1.4l-2.5,1.2c-0.8,0.4-1.6,0.9-2.3,1.3c-0.7,0.5-1.3,1-1.8,1.8l-0.1,0
		c0-1,0.5-2,1.3-2.6c0.8-0.7,1.7-0.9,2.6-1.2C129.9,57.3,131.6,56.8,133.3,56.1L133.3,56.1z"/>
</g>
<g>
	<path class="st0" d="M135.4,59c-1.2,1.2-2.5,2.3-3.8,3.4c-1.3,1-2.7,2-4.1,3c-1.4,1-2.7,2-4.2,2.8c-1.5,0.8-3,1.6-4.6,2.2l-0.1-0.1
		c1.3-1.1,2.7-2.1,4.1-3c1.4-0.9,2.9-1.8,4.3-2.6c1.4-0.9,2.8-1.8,4.2-2.8C132.7,61,134,60.1,135.4,59L135.4,59z"/>
</g>
<g>
	<path class="st0" d="M135.4,62.7c-1.2,1.2-2.6,2-3.9,3c-1.4,0.9-2.8,1.8-4.2,2.6c-1.4,0.9-2.8,1.7-4.3,2.4c-1.5,0.7-3,1.3-4.7,1.6
		l0-0.1c1.5-0.8,2.9-1.6,4.3-2.4c1.4-0.8,2.9-1.5,4.4-2.2c1.5-0.8,2.9-1.5,4.3-2.3C132.6,64.5,134,63.7,135.4,62.7L135.4,62.7z"/>
</g>
<g>
	<path class="st0" d="M135.3,71.3c-1.5,0.9-3.2,1.3-4.8,1.7c-1.7,0.4-3.3,0.7-5,1c-1.7,0.3-3.3,0.7-5,1c-1.6,0.3-3.3,0.6-4.8,1.3
		l-0.1-0.1c0.6-0.6,1.4-1.1,2.2-1.4c0.8-0.4,1.6-0.6,2.5-0.8c1.7-0.4,3.4-0.6,5-0.8c1.7-0.2,3.4-0.4,5-0.7
		C132.1,72.3,133.8,72,135.3,71.3L135.3,71.3z"/>
</g>
<g>
	<path class="st0" d="M136,73.8c-1.9,0.8-4,1.2-6,1.7l-6,1.4c-2,0.5-4,1.1-6,1.6c-1,0.3-2,0.5-2.9,0.8c-0.5,0.2-1,0.3-1.4,0.6
		c-0.5,0.2-0.9,0.5-1.1,0.9l-0.1,0c0.1-0.5,0.6-0.9,1-1.3c0.4-0.3,0.9-0.6,1.4-0.8c0.9-0.5,1.9-0.8,2.9-1.2c2-0.6,4-1,6.1-1.4
		l6.1-1.1C132,74.7,134,74.4,136,73.8L136,73.8z"/>
</g>
<g>
	<path class="st0" d="M137.2,80.8c-1,0.4-2.1,0.6-3.1,0.7c-1.1,0.1-2.1,0.1-3.2,0.1c-2.1,0-4.2-0.2-6.3-0.2c-1,0-2.1,0-3,0.2
		c-0.9,0.2-1.9,0.6-2.9,1c-1,0.4-1.9,0.8-2.9,1.2c-0.5,0.2-1,0.3-1.6,0.5c-0.5,0.1-1.1,0.2-1.6-0.1l0-0.1c0.5,0.1,1-0.1,1.5-0.3
		c0.5-0.2,0.9-0.4,1.4-0.7c0.9-0.5,1.9-1,2.8-1.4c1-0.4,2-0.8,3.1-1c1.1-0.2,2.2-0.1,3.3,0c2.1,0.1,4.2,0.4,6.3,0.5
		c1,0.1,2.1,0.1,3.1,0.1C135.1,81.1,136.1,81.1,137.2,80.8L137.2,80.8z"/>
</g>
<g>
	<path class="st0" d="M138,84.2c-2.1,1.3-4.4,2.4-6.7,3.2c-2.4,0.8-4.8,1.3-7.3,1.7c-2.4,0.4-4.9,0.8-7.3,1.1l-3.7,0.4
		c-0.6,0.1-1.2,0.1-1.8,0.2c-0.6,0.1-1.2,0.2-1.8,0.4l-0.1-0.1c1.1-0.7,2.4-0.9,3.6-1.2c1.2-0.3,2.4-0.5,3.7-0.7
		c2.4-0.4,4.9-0.6,7.4-0.9c2.5-0.2,4.9-0.6,7.2-1.3C133.5,86.2,135.8,85.3,138,84.2L138,84.2z"/>
</g>
<g>
	<path class="st0" d="M138.4,86.5c-2.2,1.3-4.7,2.2-7.1,3.2c-2.4,0.9-4.9,1.7-7.5,2.2c-2.6,0.6-5.2,0.8-7.7,1.1
		c-1.3,0.1-2.6,0.3-3.8,0.5c-1.2,0.2-2.5,0.5-3.5,1.3l-0.1-0.1c0.8-1.1,2.2-1.5,3.4-1.9c1.3-0.4,2.6-0.6,3.8-0.8
		c2.6-0.4,5.2-0.4,7.7-0.8c2.5-0.5,5-1.2,7.5-1.9C133.6,88.4,136.1,87.6,138.4,86.5L138.4,86.5z"/>
</g>
<g>
	<path class="st0" d="M138.4,92.5c-1.3,0-2.7-0.1-4-0.2c-1.3-0.2-2.6-0.3-3.9-0.2c-1.3,0.1-2.5,0.6-3.6,1.2
		c-1.2,0.7-2.5,1.1-3.8,1.5c-2.6,0.7-5.2,1.3-7.9,1.5c-1.3,0.1-2.7,0.2-4,0.2c-0.7,0-1.3,0-2-0.1c-0.3,0-0.7-0.1-1-0.2
		c-0.3-0.1-0.7-0.1-0.9-0.4l0.1-0.1c0.5,0.3,1.3,0.2,1.9,0.2c0.7,0,1.3-0.1,2-0.1c1.3-0.1,2.6-0.3,3.9-0.5c2.6-0.4,5.2-0.7,7.8-1.3
		c1.3-0.3,2.5-0.7,3.7-1.3c1.2-0.6,2.5-1.1,3.9-1.2c1.4-0.1,2.7,0.1,4,0.4c1.3,0.2,2.6,0.4,3.9,0.4V92.5z"/>
</g>
<g>
	<path class="st0" d="M137.6,100.8c-3,0.9-6,1.8-9,2.6c-3,0.8-6.1,1.6-9.2,1.9c-0.8,0.1-1.6,0.1-2.4,0.1c-0.8-0.1-1.6-0.2-2.4-0.3
		c-1.6-0.2-3.1-0.6-4.6-0.9c-3-0.8-6.1-1.6-9-2.6l0-0.1c3.1,0.5,6.1,1.2,9.2,1.7l4.6,0.9c1.5,0.3,3,0.5,4.5,0.4
		c3.1-0.2,6.1-0.9,9.2-1.6C131.6,102.3,134.6,101.5,137.6,100.8L137.6,100.8z"/>
</g>
<g>
	<path class="st0" d="M128.8,113.4c-2.4-0.4-4.9-0.9-7.3-1.4c-2.4-0.4-4.9-0.9-7.3-0.6c-1.4,0.1-2.6-0.1-3.8-0.4
		c-1.2-0.3-2.4-0.8-3.6-1.3c-1.1-0.6-2.2-1.1-3.3-1.9c-0.5-0.4-1-0.8-1.5-1.2c-0.4-0.5-0.9-0.9-1-1.6l0.1,0c0.2,0.6,0.8,0.9,1.2,1.3
		c0.5,0.3,1,0.7,1.6,0.9c1.1,0.6,2.2,1.1,3.3,1.5c1.1,0.5,2.3,0.9,3.4,1.3c1.1,0.3,2.4,0.7,3.5,0.6c2.6-0.2,5,0.4,7.5,0.9
		C124,112.1,126.4,112.8,128.8,113.4L128.8,113.4z"/>
</g>
<g>
	<path class="st0" d="M124.8,115.2c-2.5,0.1-4.9-0.1-7.3-0.4c-2.4-0.3-4.8-0.8-7.2-1.4c-2.4-0.6-4.8-1.4-6.9-2.7
		c-1.1-0.7-2.1-1.4-2.9-2.4c-0.8-0.9-1.5-2-1.8-3.2l0.1,0c1.1,2.2,3.1,3.6,5.2,4.8c2.1,1.1,4.3,2.1,6.6,2.8c2.3,0.7,4.7,1.3,7.1,1.7
		C120,114.7,122.4,115,124.8,115.2L124.8,115.2z"/>
</g>
<g>
	<path class="st0" d="M69.6,83.3c0-4.4,0.4-8.7,0.7-13c0.4-4.3,0.9-8.6,1.5-12.9c0.6-4.3,1.3-8.6,2.2-12.8c0.4-2.1,0.9-4.2,1.5-6.3
		c0.3-1,0.6-2.1,1-3.1c0.4-1,0.8-2,1.6-3l0.2-0.3l0.3,0.2c0.6,0.5,0.7,1.1,0.9,1.7c0.2,0.6,0.3,1.1,0.4,1.7c0.2,1.1,0.3,2.2,0.3,3.4
		c0.1,2.2,0.1,4.5,0,6.7c-0.2,4.5-0.6,8.9-1.2,13.3c-0.7,4.4-1.5,8.8-2.8,13.1c-0.7,2.1-1.4,4.2-2.4,6.3c-0.5,1-1.1,2-1.7,2.9
		C71.5,81.9,70.7,82.8,69.6,83.3z M69.7,83.2c0.9-0.6,1.7-1.4,2.3-2.3C72.5,80,73,79,73.5,78c0.9-2,1.5-4.1,2.1-6.3
		c1.1-4.3,1.9-8.6,2.5-13c0.6-4.4,1-8.8,1.2-13.2c0.1-2.2,0.1-4.4,0-6.6c0-1.1-0.1-2.2-0.3-3.3C79,35,78.9,34.5,78.7,34
		c-0.1-0.5-0.4-1-0.6-1.2l0.5,0c-0.6,0.7-1.1,1.7-1.5,2.7c-0.4,1-0.7,2-1,3c-0.6,2.1-1.1,4.2-1.6,6.3c-0.9,4.2-1.7,8.5-2.3,12.7
		c-0.7,4.3-1.2,8.6-1.7,12.9C70.2,74.6,69.9,79,69.7,83.2z"/>
</g>
<g>
	<path class="st0" d="M78.4,37c-0.6,3.6-0.8,7.2-1.2,10.8l-1,10.9c-0.4,3.6-0.7,7.2-1.3,10.8c-0.3,1.8-0.7,3.6-1.1,5.4
		c-0.2,0.9-0.5,1.8-0.8,2.6c-0.4,0.8-0.7,1.8-1.4,2.4l-0.1-0.1c0.6-0.7,0.8-1.6,1-2.4c0.2-0.9,0.4-1.8,0.6-2.6
		c0.3-1.8,0.6-3.6,0.8-5.4l1.5-10.8l1.3-10.8C77.2,44.2,77.6,40.6,78.4,37L78.4,37z"/>
</g>
<g>
	<path class="st0" d="M62.4,64.5c-1.8-4.1-2.8-8.4-3.8-12.7c-0.9-4.3-1.6-8.7-2.1-13.1c-0.4-4.4-0.6-8.8-0.4-13.2
		c0.2-4.4,0.8-8.8,2.2-13.1l0,0l0,0c0.3-0.5,0.7-1.1,1.2-1.5c0.3-0.2,0.7-0.4,1.2-0.3c0.4,0.1,0.7,0.4,0.9,0.7
		c0.7,1.1,1,2.3,1.2,3.5c0.5,2.4,0.7,4.7,0.9,7.1c0.4,4.7,0.4,9.5,0.5,14.2c0,4.7-0.2,9.5-0.4,14.2c-0.1,2.4-0.3,4.7-0.5,7.1
		c-0.1,1.2-0.2,2.4-0.3,3.5l-0.2,1.8l-0.1,0.9c0,0.1-0.1,0.3-0.1,0.4c0,0.1,0,0.1-0.1,0.2l0,0.1C62.5,64.4,62.4,64.4,62.4,64.5z
		 M62.4,64.4c0.2-1,0.3-2.3,0.4-3.5c0.1-1.2,0.1-2.4,0.2-3.5c0.1-2.4,0.2-4.7,0.2-7.1c0.1-4.7,0.2-9.5,0.1-14.2
		c0-4.7-0.1-9.5-0.4-14.2c-0.2-2.3-0.4-4.7-0.8-7c-0.2-1.1-0.5-2.3-1.1-3.2c-0.1-0.2-0.3-0.4-0.4-0.4c-0.1,0-0.3,0-0.5,0.1
		c-0.4,0.3-0.7,0.8-1,1.2l0-0.1c-1.4,4.1-2.1,8.5-2.3,12.9c-0.3,4.4-0.1,8.8,0.3,13.2c0.4,4.4,1,8.7,1.9,13
		C59.7,56,60.8,60.3,62.4,64.4z"/>
</g>
<g>
	<path class="st0" d="M60.1,17.4c-0.6,3.7-0.5,7.4-0.4,11.1c0.1,3.7,0.4,7.4,0.7,11.1c0.3,3.7,0.7,7.4,1,11.1
		c0.3,3.7,0.6,7.4,0.7,11.1l-0.1,0c-0.7-3.7-1.2-7.4-1.6-11c-0.4-3.7-0.6-7.4-0.8-11.1c-0.2-3.7-0.3-7.4-0.4-11.2
		C59.2,24.8,59.2,21,60.1,17.4L60.1,17.4z"/>
</g>
<g>
	<path class="st0" d="M53.8,49.4c0.1-1,0.2-2.2,0.2-3.3c0-1.1,0-2.2,0-3.3c-0.1-2.2-0.2-4.4-0.5-6.6c-0.5-4.4-1.1-8.8-2.1-13.1
		c-0.9-4.3-2.1-8.6-3.8-12.6c-0.9-2-1.9-4-3.1-5.7c-1.3-1.7-2.9-3.3-4.9-3.8L40,0.6c-0.5,1.9-0.3,4.1,0,6.2c0.3,2.1,0.8,4.2,1.3,6.2
		c1,4.1,2.3,8.2,3.7,12.2c1.3,4.1,2.8,8.1,4.2,12.1L53.8,49.4z M53.8,49.5c-1.9-3.9-3.5-7.8-5.1-11.8c-1.6-4-3.1-8-4.5-12
		c-1.4-4.1-2.7-8.2-3.7-12.3c-0.5-2.1-1-4.2-1.3-6.3c-0.3-2.1-0.5-4.3,0.1-6.6L39.4,0l0.4,0.1c2.3,0.7,4,2.4,5.3,4.2
		c1.3,1.8,2.3,3.9,3.2,5.9c1.7,4.1,2.8,8.4,3.7,12.8c0.9,4.3,1.5,8.7,1.9,13.1c0.2,2.2,0.3,4.4,0.4,6.6C54.2,45,54.2,47.2,53.8,49.5
		z"/>
</g>
<g>
	<path class="st0" d="M42.1,5.1C43,8.5,44,12,45,15.4l3,10.3c1,3.4,2,6.8,2.9,10.3c0.8,3.5,1.7,6.9,2.3,10.5l-0.1,0
		c-1.1-3.4-2.2-6.8-3.2-10.2c-1-3.4-1.8-6.9-2.7-10.4C45.4,19,43.6,12.1,42.1,5.1L42.1,5.1z"/>
</g>
<g>
	<path class="st0" d="M47.6,40.9c-1.1-2-2.6-3.8-4.2-5.4c-1.6-1.7-3.3-3.3-5-4.8c-3.4-3.1-7-6-10.8-8.8c-3.7-2.7-7.6-5.4-11.6-7.6
		c-2-1.1-4.1-2.1-6.2-2.9c-1.1-0.4-2.2-0.7-3.3-0.8c-1.1-0.1-2.3-0.1-3,0.6c-0.8,0.6-0.4,1.7,0.2,2.6c0.6,0.9,1.4,1.7,2.3,2.5
		c1.7,1.5,3.6,2.9,5.5,4.2c3.8,2.6,7.8,5,11.8,7.3C31.2,32.3,39.5,36.6,47.6,40.9z M47.7,41c-4.3-1.9-8.5-3.9-12.6-6
		c-4.2-2.1-8.2-4.3-12.3-6.5c-4-2.3-8-4.7-11.9-7.3c-1.9-1.3-3.8-2.7-5.5-4.3c-0.9-0.8-1.7-1.7-2.4-2.7c-0.3-0.5-0.6-1.1-0.7-1.8
		c-0.1-0.3,0-0.7,0.1-1.1C2.5,11,2.7,10.7,3,10.5c1.1-0.9,2.5-0.9,3.6-0.7c1.2,0.2,2.3,0.5,3.4,0.9c2.2,0.8,4.3,1.9,6.3,3
		c4,2.3,7.9,5,11.6,7.8c3.7,2.8,7.3,5.8,10.7,9c1.7,1.6,3.4,3.2,4.9,4.9c0.8,0.9,1.5,1.7,2.3,2.7c0.4,0.5,0.7,0.9,1,1.4
		C47.1,39.9,47.4,40.4,47.7,41z"/>
</g>
<g>
	<path class="st0" d="M5.7,13.9c2.5,1.9,5.6,2.9,8.6,3.8c1.5,0.5,3,0.9,4.6,1.3c0.4,0.1,0.8,0.3,1.2,0.4c0.4,0.2,0.7,0.4,1.1,0.6
		c0.7,0.4,1.4,0.8,2,1.2c2.7,1.7,5.3,3.5,7.8,5.5c1.2,1,2.4,2,3.6,3.1c1.1,1.1,2.3,2.2,3,3.7l-0.1,0c-0.2-0.3-0.4-0.6-0.7-0.9
		c-0.3-0.3-0.5-0.6-0.8-0.8c-0.6-0.5-1.2-1-1.8-1.5c-1.2-1-2.5-1.9-3.7-2.9c-2.5-1.9-5-3.8-7.6-5.6c-0.7-0.4-1.3-0.9-2-1.3
		c-0.3-0.2-0.7-0.4-1-0.6c-0.3-0.2-0.7-0.3-1-0.4c-1.5-0.5-3-0.9-4.5-1.4C11.2,17.1,8.1,16,5.7,13.9L5.7,13.9z"/>
</g>
<g>
	<path class="st0" d="M49.7,45.3c-1.8-0.9-3.9-1.6-5.9-2.2c-2-0.6-4.1-1.2-6.1-1.7c-4.1-1-8.3-1.9-12.5-2.5c-4.2-0.6-8.4-1.1-12.6-1
		c-2.1,0-4.2,0.2-6.3,0.6c-1,0.2-2,0.5-3,0.9c-0.5,0.2-0.9,0.4-1.3,0.7c-0.4,0.3-0.8,0.6-1.1,0.9c-0.6,0.7,0.4,1.2,1.4,1.6
		c0.9,0.4,2,0.6,3,0.8c2.1,0.4,4.2,0.6,6.3,0.8c4.2,0.4,8.4,0.5,12.7,0.6C32.7,45.2,41.3,45.2,49.7,45.3z M49.8,45.3
		c-4.3,0.3-8.5,0.5-12.8,0.6c-4.2,0.1-8.5,0.1-12.7,0.1c-4.2-0.1-8.5-0.3-12.7-0.6c-2.1-0.2-4.2-0.5-6.4-0.9C4.1,44.2,3.1,44,2,43.6
		c-0.5-0.2-1-0.4-1.5-0.9c-0.2-0.2-0.4-0.5-0.5-0.9c0-0.4,0.1-0.8,0.3-1c0.4-0.5,0.8-0.9,1.3-1.2C2,39.2,2.5,39,3,38.8
		c1-0.4,2.1-0.7,3.1-0.9c2.1-0.4,4.3-0.6,6.4-0.6c4.3,0,8.5,0.5,12.7,1.2c4.2,0.7,8.4,1.6,12.5,2.7c2.1,0.5,4.1,1.1,6.1,1.8
		c1,0.3,2,0.7,3,1.1c0.5,0.2,1,0.4,1.5,0.6l0.7,0.3C49.3,45,49.6,45.2,49.8,45.3z"/>
</g>
<g>
	<path class="st0" d="M6.7,39.5c3.4,0.1,6.7,0.4,10.1,0.7c3.3,0.3,6.7,0.6,10,1c3.3,0.4,6.7,0.7,10,1.2c1.7,0.3,3.3,0.5,5,0.9
		c1.7,0.4,3.3,0.6,4.9,1.3l-0.1,0.1c-0.8-0.2-1.6-0.3-2.5-0.4l-2.5-0.3l-5-0.6c-3.3-0.4-6.7-0.9-10-1.4c-3.3-0.5-6.7-0.9-10-1.3
		c-3.3-0.4-6.7-0.9-10-1.1L6.7,39.5z"/>
</g>
<g>
	<path class="st0" d="M57.3,57.8c-0.6-0.8-1.6-1.4-2.5-1.9c-0.9-0.5-1.9-0.9-2.9-1.3c-2-0.8-4.1-1.3-6.2-1.9
		c-4.2-1-8.4-1.8-12.7-2.4c-4.3-0.6-8.5-1-12.8-1.2c-2.1-0.1-4.3-0.1-6.4,0c-1.1,0.1-2.1,0.2-3.1,0.4c-0.5,0.1-1,0.2-1.5,0.5
		c-0.4,0.2-0.9,0.5-0.9,0.7c0,0.2,0.3,0.7,0.7,1c0.4,0.3,0.8,0.6,1.3,0.8c0.9,0.5,1.9,0.9,2.9,1.3c2,0.8,4,1.4,6.1,1.9
		c4.1,1.1,8.3,1.9,12.6,2.6c4.2,0.7,8.5,1.1,12.8,1.1c2.1,0,4.3,0,6.4-0.3C53.2,58.9,55.4,58.5,57.3,57.8z M57.4,57.8
		c-4,1.8-8.4,2.2-12.7,2.3c-4.3,0.1-8.6-0.3-12.9-0.8c-4.3-0.6-8.5-1.5-12.7-2.6c-2.1-0.6-4.2-1.2-6.2-2c-1-0.4-2-0.8-3-1.4
		c-0.5-0.3-1-0.6-1.4-0.9c-0.2-0.2-0.4-0.4-0.6-0.7c-0.2-0.3-0.4-0.6-0.3-1c0.1-0.4,0.3-0.7,0.6-0.9c0.3-0.2,0.5-0.4,0.8-0.4
		c0.5-0.2,1.1-0.4,1.6-0.5c1.1-0.2,2.2-0.3,3.3-0.4c2.2-0.1,4.3-0.1,6.5,0c4.3,0.2,8.6,0.7,12.9,1.4c4.3,0.7,8.5,1.5,12.7,2.6
		c2.1,0.6,4.1,1.2,6.2,2c1,0.4,2,0.8,2.9,1.4C55.9,56.3,56.8,56.8,57.4,57.8z"/>
</g>
<g>
	<path class="st0" d="M63.7,75.6c-1.1-1.4-2.7-2.7-4.4-3.7c-1.7-1-3.4-1.8-5.2-2.5c-3.6-1.4-7.3-2.5-11.1-3.3
		c-3.8-0.8-7.6-1.5-11.4-1.8c-1.9-0.2-3.8-0.3-5.8-0.2c-1,0-1.9,0.1-2.8,0.2c-0.9,0.1-1.9,0.3-2.6,0.8l0,0c-0.4,0.3-0.6,0.6-0.7,0.9
		c0,0.3,0.2,0.7,0.5,1c0.6,0.7,1.5,1.2,2.3,1.6c1.8,0.9,3.6,1.5,5.5,2.1c3.8,1.2,7.7,2.1,11.7,2.8c3.9,0.8,7.9,1.3,11.9,1.7
		C55.7,75.6,59.8,75.8,63.7,75.6z M63.8,75.6c-4.1,0.6-8.1,0.5-12.1,0.3c-4-0.2-8-0.7-12-1.4c-4-0.7-7.9-1.6-11.8-2.8
		c-1.9-0.6-3.8-1.3-5.7-2.3c-0.9-0.5-1.8-1-2.6-1.8c-0.4-0.4-0.7-1-0.7-1.7c0.1-0.7,0.6-1.2,1-1.5l0,0l0,0c1-0.5,1.9-0.7,2.9-0.8
		c1-0.1,2-0.2,2.9-0.2c2,0,3.9,0.1,5.8,0.3c3.9,0.4,7.7,1.1,11.5,2c3.8,0.9,7.5,2,11.1,3.5c1.8,0.8,3.5,1.6,5.2,2.6
		C61.1,72.8,62.6,73.9,63.8,75.6z"/>
</g>
<g>
	<path class="st0" d="M69.6,94c-6.6-4.2-13.3-8.5-20.4-11.9c-3.5-1.7-7.2-3.3-11-4.3c-1.9-0.5-3.8-0.9-5.8-1c-1,0-1.9,0-2.9,0.2
		c-0.5,0.1-0.9,0.2-1.4,0.4c-0.4,0.2-0.9,0.4-1.2,0.6c-0.3,0.3-0.3,0.5-0.1,0.8c0.2,0.3,0.5,0.7,0.9,0.9c0.7,0.6,1.6,1,2.5,1.5
		c1.7,0.9,3.6,1.6,5.4,2.3c3.7,1.4,7.4,2.6,11.2,3.7C54.4,89.7,62.1,91.8,69.6,94z M69.7,94c-4-0.7-7.8-1.7-11.6-2.6
		c-3.8-1-7.7-2-11.5-3.1c-3.8-1.1-7.6-2.3-11.3-3.8c-1.9-0.7-3.7-1.5-5.5-2.4c-0.9-0.5-1.8-1-2.6-1.6c-0.4-0.3-0.8-0.7-1.1-1.2
		c-0.1-0.3-0.2-0.6-0.2-1c0.1-0.4,0.3-0.6,0.5-0.8c1.9-1.3,3.9-1.4,6-1.4c2,0.1,4,0.5,5.9,1.1c3.8,1.1,7.5,2.7,11,4.5
		c3.5,1.8,7,3.7,10.3,5.8c1.7,1,3.4,2.1,5,3.2l2.5,1.6l1.2,0.8C68.9,93.4,69.3,93.7,69.7,94z"/>
</g>
<g>
	<path class="st0" d="M13.9,50.6c3.3,1,6.6,1.6,10,2.3c3.3,0.7,6.7,1.3,10.1,1.9L44,56.4c1.7,0.3,3.4,0.6,5,0.8
		c1.7,0.2,3.4,0.5,5.1,0.5l0,0.1c-1.7,0.3-3.4,0.2-5.2,0.1c-1.7-0.1-3.4-0.3-5.1-0.5c-3.4-0.4-6.7-1.1-10.1-1.8
		c-3.3-0.7-6.7-1.4-10-2.2C20.4,52.6,17.1,51.8,13.9,50.6L13.9,50.6z"/>
</g>
<g>
	<path class="st0" d="M23.4,67.5c6.2,0.6,12.3,1.4,18.5,2.4c3.1,0.5,6.1,0.9,9.2,1.6c1.5,0.4,3,0.7,4.5,1.1c1.5,0.4,3,0.8,4.4,1.6
		L60,74.3c-0.7-0.3-1.5-0.4-2.2-0.6c-0.8-0.2-1.5-0.3-2.3-0.5c-1.5-0.3-3-0.6-4.6-0.8c-3-0.5-6.1-1.2-9.1-1.8
		c-3-0.6-6.1-1.1-9.2-1.6C29.6,68.5,26.5,68,23.4,67.5L23.4,67.5z"/>
</g>
<g>
	<path class="st0" d="M31.4,78.6c3,0.9,5.9,2,8.8,3.1c2.9,1.1,5.8,2.3,8.7,3.5c2.9,1.2,5.8,2.3,8.6,3.7c2.8,1.3,5.6,2.7,8.4,4.1
		l0,0.1c-3-0.9-5.9-2.2-8.8-3.3c-2.9-1.2-5.7-2.5-8.5-3.8c-2.8-1.3-5.7-2.6-8.5-3.8C37.1,81,34.3,79.7,31.4,78.6L31.4,78.6z"/>
</g>
<g>
	<path class="st0" d="M47.6,40.9c0.8,0.7,1.4,1.5,2,2.4c0.6,0.8,1.2,1.7,1.7,2.6c1.1,1.8,2.1,3.6,3.2,5.4c2,3.6,3.9,7.4,5.6,11.1
		c3.5,7.5,6.6,15.3,9.3,23.2c1.3,3.9,2.6,7.9,3.6,12c1,4,2,8.1,2.7,12.2c0.7,4.1,1.3,8.2,1.6,12.4c0.3,4.2,0.4,8.3,0.1,12.5l-0.1,0
		c-0.1-4.2-0.3-8.3-0.7-12.4c-0.4-4.1-1.1-8.2-1.8-12.3c-0.7-4.1-1.7-8.1-2.7-12.1c-1-4-2.2-8-3.4-12c-2.5-7.9-5.5-15.7-8.9-23.2
		c-1.7-3.8-3.5-7.5-5.5-11.2c-1-1.8-2-3.7-3.1-5.4c-0.5-0.9-1.1-1.8-1.7-2.6C49,42.6,48.4,41.7,47.6,40.9L47.6,40.9z"/>
</g>
</svg>
