<svg xmlns="http://www.w3.org/2000/svg" viewBox="0 0 119.07 118.45"><defs><style>.cls-1{isolation:isolate;}.cls-2{fill:#c0955f;}.cls-3{fill:none;}.cls-4{opacity:0.5;mix-blend-mode:darken;}.cls-5{opacity:0.25;mix-blend-mode:screen;}</style></defs><g class="cls-1"><g id="Calque_1" data-name="Calque 1"><path class="cls-2" d="M60.16,119.31a66.68,66.68,0,0,1-8.93-.64,66.53,66.53,0,0,1-8.74-2,66.28,66.28,0,0,1-8.35-3.27A62.21,62.21,0,0,1,26.39,109a59,59,0,0,1-5.54-93.32,59.56,59.56,0,0,1,92.33,17.52,55.58,55.58,0,0,1,3.48,8.28,54.76,54.76,0,0,1,2.17,8.72,56.88,56.88,0,0,1,.77,8.94A55.51,55.51,0,0,1,119,68h-.1a59.51,59.51,0,0,0-6.33-34.57A59.4,59.4,0,0,0,21.38,16.23a58.47,58.47,0,0,0,5.18,92.47,60.42,60.42,0,0,0,7.69,4.51,65.23,65.23,0,0,0,8.3,3.31,66.44,66.44,0,0,0,8.7,2,66.44,66.44,0,0,0,8.91.69Z" transform="translate(-0.54 -0.86)"/><path class="cls-3" d="M119,68" transform="translate(-0.54 -0.86)"/><path class="cls-3" d="M114,86" transform="translate(-0.54 -0.86)"/><path class="cls-3" d="M118.75,68.72" transform="translate(-0.54 -0.86)"/><g id="indesign"><g class="cls-4"><path class="cls-2" d="M43.35,33.32H32.74v53H43.35v-53Z" transform="translate(-0.54 -0.86)"/><path class="cls-2" d="M65.56,39.88a69,69,0,0,0-11.44.95V85.75a68.68,68.68,0,0,0,9.69.61c7.65,0,13.9-2.1,17.82-6.24,3.73-3.93,6.13-10,6.13-18.16,0-7.72-2.34-13.2-6.19-16.8-3.63-3.52-8.65-5.28-16-5.28Zm.51,38.43h-.31a13.74,13.74,0,0,1-2.88-.19V48.17a11.67,11.67,0,0,1,3.55-.44c6.52,0,10.15,4.61,10.11,14.05-.05,10.81-.34,16.53-10.47,16.53Z" transform="translate(-0.54 -0.86)"/></g><path class="cls-2" d="M43.07,33.6v53H32.46v-53Z" transform="translate(-0.54 -0.86)"/><path class="cls-2" d="M53.83,41.11a70.12,70.12,0,0,1,11.45-1c7.36,0,12.38,1.77,16,5.29,3.86,3.59,6.19,9.08,6.19,16.8,0,8.2-2.39,14.23-6.13,18.16-3.92,4.13-10.16,6.23-17.81,6.23a68.84,68.84,0,0,1-9.7-.61Zm8.77,37.3a14.34,14.34,0,0,0,2.87.19C75.9,78.71,76.21,73,76.25,62.07,76.3,52.63,72.66,48,66.15,48a11.55,11.55,0,0,0-3.55.45Z" transform="translate(-0.54 -0.86)"/><g class="cls-5"><path class="cls-2" d="M42.53,34.14v52H33v-52h9.53m.54-.54H32.46v53H43.07v-53Z" transform="translate(-0.54 -0.86)"/><path class="cls-2" d="M65.28,40.71c7.06,0,12,1.63,15.63,5.14,4,3.72,6,9.24,6,16.4,0,7.52-2.07,13.67-6,17.79-3.76,4-9.79,6.06-17.42,6.06a70.58,70.58,0,0,1-9.16-.54v-44a70,70,0,0,1,10.91-.86m.5,38.43c10.94,0,11-6.79,11-17.07,0-5.5-1.19-9.52-3.6-11.94a9.57,9.57,0,0,0-7-2.66,12,12,0,0,0-3.72.48l-.37.12V78.83l.4.1a11.47,11.47,0,0,0,2.69.2h.63m-.5-39a70.12,70.12,0,0,0-11.45,1V86a68.84,68.84,0,0,0,9.7.61c7.65,0,13.89-2.1,17.81-6.23,3.74-3.93,6.13-10,6.13-18.16,0-7.72-2.33-13.21-6.19-16.8-3.62-3.52-8.64-5.29-16-5.29Zm.5,38.44h-.31a14.34,14.34,0,0,1-2.87-.19V48.46A11.55,11.55,0,0,1,66.15,48c6.51,0,10.15,4.62,10.1,14.06,0,10.81-.34,16.53-10.47,16.53Z" transform="translate(-0.54 -0.86)"/></g></g></g></g></svg>