<svg id="Calque_1" data-name="Calque 1" xmlns="http://www.w3.org/2000/svg" viewBox="0 0 16.45 16.75"><defs><style>.cls-1{fill:#c0955f;}</style></defs><path class="cls-1" d="M5.79,10.91h2.5l.7,2.2h2l-2.7-8.6H5.79l-2.6,8.6h2Zm.8-3.3A9.36,9.36,0,0,0,7,6c.2.5.3,1.1.5,1.6L8,9.41H6.09Z" transform="translate(-0.19 -0.11)"/><path class="cls-1" d="M13,6.11c.6,0,1.1-.4,1-1a1,1,0,0,0-2,0A.94.94,0,0,0,13,6.11Z" transform="translate(-0.19 -0.11)"/><rect class="cls-1" x="11.89" y="6.8" width="1.9" height="6.2"/><path class="cls-1" d="M16.65,8.61a8.49,8.49,0,0,1-2.32,5.74,8.15,8.15,0,0,1-11.62.15A8.33,8.33,0,0,1,.2,8.61a8.44,8.44,0,0,1,2.39-6,8.29,8.29,0,0,1,6-2.5,8.5,8.5,0,0,1,3.22.73,8.22,8.22,0,0,1,2.62,1.93A8.54,8.54,0,0,1,16.65,8.61Zm-.1,0a8,8,0,0,0-.68-3,7.59,7.59,0,0,0-1.81-2.45,7.94,7.94,0,0,0-5.46-2,7.76,7.76,0,0,0-5.31,2.2A7.53,7.53,0,0,0,1,8.61a7.66,7.66,0,0,0,7.6,7.75,7.85,7.85,0,0,0,5.58-2.16,8,8,0,0,0,1.76-2.54A8.14,8.14,0,0,0,16.55,8.61Z" transform="translate(-0.19 -0.11)"/></svg>