<svg id="Capa_1" data-name="Capa 1" xmlns="http://www.w3.org/2000/svg" viewBox="0 0 14.96 15.26"><defs><style>.cls-1{fill:#c0955f;}</style></defs><path class="cls-1" d="M8.91,11.36a1.64,1.64,0,0,0,1.45-.81l.09.72h1.27V4.47H10.27V6.92A1.53,1.53,0,0,0,9,6.38,2.29,2.29,0,0,0,6.91,8.91,2.2,2.2,0,0,0,8.91,11.36Zm.45-3.71a.74.74,0,0,1,.82.72V9.55a.8.8,0,0,1-.82.73c-.63,0-1-.46-1-1.27S8.73,7.65,9.36,7.65Z" transform="translate(-0.44 -0.16)"/><rect class="cls-1" x="4.03" y="4.67" width="1.45" height="6.44"/><path class="cls-1" d="M15.4,7.92a7.66,7.66,0,0,1-2.1,5.2,7.43,7.43,0,0,1-5.21,2.3A7.56,7.56,0,0,1,.44,7.92,7.7,7.7,0,0,1,2.61,2.44,7.54,7.54,0,0,1,8.09.16,7.79,7.79,0,0,1,11,.83,7.44,7.44,0,0,1,13.41,2.6,7.78,7.78,0,0,1,15.4,7.92Zm-.1,0a7.26,7.26,0,0,0-.62-2.73A6.81,6.81,0,0,0,13,3,7.2,7.2,0,0,0,8.09,1.16a7,7,0,0,0-4.78,2A6.78,6.78,0,0,0,1.24,7.92a6.91,6.91,0,0,0,6.85,7,7,7,0,0,0,6.66-4.25A7.22,7.22,0,0,0,15.3,7.92Z" transform="translate(-0.44 -0.16)"/></svg>