<?xml version="1.0" encoding="utf-8"?>
<!-- Generator: Adobe Illustrator 25.0.0, SVG Export Plug-In . SVG Version: 6.00 Build 0)  -->
<svg version="1.1" id="Calque_1" xmlns="http://www.w3.org/2000/svg" xmlns:xlink="http://www.w3.org/1999/xlink" x="0px" y="0px"
	 viewBox="0 0 110.9 154.9" style="enable-background:new 0 0 110.9 154.9;" xml:space="preserve">
<style type="text/css">
	.st0{fill:#BF945E;}
</style>
<g>
	<path class="st0" d="M67.2,42c-0.1-0.7,0.1-1.5,0.6-2c0.2-0.3,0.5-0.5,0.8-0.7c0.1-0.1,0.3-0.2,0.3-0.3c-0.1-0.1-0.3-0.1-0.5-0.1
		c-1.4-0.2-2.8-0.1-4.2-0.2l-4.2,0c-0.4,0-0.7,0-1.1,0c-0.4,0-0.7-0.3-0.9-0.5c-0.5-0.5-0.9-1.1-1.2-1.7c-0.7-1.2-1.2-2.5-1.6-3.9
		c-0.1-0.3-0.2-0.7-0.1-1.1c0.1-0.4,0.4-0.6,0.7-0.8c0.6-0.4,1.4-0.5,2.1-0.2c0.3,0.1,0.6,0.4,0.7,0.8c0.1,0.4,0,0.7,0,1.1
		c0,0.7,0.2,1.4,0.7,1.9c0.9,1.1,2.3,1.6,3.6,2c1.3,0.5,2.7,0.8,4.1,0.6c1.4-0.1,2.7-0.6,4-1.2c0.6-0.3,1.2-0.6,1.8-1
		c0.3-0.2,0.7-0.3,0.9-0.5C74,34,74,33.6,74,33.3c0-1.4-0.4-2.7-0.7-4.1c-0.3-1.4-0.7-2.7-0.9-4.1c-0.1-0.7-0.2-1.4,0-2.1
		c0.1-0.3,0.3-0.7,0.6-0.9c0.4-0.1,0.7,0,1.1,0c0.7,0,1.4-0.1,1.9-0.5c0.6-0.4,0.9-1,1-1.7c0.1-0.3,0.1-0.7,0.1-1
		c0.1-0.3-0.1-0.6-0.2-1c-0.1-0.3-0.3-0.6-0.3-1c0-0.4,0.1-0.8,0.4-1l0.1,0.2c-0.5,0.1-1,0.5-1.3,0.9c-0.4,0.4-0.7,0.9-1.1,1.3
		c-0.7,0.9-1.3,1.9-1.8,2.9c-0.3,0.5-0.5,1-0.7,1.6c-0.3,0.6-0.9,0.8-1.4,1c-1.1,0.4-2.3,0.5-3.4,0.6c-2.3,0.1-4.6,0-6.9-0.4
		c-0.6-0.1-1.1-0.2-1.7-0.4c-0.3-0.1-0.6-0.2-0.8-0.5c-0.1-0.1-0.1-0.4,0-0.5l0.2-0.4c0.5-1,0.9-2.1,1.2-3.2
		c0.6-2.2,0.9-4.5,0.4-6.7c-0.1-0.5-0.3-1.1-0.6-1.6c-0.2-0.5-0.6-0.9-1.1-1.3c-0.9-0.6-2.1-0.7-3.2-0.7c-2.3,0.1-4.5,0.7-6.7,1.3
		L45,11c-1.1,0.4-2.2,0.6-3.2,1.1c-2,1.1-3.5,2.9-4.9,4.7c-1.5,1.8-2.9,3.6-5,4.8c-0.5,0.3-1.1,0.5-1.5,0.8
		c-0.3,0.1-0.5,0.3-0.7,0.5c-0.2,0.2-0.4,0.3-0.6,0.6c-0.8,0.8-1.4,1.8-1.9,2.8c-1,2-1.8,4.2-2.4,6.4c-0.6,2.2-1.2,4.4-1.6,6.7
		c-0.2,1.1-0.4,2.2-0.7,3.4c-0.3,1.1-0.6,2.2-1.1,3.3c-0.5,1.1-1.1,2-1.8,3c-0.7,0.9-1.5,1.7-2.2,2.7c-0.4,0.5-0.9,0.8-1.4,1
		c-0.6,0.2-1.2,0.3-1.7,0.4c-0.3,0.1-0.5,0.1-0.7,0.3c-0.2,0.2-0.4,0.4-0.7,0.6c-0.6,0.3-1.2,0.3-1.8,0.2l0.2-0.1
		c-0.1,0.4-0.4,0.6-0.7,0.7c-0.3,0.1-0.5,0.2-0.8,0.3C9,55,8.4,55.2,7.9,55.4c-0.3,0.1-0.5,0.2-0.7,0.4C7.1,55.8,7,55.9,6.9,56
		c-0.1,0.1-0.3,0.2-0.4,0.2c-0.3,0.1-0.6,0.1-0.9,0.1c-0.1,0-0.3,0-0.4,0l-0.4,0c0,0,0.1,0,0.1-0.1c0-0.1,0,0,0,0l0,0
		c0,0,0,0.1,0,0.2c0,0.1-0.1,0.2-0.1,0.3c-0.1,0.1-0.2,0.2-0.4,0.3c-0.3,0.2-0.5,0.3-0.8,0.4c-0.5,0.2-1.1,0.4-1.5,0.8
		c-0.4,0.3-0.7,0.9-0.9,1.4l-0.7,1.6L0,61.8L0,61l0-2.7c0.1-0.9,0.1-1.8,0.2-2.7c0.2-1.8,0.5-3.6,1.1-5.3c0.5-1.7,1.2-3.4,2.2-5
		c0.4-0.8,1-1.5,1.4-2.3c0.5-0.7,1-1.5,0.9-2.3l0-0.1l0,0c0.6-2.3,2.1-4.1,3.8-5.7c1.7-1.5,3.6-2.8,5.6-4c2-1.1,4-2.1,6.1-3.1
		c2.1-0.9,4.2-1.8,6.2-2.8l-0.1,0.1c0.6-1.8,1.6-3.4,2.7-4.9c1.2-1.5,2.5-2.8,4-3.9c1.4-1.2,3-2.2,4.5-3.3c0,0,0.1-0.1,0.1-0.1
		c0,0,0,0,0,0.2c0.1,0.1,0,0,0,0l-0.1-0.1c-0.1-0.2-0.1-0.3-0.1-0.4c0-0.3,0-0.5,0.1-0.7c0.1-0.5,0.2-0.9,0.5-1.4
		c0.4-0.9,1.2-1.6,2.1-1.9l-0.1,0.1c2.1-2.1,4.7-3.8,7.4-4.9c2.8-1.1,5.7-1.7,8.6-2.1c2.9-0.3,5.9-0.4,8.9-0.4
		c2.9,0,5.9,0.1,8.8-0.4l-0.2,0.3c0-0.1,0-0.3,0-0.4c0.1-0.1,0.1-0.3,0.2-0.4c0.2-0.3,0.5-0.3,0.7-0.4c0.5-0.1,1,0,1.4,0.2
		c0.4,0.1,0.9,0.3,1.3,0.5c0.1,0.1,0.2,0.1,0.3,0.2c0,0.1,0.1,0.2,0.1,0.2l0,0.1l0,0.2c0,0.2,0.1,0.4,0.2,0.6
		c0.3,0.8,0.8,1.5,1.5,1.9c0.3,0.2,0.7,0.4,1.1,0.5c0.4,0.1,0.9,0.2,1.3,0.4c1.7,0.8,2.7,2.6,3,4.3c0.2,0.9,0.2,1.8,0,2.7
		c-0.2,0.9-0.6,1.7-1,2.5l0-0.3c0.8,1.3,1.4,2.7,1.8,4.1c0.5,1.4,0.9,2.9,1.1,4.4c0.3,1.5,0.4,3,0.4,4.5c0,1.5-0.2,3-0.7,4.5
		L87,31.3c0.2-0.5,0.1-1.3,0.1-1.9c-0.1-0.7-0.3-1.4-0.4-2.1c-0.4-1.4-0.8-2.7-1.3-4.1c-0.5-1.3-1-2.7-1.6-3.9
		c-0.2-0.3-0.3-0.6-0.5-0.9c-0.1-0.1-0.2-0.3-0.3-0.4l-0.1-0.1c0,0,0,0,0,0c0,0,0,0,0,0c-0.1,0.1-0.2,0.5-0.3,0.8
		c-0.1,0.3-0.1,0.7-0.1,1l-0.1-0.2c0.5,0.8,0.9,1.6,1.3,2.4c0.3,0.8,0.6,1.7,0.7,2.6c0.2,0.9,0.1,1.8,0,2.7
		c-0.1,0.9-0.5,1.8-0.8,2.6l-0.5-0.3c0.5-1,0.1-2.3-0.3-3.4c-0.2-0.6-0.5-1.1-0.9-1.6c-0.2-0.2-0.4-0.5-0.6-0.7
		c-0.1-0.1-0.2-0.2-0.3-0.3c-0.1-0.1-0.2-0.1-0.2-0.1c0.1,0,0,0,0,0.1c0,0.1,0,0.3,0,0.4c0,0.3,0.1,0.7,0,1c-0.1,0.3-0.1,0.7-0.2,1
		c-0.1,0.3-0.2,0.6-0.3,0.9c-0.5,1.2-1.1,2.3-1.8,3.4c-1.4,2.1-2.9,4.2-4.6,6.1c-1.1,0.7-1.3,2-0.7,3c0.6,1,1.7,1.6,2.9,2.1l0,0l0,0
		c4.6,2.4,9,5.2,12.9,8.7c3.9,3.4,7.3,7.5,9.3,12.4c1,2.4,1.6,5,1.7,7.6c0.1,1.3,0,2.6-0.2,3.9c-0.1,0.6-0.3,1.3-0.5,1.9
		c-0.1,0.2-0.1,0.3-0.2,0.5c0,0.1,0,0.1-0.1,0.3c0,0.1-0.5,0.2-0.5,0c0-0.1-0.1-0.1-0.1-0.2c0-0.1,0,0,0-0.1l0,0l0,0c0,0,0,0,0-0.1
		c0-0.2-0.2-0.5-0.4-0.7c-0.3-0.5-0.8-0.9-1.3-1.3c-0.2-0.2-0.5-0.3-0.8-0.4c-0.1-0.1-0.2,0-0.4-0.1c-0.2,0-0.4-0.1-0.6-0.2
		c-0.7-0.5-0.9-1.2-1.3-1.4c-0.2-0.1-0.4-0.1-0.6,0c-0.1,0.1-0.2,0.1-0.5,0.2c-0.2,0.1-0.4,0.1-0.6,0.1c-0.8-0.1-1.3-0.7-1.8-1.1
		l-0.7-0.7c-0.1-0.1-0.2-0.2-0.3-0.3c0,0-0.1-0.1-0.1-0.1c0,0,0,0,0.1,0c0.1-0.1,0,0,0,0l-0.1,0.3c-0.1,0.2-0.2,0.4-0.4,0.5
		c-0.4,0.3-0.8,0.3-1.2,0.3c-0.7-0.1-1.5-0.6-1.6-1.5l0.5,0.2c-0.2,0.2-0.5,0.3-0.8,0.2c-0.3-0.1-0.5-0.3-0.7-0.4
		c-0.3-0.4-0.5-0.7-0.6-1.2l0.5,0.1c-0.3,0.2-0.6,0.4-1,0.4c-0.4,0-0.7-0.2-1-0.4c-0.5-0.4-0.8-0.9-1.2-1.2l0.3,0
		c-0.4,0.1-0.7,0.2-1.1,0.2c-0.4,0-0.8-0.1-1.1-0.3c-0.4-0.2-0.6-0.4-0.9-0.7c-0.2-0.3-0.5-0.6-0.6-0.7l0.4,0
		c-0.3,0.3-0.8,0.3-1.2,0.2c-0.4-0.1-0.7-0.2-1-0.4c-0.3-0.2-0.6-0.4-0.8-0.6c-0.2-0.3-0.5-0.5-0.6-1l0.6,0.2
		c-0.4,0.5-0.9,0.4-1.2,0.4c-0.4,0-0.8-0.2-1.1-0.3c-0.3-0.2-0.6-0.5-0.9-0.8c-0.2-0.3-0.3-0.7-0.4-1.1l0.3,0.3
		c-0.6,0-1.2-0.3-1.5-0.7c-0.3-0.4-0.5-0.9-0.6-1.4c-0.3-0.9-0.4-1.9-0.5-2.8c-0.1-0.4-0.1-0.9-0.3-1.3c0-0.1-0.1-0.1-0.1-0.1
		c0,0,0,0,0.1,0c0,0,0,0,0,0c-0.1,0-0.1,0.1-0.2,0.2c-0.1,0.1-0.2,0.2-0.3,0.3c-0.2,0.2-0.6,0.4-1,0.2c-0.3-0.2-0.5-0.4-0.6-0.6
		c-0.3-0.4-0.4-0.9-0.6-1.3c0-0.1-0.1-0.2-0.1-0.3c0-0.1-0.1-0.2-0.1-0.1c0,0,0.2,0,0.2,0c0,0,0,0,0,0c0,0.1-0.1,0.2-0.1,0.2
		c-0.1,0.4-0.2,0.8-0.3,1.3c-0.2,0.9-0.2,1.8-0.2,2.7c0.1,1.8,0.4,3.6,1.1,5.3c1.4,3.4,3.7,6.3,6.4,8.7c2.7,2.4,5.9,4.4,9.1,6.2
		l-0.2,0c2.5-0.4,5-0.2,7.3,0.5c2.4,0.7,4.6,1.8,6.6,3.1c2.1,1.3,4,2.8,5.8,4.5c0.9,0.9,1.7,1.8,2.4,2.8c0.4,0.5,0.7,1,1,1.6
		c0.3,0.6,0.6,1.2,0.3,2l-0.2,0.7l-0.5-0.6l-0.1-0.1c0,0,0,0.1,0.2,0.1c0.1,0,0.3,0,0.3-0.1c0.1-0.1,0.1-0.1,0.1-0.2
		c0-0.1,0-0.1,0-0.2c0-0.1,0-0.1,0-0.1l0.1,0.1l0.2,0.3l0.4,0.6l0.8,1.3c0.5,0.9,1.1,1.7,1.5,2.6c0.5,0.9,0.9,1.8,1.2,2.8
		c0.3,1,0.6,2.1,0.2,3.2l0,0l0,0c-0.1,0.1-0.1,0.3-0.3,0.4c-0.1,0.1-0.3,0.3-0.6,0.3c-0.5-0.1-0.7-0.4-0.9-0.6
		c-0.2-0.2-0.3-0.5-0.5-0.7c-0.1-0.2-0.3-0.4-0.4-0.5l0.3,0c-0.4,0.1-0.8,0.1-1.2-0.1c-0.4-0.2-0.6-0.4-0.8-0.7
		c-0.2-0.3-0.4-0.5-0.5-0.8c-0.1-0.2-0.3-0.6-0.4-0.6l0.4,0c-0.4,0.2-1,0.3-1.5,0c-0.5-0.3-0.7-0.7-0.9-1.1
		c-0.4-0.7-0.6-1.6-0.9-2.1c-0.1-0.1-0.1-0.1-0.1-0.1c0,0-0.1,0-0.1,0l-0.2,0c-0.2,0-0.3,0-0.5-0.1c-0.6-0.2-0.8-0.6-1.1-0.9
		c-0.5-0.6-1.1-0.7-1.7-0.5l0.1-0.7c1.3,1.2,1.9,2.8,2.4,4.3c0.4,1.6,0.7,3.1,0.9,4.7c0.3,3.2,0.3,6.4,0,9.6l-0.1-0.3
		c1,1.2,1.8,2.5,2.4,3.9c0.6,1.4,1.1,2.8,1.5,4.3c0.4,1.5,0.7,3,0.8,4.5c0.1,0.8,0.1,1.5,0,2.3c-0.1,0.8-0.2,1.6-0.8,2.3l0.1-0.3
		c0.1,0.5,0.1,1,0.2,1.5c0,0.5,0,1.1-0.1,1.7c-0.2,0.6-0.4,1.1-0.8,1.5c-0.3,0.4-0.7,0.8-1,1.2l0.1-0.3c0,1.4-0.5,2.7-1.2,3.8
		c-0.3,0.6-0.7,1.1-1.2,1.6c-0.3,0.3-0.4,0.5-0.9,0.7c0,0-0.1,0-0.1,0c0,0-0.1,0-0.1,0c-0.1,0-0.1,0-0.2,0c-0.1,0-0.2-0.2-0.3-0.3
		c0-0.1,0-0.2,0-0.2c0-0.2,0-0.2,0.1-0.3c0-0.1,0.1-0.3,0.1-0.4c0.2-1.2,0.3-2.5,0.4-3.8c0.1-1.3,0.1-2.5-0.1-3.8l0.2,0.3
		c-0.3-0.2-0.7-0.3-0.9-0.7c-0.3-0.3-0.4-0.8-0.4-1.2c0-0.2,0.1-0.4,0.1-0.5c0-0.1,0-0.2,0-0.2c0-0.1,0,0,0.1,0.1c0.1,0,0.1,0,0,0
		l-0.2,0c-0.2,0-0.5-0.1-0.7-0.4c-0.2-0.3-0.2-0.5-0.2-0.7l0-0.4c0,0,0,0.1,0.1,0.2c0.1,0,0.1,0,0.1,0c0,0,0,0,0,0l-0.2,0
		c-0.2,0.1-0.5,0-0.8-0.1c-0.5-0.3-0.6-0.6-0.8-1c-0.2-0.3-0.3-0.7-0.4-1l0.8,0c-0.2,0.8-0.5,1.5-0.8,2.2c-0.3,0.7-0.7,1.3-1.1,2
		c-0.8,1.3-1.7,2.5-2.6,3.7l0-0.1c-0.6,1.1-1.4,1.7-2.2,2.5c-0.8,0.7-1.6,1.4-2.4,2.1c-1.6,1.3-3.2,2.6-4.9,3.9
		c-1.7,1.2-3.4,2.5-5.1,3.6c-1.8,1.1-3.5,2.2-5.6,3l0,0c-2.6,1.3-5.4,1.8-8.2,2.1c-2.8,0.3-5.6,0.4-8.4,0.4
		c-5.6,0-11.2-0.2-16.7-0.3l-0.3,0l-0.1-0.2c-0.2-0.4-0.3-0.9-0.2-1.4c0.1-0.5,0.5-1,0.8-1.2c0.7-0.5,1.6-0.8,2.3-1.1
		c0.2-0.1,0.4-0.1,0.5-0.2c0.2-0.1,0.3-0.2,0.3-0.2c0,0,0,0.2,0,0.1c0-0.1-0.1-0.2-0.1-0.3c-0.1-0.2-0.1-0.5-0.1-0.7
		c0-0.5,0.3-1,0.7-1.3c0.4-0.3,0.9-0.5,1.3-0.5l-0.3,0.6c-0.1-0.3-0.2-0.6,0-0.9c0.1-0.3,0.3-0.5,0.5-0.6c0.4-0.3,0.7-0.4,1-0.6
		c0.2-0.1,0.3-0.2,0.4-0.2c0.1,0,0.1-0.1,0.1-0.1c0,0,0,0.2,0,0.1c-0.2-0.6,0-1.1,0.3-1.5c0.5-0.7,1.2-1.1,1.9-1.5
		c0.7-0.3,1.4-0.6,2.2-0.8l-0.2,0.7c-0.3-0.3-0.4-0.8-0.3-1.2c0-0.4,0.2-0.7,0.3-1c0.3-0.6,0.7-1.1,1.2-1.5c0.5-0.4,0.9-0.9,1.6-1.2
		c0.2-0.1,0.4-0.2,0.7-0.1c0.1,0,0.2,0,0.3,0.1c0,0,0,0,0.1,0l0.2,0.1c0.3,0.1,0.5,0.2,0.8,0.2c2.3,0.5,4.7,0.9,7,0.9
		c0.6,0,1.2-0.1,1.7-0.2c0.3-0.1,0.5-0.1,0.7-0.3c0.1-0.1,0.2-0.1,0.3-0.2l0.1-0.1l0.1-0.2c0.2-0.3,0.4-0.5,0.7-0.7
		c0.3-0.2,0.7-0.3,1-0.4c0.7-0.1,1.3-0.1,1.9-0.1c2.4-0.1,4.7-0.4,7.1-0.8l1.8-0.3l-1.4,1.1c-0.9,0.7-1.7,0.7-2.5,0.8
		c-0.8,0.1-1.6,0.1-2.4,0.1c-1.6,0-3.2-0.2-4.7-0.3c-1.6-0.1-3.1-0.3-4.7-0.4c-0.4,0-0.8,0-1.1,0c-0.2,0-0.5,0-0.7-0.1
		c-0.2-0.1-0.4-0.1-0.6-0.2c-0.8-0.3-1.5-0.8-2.1-1.3c-1.2-1-2.4-2.2-3.5-3.3c-0.6-0.6-1.1-1.1-1.7-1.6c-0.3-0.3-0.6-0.5-0.9-0.7
		l-0.5-0.3c-0.2-0.1-0.4-0.2-0.6-0.4c-0.4-0.3-0.6-0.9-0.6-1.4c0-0.5,0.1-0.9,0.3-1.3l0.2-0.5c0.1-0.2,0.1-0.4,0.1-0.3
		c0,0,0.1,0.1,0.1,0.1c0,0,0,0,0.1,0c-0.1,0-0.1,0-0.2,0c-0.3,0-0.5,0-0.7-0.1c-0.9-0.4-1.5-1.2-1.8-1.9c-0.3-0.8-0.5-1.7-0.2-2.6
		l0.2,0.6c-0.4-0.2-0.7-0.4-1-0.7c-0.3-0.3-0.6-0.6-0.8-1.1c-0.4-0.9-0.3-1.7-0.2-2.5l0.3,0.5c-0.8-0.3-1.5-0.7-2.2-1.1
		c-0.7-0.4-1.3-0.9-1.9-1.4c-0.6-0.5-1.2-1-1.7-1.7c-0.3-0.3-0.5-0.7-0.7-1.1c-0.1-0.2-0.1-0.5,0-0.9c0.1-0.3,0.4-0.6,0.6-0.7
		l-0.1,0.8c-0.5-0.4-1-1-1.1-1.7c-0.1-0.8,0.2-1.4,0.4-1.9l0.1,0.5c-0.5-0.5-1-1.1-1.4-1.8c-0.2-0.4-0.3-0.8-0.2-1.2
		c0-0.4,0.2-0.9,0.4-1.2l0.2,0.6c-0.3-0.2-0.6-0.4-0.9-0.7c-0.3-0.3-0.5-0.7-0.6-1.1c-0.2-0.8,0.1-1.6,0.3-2.2l0.2,0.6
		c-0.3-0.2-0.6-0.4-0.9-0.7c-0.3-0.3-0.5-0.7-0.6-1.2c-0.1-0.4,0-0.8,0-1.1c0-0.3,0-0.6-0.1-0.9l0.1,0.2c-0.4-0.4-0.7-1-0.7-1.6
		c0-0.3,0-0.6,0.1-0.9c0.1-0.3,0.2-0.5,0.4-0.8l0,0.6c0.1,0.1-0.1,0-0.2-0.1c-0.1-0.1-0.2-0.1-0.4-0.2c-0.3-0.1-0.5-0.3-0.7-0.6
		c-0.4-0.5-0.5-1.2-0.5-1.7l0-0.3l0.3-0.1c0.6-0.2,1.2-0.2,1.6,0c0.3,0.1,0.5,0.2,0.7,0.3c0.2,0.1,0.4,0.2,0.6,0.3
		c0.8,0.5,1.6,1,2.3,1.6c1.4,1.1,2.8,2.4,4.1,3.6c2.6,2.5,5.2,5.1,7.7,7.7c2.5,2.6,5.1,5.2,7.7,7.7c2.6,2.5,5.3,5,8.3,6.9l0,0
		l0.1,0.1c0.2,0.2,0.6,0.4,0.9,0.6c0.3,0.2,0.7,0.4,1,0.6c0.7,0.4,1.4,0.8,2.1,1.2c1.4,0.7,2.9,1.4,4.5,1.9c1.5,0.5,3.1,0.8,4.7,0.9
		c1.5,0,3.1-0.4,4.1-1.5l-0.1,0.2c0.3-1.5-0.1-3.1-0.7-4.6c-0.6-1.5-1.5-2.9-2.5-4.3c-1-1.4-2-2.7-3.2-3.9c-0.6-0.6-1.2-1.2-1.7-1.8
		l-0.1-0.1c0,0,0,0,0,0c0,0,0.1,0.1,0.2,0.1c0.1,0,0,0,0.2,0c0.2,0,0.4-0.3,0.3-0.5c0-0.2,0-0.1,0-0.1l0,0c0,0,0,0,0,0l0,0
		c0.1,0.1,0.2,0.3,0.2,0.5c0.1,0.3,0,0.7-0.1,0.9c-0.2,0.5-0.6,0.9-1.2,1.1l0-0.9c0.3,0.1,0.6,0.3,0.8,0.6c0.2,0.3,0.2,0.6,0.3,0.9
		c0,0.5,0,1-0.1,1.4c0,0.2,0,0.4,0,0.6c0,0,0.1,0.5,0,0.8c-0.1,0.6-0.5,1-0.9,1.4l0.1-0.7c0.2,0.2,0.3,0.4,0.4,0.6
		c0.1,0.2,0.2,0.5,0.2,0.8c0,0.3-0.2,0.7-0.4,0.9c-0.2,0.2-0.5,0.3-0.7,0.4l-0.6,0.2l-0.1-0.7c0-0.3-0.3-0.9-0.6-1.3
		c-0.3-0.5-0.6-1-0.9-1.4c-0.6-0.9-1.2-1.9-1.9-2.8c-1.3-1.8-2.7-3.7-4-5.5c-1.4-1.8-2.8-3.6-4.2-5.4l-1.1-1.3L62.1,99l-0.5-0.6
		c-0.8-0.7-1.7-1.4-2.7-2c-3.8-2.4-7.9-4.4-12-6.2c-1-0.4-2.1-0.8-3.2-1.1c-0.3-0.1-0.5-0.1-0.7-0.1c-0.2,0-0.6,0-0.9-0.1
		c-0.6-0.1-1.2-0.3-1.7-0.5c-1.1-0.4-2.1-1-3.1-1.7c-0.9-0.7-1.9-1.4-2.6-2.4l0.3,0.2c-0.4,0-0.9,0-1.3-0.2
		c-0.4-0.1-0.9-0.4-1.2-0.8c-0.3-0.4-0.4-0.8-0.6-1.2c-0.2-0.4-0.3-0.7-0.5-0.9l0.1,0.1c-0.7-0.3-1.3-0.6-2-1.1
		c-0.3-0.2-0.7-0.6-0.8-1.1c-0.1-0.4-0.2-0.5-0.4-0.8l0.2,0.1c-0.4,0-0.9-0.2-1.2-0.5c-0.3-0.2-0.6-0.5-0.8-0.9
		c-0.4-0.6-0.8-1.3-1-2l0.4,0.3c-0.6,0-1.2-0.3-1.5-0.7c-0.4-0.4-0.7-0.8-0.9-1.3c-0.5-0.9-0.8-1.9-1-2.8l0.3,0.3
		c-0.7-0.2-1.1-0.8-1.4-1.3c-0.3-0.5-0.4-1.1-0.6-1.6c-0.3-1.1-0.4-2.2-0.8-3.2c-0.1-0.2-0.2-0.4-0.3-0.6c0,0-0.5-0.2-0.7-0.4
		c-0.5-0.6-0.5-1.2-0.6-1.8c-0.1-1.1-0.2-2.2-0.4-3.3c-0.1-0.5-0.3-1-0.4-1.6c-0.1-0.6-0.2-1.2-0.1-1.8c0.1-1.2,0.4-2.3,0.8-3.3
		c0.8-2.1,2.1-4,3.2-5.9l0,0.2c0.1-0.8,0.4-1.3,0.6-1.9c0.3-0.6,0.6-1.1,0.9-1.6c0.7-1,1.4-2,2.2-3l2.3-2.9c0.4-0.5,0.8-1,1-1.4
		c0.1-0.2,0.1-0.4,0.1-0.7c0-0.1,0-0.1-0.1-0.3c0-0.1,0-0.3,0.1-0.4c0.2-0.2,0.3-0.3,0.5-0.4c0.4-0.3,0.9-0.7,1.3-1.1l1.3-1.3
		l2.6-2.6l1.3-1.3c0.2-0.2,0.5-0.4,0.7-0.6c0.1-0.1,0.2-0.2,0.4-0.3l0.2-0.1c0.1-0.1,0.2-0.1,0.3-0.2c0.1,0,0.1,0,0.2,0
		c0.1,0,0.2,0.1,0.2,0.2c0.1,0.2,0,0.2,0,0.2c0,0.1,0,0.1-0.1,0.2l-0.1,0.2l-0.2,0.4l-0.5,0.8c-0.3,0.5-0.6,1.1-0.9,1.6
		c-2.2,4.3-3.6,9.1-4.1,14c-0.1,1.2-0.2,2.4-0.2,3.7c0,1.2,0.1,2.4,0.2,3.7c0.3,2.4,0.9,4.8,1.7,7.1c0.9,2.3,1.9,4.5,3.1,6.6
		c1.3,2.1,2.7,4.1,4.3,6c1.6,1.9,3.3,3.6,5.2,5.2c1.9,1.5,4,2.8,6.1,4.1l12.5,7.9c2.1,1.3,4.2,2.6,6.2,4c2.1,1.4,4.1,2.7,6.1,4.2
		l0,0c1.8,1.1,3.4,2.5,4.8,3.9c1.5,1.5,2.8,3,4,4.8c1.2,1.7,2.1,3.6,2.7,5.6c0.6,2,0.8,4.1,0.8,6.2l0,0.7l-0.2-0.6
		c-0.5-1.3-0.9-2.6-1.5-3.9c-0.3-0.6-0.5-1.3-1-1.8c-0.4-0.5-1.1-0.7-1.8-0.9c-0.3-0.1-0.7-0.2-1-0.4c-0.3-0.2-0.5-0.5-0.7-0.9
		c-0.2-0.7-0.8-1.1-1.4-1.3c-0.7-0.2-1.3-0.7-1.7-1.2c-0.4-0.6-0.7-1.2-1.4-1.5c-0.3-0.2-0.6-0.2-1-0.3c-0.3-0.1-0.7-0.3-1-0.5
		c-0.6-0.4-1-1-1.6-1.4c-0.5-0.4-1.3-0.6-1.9-0.7c-0.7-0.2-1.4-0.3-2-0.6c-0.3-0.1-0.7-0.2-1-0.4c-0.3-0.2-0.5-0.4-0.8-0.6
		c-0.6-0.4-1.2-0.7-1.8-1.1c-0.6-0.3-1.2-0.6-1.9-0.9c-0.6-0.3-1.3-0.6-2-0.6l0-0.1c2.8,0.5,5.2,2.3,7.5,3.6c0.7,0.2,1.3,0.4,2,0.6
		c0.7,0.2,1.4,0.3,2,0.8c0.6,0.4,1,1,1.6,1.4c0.3,0.2,0.6,0.3,0.9,0.5c0.3,0.1,0.7,0.2,1,0.3c0.7,0.3,1.1,1,1.5,1.5
		c0.4,0.6,1,0.9,1.7,1.2c0.3,0.1,0.7,0.3,0.9,0.5c0.3,0.2,0.5,0.6,0.6,0.9c0.1,0.3,0.3,0.6,0.6,0.8c0.3,0.2,0.6,0.3,0.9,0.4
		c0.7,0.2,1.4,0.4,1.9,1c0.5,0.6,0.7,1.2,1,1.9c0.5,1.3,1,2.6,1.5,3.9l-0.3,0c0-2-0.1-4.1-0.8-6.1c-0.6-1.9-1.5-3.8-2.7-5.5
		c-1.2-1.7-2.5-3.3-4-4.7c-1.5-1.4-3.1-2.7-4.8-3.8l0,0l0,0c-1.9-1.5-4-2.8-6.1-4.2c-2.1-1.3-4.1-2.7-6.2-4L52,80.8
		c-2.1-1.3-4.2-2.6-6.1-4.1c-1.9-1.6-3.7-3.3-5.3-5.2c-1.6-1.9-3.1-3.9-4.3-6c-1.3-2.1-2.3-4.4-3.2-6.7c-0.8-2.3-1.4-4.8-1.7-7.2
		c-0.1-1.2-0.2-2.5-0.2-3.7c0-1.2,0.1-2.5,0.2-3.7c0.5-4.9,1.9-9.8,4.1-14.2c0.3-0.6,0.6-1.1,0.9-1.6l0.4-0.8l0.2-0.4l0.1-0.2l0-0.1
		c0,0,0,0,0,0.1c0,0,0.1,0.1,0.2,0.2c0.1,0,0.1,0,0.1,0c0,0,0,0-0.1,0.1l-0.2,0.1c-0.1,0.1-0.2,0.2-0.3,0.3
		c-0.2,0.2-0.5,0.4-0.7,0.6l-1.3,1.3L32.1,32l-1.3,1.3c-0.5,0.4-0.9,0.8-1.5,1.2c-0.1,0.1-0.2,0.1-0.3,0.2c0,0,0,0,0,0
		c0,0,0,0.1,0,0.2c0.1,0.3,0,0.8-0.1,1.1c-0.3,0.7-0.7,1.1-1.1,1.6l-2.3,2.9c-0.7,1-1.5,2-2.1,3c-0.3,0.5-0.6,1-0.9,1.6
		c-0.3,0.5-0.5,1.1-0.6,1.6l0,0.1l0,0.1c-1.2,1.9-2.4,3.8-3.2,5.8c-0.4,1-0.7,2.1-0.7,3.1c0,0.5,0,1.1,0.1,1.6
		c0.1,0.5,0.3,1.1,0.4,1.6c0.3,1.1,0.4,2.3,0.5,3.3c0.1,0.5,0.1,1.1,0.4,1.3c0.1,0.1,0.3,0.1,0.7,0.4c0.3,0.3,0.4,0.6,0.6,0.8
		c0.4,1.1,0.6,2.2,0.8,3.3c0.1,0.5,0.3,1,0.5,1.5c0.2,0.4,0.5,0.8,0.9,0.9l0.2,0.1l0.1,0.2c0.2,0.9,0.5,1.8,0.9,2.6
		c0.4,0.8,1,1.6,1.8,1.6l0.3,0l0.1,0.3c0.2,0.6,0.5,1.3,0.9,1.8c0.4,0.5,0.9,1,1.4,1l0.1,0l0.1,0.1c0.3,0.3,0.5,0.8,0.6,1.1
		c0.1,0.3,0.2,0.4,0.5,0.6c0.5,0.4,1.2,0.7,1.8,1l0.1,0l0,0c0.4,0.3,0.6,0.8,0.7,1.2c0.2,0.4,0.3,0.7,0.5,1c0.4,0.5,1.1,0.7,1.9,0.7
		l0.2,0l0.1,0.2c1.3,1.7,3.3,3,5.3,3.8c0.5,0.2,1,0.3,1.6,0.4c0.3,0.1,0.5,0,0.8,0.1c0.3,0,0.6,0.1,0.9,0.2c1.1,0.3,2.2,0.7,3.3,1.1
		c4.2,1.8,8.3,3.8,12.2,6.2c1,0.6,1.9,1.3,2.8,2.1l0.6,0.7l0.5,0.7l1.1,1.3c1.4,1.8,2.8,3.6,4.2,5.4c1.4,1.8,2.7,3.6,4.1,5.5
		c0.7,0.9,1.3,1.9,1.9,2.8c0.3,0.5,0.6,1,0.9,1.5c0.1,0.3,0.3,0.5,0.4,0.8c0.1,0.3,0.3,0.5,0.3,1l-0.6-0.4c0.1-0.1,0.3-0.1,0.3-0.2
		c0.1-0.1,0.1-0.1,0.1-0.2c0-0.1,0-0.2-0.1-0.4c-0.1-0.1-0.2-0.3-0.2-0.4l-0.3-0.4l0.4-0.3c0.3-0.2,0.5-0.5,0.5-0.8
		c0-0.2,0-0.1-0.1-0.5c0-0.3,0-0.5,0-0.8c0-0.5,0.1-0.9,0.1-1.2c0-0.4-0.1-0.5-0.4-0.6l-1.4-0.5l1.4-0.4c0.2-0.1,0.5-0.3,0.6-0.6
		c0.1-0.1,0.1-0.2,0-0.3c0,0,0-0.1-0.1-0.1l-0.1-0.1l0,0c0,0,0,0,0-0.1c-0.1-0.2,0.2-0.5,0.3-0.5c0.2,0,0.1,0,0.2,0
		c0.1,0,0.3,0.1,0.3,0.1c0.1,0,0.1,0.1,0.1,0.1l0.1,0.1c0.7,0.6,1.2,1.2,1.8,1.8c1.2,1.3,2.2,2.6,3.2,4c1,1.4,1.9,2.9,2.6,4.5
		c0.7,1.6,1.1,3.4,0.7,5.3l0,0.1l-0.1,0.1c-1.3,1.3-3.2,1.8-4.9,1.7c-1.7,0-3.4-0.4-5-0.9c-1.6-0.5-3.1-1.2-4.6-1.9
		c-0.7-0.4-1.5-0.8-2.2-1.2c-0.4-0.2-0.7-0.4-1.1-0.7c-0.4-0.2-0.7-0.4-1.1-0.8l0.1,0.1c-3.1-2-5.8-4.5-8.4-7
		c-2.6-2.5-5.1-5.1-7.7-7.7c-2.5-2.6-5.1-5.2-7.7-7.7c-1.3-1.2-2.6-2.4-4-3.5c-0.7-0.5-1.4-1.1-2.2-1.5c-0.7-0.4-1.6-0.7-2.2-0.6
		l0.3-0.4c0,0.4,0.1,0.8,0.3,1.1c0.1,0.1,0.3,0.3,0.4,0.4c0.1,0.1,0.2,0.1,0.3,0.2c0.1,0.1,0.2,0.1,0.5,0.3l0.3,0.3L36.7,95
		c-0.1,0.1-0.2,0.3-0.2,0.5c0,0.2-0.1,0.4,0,0.5c0,0.4,0.2,0.7,0.5,1.1l0.1,0.1l0,0.1c0.1,0.4,0.1,0.8,0.1,1.1c0,0.4-0.1,0.7,0,1
		c0,0.2,0.1,0.4,0.3,0.7c0.2,0.2,0.4,0.4,0.7,0.6l0.3,0.2l-0.1,0.3c-0.2,0.6-0.4,1.1-0.3,1.6c0.1,0.5,0.5,0.9,1,1.2l0.4,0.2
		l-0.2,0.4c-0.3,0.5-0.3,1.1-0.1,1.6c0.2,0.6,0.7,1.1,1.2,1.5l0.2,0.2l-0.1,0.3c-0.2,0.6-0.5,1-0.4,1.4c0.1,0.4,0.4,0.8,0.8,1.2
		l0.4,0.4l-0.5,0.4c-0.2,0.1-0.2,0.1-0.1,0.4c0.1,0.3,0.3,0.6,0.5,0.8c0.5,0.6,1,1.1,1.6,1.5c0.6,0.5,1.2,0.9,1.8,1.3
		c0.6,0.4,1.3,0.8,1.9,1l0.4,0.1l0,0.4c-0.1,0.7-0.1,1.5,0.1,2c0.2,0.6,0.8,1,1.4,1.3l0.4,0.2l-0.1,0.4c-0.4,1.2,0.4,2.9,1.5,3.4
		c0.1,0,0.3,0.1,0.4,0.1c0.1,0,0.3,0,0.4,0c0.2,0.1,0.4,0.2,0.5,0.5c0.1,0.5-0.1,0.7-0.1,0.9l-0.2,0.6c-0.3,0.7-0.3,1.3,0.1,1.7
		c0.1,0.1,0.3,0.2,0.4,0.3l0.5,0.3c0.3,0.2,0.7,0.5,1,0.8c0.6,0.5,1.2,1.1,1.7,1.7c1.1,1.1,2.2,2.2,3.4,3.2c0.6,0.5,1.2,0.9,1.9,1.2
		c0.2,0,0.3,0.1,0.5,0.1c0.2,0,0.3,0,0.5,0c0.4,0,0.8,0,1.2,0c1.6,0.1,3.1,0.3,4.7,0.4c1.6,0.1,3.1,0.3,4.7,0.3c0.8,0,1.6,0,2.3-0.1
		c0.7-0.1,1.6-0.2,1.9-0.5l0.4,0.8c-2.4,0.4-4.8,0.8-7.2,0.8c-0.6,0-1.2,0-1.7,0.1c-0.5,0.1-0.9,0.4-1.2,0.8l-0.1,0.2l-0.2,0.2
		c-0.1,0.1-0.3,0.2-0.5,0.3c-0.3,0.2-0.6,0.3-1,0.3c-0.6,0.1-1.3,0.2-1.9,0.2c-2.5,0-4.9-0.4-7.2-0.9c-0.3-0.1-0.6-0.2-0.9-0.3
		l-0.2-0.1l-0.1-0.1c0,0,0,0,0,0c0,0-0.1,0-0.2,0.1c-0.4,0.2-0.9,0.6-1.3,1c-0.4,0.4-0.8,0.8-1,1.3c-0.2,0.5-0.3,1-0.1,1.2l0.4,0.5
		l-0.7,0.2c-0.7,0.2-1.4,0.4-2,0.7c-0.6,0.3-1.2,0.7-1.6,1.2c-0.2,0.2-0.2,0.5-0.2,0.6c0,0,0.1,0.2,0.1,0.3c0,0.1,0,0.2-0.1,0.3
		c-0.1,0.2-0.2,0.3-0.3,0.3c-0.2,0.1-0.4,0.2-0.5,0.3c-0.3,0.2-0.7,0.3-0.9,0.5c-0.1,0.1-0.2,0.2-0.2,0.2c0,0,0,0.1,0,0.2l0.1,0.5
		l-0.4,0.1c-0.7,0.1-1.3,0.5-1.3,1.1c0,0.1,0,0.3,0,0.5c0,0.1,0,0.2,0.1,0.2c0,0,0,0.1,0,0.1c0,0.1,0,0.1,0,0.2
		c0,0.2-0.1,0.3-0.1,0.4c-0.3,0.3-0.5,0.4-0.7,0.5c-0.2,0.1-0.4,0.2-0.6,0.2c-0.8,0.3-1.5,0.5-2.1,0.9c-0.6,0.4-0.7,0.9-0.3,1.6
		l-0.4-0.2c5.6,0.1,11.2,0.4,16.7,0.3c2.8,0,5.6-0.1,8.3-0.4c2.7-0.3,5.5-0.9,7.9-2l0,0l0,0c1.9-0.7,3.6-1.8,5.4-2.9
		c1.7-1.1,3.4-2.3,5.1-3.6c1.7-1.2,3.3-2.5,4.9-3.9c0.8-0.7,1.6-1.3,2.3-2.1c0.7-0.7,1.5-1.5,2-2.2l0-0.1c0.9-1.2,1.8-2.4,2.6-3.7
		c0.4-0.6,0.8-1.3,1.1-1.9c0.3-0.7,0.6-1.3,0.8-2l0.3-1.6l0.5,1.6c0.1,0.3,0.2,0.6,0.3,0.9c0.1,0.3,0.3,0.5,0.4,0.6
		c0.1,0,0.1,0,0.2,0l0.1,0l0.2-0.1c0.1,0,0.2,0,0.4,0c0.2,0.1,0.2,0.2,0.3,0.4c0.1,0.3,0,0.5,0,0.6c0,0.1,0,0.2,0,0.2c0,0,0,0,0.1,0
		l0.3,0c0.1,0,0.3,0,0.5,0.2c0.2,0.2,0.2,0.5,0.2,0.6c0,0.2,0,0.2-0.1,0.3c-0.1,0.2-0.1,0.3-0.1,0.4c0,0.2,0,0.4,0.2,0.6
		c0.1,0.2,0.4,0.3,0.7,0.5l0.2,0.1l0,0.2c0.2,1.3,0.2,2.6,0.1,3.9c-0.1,1.3-0.2,2.6-0.4,3.9c0,0.2-0.1,0.3-0.1,0.5
		c0,0.1,0,0.2,0,0.2c0,0,0-0.1,0-0.1c0-0.1-0.1-0.2-0.2-0.2c0,0-0.1,0-0.1,0c0,0,0,0,0,0c0,0,0,0,0,0c0.1-0.1,0.4-0.3,0.6-0.5
		c0.4-0.4,0.8-0.9,1.1-1.5c0.6-1.1,1.1-2.2,1.1-3.4l0-0.2l0.1-0.1c0.6-0.8,1.3-1.5,1.6-2.4c0.2-0.9,0-1.9-0.1-2.9l0-0.2l0.1-0.1
		c0.4-0.5,0.5-1.2,0.6-1.9c0.1-0.7,0-1.4,0-2.2c-0.1-1.5-0.4-2.9-0.8-4.3c-0.4-1.4-0.9-2.8-1.5-4.2c-0.6-1.3-1.3-2.7-2.3-3.7
		l-0.1-0.1l0-0.2c0.3-3.1,0.3-6.3,0-9.4c-0.2-1.6-0.4-3.1-0.8-4.6c-0.4-1.5-1.1-2.9-2.1-3.9l-0.5-0.5l0.6-0.2
		c0.4-0.1,0.9-0.2,1.4-0.1c0.5,0.1,0.9,0.5,1.1,0.8c0.3,0.3,0.5,0.6,0.7,0.7c0.1,0,0.1,0,0.4,0c0.2,0,0.4,0,0.5,0.1
		c0.2,0.1,0.2,0.2,0.4,0.3c0.3,0.4,0.4,0.8,0.6,1.2c0.1,0.4,0.3,0.7,0.4,1.1c0.2,0.3,0.4,0.6,0.6,0.7c0.2,0.1,0.5,0.1,0.8,0l0.2-0.1
		l0.1,0.1c0.4,0.3,0.5,0.6,0.7,0.9c0.2,0.3,0.3,0.5,0.5,0.7c0.3,0.4,0.7,0.7,1.2,0.5l0.2-0.1l0.1,0.1c0.4,0.3,0.5,0.5,0.6,0.7
		c0.1,0.2,0.3,0.4,0.4,0.6c0.1,0.2,0.3,0.3,0.3,0.3c0,0,0.1-0.1,0.2-0.3l0,0c0.3-0.8,0.1-1.8-0.3-2.7c-0.3-0.9-0.7-1.8-1.2-2.7
		c-0.5-0.9-1-1.7-1.5-2.6l-0.8-1.3l-0.4-0.6l-0.2-0.3l-0.1-0.2c0,0,0,0-0.1-0.1c0-0.1,0-0.1,0-0.2c0,0,0-0.1,0.1-0.2
		c0.1-0.1,0.2-0.1,0.3-0.1c0.2,0,0.2,0.1,0.2,0.1l0.1,0.1l-0.6,0.1c0.1-0.4-0.1-0.9-0.3-1.4c-0.2-0.5-0.6-1-0.9-1.5
		c-0.7-1-1.5-1.8-2.4-2.7c-1.7-1.7-3.6-3.2-5.6-4.4c-2-1.3-4.2-2.3-6.5-3c-2.3-0.7-4.7-1-7-0.5l-0.1,0l-0.1-0.1
		c-3.3-1.8-6.4-3.8-9.2-6.3c-2.8-2.5-5.2-5.5-6.6-9c-0.7-1.8-1.1-3.6-1.1-5.5c0-0.9,0-1.9,0.2-2.8c0.1-0.5,0.2-0.9,0.4-1.4
		c0-0.1,0.1-0.2,0.2-0.4c0.1-0.1,0.1-0.1,0.2-0.2c0.1-0.1,0.4-0.1,0.5,0c0.2,0.2,0.3,0.3,0.4,0.4c0.1,0.1,0.1,0.2,0.2,0.3
		c0.2,0.4,0.4,0.9,0.6,1.2c0.1,0.2,0.2,0.3,0.3,0.3c0.1,0,0.1,0,0.3-0.1c0.1,0,0.1-0.1,0.2-0.2c0.1-0.1,0.2-0.2,0.3-0.3
		c0.1,0,0.2-0.1,0.3-0.1c0.1,0,0.3,0,0.4,0.1c0.2,0.1,0.3,0.3,0.3,0.4c0.2,0.5,0.2,1,0.3,1.4c0.1,0.9,0.2,1.8,0.5,2.7
		c0.2,0.8,0.7,1.7,1.4,1.6l0.3,0l0.1,0.3c0.1,0.6,0.4,1.1,1,1.4c0.3,0.1,0.5,0.2,0.8,0.3c0.3,0,0.6-0.1,0.6-0.1l0.5-1.1l0.1,1.3
		c0,0.1,0.2,0.4,0.4,0.6c0.2,0.2,0.4,0.4,0.7,0.5c0.5,0.3,1.1,0.5,1.4,0.2l0.2-0.2l0.2,0.2c0.3,0.3,0.5,0.6,0.7,0.8
		c0.2,0.2,0.4,0.4,0.7,0.6c0.5,0.3,1.1,0.2,1.7,0l0.2-0.1l0.1,0.1c0.6,0.4,0.9,0.9,1.3,1.2c0.2,0.2,0.4,0.3,0.6,0.3
		c0.2,0,0.4-0.1,0.6-0.2l0.4-0.3l0.2,0.4c0.1,0.3,0.3,0.7,0.5,0.9c0.1,0.1,0.2,0.2,0.3,0.2c0.1,0,0.2,0,0.3-0.1l0.5-0.3l0.1,0.6
		c0.1,0.5,0.5,0.9,1.1,0.9c0.3,0,0.5,0,0.7-0.1c0.1-0.1,0.1-0.1,0.2-0.2l0.1-0.2c0-0.1,0-0.2,0.2-0.4c0.1-0.1,0.2-0.1,0.4-0.1
		c0.1,0,0.2,0.1,0.2,0.1c0.1,0.1,0.2,0.1,0.3,0.2c0.1,0.1,0.2,0.2,0.4,0.4l0.6,0.7c0.4,0.4,0.9,0.9,1.4,0.9c0.3,0,0.4,0,0.8-0.2
		c0.3-0.2,0.9-0.2,1.2,0.1c0.6,0.5,0.8,1.2,1.3,1.4c0.1,0.1,0.2,0.1,0.3,0.1c0.1,0,0.4,0,0.5,0.1c0.4,0.1,0.7,0.3,1,0.5
		c0.6,0.4,1.1,0.9,1.4,1.5c0.2,0.3,0.4,0.6,0.5,1c0,0,0,0.1,0,0.2l0,0.1l0,0c0,0,0,0.1,0,0c0-0.1,0-0.2-0.1-0.2c0-0.1-0.5-0.1-0.5,0
		c0,0,0-0.1,0.1-0.2c0.1-0.1,0.1-0.3,0.2-0.4c0.2-0.6,0.3-1.2,0.4-1.8c0.2-1.2,0.3-2.5,0.2-3.8c-0.1-2.5-0.7-5.1-1.7-7.4
		c-1.9-4.7-5.3-8.8-9.1-12.2c-3.9-3.4-8.2-6.2-12.8-8.6l0,0c-1.2-0.5-2.4-1.2-3.1-2.3c-0.4-0.6-0.5-1.3-0.4-2c0.1-0.3,0.2-0.7,0.4-1
		c0.1-0.2,0.2-0.3,0.5-0.4c0,0,0-0.1,0.1-0.1l0.2-0.2c1.7-1.8,3.2-3.9,4.5-6c0.7-1.1,1.3-2.1,1.8-3.3c0.2-0.6,0.5-1.1,0.5-1.7
		c0.1-0.3,0-0.6,0-0.9c0-0.2,0-0.3,0-0.5c0-0.1,0-0.2,0.1-0.3c0-0.1,0.2-0.3,0.4-0.3c0.4-0.1,0.5,0.1,0.7,0.2
		c0.2,0.1,0.3,0.2,0.4,0.4c0.2,0.2,0.4,0.5,0.6,0.8c0.4,0.5,0.7,1.1,0.9,1.7c0.3,0.6,0.4,1.2,0.5,1.9c0.1,0.7,0.1,1.4-0.3,2
		l-0.5-0.3c0.4-0.8,0.7-1.6,0.8-2.4c0.1-0.9,0.1-1.7,0-2.6c-0.1-0.9-0.4-1.7-0.7-2.5c-0.3-0.8-0.7-1.6-1.2-2.3L82,19.9l0-0.1
		c0-0.4,0-0.7,0.1-1.1c0.1-0.4,0.1-0.7,0.4-1.1c0.1-0.1,0.3-0.2,0.5-0.2c0.1,0,0.2,0,0.3,0.1c0.1,0.1,0.1,0.1,0.1,0.1
		c0.1,0.2,0.2,0.3,0.3,0.5c0.2,0.3,0.3,0.6,0.5,1c0.6,1.3,1.1,2.6,1.6,4c0.5,1.3,0.9,2.7,1.3,4.1c0.2,0.7,0.3,1.4,0.4,2.1
		c0.1,0.4,0.1,0.7,0.1,1.1c0,0.4,0,0.8-0.2,1.2L87,31.3c0.5-1.3,0.7-2.8,0.7-4.3c0-1.5-0.2-2.9-0.4-4.4c-0.3-1.5-0.6-2.9-1.1-4.3
		c-0.5-1.4-1.1-2.8-1.8-4l-0.1-0.1l0.1-0.1c0.9-1.4,1.3-3.2,1-4.8c-0.3-1.6-1.2-3.3-2.7-4c-0.4-0.2-0.8-0.2-1.2-0.4
		c-0.4-0.1-0.9-0.3-1.3-0.6c-0.8-0.5-1.3-1.3-1.7-2.2c-0.1-0.2-0.1-0.4-0.2-0.7l0-0.2l0-0.1c0,0,0,0,0,0.1c0,0-0.1-0.1-0.2-0.1
		c-0.4-0.2-0.8-0.4-1.2-0.5c-0.8-0.2-1.8-0.3-1.7,0.5l0,0.2l-0.2,0C72,1.8,69,1.7,66,1.8c-2.9,0-5.9,0.1-8.8,0.4
		c-2.9,0.3-5.8,0.9-8.5,2C46,5.3,43.5,6.9,41.4,9l0,0l-0.1,0c-0.8,0.3-1.5,0.9-1.9,1.7c-0.2,0.4-0.3,0.8-0.4,1.3
		c0,0.2-0.1,0.4-0.1,0.6c0,0.1,0,0.2,0,0.2l0,0c0,0-0.1-0.1,0.1,0.1c0.1,0.2,0,0.3,0,0.3c-0.1,0.1-0.1,0.1-0.2,0.2
		c-1.5,1.1-3,2.1-4.5,3.3c-1.4,1.2-2.8,2.4-3.9,3.9c-1.1,1.4-2.1,3-2.7,4.8l0,0.1l-0.1,0c-2,1.1-4.2,1.9-6.2,2.8
		c-2.1,0.9-4.1,1.9-6.1,3c-2,1.1-3.9,2.4-5.5,3.9c-1.7,1.5-3.1,3.3-3.7,5.5l0-0.1c0.1,0.5-0.1,1-0.3,1.4c-0.2,0.4-0.5,0.8-0.7,1.2
		c-0.5,0.8-1,1.5-1.4,2.3c-0.9,1.5-1.6,3.2-2.1,4.9c-0.5,1.7-0.8,3.5-1.1,5.3c-0.1,0.9-0.1,1.8-0.2,2.7l0,2.7L0,60.9l0.7-1.6
		c0.2-0.5,0.5-1.1,1-1.5c0.5-0.4,1.1-0.6,1.6-0.8c0.3-0.1,0.5-0.2,0.8-0.4c0.1-0.1,0.2-0.1,0.3-0.2c0,0,0.1-0.1,0.1-0.1
		c0,0,0,0,0-0.1l0-0.1c0,0,0,0,0-0.1c0-0.1,0.1-0.1,0.1-0.1c0.3-0.1,0.3,0,0.5,0l0.4,0c0.3,0,0.6,0,0.8-0.1c0.1,0,0.2-0.1,0.3-0.2
		c0.1-0.1,0.2-0.2,0.3-0.3c0.3-0.2,0.5-0.3,0.8-0.4c0.6-0.2,1.1-0.4,1.7-0.5c0.5-0.2,1.1-0.4,1.3-0.8l0.1-0.1l0.1,0
		c0.5,0.1,1.1,0.1,1.6-0.1c0.2-0.1,0.4-0.3,0.6-0.5c0.2-0.2,0.6-0.3,0.9-0.4c0.6-0.1,1.1-0.1,1.7-0.3c0.5-0.2,1-0.5,1.3-0.9
		c0.7-0.9,1.5-1.7,2.2-2.6c0.7-0.9,1.3-1.9,1.8-2.9c0.5-1,0.8-2.1,1.1-3.2c0.3-1.1,0.5-2.2,0.7-3.4c0.5-2.2,1-4.5,1.7-6.7
		c0.7-2.2,1.4-4.4,2.5-6.5c0.6-1,1.1-2,2-2.9c0.2-0.2,0.4-0.4,0.6-0.6c0.2-0.2,0.4-0.4,0.7-0.5c0.5-0.3,1-0.5,1.5-0.8
		c2-1.1,3.4-3,4.9-4.7c1.5-1.7,2.9-3.6,5-4.7c1-0.6,2.2-0.7,3.3-1.1l3.3-1c2.2-0.6,4.4-1.3,6.8-1.3c1.1,0,2.4,0.1,3.4,0.8
		c0.5,0.3,0.9,0.8,1.1,1.3c0.3,0.5,0.5,1.1,0.6,1.6c0.5,2.3,0.2,4.6-0.4,6.9c-0.3,1.1-0.7,2.2-1.2,3.2l-0.2,0.4c0,0.1-0.1,0.2,0,0.3
		c0.2,0.2,0.4,0.3,0.7,0.4c0.5,0.2,1.1,0.3,1.6,0.4c2.2,0.4,4.6,0.5,6.8,0.4c1.1-0.1,2.3-0.2,3.4-0.6c0.5-0.2,1.1-0.4,1.3-0.9
		c0.2-0.5,0.4-1.1,0.7-1.6c0.5-1,1.1-2,1.8-2.9c0.3-0.5,0.7-0.9,1.1-1.3c0.4-0.4,0.8-0.9,1.5-0.9l0.2,0L77.2,16
		c-0.2,0.2-0.4,0.6-0.3,0.9c0,0.3,0.2,0.6,0.3,1c0.1,0.3,0.3,0.7,0.2,1.1c0,0.3-0.1,0.7-0.2,1c-0.2,0.7-0.5,1.4-1.1,1.8
		c-0.6,0.4-1.4,0.5-2.1,0.5c-0.4,0-0.7-0.1-1,0c-0.3,0.1-0.5,0.4-0.5,0.7c-0.1,0.7-0.1,1.4,0,2.1c0.2,1.4,0.5,2.7,0.9,4.1
		c0.3,1.4,0.7,2.7,0.7,4.1c0,0.3,0,0.7-0.3,1c-0.3,0.2-0.6,0.3-0.9,0.5c-0.6,0.3-1.2,0.7-1.9,1c-1.3,0.6-2.6,1.1-4,1.2
		c-0.7,0-1.4,0-2.1-0.1c-0.7-0.1-1.4-0.3-2-0.6c-1.3-0.5-2.7-1-3.6-2.1c-0.5-0.6-0.7-1.3-0.7-2c0-0.4,0.1-0.7,0-1
		c-0.1-0.3-0.3-0.6-0.6-0.7c-0.6-0.3-1.4-0.2-1.9,0.2c-0.3,0.2-0.5,0.4-0.6,0.8c-0.1,0.3,0,0.7,0.1,1c0.4,1.3,0.9,2.6,1.6,3.9
		c0.3,0.6,0.7,1.2,1.2,1.7c0.2,0.2,0.5,0.5,0.8,0.5c0.3,0,0.7,0,1,0l4.2,0c1.4,0,2.8,0,4.2,0.2c0.2,0,0.3,0,0.5,0.2
		c0.1,0.2-0.1,0.2-0.1,0.3l-0.2,0.1c-0.3,0.2-0.6,0.4-0.8,0.6C67.4,40.6,67.2,41.3,67.2,42L67.2,42z"/>
</g>
</svg>
