<?xml version="1.0" encoding="utf-8"?>
<!-- Generator: Adobe Illustrator 25.0.0, SVG Export Plug-In . SVG Version: 6.00 Build 0)  -->
<svg version="1.1" xmlns="http://www.w3.org/2000/svg" xmlns:xlink="http://www.w3.org/1999/xlink" x="0px" y="0px"
	 viewBox="0 0 587 294.3" style="enable-background:new 0 0 587 294.3;" xml:space="preserve">
<style type="text/css">
	.st0{fill:#C0955E;}
	.st1{fill:#BF945E;}
	.st2{fill:none;}
</style>
<g id="Calque_1">
	<path class="st0" d="M432.9,143.4c0,3.8-0.8,7.6-2.1,11.1l-1.1,2.6l-1.3,2.5c-0.4,0.9-1,1.6-1.5,2.4c-0.5,0.8-1,1.6-1.6,2.3
		l-1.7,2.3c-0.6,0.7-1.3,1.4-1.9,2.1l-1,1.1l-1,1l-2,2c-2.8,2.5-5.8,4.9-8.9,7c-12.5,8.6-26.6,14.6-41,19.2
		c-7.2,2.3-14.6,4.2-22,5.9c-7.4,1.6-14.9,2.9-22.4,4c-7.5,1-15.1,1.8-22.6,2.3c-7.6,0.5-15.1,0.8-22.7,0.8
		c-7.6,0-15.2-0.2-22.7-0.7c-7.6-0.5-15.1-1.2-22.6-2.2c-7.5-1-15-2.3-22.4-3.8c-7.4-1.6-14.8-3.5-22-5.7c-7.3-2.3-14.4-4.9-21.4-8
		c-6.9-3.1-13.7-6.7-20-11.1c-3.2-2.1-6.2-4.6-9-7.1l-2.1-2l-1-1l-1-1.1c-0.6-0.7-1.3-1.4-1.9-2.2l-1.8-2.3
		c-0.6-0.7-1.1-1.6-1.7-2.4c-0.5-0.8-1.1-1.6-1.5-2.5l-1.4-2.6l-1.1-2.7c-1.4-3.7-2.1-7.6-2.2-11.5c0-3.9,0.8-7.8,2.1-11.5l1.1-2.7
		l1.4-2.6c0.4-0.9,1-1.7,1.5-2.5c0.5-0.8,1-1.7,1.6-2.4l1.8-2.3c0.6-0.7,1.3-1.4,1.9-2.2l1-1.1l1-1l2.1-2c2.9-2.6,5.9-5,9-7.2
		c6.3-4.4,13-8,20-11.2c6.9-3.2,14.1-5.8,21.4-8.1c29.1-9.1,59.7-12.6,90-12.7c7.6,0.1,15.2,0.3,22.8,0.9c7.6,0.6,15.1,1.3,22.7,2.4
		c15,2.2,29.9,5.4,44.4,10.1c14.4,4.7,28.5,10.8,41,19.5c3.1,2.1,6.1,4.6,8.9,7.1l2,2l1,1l0.9,1.1c0.6,0.7,1.3,1.4,1.9,2.1l1.7,2.3
		c0.6,0.7,1.1,1.6,1.6,2.4c0.5,0.8,1.1,1.6,1.5,2.4l1.3,2.5l1.1,2.6C432.2,135.8,432.9,139.6,432.9,143.4z M432.6,143.4
		c-0.1-3.8-0.8-7.5-2.1-11l-1.1-2.6l-1.3-2.5c-0.4-0.8-1-1.6-1.5-2.4c-0.5-0.8-1-1.6-1.6-2.3l-1.7-2.2c-0.6-0.7-1.3-1.4-1.9-2.1
		l-0.9-1l-1-1l-2-2c-2.8-2.5-5.8-4.8-8.9-6.9c-6.2-4.2-12.9-7.7-19.8-10.8c-6.9-3-14-5.6-21.2-7.8c-7.2-2.2-14.5-4-21.9-5.5
		c-7.4-1.5-14.8-2.7-22.3-3.6c-7.5-1-15-1.6-22.5-2.1c-7.5-0.4-15.1-0.6-22.6-0.6c-7.5,0.1-15.1,0.3-22.6,0.8
		c-7.5,0.5-15,1.2-22.5,2.2c-7.5,1-14.9,2.3-22.2,3.8c-7.4,1.6-14.6,3.4-21.8,5.7c-7.2,2.2-14.2,4.8-21.1,7.9
		c-6.8,3.1-13.5,6.6-19.6,10.8c-3.1,2.1-6,4.4-8.8,6.9l-2,1.9l-1,1l-0.9,1c-0.6,0.7-1.2,1.4-1.9,2.1l-1.7,2.2
		c-0.6,0.7-1.1,1.5-1.6,2.3c-0.5,0.8-1,1.5-1.4,2.3l-1.3,2.4l-1,2.5c-1.3,3.4-2,7-2,10.7c0,3.6,0.7,7.3,2,10.7l1,2.5l1.3,2.4
		c0.4,0.8,0.9,1.6,1.4,2.4c0.5,0.8,1,1.6,1.6,2.3l1.7,2.2c0.6,0.7,1.2,1.4,1.8,2.1l0.9,1l1,1l2,1.9c2.8,2.5,5.7,4.8,8.8,6.9
		c6.1,4.3,12.8,7.9,19.6,11c6.8,3.1,13.9,5.7,21.1,8c7.2,2.3,14.5,4.2,21.9,5.8c7.4,1.6,14.8,2.9,22.3,3.9c7.5,1,15,1.7,22.5,2.3
		c7.5,0.5,15.1,0.7,22.6,0.8c7.5,0,15.1-0.2,22.6-0.6c7.5-0.5,15.1-1.1,22.6-2.1c7.5-1,14.9-2.2,22.3-3.8c7.4-1.5,14.7-3.4,21.9-5.6
		c7.2-2.2,14.3-4.8,21.2-7.9c6.9-3.1,13.6-6.6,19.8-10.9c3.1-2.1,6.1-4.5,8.9-7l2-2l1-1l0.9-1.1c0.6-0.7,1.3-1.4,1.9-2.1l1.7-2.2
		c0.6-0.7,1.1-1.5,1.6-2.3c0.5-0.8,1.1-1.6,1.5-2.4l1.3-2.5l1.1-2.6C431.8,150.9,432.6,147.2,432.6,143.4z"/>
	<path class="st0" d="M335.6,141.4c0,1.4-0.3,2.8-0.7,4.2c-0.5,1.3-1.2,2.6-2,3.7c-1.7,2.3-3.7,4.2-6,5.9c-4.6,3.3-9.8,5.6-15.1,7.4
		c-10.7,3.5-22.1,5-33.3,5.1c-11.3,0-22.6-1.3-33.5-4.7c-5.4-1.7-10.7-4-15.4-7.3c-2.3-1.7-4.5-3.6-6.2-6c-0.8-1.2-1.6-2.5-2.1-3.9
		c-0.5-1.4-0.8-2.9-0.8-4.4c0-1.5,0.3-3,0.8-4.4c0.5-1.4,1.2-2.7,2-3.9c1.7-2.4,3.9-4.4,6.2-6.1c4.7-3.4,10-5.7,15.4-7.5
		c10.8-3.5,22.2-4.9,33.6-4.9c5.7,0.1,11.3,0.5,16.9,1.3c5.6,0.9,11.1,2.2,16.5,4c5.3,1.8,10.6,4.2,15.1,7.6c2.3,1.7,4.4,3.6,6,6
		c0.8,1.2,1.5,2.4,1.9,3.8C335.3,138.6,335.6,140,335.6,141.4z M335.4,141.4c0-1.4-0.3-2.8-0.8-4.1c-0.5-1.3-1.2-2.5-2-3.7
		c-1.6-2.3-3.7-4.2-6-5.8c-4.6-3.2-9.8-5.3-15.2-7c-5.3-1.6-10.9-2.7-16.4-3.4c-5.5-0.7-11.1-1-16.7-1c-5.6,0-11.2,0.4-16.7,1.2
		c-5.5,0.8-11,1.9-16.3,3.6c-5.3,1.7-10.4,3.9-14.9,7.1c-2.2,1.6-4.3,3.4-5.9,5.6c-0.8,1.1-1.4,2.3-1.9,3.5
		c-0.4,1.2-0.7,2.5-0.7,3.9c0,1.3,0.2,2.6,0.7,3.9c0.4,1.3,1.1,2.4,1.8,3.5c1.6,2.2,3.6,4.1,5.8,5.7c4.5,3.2,9.6,5.5,14.9,7.3
		c10.6,3.5,21.9,4.9,33.1,5c11.2,0.1,22.5-1.2,33.2-4.5c5.3-1.7,10.6-3.9,15.2-7.2c2.3-1.6,4.4-3.6,6-5.8c0.8-1.2,1.5-2.4,1.9-3.7
		C335.1,144.2,335.4,142.8,335.4,141.4z"/>
	<path class="st0" d="M347.8,142.7c0,1.7-0.3,3.4-0.9,5c-0.6,1.6-1.4,3.1-2.4,4.5c-2,2.8-4.5,5.1-7.3,7.1c-5.5,4-11.9,6.8-18.3,8.9
		c-13,4.3-26.7,6-40.3,6.2c-13.6,0-27.4-1.6-40.5-5.7c-6.5-2.1-12.9-4.8-18.6-8.8c-2.8-2-5.4-4.4-7.5-7.2c-1-1.5-1.9-3-2.5-4.7
		c-0.6-1.7-0.9-3.5-1-5.3c0-1.8,0.3-3.6,0.9-5.3c0.6-1.7,1.5-3.3,2.5-4.7c2-2.9,4.6-5.3,7.5-7.3c5.6-4.1,12-6.9,18.5-9
		c13.1-4.3,26.9-5.9,40.6-5.9c6.9,0.1,13.7,0.6,20.5,1.6c6.8,1,13.5,2.6,19.9,4.8c6.5,2.2,12.8,5.1,18.3,9.1c2.8,2,5.3,4.4,7.3,7.2
		c1,1.4,1.8,2.9,2.4,4.6C347.5,139.3,347.8,141,347.8,142.7z M347.6,142.7c0-1.7-0.4-3.4-0.9-5c-0.6-1.6-1.4-3.1-2.4-4.4
		c-2-2.7-4.5-5-7.3-7c-5.6-3.9-11.9-6.5-18.3-8.5c-6.5-2-13.1-3.3-19.8-4.2c-6.7-0.9-13.5-1.2-20.2-1.2c-6.8,0-13.5,0.5-20.2,1.4
		c-6.7,0.9-13.3,2.3-19.7,4.4c-6.4,2.1-12.7,4.7-18.1,8.6c-2.7,1.9-5.2,4.2-7.1,6.8c-0.9,1.3-1.8,2.8-2.3,4.3
		c-0.5,1.5-0.8,3.1-0.9,4.7c0,1.6,0.3,3.2,0.8,4.7c0.5,1.5,1.3,3,2.3,4.3c1.9,2.7,4.4,5,7.1,6.9c5.4,3.9,11.7,6.7,18.1,8.8
		c12.9,4.2,26.5,5.9,40.1,6c13.6,0.1,27.2-1.5,40.2-5.6c6.5-2.1,12.8-4.8,18.3-8.7c2.8-2,5.3-4.3,7.3-7.1c0.9-1.4,1.8-2.9,2.4-4.5
		C347.3,146.1,347.6,144.4,347.6,142.7z"/>
	<path class="st0" d="M370.1,145.9c0,2.3-0.5,4.5-1.2,6.7c-0.7,2.2-1.9,4.1-3.2,6c-2.7,3.7-6.1,6.7-9.8,9.3
		c-7.4,5.2-15.8,8.9-24.4,11.7c-8.6,2.8-17.5,4.7-26.5,6c-4.5,0.6-9,1.1-13.5,1.5c-4.5,0.3-9.1,0.5-13.6,0.6
		c-4.5,0-9.1-0.1-13.6-0.4c-4.5-0.3-9-0.7-13.5-1.3c-9-1.2-17.9-3-26.6-5.7c-8.7-2.7-17.2-6.3-24.8-11.5c-3.8-2.6-7.3-5.7-10.1-9.5
		c-1.3-1.9-2.6-3.9-3.4-6.2c-0.8-2.2-1.3-4.6-1.3-7c0-2.4,0.5-4.8,1.3-7.1c0.8-2.3,2-4.3,3.3-6.3c2.8-3.8,6.3-7,10-9.6
		c7.6-5.3,16.1-9,24.8-11.8c17.4-5.6,35.7-7.7,53.9-7.7c4.5,0.1,9.1,0.2,13.6,0.6c4.5,0.4,9.1,0.8,13.6,1.5c9,1.4,17.9,3.4,26.5,6.3
		c8.6,2.9,17,6.6,24.4,12c1.9,1.3,3.6,2.8,5.3,4.3c1.6,1.6,3.2,3.3,4.5,5.1c1.3,1.9,2.5,3.8,3.2,6
		C369.6,141.3,370,143.6,370.1,145.9z M369.8,145.9c0-2.2-0.5-4.5-1.2-6.6c-0.7-2.1-1.9-4-3.2-5.9c-2.7-3.6-6.1-6.6-9.8-9.1
		c-7.4-5-15.9-8.4-24.5-11c-8.6-2.6-17.5-4.2-26.4-5.4c-4.5-0.6-8.9-0.9-13.4-1.2c-4.5-0.3-9-0.3-13.5-0.3c-4.5,0-9,0.2-13.4,0.5
		c-4.5,0.3-8.9,0.8-13.4,1.4c-8.9,1.2-17.7,3-26.2,5.7c-8.5,2.7-16.8,6.2-24.1,11.2c-3.6,2.5-7,5.5-9.5,8.9
		c-1.2,1.8-2.4,3.6-3.1,5.6c-0.7,2-1.1,4.1-1.2,6.2c0,2.1,0.4,4.2,1.1,6.2c0.7,2,1.8,3.9,3,5.7c2.6,3.5,5.9,6.5,9.5,9.1
		c7.3,5.1,15.6,8.7,24.1,11.5c8.5,2.8,17.4,4.6,26.3,5.9c4.5,0.6,8.9,1.1,13.4,1.4c4.5,0.3,9,0.5,13.5,0.5c4.5,0,9-0.1,13.5-0.3
		c4.5-0.3,9-0.7,13.5-1.2c8.9-1.2,17.8-2.9,26.4-5.6c8.6-2.7,17-6.2,24.4-11.3c3.7-2.6,7.1-5.6,9.7-9.2c1.3-1.8,2.5-3.8,3.2-5.9
		C369.3,150.3,369.7,148.1,369.8,145.9z"/>
	<path class="st0" d="M275.7,151.3c-0.3,0-0.5,0-0.8,0c-15.2-0.2-27.5-6.5-27.4-14.1c0.1-7.6,12.5-13.5,27.7-13.3
		c15.2,0.2,27.5,6.5,27.4,14.1l0,0C302.5,145.4,290.5,151.3,275.7,151.3z M274.5,124.9c-14.3,0-25.9,5.5-26,12.3
		c-0.1,7,11.7,12.9,26.4,13.1c14.7,0.2,26.6-5.3,26.7-12.3s-11.7-12.9-26.4-13.1C275,124.9,274.8,124.9,274.5,124.9z"/>
	<path class="st0" d="M285.7,144.3c0,1.1-3.5,2-7.9,2s-7.9-0.9-7.9-2c0-1.1,4.9,0.2,7.8,0.2C280.7,144.5,285.7,143.2,285.7,144.3z"
		/>
</g>
<g id="feuillage3branches">
	<g id="feillage_gauche">
		<path class="st1" d="M25.1,80.2c1.4-4.3,4.5-8,8.5-10.2c2-1.1,4.2-1.8,6.5-1.9c2.3-0.2,4.6,0.3,6.7,1.1l1.6,0.6l1.5,0.8
			c1,0.5,1.9,1.2,2.9,1.8c1.9,1.3,3.6,2.7,5.4,4.2c3.4,3,6.6,6.2,9.5,9.7c1.5,1.7,2.8,3.6,4.1,5.5c1.2,1.9,2.4,3.9,3.1,6.1
			c0.4,1.1,0.6,2.2,0.6,3.4c0,0.3-0.1,0.6-0.1,0.9c0,0.3-0.1,0.5-0.1,0.8c-0.1,0.5-0.1,1.1-0.1,1.7c0,2.2,0.4,4.5,0.9,6.7
			c0.5,2.2,1.1,4.4,1.9,6.5c0.8,2.1,1.6,4.3,2.8,6.1c0.1,0.2,0.3,0.4,0.4,0.5c0.1,0,0.3,0.2,0.3,0.4c0,0.2,0,0.3,0,0.4
			c-0.1,0.2-0.2,0.3-0.3,0.5c-0.4,0.5-0.8,0.9-1.3,1.2c-0.9,0.7-1.9,1.4-2.8,2c-2,1.2-4,2.2-6.2,3c-2.1,0.8-4.4,1.4-6.7,1.7
			c-2.3,0.2-4.7,0.1-6.9-0.7c-2.1-0.8-4.2-1.5-6.4-1.7c-2.2-0.2-4.4,0.1-6.6,0.6c-2.2,0.5-4.3,1.3-6.7,1.5l-0.9,0.1
			c-0.3,0-0.6,0-0.9-0.1c-0.6-0.1-1.2-0.2-1.7-0.3c-1.1-0.3-2.2-0.7-3.3-1.1c-4.3-1.7-8.2-4-11.8-6.8c-3.6-2.9-6.7-6.3-8.9-10.4
			c-2.2-4.1-3.1-8.8-2.5-13.4C8,99,8.6,96.7,9.5,94.6c0.2-0.5,0.5-1,0.7-1.6c0.3-0.5,0.5-1,0.8-1.5c0.6-1,1.2-1.9,1.9-2.8
			c1.4-1.8,2.9-3.5,4.7-4.9c0.9-0.7,2-1.2,3.1-1.4c0.6-0.1,1.2,0,1.7,0.2c0.6,0.2,1,0.5,1.4,0.9l-0.1,0.1c-0.4-0.4-0.9-0.7-1.4-0.9
			c-0.5-0.2-1.1-0.2-1.6-0.1c-1.1,0.2-2.1,0.7-3,1.4c-1.8,1.4-3.2,3.1-4.5,4.9c-0.7,0.9-1.3,1.8-1.9,2.8c-0.3,0.5-0.5,1-0.7,1.5
			c-0.2,0.5-0.5,1-0.7,1.5c-0.9,2.1-1.4,4.3-1.7,6.5c-0.5,4.4,0.4,9,2.6,12.9c2.1,3.9,5.3,7.2,8.8,10c3.5,2.8,7.4,5,11.6,6.7
			c1,0.4,2.1,0.8,3.2,1.1c0.5,0.1,1.1,0.3,1.6,0.3c0.3,0,0.5,0,0.8,0l0.8-0.1c2.2-0.2,4.3-1,6.5-1.5c2.2-0.5,4.6-0.8,6.9-0.6
			c2.3,0.2,4.6,0.9,6.7,1.8c2,0.8,4.3,0.9,6.5,0.7c2.2-0.2,4.4-0.8,6.5-1.6c2.1-0.8,4.1-1.7,6.1-2.9c1-0.6,1.9-1.2,2.8-1.9
			c0.4-0.3,0.9-0.7,1.2-1.1c0.1-0.1,0.1-0.2,0.2-0.3c0,0,0,0,0,0c0,0.1,0.1,0.1,0.1,0.1c-0.4-0.2-0.5-0.5-0.7-0.7
			c-1.3-2-2-4.1-2.8-6.3c-0.7-2.2-1.4-4.3-1.9-6.6c-0.5-2.2-0.8-4.5-0.9-6.8c0-0.6,0-1.2,0.1-1.7c0-0.3,0.1-0.6,0.1-0.9
			c0-0.3,0.1-0.5,0.1-0.8c0-1.1-0.2-2.2-0.6-3.2c-0.7-2.1-1.8-4.1-3-6c-1.2-1.9-2.6-3.7-4-5.4c-2.9-3.5-6-6.7-9.4-9.7
			c-1.7-1.5-3.5-2.9-5.3-4.2c-0.9-0.6-1.8-1.3-2.8-1.9L48.3,70l-1.6-0.6c-2.1-0.8-4.3-1.3-6.6-1.1c-2.2,0.1-4.4,0.8-6.4,1.9
			C29.8,72.3,26.6,75.9,25.1,80.2L25.1,80.2z"/>
		<path class="st1" d="M80,124.6c-2.1-0.4-4.2-1.1-6.2-1.7c-2-0.6-4.1-1.3-6.1-2.1c-1-0.4-2-0.8-2.9-1.5c-0.8-0.7-1.6-1.5-2.3-2.3
			c-1.4-1.6-2.7-3.3-4.2-4.9c-0.7-0.8-1.5-1.5-2.4-2.1c-0.8-0.6-1.8-1.2-2.7-1.8c-1.8-1.1-3.7-2.2-5.6-3.2c-1-0.5-1.9-0.9-2.9-1.3
			c-1-0.4-2-0.7-3-1.2c-2-0.9-3.8-2.1-5.5-3.5c-1.7-1.4-3.3-2.9-4.4-4.8c-1-1.9-2.1-3.7-3.3-5.5c-2.3-3.6-4.8-7.1-7.5-10.3
			c-2.7-3.3-5.7-6.3-9.1-8.9C10.3,68.1,8.5,67,6.6,66c-1.9-1-3.9-1.7-6-2l0-0.1c2.1,0.2,4.2,0.9,6.2,1.7c2,0.9,3.8,2,5.6,3.2
			c3.5,2.5,6.6,5.6,9.5,8.8c2.8,3.3,5.3,6.8,7.6,10.5c1.1,1.8,2.2,3.7,3.2,5.6c1,1.8,2.5,3.3,4.2,4.7c1.6,1.3,3.4,2.5,5.3,3.4
			c0.9,0.4,2,0.8,3,1.2c1,0.4,2,0.9,2.9,1.4c1.9,1,3.8,2.1,5.6,3.3c0.9,0.6,1.8,1.2,2.7,1.8c0.9,0.7,1.6,1.4,2.4,2.2
			c1.5,1.6,2.8,3.3,4.1,5c0.7,0.8,1.4,1.6,2.2,2.3c0.8,0.7,1.8,1.1,2.8,1.5c2,0.8,4,1.5,6,2.2C75.9,123.3,77.9,124,80,124.6
			L80,124.6z"/>
		<path class="st1" d="M75.8,114.6c-1.1,0.1-2.1,0.3-3.1,0.7c-1,0.3-1.9,0.9-3,1.3c-1,0.4-2.1,0.8-3.3,0.8c-1.2,0-2.3-0.4-3.2-1
			l0-0.1c1.1,0.1,2.1,0.2,3.2,0.1c1-0.1,2.1-0.2,3.1-0.5c1-0.3,2-0.7,3.1-1C73.6,114.5,74.7,114.5,75.8,114.6L75.8,114.6z"/>
		<path class="st1" d="M75,111.3c-2.5,0.6-5.2,0.4-7.5,1.4c-0.6,0.3-1.3,0.5-2,0.5c-0.7,0-1.4-0.1-2-0.3c-1.3-0.4-2.4-1.1-3.6-1.6
			l0-0.1c1.3,0,2.6,0.5,3.8,0.7c1.2,0.3,2.3,0.4,3.5,0c1.3-0.4,2.6-0.5,3.9-0.6C72.4,111.4,73.7,111.4,75,111.3L75,111.3z"/>
		<path class="st1" d="M73.3,102.1c-2-0.4-3.9-1.1-5.8-1.3c-1-0.1-1.9,0-2.8,0.2c-0.9,0.3-1.8,0.7-2.7,1.2c-1.8,0.9-3.6,1.9-5.5,2.4
			c-1,0.3-2,0.5-3,0.5c-1,0.1-2.1,0-3-0.4l0-0.1c2,0.2,3.9-0.3,5.7-1c1.8-0.6,3.7-1.3,5.5-2.2c0.9-0.4,1.8-0.9,2.9-1.1
			c1-0.2,2.1-0.3,3.1-0.1C69.6,100.6,71.4,101.5,73.3,102.1L73.3,102.1z"/>
		<path class="st1" d="M70.4,94.9c-2.1,0.5-3.9,1.4-5.9,2.3c-1,0.4-2,0.8-3.1,0.9c-0.6,0.1-1.1,0.1-1.7,0C59.4,98,59.2,98,59,98
			c-0.3,0-0.5,0-0.8,0c-2,0.1-4.1,0.7-6.1,1.3c-1,0.3-2,0.6-3,0.9c-0.5,0.2-1,0.4-1.5,0.6c-0.5,0.2-0.9,0.4-1.4,0.8l-0.1-0.1
			c0.7-0.9,1.7-1.4,2.6-1.9c1-0.5,2-0.9,3-1.2c2-0.7,4.2-1.1,6.4-1.1c0.3,0,0.6,0,0.8,0c0.3,0,0.6,0.1,0.8,0.1
			c0.5,0.1,1,0.1,1.5,0.1c1-0.1,2-0.4,3-0.8C66.3,96,68.3,95.1,70.4,94.9L70.4,94.9z"/>
		<path class="st1" d="M69.2,93.4c-2,0.8-4.2,1.2-6.4,1.4c-0.6,0-1.1,0-1.7,0c-0.3,0-0.6-0.1-0.9-0.2c-0.3-0.1-0.5-0.1-0.7-0.1
			c-1-0.1-2,0.2-3,0.6c-1,0.4-1.9,0.9-2.8,1.5L53,97c-0.3,0.2-0.5,0.3-0.8,0.4c-0.5,0.2-1.1,0.4-1.7,0.5c-1.1,0.2-2.2,0.3-3.3,0.4
			c-1.1,0.2-2.1,0.4-3,1l-0.1-0.1c0.4-0.4,0.8-0.7,1.3-1c0.5-0.2,1-0.4,1.6-0.6c1.1-0.3,2.2-0.5,3.2-0.7c0.5-0.1,1-0.3,1.5-0.5
			c0.2-0.1,0.4-0.2,0.7-0.3l0.7-0.4c1-0.6,2-1.1,3-1.4c1.1-0.4,2.2-0.7,3.4-0.5c0.3,0,0.6,0.1,0.9,0.2c0.2,0.1,0.5,0.1,0.7,0.2
			c0.5,0.1,1.1,0.1,1.6,0.1C64.9,94.3,67.1,94,69.2,93.4L69.2,93.4z"/>
		<path class="st1" d="M63.7,86c-2.5,0.6-4.8,1.9-7,3c-2.3,1.1-4.5,2.4-7.1,3.1c-0.7,0.1-1.3,0.3-2.1,0.2c-0.4-0.1-0.7-0.1-1-0.2
			c-0.3-0.1-0.6-0.1-0.9-0.2c-1.2-0.2-2.5-0.3-3.8-0.3c-1.3-0.1-2.5,0-3.8,0c-1.3,0.1-2.5,0.2-3.8,0.5l0-0.1
			c1.1-0.7,2.5-0.9,3.7-1.1c1.3-0.2,2.6-0.3,3.9-0.3c1.3,0,2.6,0.1,3.9,0.3c0.3,0.1,0.7,0.1,1,0.2c0.3,0.1,0.7,0.2,0.9,0.2
			c0.5,0.1,1.1,0,1.7-0.1c2.4-0.6,4.8-1.7,7.1-2.8C58.7,87.6,61.1,86.4,63.7,86L63.7,86z"/>
		<path class="st1" d="M62.8,84c-2.6-0.3-5.2-0.3-7.8-0.3c-2.6,0.1-5.2,0.2-7.7,0.6c-1.3,0.2-2.5,0.5-3.6,1l-3.5,1.6
			c-1.2,0.5-2.3,1.1-3.5,1.6c-0.6,0.3-1.2,0.6-1.7,0.9c-0.6,0.3-1.2,0.6-1.7,0.9l-0.1-0.1c0.9-0.9,2.1-1.6,3.2-2.3
			c1.1-0.7,2.3-1.3,3.4-1.9c1.2-0.6,2.4-1.1,3.6-1.6c1.3-0.5,2.6-0.7,3.9-0.9c2.6-0.3,5.2-0.4,7.8-0.3C57.6,83.3,60.2,83.4,62.8,84
			L62.8,84z"/>
		<path class="st1" d="M57.3,79.2c-2.5-0.6-5-1.1-7.5-1.3c-2.5-0.3-5.1-0.4-7.5,0c-1.2,0.2-2.4,0.5-3.3,1.3c-1,0.8-2,1.6-3,2.4
			c-1,0.8-2,1.6-3.2,2.2c-0.6,0.3-1.2,0.6-1.8,0.8c-0.6,0.2-1.4,0.2-2-0.1l0-0.1c0.6,0.1,1.2,0,1.8-0.2c0.6-0.2,1.1-0.6,1.6-0.9
			c1-0.7,2-1.5,2.9-2.4c1-0.8,1.9-1.6,3-2.4c1.1-0.8,2.5-1.1,3.8-1.3c2.6-0.3,5.2,0,7.7,0.3C52.4,77.8,54.9,78.3,57.3,79.2
			L57.3,79.2z"/>
		<path class="st1" d="M54.3,75.9c-2.4-0.4-4.8-0.8-7.2-1c-2.4-0.1-4.9-0.2-7,0.7c-0.5,0.2-1,0.5-1.5,0.9c-0.4,0.3-0.9,0.8-1.4,1.2
			c-0.9,0.8-1.9,1.6-2.8,2.3c-1,0.7-2,1.4-3.1,1.9c-1.1,0.5-2.3,1-3.6,0.8l0-0.1c1.2-0.1,2.2-0.7,3.2-1.3c1-0.6,1.9-1.4,2.9-2.1
			l2.8-2.3c0.5-0.4,0.9-0.8,1.5-1.1c0.5-0.4,1.1-0.7,1.7-0.9c1.2-0.4,2.4-0.6,3.7-0.6c1.2,0,2.5,0,3.7,0.2
			C49.6,74.8,52,75.3,54.3,75.9L54.3,75.9z"/>
		<path class="st1" d="M69.5,129.8c-0.4-0.8-0.7-1.7-1-2.6l-0.8-2.7c-0.3-0.9-0.6-1.7-1-2.5c-0.3-0.8-0.8-1.4-1.6-2.1l0-0.1
			c1,0.1,1.9,0.8,2.4,1.7c0.5,0.9,0.7,1.8,0.8,2.8C68.8,126.1,69.1,127.9,69.5,129.8L69.5,129.8z"/>
		<path class="st1" d="M66.4,131.3c-1.1-1.3-1.9-2.8-2.8-4.2c-0.8-1.5-1.6-3-2.4-4.5c-0.8-1.5-1.6-3-2.2-4.6
			c-0.6-1.6-1.2-3.2-1.6-4.9l0.1,0c0.9,1.5,1.6,3,2.4,4.5c0.7,1.5,1.3,3.1,2,4.7c0.7,1.5,1.4,3.1,2.1,4.6
			C64.7,128.4,65.5,129.9,66.4,131.3L66.4,131.3z"/>
		<path class="st1" d="M62.7,130.8c-1-1.3-1.6-2.9-2.4-4.3c-0.7-1.5-1.3-3-2-4.5c-0.6-1.5-1.3-3-1.8-4.6c-0.4-1.6-0.9-3.2-0.9-4.9
			l0.1,0c0.5,1.6,1.2,3.1,1.7,4.6c0.6,1.5,1,3.1,1.6,4.7c0.5,1.5,1.1,3.1,1.7,4.6C61.4,127.8,61.9,129.4,62.7,130.8L62.7,130.8z"/>
		<path class="st1" d="M54.1,129.5c-0.7-1.6-0.8-3.3-1-5c-0.1-1.7-0.2-3.4-0.2-5.1c-0.1-1.7-0.2-3.4-0.3-5c-0.1-1.7-0.1-3.3-0.6-4.9
			l0.1-0.1c0.5,0.7,0.9,1.5,1.1,2.4c0.2,0.8,0.3,1.7,0.4,2.5c0.2,1.7,0.1,3.4,0.1,5.1c0,1.7-0.1,3.4-0.1,5.1
			C53.7,126.2,53.7,127.9,54.1,129.5L54.1,129.5z"/>
		<path class="st1" d="M51.6,129.8c-0.5-2-0.6-4.1-0.8-6.2l-0.5-6.2c-0.2-2.1-0.5-4.1-0.7-6.1c-0.1-1-0.2-2-0.4-3
			c-0.1-0.5-0.2-1-0.3-1.5c-0.1-0.5-0.3-0.9-0.7-1.3l0-0.1c0.5,0.2,0.9,0.7,1.1,1.2c0.2,0.5,0.4,1,0.6,1.5c0.3,1,0.5,2,0.7,3.1
			c0.3,2.1,0.4,4.1,0.5,6.2l0.2,6.2C51.3,125.7,51.3,127.8,51.6,129.8L51.6,129.8z"/>
		<path class="st1" d="M44.5,129.9c-0.3-1-0.2-2.1-0.2-3.2c0.1-1.1,0.2-2.1,0.4-3.2c0.3-2.1,0.8-4.1,1.1-6.2c0.1-1,0.3-2.1,0.2-3
			c-0.1-1-0.3-2-0.5-3c-0.2-1-0.5-2-0.7-3.1c-0.1-0.5-0.2-1.1-0.2-1.6c0-0.5,0-1.1,0.3-1.6l0.1,0.1c-0.2,0.5-0.1,1,0,1.5
			c0.1,0.5,0.3,1,0.4,1.5c0.3,1,0.7,2,1,3c0.3,1,0.5,2.1,0.6,3.2c0,1.1-0.2,2.2-0.4,3.2c-0.4,2.1-1,4.1-1.4,6.2
			c-0.2,1-0.4,2.1-0.6,3.1C44.5,127.8,44.4,128.9,44.5,129.9L44.5,129.9z"/>
		<path class="st1" d="M41.1,130.3c-1-2.3-1.7-4.7-2.2-7.1c-0.5-2.4-0.6-5-0.6-7.4c0-2.5-0.1-4.9,0-7.4l0.1-3.7c0-0.6,0-1.2,0-1.8
			c0-0.6,0-1.2-0.1-1.8l0.1,0c0.5,1.2,0.5,2.5,0.7,3.7c0.1,1.2,0.1,2.5,0.2,3.7c0.1,2.5-0.1,5-0.2,7.4c-0.1,2.5-0.1,4.9,0.3,7.4
			C39.7,125.5,40.3,127.9,41.1,130.3L41.1,130.3z"/>
		<path class="st1" d="M38.7,130.3c-1-2.4-1.5-5-2.1-7.5c-0.5-2.5-0.9-5.1-1.1-7.7c-0.2-2.6,0-5.2,0.1-7.8c0.1-1.3,0.1-2.6,0.1-3.8
			c0-1.3-0.1-2.6-0.8-3.7l0.1-0.1c1,1,1.2,2.4,1.4,3.7c0.2,1.3,0.2,2.6,0.2,3.9c0,2.6-0.4,5.2-0.3,7.7c0.1,2.6,0.4,5.1,0.8,7.7
			C37.5,125.3,38,127.8,38.7,130.3L38.7,130.3z"/>
		<path class="st1" d="M32.8,129.4c0.2-1.3,0.5-2.6,0.8-3.9c0.3-1.3,0.7-2.6,0.7-3.8c0.1-1.3-0.2-2.6-0.7-3.8
			c-0.5-1.3-0.7-2.6-0.9-3.9c-0.4-2.7-0.5-5.3-0.3-8c0.1-1.3,0.2-2.7,0.4-4c0.1-0.7,0.2-1.3,0.4-2c0.1-0.3,0.2-0.6,0.3-1
			c0.1-0.3,0.2-0.7,0.5-0.9l0.1,0.1c-0.3,0.5-0.4,1.2-0.5,1.8c-0.1,0.6-0.1,1.3-0.2,2c-0.1,1.3-0.1,2.6-0.1,3.9
			c0,2.6-0.1,5.3,0.1,7.9c0.1,1.3,0.3,2.6,0.7,3.8c0.4,1.3,0.7,2.7,0.6,4c-0.1,1.4-0.5,2.6-0.9,3.9
			C33.5,126.9,33.1,128.1,32.8,129.4L32.8,129.4z"/>
		<path class="st1" d="M24.6,127.4c-0.5-3.1-0.9-6.2-1.3-9.3c-0.3-3.1-0.7-6.2-0.5-9.4c0-0.8,0.1-1.6,0.3-2.4
			c0.2-0.8,0.4-1.5,0.6-2.3c0.5-1.5,1-3,1.6-4.4c1.2-2.9,2.4-5.8,3.9-8.5l0.1,0c-0.9,3-2.1,5.9-3.1,8.8l-1.6,4.4
			c-0.5,1.5-1,2.9-1.1,4.4c-0.2,3.1,0,6.2,0.2,9.3C24.1,121.2,24.4,124.3,24.6,127.4L24.6,127.4z"/>
		<path class="st1" d="M13.5,116.8c0.7-2.4,1.6-4.7,2.4-7c0.8-2.3,1.6-4.7,1.6-7.1c0.1-1.4,0.5-2.6,1-3.7c0.5-1.2,1.1-2.3,1.8-3.3
			c0.7-1,1.5-2.1,2.3-3c0.4-0.5,0.9-0.9,1.4-1.3c0.5-0.3,1.1-0.8,1.7-0.8l0,0.1c-0.6,0.1-1,0.6-1.4,1c-0.4,0.4-0.8,0.9-1.2,1.4
			c-0.7,1-1.4,2-2,3.1c-0.6,1-1.2,2.1-1.7,3.2c-0.5,1.1-1,2.2-1.1,3.4c-0.2,2.6-1.1,4.9-2,7.2C15.5,112.3,14.5,114.5,13.5,116.8
			L13.5,116.8z"/>
		<path class="st1" d="M12.3,112.7c0.3-2.4,0.9-4.8,1.5-7.2c0.7-2.4,1.5-4.7,2.5-6.9c1-2.3,2.1-4.5,3.7-6.4c0.8-0.9,1.7-1.8,2.8-2.6
			c1-0.7,2.2-1.2,3.5-1.3l0,0.1c-2.3,0.8-4.1,2.5-5.5,4.4c-1.4,1.9-2.7,4-3.7,6.1c-1.1,2.2-1.9,4.4-2.7,6.8
			C13.5,107.9,12.8,110.3,12.3,112.7L12.3,112.7z"/>
		<path class="st1" d="M52,62.7c4.4,0.7,8.5,1.6,12.7,2.6c4.2,1,8.4,2.1,12.5,3.3c4.1,1.2,8.3,2.5,12.3,4c2,0.7,4.1,1.5,6,2.4
			c1,0.5,2,0.9,2.9,1.5c1,0.6,1.9,1.1,2.7,2l0.3,0.3l-0.3,0.2c-0.6,0.5-1.2,0.6-1.8,0.7c-0.6,0.1-1.1,0.1-1.7,0.1
			c-1.1,0-2.3-0.1-3.4-0.2c-2.2-0.2-4.4-0.5-6.6-0.9c-4.4-0.8-8.7-1.9-13-3.2c-4.3-1.3-8.5-2.8-12.5-4.7c-2-1-4-2-5.8-3.3
			c-0.9-0.6-1.8-1.3-2.6-2.1C53.1,64.8,52.3,63.9,52,62.7z M52.1,62.8c0.4,0.9,1.1,1.8,2,2.6c0.8,0.7,1.7,1.4,2.7,1.9
			c1.9,1.2,3.9,2.1,5.9,3c4.1,1.7,8.3,3.2,12.5,4.4C79.3,76,83.6,77,88,77.9c2.2,0.4,4.4,0.8,6.5,1c1.1,0.1,2.2,0.2,3.3,0.2
			c0.5,0,1.1,0,1.6-0.1c0.5-0.1,1.1-0.2,1.3-0.4l0,0.5c-0.6-0.7-1.6-1.3-2.5-1.8c-0.9-0.5-1.9-1-2.9-1.5c-2-0.9-4-1.7-6-2.5
			c-4-1.5-8.1-2.9-12.3-4.2c-4.1-1.3-8.3-2.5-12.5-3.5C60.5,64.6,56.2,63.6,52.1,62.8z"/>
		<path class="st1" d="M96.5,78.2c-3.5-1.1-7-1.9-10.5-2.7l-10.6-2.6c-3.5-0.9-7.1-1.8-10.5-2.9c-1.7-0.6-3.5-1.2-5.1-1.9
			c-0.8-0.4-1.7-0.8-2.5-1.2c-0.8-0.5-1.6-0.9-2.2-1.7l0.1-0.1c0.6,0.7,1.5,1,2.3,1.4c0.8,0.3,1.7,0.7,2.5,0.9
			c1.7,0.6,3.4,1.1,5.2,1.6l10.4,3.1L86,75C89.5,76,93.1,76.9,96.5,78.2L96.5,78.2z"/>
		<path class="st1" d="M71.7,58.3c4.3-1.1,8.7-1.5,13.1-1.9c4.4-0.3,8.8-0.4,13.2-0.1c4.4,0.2,8.8,0.7,13.1,1.5
			c4.3,0.9,8.6,2.1,12.6,4.1l0,0l0,0c0.5,0.4,0.9,0.8,1.3,1.4c0.2,0.3,0.3,0.8,0.1,1.2c-0.2,0.4-0.5,0.6-0.8,0.8
			c-1.2,0.6-2.4,0.6-3.6,0.7c-2.4,0.1-4.8,0-7.2-0.1c-4.7-0.3-9.4-1-14.1-1.6c-4.7-0.7-9.4-1.6-14-2.5c-2.3-0.5-4.6-1-7-1.5
			c-1.2-0.3-2.3-0.6-3.5-0.9L73.4,59l-0.8-0.3c-0.1-0.1-0.3-0.1-0.4-0.2c-0.1,0-0.1-0.1-0.2-0.1l-0.1-0.1
			C71.8,58.4,71.7,58.4,71.7,58.3z M71.8,58.4c1,0.4,2.2,0.6,3.4,0.9c1.2,0.2,2.3,0.5,3.5,0.7c2.3,0.4,4.7,0.9,7,1.3
			c4.7,0.8,9.3,1.5,14,2.2c4.7,0.7,9.4,1.3,14.1,1.7c2.3,0.2,4.7,0.3,7,0.2c1.1-0.1,2.4-0.1,3.3-0.6c0.2-0.1,0.4-0.3,0.5-0.4
			c0.1-0.1,0.1-0.3-0.1-0.5c-0.2-0.4-0.6-0.8-1.1-1.2l0.1,0c-3.9-2-8.1-3.3-12.4-4.2c-4.3-0.9-8.7-1.4-13-1.7
			c-4.4-0.3-8.8-0.3-13.2-0.1C80.4,57,76,57.4,71.8,58.4z"/>
		<path class="st1" d="M118.6,63c-3.5-1.1-7.2-1.6-10.9-2.1c-3.7-0.4-7.4-0.7-11.1-1c-3.7-0.2-7.4-0.4-11.1-0.6
			c-3.7-0.3-7.4-0.5-11.1-0.9l0-0.1c3.7-0.2,7.4-0.1,11.2,0c3.7,0.1,7.4,0.5,11.1,0.8c3.7,0.4,7.4,0.8,11.1,1.3
			C111.4,61,115.1,61.6,118.6,63L118.6,63z"/>
		<path class="st1" d="M87.9,52.1c1,0.2,2.1,0.5,3.2,0.7c1.1,0.2,2.2,0.3,3.3,0.4c2.2,0.2,4.4,0.4,6.6,0.5c4.4,0.2,8.8,0.2,13.2-0.1
			c4.4-0.3,8.8-0.8,13.1-1.9c2.1-0.6,4.2-1.3,6.1-2.3c1.9-1,3.7-2.4,4.5-4.3l0.2,0.5c-1.8-0.8-4-0.9-6.1-0.9c-2.1,0-4.2,0.2-6.4,0.4
			c-4.2,0.4-8.5,1.1-12.7,1.9c-4.2,0.7-8.4,1.6-12.6,2.4L87.9,52.1z M87.8,52.1c4.2-1.3,8.3-2.3,12.4-3.4c4.2-1,8.4-1.9,12.6-2.7
			c4.2-0.8,8.5-1.4,12.7-1.9c2.1-0.2,4.3-0.3,6.5-0.3c2.2,0,4.4,0.1,6.5,1.1l0.4,0.2l-0.2,0.4c-1,2.2-2.9,3.6-4.9,4.6
			c-2,1-4.1,1.7-6.3,2.3c-4.3,1.1-8.8,1.5-13.2,1.8c-4.4,0.2-8.9,0.2-13.3-0.1c-2.2-0.1-4.4-0.3-6.6-0.6
			C92.1,53.1,90,52.8,87.8,52.1z"/>
		<path class="st1" d="M133.4,47c-3.5,0.4-7.1,0.9-10.6,1.3l-10.6,1.4c-3.5,0.5-7.1,1-10.6,1.4c-3.6,0.3-7.1,0.7-10.7,0.8l0-0.1
			c3.5-0.6,7.1-1.2,10.6-1.7c3.5-0.5,7.1-0.8,10.7-1.2C119.1,48.3,126.2,47.5,133.4,47L133.4,47z"/>
		<path class="st1" d="M97.1,47.2c2.1-0.8,4.1-2.1,6-3.4c1.9-1.3,3.7-2.7,5.5-4.2c3.6-2.9,7-6.1,10.3-9.4c3.3-3.3,6.4-6.7,9.2-10.4
			c1.4-1.8,2.7-3.7,3.8-5.7c0.5-1,1-2.1,1.3-3.1c0.3-1.1,0.4-2.2-0.1-3.1c-0.5-0.9-1.6-0.7-2.6-0.2c-1,0.5-1.9,1.2-2.8,1.9
			c-1.8,1.5-3.4,3.1-4.9,4.8c-3.1,3.4-6.1,7-8.9,10.6C108.1,32.2,102.6,39.8,97.1,47.2z M97,47.2c2.5-4,5.1-7.8,7.8-11.6
			c2.7-3.8,5.4-7.5,8.3-11.2c2.9-3.6,5.8-7.2,9-10.7c1.6-1.7,3.3-3.3,5.1-4.8c0.9-0.7,1.9-1.4,3-2c0.6-0.2,1.2-0.5,1.9-0.5
			c0.3,0,0.7,0.1,1,0.3c0.3,0.2,0.6,0.5,0.7,0.8c0.7,1.2,0.5,2.6,0.2,3.7c-0.3,1.2-0.8,2.2-1.4,3.3c-1.1,2.1-2.5,4-3.9,5.8
			c-2.9,3.7-6.1,7.1-9.4,10.3c-3.3,3.2-6.8,6.3-10.4,9.2c-1.8,1.4-3.7,2.8-5.6,4.1c-1,0.6-1.9,1.3-3,1.8c-0.5,0.3-1,0.6-1.6,0.8
			C98.2,46.9,97.7,47.1,97,47.2z"/>
		<path class="st1" d="M130.1,9.8c-2.2,2.2-3.7,5.1-5,7.9c-0.7,1.4-1.3,2.9-1.9,4.3c-0.1,0.4-0.4,0.7-0.6,1.1
			c-0.2,0.3-0.5,0.7-0.7,1c-0.5,0.6-1,1.2-1.5,1.8c-2.1,2.4-4.2,4.8-6.6,6.9c-1.2,1.1-2.4,2.1-3.6,3.1c-1.3,0.9-2.6,2-4.1,2.4l0-0.1
			c0.4-0.2,0.7-0.3,1-0.6c0.3-0.2,0.6-0.5,0.9-0.7c0.6-0.5,1.2-1,1.8-1.5c1.2-1.1,2.3-2.2,3.4-3.3c2.2-2.2,4.5-4.4,6.6-6.7
			c0.5-0.6,1.1-1.2,1.6-1.8c0.3-0.3,0.5-0.6,0.7-0.9c0.2-0.3,0.4-0.6,0.6-1c0.7-1.4,1.4-2.9,2.1-4.3
			C126.1,14.7,127.6,11.8,130.1,9.8L130.1,9.8z"/>
		<path class="st1" d="M92.5,48.6c1.1-1.7,2.1-3.6,3-5.5c0.9-1.9,1.8-3.9,2.6-5.8c1.6-3.9,3.1-7.9,4.3-12c1.2-4,2.3-8.2,2.9-12.3
			c0.3-2.1,0.4-4.2,0.3-6.3c-0.1-1-0.2-2.1-0.5-3.1c-0.2-0.5-0.3-1-0.5-1.4c-0.2-0.5-0.5-0.9-0.8-1.2c-0.6-0.6-1.3,0.3-1.8,1.1
			C101.5,3,101.1,4,100.8,5c-0.7,2-1.2,4-1.7,6.1c-1,4.1-1.8,8.3-2.5,12.5C95.1,31.9,93.9,40.3,92.5,48.6z M92.5,48.7
			c0.3-4.3,0.8-8.5,1.3-12.7c0.5-4.2,1.1-8.4,1.8-12.6c0.7-4.2,1.5-8.4,2.5-12.5c0.5-2.1,1.1-4.1,1.8-6.2c0.4-1,0.8-2,1.3-3
			c0.3-0.5,0.6-1,1.1-1.4c0.2-0.2,0.6-0.4,1-0.4c0.4,0,0.7,0.2,1,0.4c0.5,0.4,0.7,0.9,1,1.4c0.3,0.5,0.4,1,0.6,1.6
			c0.3,1.1,0.4,2.1,0.5,3.2c0.1,2.2-0.1,4.3-0.4,6.4c-0.6,4.2-1.7,8.4-3,12.4c-1.3,4-2.8,8-4.5,11.9c-0.8,2-1.7,3.9-2.7,5.8
			c-0.5,0.9-1,1.9-1.5,2.8c-0.3,0.5-0.5,0.9-0.8,1.4L93,48C92.9,48.3,92.7,48.5,92.5,48.7z"/>
		<path class="st1" d="M104.5,7c-0.6,3.3-1.4,6.6-2.1,9.9c-0.8,3.3-1.6,6.5-2.5,9.8c-0.8,3.3-1.6,6.5-2.6,9.7
			c-0.5,1.6-1,3.2-1.6,4.8c-0.6,1.6-1.1,3.2-2,4.7l-0.1-0.1c0.3-0.7,0.5-1.6,0.7-2.4l0.6-2.4l1.3-4.9c0.9-3.2,1.9-6.4,2.8-9.7
			c0.9-3.2,1.9-6.5,2.8-9.7C102.8,13.5,103.7,10.2,104.5,7L104.5,7z"/>
		<path class="st1" d="M79,54.3c0.9-0.5,1.6-1.3,2.3-2.2c0.7-0.8,1.2-1.8,1.7-2.7c1-1.9,1.9-3.8,2.8-5.8c1.6-4,3-8,4.2-12.2
			c1.2-4.1,2.3-8.3,3.1-12.5c0.4-2.1,0.7-4.2,0.9-6.3c0.1-1.1,0.1-2.1,0.1-3.2c0-0.5-0.1-1-0.2-1.5c-0.1-0.5-0.4-0.9-0.6-1
			c-0.2-0.1-0.7,0.2-1.1,0.5c-0.4,0.3-0.7,0.7-1,1.2c-0.6,0.8-1.2,1.7-1.7,2.7c-1,1.9-1.9,3.8-2.8,5.8c-1.7,3.9-3.2,8-4.4,12.1
			c-1.3,4.1-2.3,8.3-3,12.5c-0.3,2.1-0.6,4.2-0.7,6.4C78.5,50.1,78.6,52.3,79,54.3z M79,54.4c-1.2-4.3-0.9-8.6-0.4-12.9
			c0.6-4.3,1.5-8.5,2.7-12.7c1.2-4.1,2.7-8.2,4.4-12.2c0.9-2,1.8-3.9,2.9-5.8c0.6-0.9,1.1-1.9,1.8-2.7c0.3-0.4,0.7-0.9,1.1-1.2
			c0.2-0.2,0.5-0.4,0.7-0.5c0.3-0.1,0.7-0.3,1.1-0.2c0.4,0.1,0.7,0.4,0.8,0.7c0.1,0.3,0.3,0.6,0.3,0.8c0.2,0.6,0.2,1.1,0.2,1.7
			c0,1.1,0,2.2-0.1,3.3c-0.2,2.2-0.6,4.3-1,6.4c-0.9,4.2-2,8.4-3.2,12.5c-1.3,4.1-2.7,8.2-4.4,12.1c-0.9,2-1.8,3.9-2.9,5.8
			c-0.5,0.9-1.1,1.9-1.8,2.7C80.7,53.1,80,54,79,54.4z"/>
		<path class="st1" d="M60.5,58c1.6-0.9,3.1-2.3,4.3-3.8c1.2-1.5,2.3-3.1,3.3-4.8c1.9-3.3,3.5-6.9,4.9-10.5c1.4-3.6,2.6-7.3,3.5-11
			c0.4-1.9,0.8-3.8,1.1-5.7c0.1-0.9,0.2-1.9,0.2-2.8c0-0.9-0.1-1.9-0.4-2.7l0,0c-0.2-0.4-0.5-0.7-0.8-0.8c-0.3-0.1-0.7,0.1-1.1,0.3
			c-0.7,0.5-1.4,1.3-1.9,2.1c-1.1,1.6-2.1,3.4-2.9,5.2c-1.7,3.6-3.2,7.3-4.5,11.1c-1.3,3.8-2.5,7.6-3.4,11.5
			C61.7,50.1,60.9,54.1,60.5,58z M60.4,58.1c0-4.1,0.7-8.1,1.5-12c0.8-3.9,1.9-7.8,3.2-11.7c1.3-3.8,2.7-7.6,4.5-11.2
			c0.9-1.8,1.9-3.6,3.1-5.3c0.6-0.8,1.3-1.6,2.2-2.3c0.5-0.3,1.1-0.6,1.8-0.4c0.7,0.2,1.1,0.7,1.3,1.2l0,0l0,0c0.4,1,0.4,2,0.4,3
			c0,1-0.1,2-0.2,2.9c-0.3,1.9-0.7,3.8-1.2,5.7c-1,3.8-2.2,7.4-3.6,11.1c-1.5,3.6-3.1,7.1-5.1,10.4c-1,1.7-2.1,3.3-3.4,4.7
			C63.6,55.8,62.3,57.2,60.4,58.1z"/>
		<path class="st1" d="M41.4,61.1c5.2-5.9,10.3-11.9,14.8-18.5c2.2-3.3,4.3-6.6,5.9-10.2c0.8-1.8,1.5-3.6,1.8-5.5
			c0.2-1,0.3-1.9,0.2-2.9c-0.1-0.5-0.1-1-0.2-1.4c-0.1-0.5-0.2-0.9-0.4-1.2c-0.2-0.3-0.4-0.4-0.8-0.3c-0.4,0.1-0.7,0.4-1.1,0.7
			c-0.7,0.7-1.3,1.4-1.8,2.2c-1.1,1.6-2.1,3.3-3.1,5c-1.9,3.4-3.6,7-5.4,10.5C47.9,46.7,44.7,54.1,41.4,61.1z M41.4,61.2
			c1.3-3.8,2.8-7.4,4.3-11.1c1.5-3.7,3.1-7.3,4.8-10.9c1.7-3.6,3.4-7.1,5.4-10.6c1-1.7,2-3.4,3.2-5.1c0.6-0.8,1.2-1.6,2-2.3
			c0.4-0.3,0.8-0.7,1.4-0.9c0.3-0.1,0.6-0.1,1,0c0.4,0.1,0.6,0.4,0.8,0.6c1,2,0.8,4.1,0.5,6.1c-0.4,2-1.1,3.9-1.9,5.7
			c-1.7,3.6-3.8,7-6.1,10.2c-2.3,3.2-4.7,6.3-7.3,9.4c-1.3,1.5-2.6,3-3.9,4.5l-2,2.2l-1,1.1C42.1,60.5,41.7,60.9,41.4,61.2z"/>
		<path class="st1" d="M92.5,12.4c-1.4,3.1-2.6,6.3-3.8,9.5c-1.2,3.2-2.3,6.4-3.3,9.7l-3.1,9.7c-0.5,1.6-1,3.2-1.6,4.9
			c-0.5,1.6-1,3.2-1.3,4.9l-0.1,0c-0.1-1.7,0.3-3.4,0.7-5.1c0.4-1.7,0.8-3.3,1.3-5c0.9-3.3,2.1-6.5,3.3-9.7c1.2-3.2,2.4-6.4,3.6-9.6
			C89.6,18.6,90.9,15.4,92.5,12.4L92.5,12.4z"/>
		<path class="st1" d="M74.4,19.4c-1.5,6-3.2,12-5,17.9c-0.9,3-1.8,5.9-2.9,8.9c-0.6,1.4-1.1,2.9-1.8,4.3c-0.7,1.4-1.3,2.9-2.3,4.1
			l-0.1-0.1c0.4-0.7,0.7-1.4,0.9-2.1c0.3-0.7,0.5-1.5,0.8-2.2c0.5-1.5,1-2.9,1.5-4.4c1-2.9,2.1-5.8,3.1-8.8c1-2.9,2-5.9,3-8.8
			C72.5,25.3,73.4,22.3,74.4,19.4L74.4,19.4z"/>
		<path class="st1" d="M62.2,25.6c-1.3,2.8-2.8,5.6-4.4,8.3c-1.6,2.7-3.1,5.4-4.7,8.1c-1.6,2.7-3.2,5.4-4.9,8
			c-1.7,2.6-3.5,5.2-5.3,7.7l-0.1,0c1.4-2.8,3-5.5,4.6-8.2c1.6-2.7,3.4-5.2,5-7.9c1.7-2.6,3.4-5.2,5-7.9
			C59.1,31,60.7,28.3,62.2,25.6L62.2,25.6z"/>
		<path class="st1" d="M97.1,47.2c-0.8,0.7-1.7,1.2-2.7,1.6c-0.9,0.5-1.9,0.9-2.8,1.3c-1.9,0.8-3.8,1.6-5.8,2.3
			C81.9,54,78,55.3,74,56.5c-8,2.4-16.1,4.3-24.3,5.7c-4.1,0.7-8.2,1.4-12.4,1.8c-4.1,0.4-8.3,0.8-12.5,0.9c-4.2,0.1-8.3,0-12.5-0.3
			C8.2,64.3,4.1,63.8,0,63l0-0.1c4.1,0.6,8.3,0.9,12.4,1.1c4.1,0.2,8.3,0.2,12.4,0c4.1-0.1,8.3-0.4,12.4-0.9c4.1-0.4,8.2-1,12.3-1.6
			c8.2-1.3,16.3-3.2,24.3-5.4c4-1.1,8-2.4,11.9-3.7c2-0.7,3.9-1.4,5.8-2.2c1-0.4,1.9-0.8,2.8-1.3C95.3,48.3,96.3,47.8,97.1,47.2
			L97.1,47.2z"/>
	</g>
	<g id="feuille_1_">
		<g>
			<path class="st1" d="M482.9,79.9c4.1-2,7.2-5.6,8.8-9.9c0.8-2.1,1.1-4.4,0.9-6.6c-0.1-2.3-0.9-4.4-2-6.4l-0.9-1.4l-1-1.3
				c-0.7-0.9-1.5-1.7-2.2-2.5c-1.6-1.6-3.2-3.2-4.9-4.6c-3.4-2.9-7.1-5.6-10.9-7.9c-1.9-1.2-3.9-2.2-6-3.2c-2-0.9-4.2-1.7-6.4-2.1
				c-1.1-0.2-2.2-0.3-3.3-0.1c-0.3,0-0.5,0.1-0.8,0.2c-0.3,0.1-0.6,0.2-0.8,0.2c-0.6,0.1-1.1,0.3-1.7,0.3c-2.3,0.3-4.6,0.3-6.8,0.1
				c-2.3-0.2-4.5-0.5-6.8-0.9c-2.2-0.5-4.5-0.9-6.6-1.9c-0.3-0.2-0.5-0.3-0.8-0.6c-0.1,0,0,0,0.1,0c0.1,0,0,0,0,0
				c-0.1,0-0.2,0.1-0.2,0.2c-0.3,0.4-0.6,0.8-0.9,1.3c-0.6,1-1,2-1.5,3c-0.9,2.1-1.5,4.2-2,6.4c-0.5,2.2-0.7,4.4-0.6,6.6
				c0.1,2.2,0.5,4.4,1.6,6.3c1.1,2,2.2,4.1,2.7,6.3c0.6,2.3,0.6,4.6,0.4,6.9c-0.2,2.3-0.7,4.5-0.6,6.7l0.1,0.8
				c0,0.3,0.1,0.5,0.2,0.8c0.1,0.5,0.3,1,0.5,1.5c0.4,1,1,2,1.5,3c2.2,3.9,5,7.4,8.3,10.5c3.2,3.1,7,5.7,11.1,7.3
				c4.2,1.6,8.8,1.8,13.1,0.7c2.1-0.6,4.2-1.5,6.2-2.6c0.5-0.2,1-0.6,1.4-0.9c0.5-0.3,1-0.6,1.4-0.9c0.9-0.7,1.7-1.5,2.5-2.2
				c1.6-1.6,3.1-3.2,4.2-5.2c0.5-1,1-2,1-3.2c0-0.6-0.1-1.1-0.4-1.6c-0.2-0.5-0.6-0.9-1-1.3l0.1-0.1c0.4,0.4,0.8,0.8,1.1,1.3
				c0.3,0.5,0.4,1.1,0.4,1.7c0,1.2-0.4,2.3-0.9,3.3c-1.1,2-2.6,3.8-4.2,5.4c-0.8,0.8-1.6,1.6-2.5,2.3c-0.5,0.4-0.9,0.6-1.4,1
				c-0.5,0.3-0.9,0.7-1.4,0.9c-2,1.2-4.1,2.1-6.3,2.7c-4.4,1.2-9.2,1-13.6-0.5c-4.3-1.6-8.2-4.2-11.5-7.3c-3.3-3.2-6.2-6.8-8.5-10.8
				c-0.6-1-1.1-2-1.5-3.1c-0.2-0.5-0.4-1.1-0.6-1.7c-0.1-0.3-0.1-0.6-0.2-0.9l-0.1-0.9c-0.1-2.4,0.4-4.6,0.6-6.8
				c0.2-2.2,0.2-4.4-0.3-6.6c-0.5-2.2-1.5-4.2-2.6-6.1c-1.1-2.1-1.6-4.4-1.7-6.7c-0.1-2.3,0.2-4.6,0.7-6.8c0.5-2.2,1.2-4.4,2.1-6.5
				c0.4-1.1,0.9-2.1,1.5-3.1c0.3-0.5,0.6-1,1-1.4c0.1-0.1,0.2-0.2,0.4-0.3c0.1,0,0.2-0.1,0.4-0.1c0.2,0,0.4,0.2,0.4,0.3
				c0.1,0.1,0.3,0.3,0.5,0.4c2,0.9,4.2,1.4,6.4,1.9c2.2,0.4,4.4,0.8,6.7,0.9c2.2,0.2,4.5,0.2,6.7-0.1c0.6-0.1,1.1-0.2,1.6-0.3
				c0.3-0.1,0.5-0.2,0.8-0.2c0.3-0.1,0.6-0.2,0.9-0.2c1.2-0.2,2.3-0.1,3.5,0.1c2.3,0.4,4.4,1.3,6.5,2.2c2.1,1,4.1,2.1,6,3.2
				c3.9,2.4,7.5,5.1,11,8.1c1.7,1.5,3.4,3,4.9,4.7c0.8,0.8,1.6,1.6,2.2,2.6l1,1.4l0.9,1.5c1.1,2,1.9,4.2,2,6.5
				c0.2,2.3-0.2,4.6-1,6.7C490.3,74.4,487.1,78,482.9,79.9L482.9,79.9z"/>
			<path class="st1" d="M431.3,32c0.8,2.1,1.9,4.2,2.9,6.3c1,2,2.1,4.1,3.3,6c1.1,2,3.2,3.1,5.2,4.3c2,1.2,4,2.3,5.8,3.8
				c0.9,0.7,1.7,1.6,2.5,2.4c0.8,0.9,1.5,1.7,2.3,2.6c1.5,1.8,2.8,3.6,4.1,5.6c0.6,1,1.2,2,1.7,3c0.6,1,1.3,1.9,2,2.7
				c1.5,1.7,3.1,3.3,5,4.5c0.9,0.6,1.9,1.1,3,1.4c1.1,0.3,2.2,0.8,3.3,1.3c2.1,1,4.1,2.2,6,3.5c3.8,2.6,7.4,5.5,10.9,8.6
				c6.9,6.1,13.3,12.8,19.5,19.6c12.3,13.7,23.6,28.2,34.2,43.3c5.3,7.5,10.3,15.2,15,23.2c2.3,4,4.5,8,6.6,12.1
				c2,4.1,3.9,8.4,5.1,12.8l-0.1,0c-1.3-4.4-3.2-8.6-5.3-12.7c-2.1-4.1-4.4-8.1-6.7-12c-4.7-7.9-9.8-15.5-15.1-23
				c-10.6-15-22.1-29.3-34.4-43c-6.2-6.8-12.5-13.4-19.4-19.5c-3.4-3-7-6-10.7-8.5c-1.9-1.3-3.8-2.5-5.9-3.4c-1-0.5-2.1-0.9-3.1-1.2
				c-1.1-0.3-2.3-0.9-3.2-1.5c-2-1.3-3.6-3-5.1-4.7c-0.7-0.9-1.4-1.8-2-2.8c-0.6-1-1.1-2-1.7-3c-1.2-1.9-2.5-3.8-4-5.6
				c-0.7-0.9-1.4-1.8-2.2-2.6c-0.8-0.9-1.5-1.7-2.4-2.4c-1.7-1.5-3.7-2.6-5.7-3.8c-1-0.6-2-1.2-2.9-1.9c-0.9-0.7-1.8-1.6-2.3-2.6
				c-1.2-2-2.2-4-3.2-6.1C433,36.3,432,34.2,431.3,32L431.3,32z"/>
			<path class="st1" d="M441.8,34.8c0.2,1.1,0.3,2.2,0.2,3.3c-0.1,1.1-0.4,2.2-0.5,3.2c-0.1,1.1-0.1,2.1-0.1,3.1c0,1,0.3,2,0.5,3.1
				l-0.1,0c-0.7-0.8-1.3-1.9-1.4-3.1c-0.2-1.1,0.1-2.3,0.3-3.4c0.2-1.1,0.6-2.1,0.8-3.1C441.7,37,441.8,35.9,441.8,34.8L441.8,34.8z
				"/>
			<path class="st1" d="M445.1,35.1c0,1.3,0.2,2.6,0.4,3.8c0.1,1.3,0.2,2.6,0,4c-0.3,1.2,0,2.3,0.5,3.5c0.4,1.2,1.1,2.3,1.3,3.7
				l-0.1,0c-0.7-1.1-1.5-2.1-2.1-3.3c-0.3-0.6-0.5-1.3-0.6-2c-0.1-0.7,0.1-1.4,0.2-2.1C445.3,40.3,444.7,37.7,445.1,35.1L445.1,35.1
				z"/>
			<path class="st1" d="M454.5,35.5c0.8,1.8,1.9,3.5,2.5,5.4c0.3,1,0.4,2,0.3,3.1c-0.1,1-0.4,2-0.7,3c-0.6,1.9-1,3.8-1.4,5.7
				c-0.4,1.9-0.6,3.9-0.1,5.8l-0.1,0c-0.5-0.9-0.8-1.9-0.9-2.9c-0.1-1,0-2,0.1-3.1c0.3-2,0.9-3.9,1.6-5.8c0.3-0.9,0.7-1.8,0.8-2.8
				c0.1-0.9,0.1-1.9-0.2-2.8C456.1,39.2,455.1,37.4,454.5,35.5L454.5,35.5z"/>
			<path class="st1" d="M462.1,37.3c0,2.1-0.6,4.2-1,6.3c-0.2,1-0.4,2.1-0.3,3.1c0,0.5,0.1,1,0.3,1.4c0.1,0.2,0.2,0.5,0.3,0.8
				c0.1,0.3,0.1,0.5,0.2,0.8c0.3,2.2,0.2,4.3-0.2,6.4c-0.2,1.1-0.4,2.1-0.8,3.1c-0.4,1-0.7,2.1-1.5,2.9l-0.1-0.1
				c0.3-0.5,0.4-0.9,0.6-1.4c0.1-0.5,0.3-1,0.4-1.5c0.2-1,0.4-2.1,0.5-3.1c0.2-2.1,0.5-4.2,0.4-6.2c0-0.3-0.1-0.5-0.1-0.7
				c-0.1-0.2-0.1-0.5-0.2-0.7c-0.2-0.5-0.3-1.1-0.3-1.7c0-1.1,0.2-2.2,0.5-3.2C461.1,41.4,461.8,39.4,462.1,37.3L462.1,37.3z"/>
			<path class="st1" d="M463.7,38.3c-0.4,2.1-0.3,4.3,0,6.5c0.1,0.5,0.2,1.1,0.3,1.6c0.1,0.2,0.2,0.5,0.3,0.7
				c0.1,0.2,0.3,0.5,0.3,0.8c0.3,1.1,0.2,2.3,0,3.4c-0.2,1.1-0.6,2.2-1,3.2l-0.3,0.8c-0.1,0.2-0.2,0.5-0.2,0.7
				c-0.1,0.5-0.2,1-0.3,1.5c-0.1,1-0.1,2.1-0.3,3.3c-0.1,0.6-0.2,1.1-0.4,1.6c-0.2,0.5-0.4,1-0.8,1.5l-0.1-0.1c0.5-1,0.6-2,0.6-3.1
				c0-1.1-0.1-2.2,0-3.3c0-0.6,0.1-1.1,0.3-1.7c0.1-0.3,0.2-0.6,0.3-0.8l0.3-0.7c0.5-1,0.9-2,1.1-3c0.3-1,0.4-2.1,0.2-3.1
				c-0.1-0.3-0.1-0.5-0.3-0.7c-0.1-0.3-0.2-0.5-0.3-0.8c-0.1-0.5-0.2-1.1-0.3-1.7C463,42.7,463.1,40.5,463.7,38.3L463.7,38.3z"/>
			<path class="st1" d="M471.8,42.7c-0.1,2.6-0.9,5.1-1.6,7.6c-0.7,2.5-1.6,4.9-1.8,7.4c0,0.6,0,1.2,0.2,1.7
				c0.1,0.2,0.2,0.5,0.4,0.9c0.1,0.3,0.2,0.6,0.4,0.9c0.4,1.3,0.7,2.5,0.9,3.8c0.1,1.3,0.2,2.6,0.2,3.9c0,1.3-0.1,2.6-0.6,3.9
				l-0.1,0c0.2-1.3,0.1-2.5,0-3.8c-0.1-1.3-0.3-2.5-0.5-3.8c-0.2-1.2-0.5-2.5-0.8-3.7c-0.1-0.3-0.2-0.6-0.3-0.9
				c-0.1-0.3-0.2-0.6-0.3-0.9c-0.2-0.7-0.2-1.4-0.1-2.1c0.3-2.7,1.3-5.1,2.1-7.5C470.5,47.7,471.4,45.3,471.8,42.7L471.8,42.7z"/>
			<path class="st1" d="M473.9,43.2c0.8,2.5,1.3,5,1.8,7.6c0.4,2.6,0.8,5.2,0.8,7.8c0,1.3,0,2.6-0.3,4c-0.3,1.3-0.7,2.5-1.1,3.8
				c-0.4,1.2-0.9,2.5-1.4,3.6c-0.5,1.2-1.1,2.4-1.8,3.5l-0.1-0.1c0.3-0.6,0.5-1.2,0.7-1.8c0.2-0.6,0.4-1.2,0.6-1.8
				c0.4-1.2,0.8-2.5,1.1-3.7l1.1-3.7c0.3-1.2,0.4-2.5,0.5-3.7c0.1-2.6-0.2-5.1-0.5-7.7C474.9,48.3,474.5,45.8,473.9,43.2L473.9,43.2
				z"/>
			<path class="st1" d="M479.5,48c1.1,2.3,2,4.7,2.8,7.1c0.7,2.5,1.3,5,1.4,7.6c0,1.3,0,2.7-0.7,3.9c-0.6,1.2-1.3,2.2-1.9,3.3
				c-0.7,1.1-1.4,2.1-1.9,3.2c-0.3,0.5-0.5,1.1-0.7,1.7c-0.2,0.6-0.2,1.2,0,1.8l-0.1,0c-0.4-0.6-0.4-1.3-0.4-1.9
				c0.1-0.7,0.3-1.3,0.5-1.9c0.5-1.2,1.1-2.3,1.7-3.5c0.6-1.1,1.3-2.2,1.9-3.3c0.6-1,0.8-2.2,0.8-3.5c0-2.5-0.5-5-1.1-7.4
				C481.1,52.8,480.4,50.4,479.5,48L479.5,48z"/>
			<path class="st1" d="M483.1,50.5c0.9,2.3,1.7,4.5,2.4,6.9c0.3,1.2,0.6,2.4,0.7,3.6c0.1,1.2,0.2,2.5-0.1,3.7
				c-0.1,0.6-0.3,1.2-0.6,1.8c-0.3,0.6-0.6,1.1-0.9,1.6l-1.8,3.1c-0.6,1-1.2,2.1-1.7,3.1c-0.5,1.1-0.9,2.2-0.9,3.4l-0.1,0
				c-0.4-1.2-0.1-2.5,0.3-3.7c0.4-1.2,0.9-2.3,1.5-3.4c0.6-1.1,1.2-2.1,1.9-3.1c0.3-0.5,0.7-1,1-1.5c0.3-0.5,0.5-1,0.6-1.6
				c0.6-2.3,0.2-4.7-0.3-7C484.5,55.1,483.8,52.8,483.1,50.5L483.1,50.5z"/>
			<path class="st1" d="M427.6,43.1c1.8,0.3,3.7,0.3,5.5,0.3c0.9,0.1,1.9,0,2.9,0.4c0.9,0.4,1.7,1.2,2,2.1l-0.1,0.1
				c-0.7-0.6-1.5-1-2.3-1.2c-0.8-0.2-1.7-0.5-2.6-0.6l-2.8-0.4C429.4,43.6,428.5,43.4,427.6,43.1L427.6,43.1z"/>
			<path class="st1" d="M426.5,46.4c1.5,0.7,3.1,1.3,4.7,1.8c1.6,0.5,3.2,1,4.8,1.4c1.6,0.4,3.3,0.8,4.9,1.3c1.6,0.5,3.2,1,4.8,1.7
				l0,0.1c-1.7-0.1-3.4-0.5-5-0.8c-1.7-0.4-3.2-1-4.9-1.5c-1.6-0.5-3.2-1.1-4.8-1.7C429.5,48,427.9,47.4,426.5,46.4L426.5,46.4z"/>
			<path class="st1" d="M427.6,50c1.5,0.6,3.1,1,4.7,1.3c1.6,0.4,3.2,0.7,4.8,1c1.6,0.3,3.2,0.5,4.8,0.9c1.6,0.3,3.2,0.7,4.8,1
				l0,0.1c-1.7,0.2-3.3,0-5-0.2c-1.6-0.2-3.2-0.7-4.8-1.1c-1.6-0.4-3.2-0.8-4.8-1.3C430.6,51.3,429,50.9,427.6,50L427.6,50z"/>
			<path class="st1" d="M430,58.2c1.7,0.3,3.4,0,5-0.2c1.7-0.2,3.3-0.5,5-0.8c1.7-0.3,3.3-0.6,5.1-0.7c0.9,0,1.7,0,2.6,0.1
				c0.9,0.1,1.7,0.3,2.5,0.7l0,0.1c-1.7-0.3-3.3,0-5,0.1c-1.7,0.2-3.3,0.3-5,0.5c-1.7,0.2-3.4,0.4-5.1,0.5
				C433.4,58.7,431.7,58.8,430,58.2L430,58.2z"/>
			<path class="st1" d="M430.1,60.8c2.1,0.1,4.1-0.3,6.2-0.5l6.2-0.7c2.1-0.2,4.1-0.5,6.2-0.4c1,0,2.1,0.1,3.1,0.3
				c0.5,0.1,1,0.2,1.5,0.4c0.5,0.2,1,0.4,1.3,0.9l-0.1,0.1c-0.4-0.3-0.9-0.5-1.3-0.5c-0.5-0.1-1-0.1-1.5-0.1c-1,0-2,0-3.1,0
				c-2,0.1-4.1,0.1-6.2,0.2l-6.2,0.4C434.2,60.9,432.2,61.1,430.1,60.8L430.1,60.8z"/>
			<path class="st1" d="M431,67.8c1,0,2.1-0.2,3.1-0.5c1-0.3,2-0.6,3-1c2-0.7,3.9-1.6,5.9-2.3c1-0.4,2-0.7,3.1-0.9
				c1.1-0.1,2.2,0,3.3,0.1c1.1,0.2,2.1,0.4,3.1,0.6c0.5,0.1,1,0.2,1.5,0.2c0.5,0,1,0.1,1.5-0.2l0.1,0.1c-0.4,0.4-1,0.5-1.5,0.5
				c-0.5,0-1.1,0-1.6,0c-1.1-0.1-2.1-0.2-3.1-0.3c-1-0.1-2.1-0.2-3-0.1c-1,0.1-2,0.4-3,0.7c-2,0.6-4,1.4-6,2c-1,0.3-2,0.6-3.1,0.8
				C433.1,67.9,432.1,68.1,431,67.8L431,67.8z"/>
			<path class="st1" d="M431.1,71.3c2.4,0.5,4.9,0.8,7.3,0.8c2.5,0,4.9-0.3,7.3-0.8c2.4-0.4,4.9-1,7.3-1.3c1.2-0.1,2.5-0.3,3.7-0.4
				c1.2,0,2.5-0.2,3.8,0.1l0,0.1c-0.6,0-1.2,0.1-1.8,0.2c-0.6,0.1-1.2,0.2-1.8,0.3l-3.6,0.6c-2.4,0.4-4.9,0.7-7.3,1.1
				c-2.4,0.4-5,0.6-7.4,0.5C436,72.5,433.5,72.1,431.1,71.3L431.1,71.3z"/>
			<path class="st1" d="M431.4,73.6c2.5,0.5,5.1,0.5,7.7,0.6c2.6,0,5.2,0,7.7-0.3c2.5-0.3,5-1,7.6-1.4c1.3-0.2,2.6-0.3,3.9-0.4
				c1.3,0,2.7,0,3.8,0.9l-0.1,0.1c-1.2-0.5-2.5-0.4-3.7-0.2c-1.3,0.2-2.5,0.4-3.8,0.6c-2.5,0.5-5.1,1-7.7,1.2
				c-2.6,0.2-5.2,0.1-7.8,0C436.5,74.5,433.9,74.3,431.4,73.6L431.4,73.6z"/>
			<path class="st1" d="M433.1,79.4c1.3-0.4,2.5-1,3.6-1.6c1.2-0.6,2.4-1.2,3.7-1.5c1.3-0.3,2.7-0.3,4.1,0c1.3,0.2,2.6,0.3,3.9,0.2
				c2.6-0.1,5.2-0.6,7.8-1c1.3-0.2,2.6-0.4,3.9-0.7c0.6-0.1,1.3-0.3,1.9-0.4c0.6-0.2,1.3-0.3,1.8-0.7l0.1,0
				c-0.2,0.3-0.5,0.5-0.8,0.7c-0.3,0.2-0.6,0.3-0.9,0.4c-0.6,0.3-1.3,0.5-1.9,0.7c-1.3,0.4-2.6,0.7-3.9,1c-2.6,0.5-5.3,0.8-8,0.8
				c-1.3,0-2.7,0-4-0.4c-1.3-0.3-2.6-0.4-3.8-0.2c-1.3,0.2-2.5,0.7-3.7,1.3C435.7,78.6,434.4,79.1,433.1,79.4L433.1,79.4z"/>
			<path class="st1" d="M436.3,87.2c3.1-0.1,6.2-0.2,9.3-0.5c3.1-0.2,6.2-0.4,9.2-1.1c1.5-0.3,2.9-1,4.2-1.7l4.1-2.2
				c2.8-1.4,5.5-2.9,8.3-4.3l0.1,0.1c-2.5,1.9-5.2,3.5-7.9,5.1c-1.4,0.8-2.7,1.5-4.2,2.2c-0.7,0.3-1.4,0.7-2.2,0.9
				c-0.8,0.3-1.5,0.5-2.3,0.6c-3.1,0.6-6.3,0.7-9.4,0.8C442.5,87.3,439.4,87.3,436.3,87.2L436.3,87.2z"/>
			<path class="st1" d="M448.3,96.6c2.2-1.2,4.3-2.5,6.4-3.8c2.2-1.2,4.4-2.5,6.9-3c1.1-0.3,2.2-0.9,3.2-1.6c1-0.7,2-1.4,2.9-2.2
				c1-0.8,1.9-1.6,2.7-2.4c0.4-0.4,0.8-0.9,1.2-1.4c0.3-0.5,0.7-1,0.8-1.6l0.1,0c0.1,0.7-0.3,1.3-0.5,1.8c-0.3,0.5-0.7,1.1-1.1,1.6
				c-0.8,1-1.7,1.9-2.6,2.7c-0.9,0.8-1.9,1.6-3,2.3c-1.1,0.6-2.2,1.3-3.5,1.5c-2.4,0.4-4.6,1.5-6.8,2.6
				C452.8,94.4,450.6,95.6,448.3,96.6L448.3,96.6z"/>
			<path class="st1" d="M452.6,97.2c2.3-0.8,4.5-1.8,6.7-2.9c2.2-1.1,4.3-2.3,6.3-3.6c2-1.4,3.9-2.9,5.6-4.6c1.7-1.7,3.1-3.6,3.6-6
				l0.1,0c0.1,1.2-0.3,2.5-0.8,3.6c-0.5,1.1-1.3,2.1-2.1,3.1c-1.7,1.9-3.8,3.3-5.8,4.6c-2.1,1.3-4.3,2.4-6.5,3.4
				C457.3,95.8,455,96.7,452.6,97.2L452.6,97.2z"/>
		</g>
		<path class="st1" d="M521,179.9c-4.2-0.8-8.5-1.4-12.8-1.9c-4.3-0.5-8.6-0.9-12.9-1.3c-4.3-0.3-8.6-0.6-12.9-0.6
			c-2.2,0-4.3,0-6.5,0.1c-1.1,0.1-2.1,0.2-3.2,0.3c-1,0.2-2.1,0.4-3,0.8l0.2-0.5c0.2,0.3,0.6,0.6,1.1,0.9c0.5,0.3,1,0.5,1.5,0.7
			c1,0.4,2.1,0.7,3.1,1c2.1,0.6,4.3,1,6.5,1.4c4.3,0.8,8.7,1.4,13.2,1.8c4.4,0.4,8.8,0.6,13.3,0.5c2.2-0.1,4.4-0.2,6.6-0.7
			c1.1-0.2,2.2-0.5,3.2-0.8C519.2,181.2,520.2,180.6,521,179.9z M521.1,179.8c-0.7,1-1.7,1.5-2.7,2c-1,0.4-2.1,0.8-3.2,1
			c-2.2,0.5-4.4,0.8-6.6,0.9c-4.5,0.3-8.9,0.1-13.4-0.2c-4.4-0.4-8.9-1-13.2-1.8c-2.2-0.4-4.4-0.9-6.5-1.5c-1.1-0.3-2.1-0.7-3.2-1.1
			c-0.5-0.2-1-0.4-1.6-0.7c-0.5-0.3-1-0.6-1.4-1.3l-0.2-0.3l0.3-0.2c1.1-0.5,2.2-0.7,3.3-0.9c1.1-0.2,2.2-0.2,3.3-0.3
			c2.2-0.1,4.3-0.1,6.5-0.1c4.3,0.1,8.7,0.4,13,0.8c4.3,0.4,8.6,0.9,12.9,1.5C512.5,178.3,516.7,178.9,521.1,179.8z"/>
		<path class="st1" d="M474,178c3.6,0.1,7.3,0.6,10.9,0.9l10.8,1.1l10.8,0.9c1.8,0.2,3.6,0.3,5.4,0.4c0.9,0.1,1.8,0.1,2.7,0.1
			c0.9,0,1.8-0.1,2.6-0.4l0.1,0.1c-0.8,0.6-1.7,0.7-2.6,0.8c-0.9,0.1-1.8,0.2-2.7,0.2c-1.8,0.1-3.7,0-5.5-0.1
			c-3.6-0.2-7.3-0.7-10.9-1.1l-10.8-1.4C481.2,178.9,477.6,178.3,474,178L474,178z"/>
		<path class="st1" d="M504.2,168.6c-3.6-2.4-7.6-4.4-11.6-6.3c-4-1.8-8.1-3.4-12.3-4.8c-4.2-1.3-8.4-2.5-12.8-3.2
			c-4.3-0.7-8.7-1.1-13.1-0.6l0.1,0c-0.5,0.2-1.1,0.4-1.4,0.7c-0.2,0.2-0.3,0.3-0.2,0.4c0,0.1,0.1,0.3,0.3,0.5
			c0.7,0.7,1.8,1.3,2.9,1.7c2.1,0.9,4.4,1.7,6.6,2.3c4.5,1.4,9.1,2.5,13.7,3.6c4.6,1.1,9.2,2.1,13.9,3.1c2.3,0.5,4.6,0.9,7,1.4
			c1.2,0.2,2.3,0.4,3.5,0.6C501.9,168.3,503.2,168.5,504.2,168.6z M504.3,168.6c0,0-0.1,0.1-0.1,0.1l-0.1,0c-0.1,0-0.2,0-0.2,0
			c-0.2,0-0.3,0-0.4,0l-0.9-0.1l-1.8-0.2c-1.2-0.1-2.4-0.3-3.5-0.5c-2.3-0.3-4.7-0.7-7-1.1c-4.7-0.8-9.3-1.8-13.9-2.8
			c-4.6-1.1-9.2-2.2-13.8-3.6c-2.3-0.7-4.5-1.5-6.7-2.5c-1.1-0.5-2.2-1-3.1-2c-0.2-0.3-0.5-0.6-0.5-1c0-0.5,0.3-0.9,0.5-1.1
			c0.5-0.5,1.1-0.7,1.7-0.9l0,0l0,0c4.4-0.4,8.9,0,13.2,0.8c4.4,0.8,8.6,2,12.8,3.4c4.2,1.4,8.3,3.1,12.3,5
			C496.8,163.9,500.7,165.9,504.3,168.6z"/>
		<path class="st1" d="M459,155.7c3.7,0.1,7.4,0.9,11,1.7c3.6,0.9,7.2,1.8,10.8,2.8c3.6,1,7.2,2.1,10.7,3.3c3.5,1.3,7,2.5,10.4,4.1
			l0,0.1c-3.6-1-7.1-2.1-10.7-3.2c-3.5-1.1-7-2.3-10.6-3.5c-3.5-1.1-7.1-2.2-10.7-3.1c-3.6-0.9-7.2-1.8-10.9-2.1L459,155.7z"/>
		<path class="st1" d="M491.6,156.9c-2.3-0.1-4.4-0.7-6.6-1.2c-2.1-0.5-4.3-1.2-6.4-1.8c-4.2-1.4-8.4-2.9-12.4-4.8
			c-4-1.8-8-3.9-11.6-6.5c-1.8-1.3-3.6-2.7-5.1-4.4c-1.5-1.7-2.7-3.7-2.9-6.1l0-0.4l0.4,0c2.3-0.1,4.4,0.6,6.4,1.4
			c2,0.8,4,1.7,5.9,2.6c3.8,2,7.5,4.1,11.2,6.4c3.6,2.3,7.2,4.7,10.7,7.1C484.8,151.7,488.2,154.1,491.6,156.9z M491.5,156.8
			l-10.7-7.1c-3.6-2.3-7.2-4.6-10.8-6.8c-3.6-2.2-7.3-4.4-11.1-6.3c-1.9-1-3.8-1.9-5.8-2.7c-2-0.8-4-1.5-6-1.4l0.4-0.4
			c0.1,2.1,1.2,4,2.6,5.7c1.4,1.6,3.1,3.1,4.9,4.3c3.6,2.6,7.5,4.7,11.5,6.5c4,1.9,8.1,3.5,12.3,4.9c2.1,0.7,4.2,1.4,6.3,1.9
			c1.1,0.3,2.1,0.5,3.2,0.8C489.4,156.5,490.5,156.7,491.5,156.8z"/>
		<path class="st1" d="M451.1,135.5c6.4,3.1,12.8,6.4,19.1,9.7c3.2,1.6,6.4,3.2,9.5,5c3.1,1.8,6.2,3.5,9.3,5.4l0,0.1
			c-3.3-1.4-6.5-3-9.7-4.6c-3.2-1.6-6.3-3.4-9.4-5.2l-9.4-5.2C457.3,139,454.2,137.2,451.1,135.5L451.1,135.5z"/>
		<path class="st1" d="M484.8,149c-0.6-0.4-0.9-0.8-1.3-1.2c-0.4-0.4-0.8-0.9-1.2-1.3c-0.7-0.9-1.4-1.8-2.1-2.8
			c-1.3-1.9-2.5-3.9-3.7-5.9c-2.3-4-4.4-8.2-6.3-12.4c-1.9-4.2-3.6-8.6-5-13c-0.7-2.2-1.2-4.5-1.5-6.8c-0.1-1.2-0.2-2.4-0.1-3.6
			c0.1-1.2,0.4-2.5,1.5-3.4c0.3-0.2,0.6-0.4,1-0.4c0.4,0,0.7,0,1.1,0.1c0.6,0.2,1.1,0.7,1.6,1.1c0.8,0.9,1.5,1.9,2.1,2.9
			c1.2,2,2.1,4.2,3,6.3c1.7,4.3,3.2,8.8,4.5,13.2c1.3,4.5,2.5,8.9,3.6,13.5C482.9,139.9,483.9,144.3,484.8,149z M484.7,148.9
			c-2.4-8.9-4.7-17.9-7.5-26.7c-1.3-4.4-2.8-8.8-4.5-13.1c-0.8-2.1-1.7-4.3-2.8-6.3c-0.6-1-1.2-2-1.9-2.8c-0.7-0.8-1.7-1.4-2.5-0.7
			c-0.8,0.6-1.1,1.7-1.2,2.8c-0.1,1.1-0.1,2.3,0.1,3.4c0.3,2.3,0.8,4.5,1.4,6.7c1.3,4.4,3,8.8,4.8,13c1.9,4.2,3.9,8.4,6.1,12.5
			c1.1,2,2.3,4,3.6,5.9C481.6,145.5,483.1,147.4,484.7,148.9z"/>
		<path class="st1" d="M467.8,102c1.4,2.9,1.8,6.1,2.2,9.2c0.2,1.6,0.3,3.2,0.4,4.7c0,0.4,0.1,0.7,0.2,1.1c0.1,0.4,0.2,0.7,0.3,1.1
			c0.2,0.7,0.5,1.5,0.8,2.2c1.2,2.9,2.5,5.8,3.7,8.7c0.6,1.4,1.3,2.9,2,4.3c0.3,0.7,0.7,1.4,1.1,2.1c0.2,0.3,0.4,0.7,0.6,1
			c0.2,0.3,0.5,0.6,0.7,0.9l-0.1,0.1c-1.3-1-2.1-2.4-3-3.7c-0.8-1.4-1.5-2.8-2.3-4.2c-1.4-2.9-2.5-5.8-3.6-8.8
			c-0.3-0.8-0.5-1.5-0.7-2.3c-0.1-0.4-0.2-0.8-0.3-1.2c-0.1-0.4-0.2-0.8-0.2-1.2c-0.1-1.6-0.1-3.2-0.2-4.7
			C469.3,108.1,469,104.9,467.8,102L467.8,102z"/>
		<path class="st1" d="M488.5,152c-0.1-0.2-0.2-0.6-0.2-0.8l-0.2-0.8c-0.1-0.5-0.2-1-0.2-1.6c-0.1-1.1-0.3-2.1-0.4-3.2
			c-0.2-2.1-0.3-4.2-0.4-6.4c-0.1-4.2-0.1-8.5,0.2-12.7c0.3-4.2,0.7-8.5,1.7-12.6c0.5-2.1,1.1-4.1,2-6.1c0.4-1,1-1.9,1.6-2.8
			c0.4-0.4,0.7-0.9,1.1-1.2c0.4-0.4,0.8-0.8,1.4-1c0.3-0.1,0.7-0.2,1.1,0c0.4,0.1,0.6,0.4,0.8,0.7c0.3,0.6,0.4,1.1,0.5,1.7
			c0.2,1.1,0.2,2.2,0.1,3.3c-0.1,2.1-0.3,4.3-0.6,6.4c-0.6,4.2-1.4,8.4-2.2,12.6c-0.9,4.2-1.9,8.3-2.9,12.4
			C490.8,143.8,489.8,147.9,488.5,152z M488.5,151.9c1.8-8.2,3.7-16.5,5.4-24.8c0.9-4.1,1.6-8.3,2.2-12.5c0.3-2.1,0.6-4.2,0.7-6.3
			c0-1,0.1-2.1-0.1-3.1c-0.1-1-0.5-2.1-1.2-1.7c-0.4,0.1-0.8,0.5-1.2,0.8c-0.4,0.3-0.7,0.7-1,1.1c-0.6,0.8-1.1,1.7-1.6,2.7
			c-0.9,1.9-1.5,3.9-2,6c-1,4.1-1.5,8.3-1.8,12.5c-0.3,4.2-0.4,8.5-0.4,12.7c0,2.1,0.1,4.2,0.3,6.4
			C487.8,147.8,488.1,149.9,488.5,151.9z"/>
		<path class="st1" d="M492.6,108.8c-0.6,3.3-0.9,6.7-1.2,10c-0.3,3.3-0.7,6.7-1,10c-0.3,3.3-0.5,6.7-0.9,10l-0.6,5l-0.3,2.5
			c-0.1,0.8-0.2,1.7-0.2,2.5l-0.1,0c-0.3-1.7-0.2-3.4-0.1-5.1c0.1-1.7,0.2-3.4,0.3-5c0.2-3.4,0.7-6.7,1.1-10c0.4-3.3,0.8-6.7,1.3-10
			C491.4,115.4,491.8,112,492.6,108.8L492.6,108.8z"/>
		<path class="st1" d="M499,162.3c-0.8-0.8-1.1-1.9-1.5-2.9c-0.3-1-0.5-2.1-0.7-3.2c-0.3-2.1-0.5-4.3-0.5-6.4
			c-0.2-4.3,0-8.6,0.3-12.9c0.3-4.3,0.8-8.6,1.5-12.8c0.4-2.1,0.8-4.2,1.4-6.3c0.3-1,0.6-2.1,1.1-3.1c0.2-0.5,0.5-1,0.8-1.5
			c0.1-0.2,0.4-0.4,0.6-0.7c0.2-0.2,0.6-0.4,1-0.3c0.4,0,0.7,0.3,0.9,0.5c0.2,0.2,0.4,0.5,0.5,0.8c0.3,0.5,0.4,1,0.6,1.6
			c0.3,1.1,0.5,2.1,0.7,3.2c0.3,2.2,0.5,4.3,0.6,6.5c0.2,4.3,0,8.7-0.3,13c-0.4,4.3-1,8.6-2.1,12.8C503,154.6,501.6,158.7,499,162.3
			z M499,162.2c1.1-1.7,2-3.8,2.7-5.8c0.7-2,1.3-4.1,1.7-6.2c0.9-4.2,1.5-8.4,1.8-12.7c0.4-4.3,0.5-8.6,0.3-12.8
			c-0.1-2.1-0.2-4.3-0.5-6.4c-0.2-1.1-0.3-2.1-0.6-3.1c-0.1-0.5-0.3-1-0.5-1.4c-0.2-0.4-0.5-0.9-0.8-0.9c-0.2-0.1-0.6,0.3-0.9,0.7
			c-0.3,0.4-0.5,0.9-0.8,1.3c-0.4,1-0.8,2-1.1,3c-0.6,2-1.1,4.1-1.5,6.2c-0.8,4.2-1.3,8.5-1.7,12.8c-0.4,4.3-0.6,8.6-0.5,12.9
			c0,2.1,0.2,4.3,0.4,6.4c0.2,1.1,0.3,2.1,0.6,3.2C498,160.3,498.3,161.4,499,162.2z"/>
		<path class="st1" d="M514.9,172.4c-1.4-1.5-2.2-3.3-2.8-5.1c-0.6-1.8-1.1-3.7-1.4-5.6c-0.7-3.8-0.9-7.7-1-11.6
			c0-3.9,0.2-7.8,0.6-11.6c0.2-1.9,0.6-3.8,1-5.7c0.2-0.9,0.5-1.9,0.8-2.8c0.3-0.9,0.7-1.9,1.5-2.7l0,0l0,0c0.4-0.4,1-0.7,1.7-0.7
			c0.7,0.1,1.2,0.6,1.5,1c0.6,0.9,0.9,1.9,1.2,2.9c0.5,2,0.8,4,1,6c0.4,4,0.3,8.1,0.1,12.1c-0.2,4-0.6,8-1.3,12
			C517.2,164.7,516.4,168.6,514.9,172.4z M514.9,172.3c1.1-3.8,1.8-7.8,2.3-11.8c0.5-4,0.9-8,1-12c0.2-4,0.2-8-0.1-12
			c-0.2-2-0.4-4-0.8-5.9c-0.2-0.9-0.5-1.9-1-2.6c-0.2-0.4-0.6-0.6-0.9-0.7c-0.3,0-0.7,0.1-1.1,0.4l0,0c-0.6,0.6-1,1.5-1.3,2.4
			c-0.3,0.9-0.6,1.8-0.9,2.7c-0.5,1.9-0.8,3.8-1.1,5.7c-0.5,3.8-0.8,7.7-0.8,11.5c0,3.9,0.2,7.7,0.8,11.5c0.3,1.9,0.7,3.8,1.3,5.6
			C512.9,169.1,513.7,170.9,514.9,172.3z"/>
		<path class="st1" d="M531.5,182.3c-0.2-0.4-0.4-1-0.6-1.4l-0.5-1.4l-1-2.8c-0.7-1.9-1.3-3.7-2-5.6c-1.3-3.7-2.4-7.5-3.4-11.4
			c-0.9-3.8-1.7-7.8-1.9-11.7c-0.1-2-0.1-4,0.3-6c0.4-2,1-4,2.7-5.5c0.3-0.2,0.6-0.3,0.9-0.3c0.4,0,0.7,0.2,0.9,0.4
			c0.5,0.4,0.7,0.9,1,1.3c0.4,0.9,0.7,1.9,1,2.9c0.5,1.9,0.8,3.9,1.1,5.9c0.6,3.9,0.9,7.9,1.2,11.8c0.2,4,0.4,7.9,0.5,11.9
			C531.6,174.4,531.7,178.3,531.5,182.3z M531.5,182.2c-0.5-7.8-0.8-15.8-1.4-23.6c-0.3-3.9-0.6-7.9-1.1-11.8
			c-0.3-1.9-0.6-3.9-1-5.8c-0.2-0.9-0.5-1.9-0.9-2.7c-0.2-0.4-0.4-0.8-0.7-1.1c-0.3-0.3-0.5-0.3-0.9,0c-0.3,0.2-0.6,0.6-0.9,1
			c-0.3,0.4-0.5,0.8-0.7,1.2c-0.4,0.9-0.7,1.8-0.8,2.7c-0.4,1.9-0.4,3.9-0.3,5.8c0.2,3.9,0.9,7.8,1.8,11.7
			C526.2,167.3,528.8,174.9,531.5,182.2z"/>
		<path class="st1" d="M501.8,118.2c0.3,3.4,0.4,6.8,0.4,10.2c0,3.4,0,6.8-0.1,10.2c-0.1,3.4-0.2,6.8-0.5,10.2
			c-0.2,1.7-0.4,3.4-0.6,5.1c-0.3,1.7-0.5,3.4-1.2,5l-0.1,0c0.4-1.6,0.5-3.4,0.6-5c0.1-1.7,0.2-3.4,0.3-5.1l0.7-10.2
			c0.2-3.4,0.3-6.8,0.4-10.2C501.8,125,501.9,121.6,501.8,118.2L501.8,118.2z"/>
		<path class="st1" d="M516.1,131.3c-0.3,3.1-0.5,6.2-0.7,9.3c-0.2,3.1-0.4,6.2-0.5,9.3c-0.1,3.1-0.1,6.2-0.3,9.3
			c-0.1,1.5-0.1,3.1-0.2,4.6c0,0.8-0.1,1.5-0.1,2.3c0,0.8,0,1.5,0.1,2.3l-0.1,0c-0.5-1.5-0.5-3.1-0.6-4.6c-0.1-1.6-0.1-3.1-0.1-4.7
			c0-3.1,0.3-6.2,0.5-9.3C514.6,143.7,515.2,137.5,516.1,131.3L516.1,131.3z"/>
		<path class="st1" d="M525.2,141.5c0.3,3.1,0.9,6.2,1.4,9.2c0.6,3.1,1.2,6.1,1.8,9.2c0.6,3.1,1.3,6.1,1.8,9.2
			c0.5,3.1,1,6.1,1.3,9.3l-0.1,0c-0.8-3-1.5-6.1-2.2-9.1c-0.6-3-1.1-6.1-1.6-9.2c-0.5-3.1-1-6.2-1.5-9.2
			C525.7,147.7,525.2,144.6,525.2,141.5L525.2,141.5z"/>
		<path class="st1" d="M484.8,148.9c0.5,0.9,1.2,1.7,1.9,2.4c0.7,0.8,1.4,1.5,2.2,2.2c1.5,1.4,3,2.8,4.6,4.2
			c3.1,2.7,6.4,5.3,9.7,7.8c6.6,5,13.5,9.7,20.6,13.9c3.6,2.1,7.2,4.1,10.9,6c3.7,1.9,7.4,3.7,11.2,5.3c3.8,1.7,7.6,3.2,11.6,4.5
			c3.9,1.3,7.9,2.5,11.9,3.5l0,0.1c-4.1-0.7-8.1-1.7-12.1-2.9c-4-1.2-7.9-2.7-11.7-4.3c-3.8-1.6-7.6-3.5-11.3-5.4
			c-3.7-1.9-7.3-4-10.8-6.2c-7.1-4.3-14-9.1-20.5-14.2c-3.3-2.6-6.5-5.2-9.6-8c-1.5-1.4-3.1-2.8-4.5-4.3c-0.7-0.7-1.5-1.5-2.2-2.3
			C485.9,150.7,485.2,149.9,484.8,148.9L484.8,148.9z"/>
		<path class="st1" d="M569.6,147.9c0.7-4.4,1.7-8.5,2.7-12.7c1-4.2,2.2-8.4,3.4-12.5c1.2-4.1,2.6-8.3,4.1-12.3c0.8-2,1.5-4,2.4-6
			c0.5-1,0.9-2,1.5-2.9c0.6-0.9,1.1-1.9,2-2.7l0.3-0.3l0.2,0.3c0.5,0.6,0.6,1.2,0.7,1.8c0.1,0.6,0.1,1.1,0.1,1.7
			c0,1.1-0.1,2.3-0.2,3.4c-0.2,2.2-0.6,4.4-1,6.6c-0.8,4.4-1.9,8.7-3.2,13c-1.3,4.3-2.8,8.5-4.7,12.5c-1,2-2,4-3.3,5.8
			c-0.6,0.9-1.3,1.8-2.1,2.6C571.6,146.9,570.8,147.6,569.6,147.9z M569.7,147.8c0.9-0.4,1.9-1.1,2.6-1.9c0.7-0.8,1.4-1.7,2-2.6
			c1.2-1.9,2.2-3.9,3-5.9c1.8-4.1,3.2-8.2,4.4-12.5c1.3-4.2,2.4-8.5,3.2-12.9c0.4-2.2,0.8-4.3,1-6.5c0.1-1.1,0.2-2.2,0.2-3.3
			c0-0.5,0-1.1-0.1-1.6c-0.1-0.5-0.2-1.1-0.4-1.3l0.5,0c-0.7,0.6-1.3,1.6-1.8,2.5c-0.5,0.9-1,1.9-1.5,2.9c-0.9,1.9-1.7,3.9-2.5,6
			c-1.5,4-2.9,8.1-4.2,12.2c-1.3,4.1-2.5,8.3-3.6,12.5C571.5,139.4,570.5,143.7,569.7,147.8z"/>
		<path class="st1" d="M585.3,103.5c-1.1,3.5-1.9,7-2.8,10.5l-2.7,10.6c-0.9,3.5-1.8,7.1-2.9,10.5c-0.6,1.7-1.2,3.4-1.9,5.1
			c-0.4,0.8-0.8,1.7-1.2,2.5c-0.5,0.8-0.9,1.6-1.7,2.1l-0.1-0.1c0.7-0.6,1-1.4,1.4-2.3c0.3-0.8,0.7-1.7,0.9-2.5
			c0.6-1.7,1.1-3.4,1.6-5.2l3.1-10.4l2.9-10.5C583,110.4,584,106.9,585.3,103.5L585.3,103.5z"/>
		<path class="st1" d="M565.3,128.2c-1.1-4.4-1.5-8.7-1.8-13.1c-0.3-4.4-0.3-8.8-0.1-13.2c0.2-4.4,0.7-8.8,1.6-13.1
			c0.9-4.3,2.1-8.6,4.2-12.6l0,0l0,0c0.4-0.5,0.8-0.9,1.4-1.3c0.3-0.2,0.8-0.3,1.2-0.1c0.4,0.2,0.6,0.5,0.8,0.8
			c0.6,1.2,0.6,2.4,0.7,3.6c0.1,2.4,0,4.8-0.2,7.2c-0.4,4.7-1,9.4-1.7,14.1c-0.7,4.7-1.6,9.3-2.5,14c-0.5,2.3-1,4.6-1.5,6.9
			c-0.3,1.2-0.6,2.3-0.9,3.4l-0.5,1.7l-0.3,0.8c-0.1,0.1-0.1,0.3-0.2,0.4c0,0.1-0.1,0.1-0.1,0.2l-0.1,0.1
			C565.4,128.1,565.3,128.2,565.3,128.2z M565.3,128.1c0.4-1,0.6-2.2,0.9-3.4c0.2-1.2,0.5-2.3,0.7-3.5c0.5-2.3,0.9-4.6,1.3-7
			c0.8-4.7,1.6-9.3,2.3-14c0.7-4.7,1.3-9.4,1.7-14.1c0.2-2.3,0.3-4.7,0.3-7c-0.1-1.1-0.1-2.4-0.6-3.3c-0.1-0.2-0.2-0.4-0.4-0.5
			c-0.1-0.1-0.3-0.1-0.5,0.1c-0.4,0.2-0.8,0.6-1.2,1.1l0-0.1c-2,3.9-3.3,8.1-4.2,12.4c-0.9,4.3-1.4,8.7-1.7,13
			c-0.3,4.4-0.3,8.8-0.1,13.2C564,119.4,564.4,123.9,565.3,128.1z"/>
		<path class="st1" d="M570.1,81.3c-1.2,3.5-1.6,7.2-2.1,10.9c-0.4,3.7-0.8,7.4-1,11.1c-0.2,3.7-0.4,7.4-0.7,11.1
			c-0.3,3.7-0.5,7.4-1,11.1l-0.1,0c-0.2-3.7-0.1-7.4,0.1-11.2c0.1-3.7,0.5-7.4,0.9-11.1c0.4-3.7,0.8-7.4,1.3-11.1
			C568.1,88.5,568.7,84.8,570.1,81.3L570.1,81.3z"/>
		<path class="st1" d="M559.1,112c0.2-1,0.5-2.1,0.7-3.2c0.2-1.1,0.3-2.2,0.5-3.3c0.3-2.2,0.4-4.4,0.5-6.6c0.2-4.4,0.2-8.8-0.1-13.2
			c-0.3-4.4-0.8-8.8-1.9-13.1c-0.5-2.1-1.2-4.2-2.2-6.1c-1-1.9-2.4-3.7-4.3-4.5l0.5-0.2c-0.8,1.8-0.9,4-0.9,6.1
			c0,2.1,0.2,4.2,0.4,6.4c0.4,4.2,1.1,8.5,1.8,12.7c0.7,4.2,1.5,8.4,2.4,12.6L559.1,112z M559.1,112.1c-1.3-4.2-2.3-8.3-3.3-12.5
			c-1-4.2-1.9-8.4-2.7-12.6c-0.8-4.2-1.4-8.5-1.8-12.7c-0.2-2.1-0.3-4.3-0.3-6.5c0.1-2.2,0.2-4.4,1.1-6.5l0.2-0.4l0.4,0.2
			c2.2,1,3.6,3,4.6,5c1,2,1.7,4.2,2.2,6.3c1,4.3,1.5,8.8,1.7,13.2c0.2,4.4,0.1,8.9-0.1,13.3c-0.1,2.2-0.3,4.4-0.6,6.6
			C560.1,107.7,559.9,109.9,559.1,112.1z"/>
		<path class="st1" d="M554.3,66.5c0.4,3.6,0.8,7.1,1.3,10.6l1.4,10.6c0.5,3.5,1,7.1,1.3,10.6c0.3,3.6,0.7,7.1,0.7,10.7l-0.1,0
			c-0.6-3.5-1.1-7.1-1.6-10.6c-0.5-3.5-0.8-7.1-1.1-10.7C555.4,80.7,554.7,73.6,554.3,66.5L554.3,66.5z"/>
		<path class="st1" d="M554.2,102.7c-0.8-2.1-2-4.1-3.3-6c-1.3-1.9-2.7-3.7-4.2-5.5c-2.9-3.6-6.1-7-9.3-10.3
			c-3.3-3.3-6.7-6.4-10.3-9.3c-1.8-1.4-3.7-2.7-5.7-3.8c-1-0.5-2-1-3.1-1.3c-1.1-0.3-2.2-0.4-3.1,0.1c-0.9,0.5-0.7,1.6-0.2,2.6
			c0.5,1,1.2,1.9,1.9,2.8c1.5,1.8,3.1,3.4,4.8,5c3.4,3.2,6.9,6.1,10.6,9C539.3,91.7,546.9,97.2,554.2,102.7z M554.3,102.8
			c-4-2.5-7.8-5.1-11.6-7.8c-3.8-2.7-7.5-5.5-11.2-8.3c-3.6-2.9-7.2-5.9-10.6-9.1c-1.7-1.6-3.3-3.3-4.8-5.1c-0.7-0.9-1.4-1.9-1.9-3
			c-0.2-0.6-0.5-1.2-0.5-1.9c0-0.3,0.1-0.7,0.3-1c0.2-0.3,0.5-0.6,0.8-0.7c1.2-0.7,2.6-0.5,3.7-0.2c1.2,0.3,2.2,0.8,3.3,1.4
			c2.1,1.1,4,2.5,5.8,4c3.7,2.9,7,6.1,10.3,9.4c3.2,3.3,6.3,6.8,9.2,10.5c1.4,1.8,2.8,3.7,4.1,5.6c0.6,1,1.3,2,1.8,3
			c0.3,0.5,0.6,1,0.8,1.6C553.9,101.7,554.2,102.1,554.3,102.8z"/>
		<path class="st1" d="M516.9,69.7c2.2,2.2,5.1,3.7,7.9,5.1c1.4,0.7,2.9,1.3,4.3,2c0.4,0.1,0.7,0.4,1.1,0.6c0.3,0.2,0.7,0.5,1,0.7
			c0.6,0.5,1.2,1,1.8,1.5c2.4,2.1,4.7,4.2,6.9,6.6c1.1,1.2,2.1,2.4,3.1,3.7c0.9,1.3,2,2.6,2.4,4.2l-0.1,0c-0.2-0.4-0.3-0.7-0.6-1
			c-0.2-0.3-0.5-0.6-0.7-0.9c-0.5-0.6-1-1.2-1.5-1.8c-1.1-1.2-2.1-2.3-3.3-3.4c-2.2-2.2-4.4-4.5-6.7-6.7c-0.6-0.5-1.2-1.1-1.8-1.6
			c-0.3-0.3-0.6-0.5-0.9-0.7c-0.3-0.2-0.6-0.4-1-0.6c-1.4-0.7-2.9-1.4-4.3-2.1C521.9,73.7,519,72.1,516.9,69.7L516.9,69.7z"/>
		<path class="st1" d="M555.7,107.3c-1.7-1.1-3.6-2.1-5.5-3.1c-1.9-0.9-3.8-1.8-5.8-2.6c-3.9-1.6-7.9-3.1-11.9-4.3
			c-4-1.2-8.2-2.3-12.3-2.9c-2.1-0.3-4.2-0.4-6.3-0.3c-1,0.1-2.1,0.2-3.1,0.5c-0.5,0.2-1,0.3-1.4,0.5c-0.5,0.2-0.9,0.5-1.2,0.8
			c-0.7,0.6,0.3,1.3,1.1,1.8c0.9,0.5,1.9,0.9,2.8,1.2c2,0.7,4,1.2,6.1,1.7c4.1,1,8.3,1.8,12.4,2.5
			C538.9,104.7,547.4,106,555.7,107.3z M555.7,107.4c-4.3-0.3-8.5-0.8-12.7-1.4c-4.2-0.5-8.4-1.2-12.6-1.9
			c-4.2-0.7-8.4-1.6-12.5-2.6c-2.1-0.5-4.1-1.1-6.1-1.8c-1-0.4-2-0.8-3-1.3c-0.5-0.3-1-0.6-1.4-1.1c-0.2-0.2-0.4-0.6-0.4-1
			c0-0.4,0.2-0.7,0.4-1c0.4-0.5,0.9-0.7,1.5-1c0.5-0.3,1-0.4,1.6-0.6c1.1-0.3,2.1-0.4,3.2-0.5c2.2-0.1,4.3,0.1,6.4,0.4
			c4.2,0.6,8.3,1.8,12.4,3.1c4,1.3,8,2.8,11.9,4.5c1.9,0.8,3.9,1.7,5.8,2.7c0.9,0.5,1.9,1,2.8,1.5c0.5,0.3,0.9,0.5,1.4,0.8l0.7,0.4
			C555.3,107,555.6,107.2,555.7,107.4z"/>
		<path class="st1" d="M514,95.2c3.3,0.6,6.6,1.4,9.9,2.2c3.3,0.8,6.5,1.6,9.8,2.5c3.3,0.9,6.5,1.7,9.7,2.7c1.6,0.5,3.2,1,4.8,1.6
			c1.6,0.6,3.2,1.1,4.7,2l-0.1,0.1c-0.7-0.3-1.6-0.5-2.4-0.7l-2.4-0.7l-4.9-1.3c-3.2-0.9-6.4-1.9-9.7-2.9c-3.2-1-6.4-1.9-9.7-2.8
			C520.5,96.9,517.3,96,514,95.2L514,95.2z"/>
		<path class="st1" d="M561.3,120.9c-0.5-0.9-1.3-1.6-2.2-2.3c-0.8-0.7-1.8-1.2-2.7-1.7c-1.9-1-3.8-1.9-5.8-2.8
			c-4-1.7-8-3.1-12.1-4.3c-4.1-1.2-8.3-2.3-12.5-3.1c-2.1-0.4-4.2-0.8-6.3-0.9c-1.1-0.1-2.1-0.1-3.2-0.1c-0.5,0-1,0.1-1.5,0.2
			c-0.5,0.1-1,0.4-1,0.6c-0.1,0.2,0.2,0.7,0.5,1.1c0.3,0.4,0.7,0.7,1.1,1c0.8,0.6,1.7,1.2,2.7,1.7c1.9,1,3.8,2,5.7,2.8
			c3.9,1.7,8,3.2,12.1,4.4c4.1,1.3,8.3,2.3,12.5,3c2.1,0.4,4.2,0.6,6.4,0.7C557.1,121.4,559.3,121.3,561.3,120.9z M561.4,120.9
			c-4.3,1.2-8.6,0.9-12.9,0.3c-4.3-0.6-8.5-1.6-12.7-2.8c-4.1-1.3-8.2-2.7-12.2-4.5c-2-0.9-3.9-1.8-5.8-2.9
			c-0.9-0.6-1.9-1.1-2.7-1.8c-0.4-0.3-0.9-0.7-1.2-1.1c-0.2-0.2-0.4-0.5-0.5-0.8c-0.1-0.3-0.3-0.7-0.2-1.1c0.1-0.4,0.4-0.7,0.7-0.8
			c0.3-0.1,0.6-0.3,0.8-0.3c0.6-0.2,1.1-0.2,1.7-0.2c1.1,0,2.2,0,3.3,0.1c2.2,0.2,4.3,0.6,6.4,1c4.2,0.9,8.4,2,12.5,3.3
			c4.1,1.3,8.2,2.8,12.1,4.5c2,0.9,3.9,1.8,5.8,2.9c0.9,0.6,1.9,1.1,2.7,1.8C560.1,119.2,560.9,119.8,561.4,120.9z"/>
		<path class="st1" d="M564.9,139.4c-0.9-1.6-2.3-3.1-3.8-4.3c-1.5-1.2-3.1-2.3-4.8-3.3c-3.3-2-6.8-3.6-10.4-5
			c-3.6-1.4-7.3-2.6-11-3.5c-1.9-0.5-3.8-0.8-5.7-1.1c-0.9-0.1-1.9-0.2-2.8-0.2c-0.9,0-1.9,0-2.7,0.4l0,0c-0.4,0.2-0.7,0.5-0.8,0.8
			c-0.1,0.3,0.1,0.7,0.3,1.1c0.5,0.7,1.3,1.4,2.1,1.9c1.6,1.1,3.4,2.1,5.2,3c3.6,1.7,7.3,3.2,11.1,4.5c3.8,1.3,7.6,2.5,11.5,3.5
			C557,138.2,561,139,564.9,139.4z M565,139.5c-4.1-0.1-8.1-0.7-12-1.6c-3.9-0.9-7.8-2-11.7-3.2c-3.8-1.3-7.6-2.8-11.2-4.6
			c-1.8-0.9-3.6-1.9-5.2-3.1c-0.8-0.6-1.6-1.3-2.3-2.2c-0.3-0.5-0.6-1.1-0.4-1.8c0.2-0.7,0.7-1.1,1.2-1.3l0,0l0,0c1-0.4,2-0.4,3-0.4
			c1,0,2,0.1,2.9,0.3c1.9,0.3,3.8,0.7,5.7,1.2c3.8,1,7.4,2.2,11,3.7c3.6,1.5,7.1,3.1,10.4,5.2c1.7,1,3.3,2.1,4.7,3.4
			C562.8,136.3,564.1,137.6,565,139.5z"/>
		<path class="st1" d="M568,158.5c-5.8-5.2-11.9-10.4-18.4-14.8c-3.2-2.2-6.6-4.3-10.2-5.9c-1.8-0.8-3.6-1.5-5.5-1.8
			c-0.9-0.2-1.9-0.3-2.9-0.2c-0.5,0.1-1,0.1-1.4,0.2c-0.5,0.1-0.9,0.2-1.2,0.4c-0.3,0.2-0.4,0.4-0.3,0.8c0.1,0.4,0.4,0.7,0.7,1.1
			c0.7,0.7,1.4,1.3,2.2,1.8c1.6,1.1,3.3,2.1,5,3.1c3.4,1.9,7,3.7,10.5,5.4C553.6,152,560.9,155.2,568,158.5z M568.1,158.5
			c-3.8-1.3-7.4-2.8-11.1-4.4c-3.6-1.5-7.3-3.1-10.9-4.8c-3.6-1.7-7.1-3.5-10.6-5.4c-1.7-1-3.4-2-5-3.2c-0.8-0.6-1.6-1.2-2.3-2
			c-0.3-0.4-0.7-0.8-0.9-1.4c-0.1-0.3-0.1-0.6,0-1c0.1-0.4,0.4-0.6,0.6-0.8c2-1,4.1-0.8,6.1-0.4c2,0.4,3.9,1.1,5.7,1.9
			c3.6,1.7,7,3.8,10.2,6.1c3.2,2.3,6.3,4.8,9.3,7.3c1.5,1.3,3,2.6,4.5,3.9l2.2,2l1.1,1C567.3,157.8,567.7,158.2,568.1,158.5z"/>
		<path class="st1" d="M519.5,107.2c3.1,1.4,6.3,2.6,9.5,3.8c3.2,1.2,6.4,2.3,9.7,3.4l9.7,3.1c1.6,0.6,3.2,1.1,4.9,1.6
			c1.6,0.5,3.2,1.1,4.9,1.3l0,0.1c-1.7,0.1-3.4-0.4-5.1-0.7c-1.7-0.4-3.3-0.8-5-1.3c-3.3-0.9-6.5-2.1-9.7-3.3
			c-3.2-1.2-6.4-2.4-9.6-3.7C525.6,110.2,522.4,108.9,519.5,107.2L519.5,107.2z"/>
		<path class="st1" d="M526.4,125.4c6,1.5,12,3.2,17.9,5.1c3,0.9,5.9,1.8,8.8,3c1.4,0.6,2.9,1.2,4.3,1.8c1.4,0.7,2.9,1.3,4.1,2.3
			l-0.1,0.1c-0.7-0.4-1.4-0.7-2.1-0.9c-0.7-0.3-1.4-0.5-2.2-0.8c-1.5-0.5-2.9-1-4.4-1.5c-2.9-1-5.8-2.1-8.7-3.2c-2.9-1-5.9-2-8.8-3
			C532.3,127.3,529.3,126.3,526.4,125.4L526.4,125.4z"/>
		<path class="st1" d="M532.5,137.5c2.8,1.3,5.5,2.9,8.3,4.4c2.7,1.6,5.4,3.2,8,4.8c2.7,1.6,5.4,3.2,8,4.9c2.6,1.7,5.2,3.5,7.7,5.4
			l0,0.1c-2.8-1.4-5.5-3-8.2-4.6c-2.7-1.6-5.2-3.4-7.8-5.1c-2.6-1.7-5.2-3.4-7.9-5C537.9,140.7,535.2,139,532.5,137.5L532.5,137.5z"
			/>
		<path class="st1" d="M554.3,102.7c0.7,0.8,1.2,1.7,1.6,2.7c0.5,0.9,0.9,1.9,1.3,2.8c0.8,1.9,1.6,3.8,2.3,5.8
			c1.4,3.9,2.7,7.9,3.9,11.9c2.3,8,4.2,16.1,5.6,24.3c0.7,4.1,1.3,8.2,1.8,12.4c0.4,4.1,0.7,8.3,0.8,12.5c0,4.2,0,8.3-0.3,12.5
			c-0.3,4.2-0.9,8.3-1.7,12.4l-0.1,0c0.6-4.1,0.9-8.3,1.1-12.4c0.2-4.1,0.2-8.3,0-12.4c-0.1-4.1-0.4-8.3-0.8-12.4
			c-0.4-4.1-0.9-8.2-1.6-12.3c-1.3-8.2-3.1-16.3-5.3-24.3c-1.1-4-2.3-8-3.7-11.9c-0.7-2-1.4-3.9-2.2-5.8c-0.4-1-0.8-1.9-1.3-2.8
			C555.4,104.5,554.9,103.6,554.3,102.7L554.3,102.7z"/>
	</g>
	<path class="st1" d="M405.8,237.5c-0.4,0-0.7,0.2-1,0.4c-0.1,0.1-0.2,0.3-0.3,0.5l-0.1,0.1c0,0,0,0.1-0.2,0.1
		c-0.1-0.1-0.1-0.2-0.1-0.3c-0.2-0.7-0.3-1.5-0.4-2.2l-0.3-2.3c0.1-0.9-0.7-1.2-1.4-1.5c-0.7-0.3-1.5-0.4-2.2-0.6
		c-0.4-0.1-0.7,0-0.9,0.4c-0.1,0.3-0.1,0.7,0,1c0.1,0.1,0.2,0.3,0.4,0.3c0.2,0,0.3,0,0.5-0.1c0.4-0.1,0.8,0,1.1,0.2
		c0.7,0.4,1.1,1.1,1.4,1.8c0.4,0.7,0.6,1.4,0.7,2.2c0,0.8-0.1,1.5-0.3,2.3c-0.1,0.4-0.3,0.7-0.4,1.1c-0.1,0.2-0.1,0.3-0.2,0.5
		c-0.2,0.2-0.4,0.2-0.6,0.3c-0.8,0.1-1.5,0-2.3-0.1c-0.8-0.1-1.5-0.1-2.3-0.2c-0.4,0-0.8,0-1.1,0.1c-0.2,0.1-0.3,0.2-0.3,0.3
		c0,0.1,0,0.3,0.1,0.5c0.1,0.4,0.1,0.8-0.1,1.2c-0.2,0.4-0.5,0.6-0.9,0.8c-0.2,0.1-0.4,0.1-0.6,0.2c-0.2,0.1-0.4,0-0.6,0
		c-0.4-0.1-0.7-0.2-0.9,0.1l-0.2,0.2l0-0.3c0-0.4,0.2-0.6,0.4-0.9c0.2-0.3,0.4-0.5,0.6-0.7c0.5-0.4,0.9-0.8,1.5-1.2
		c0.3-0.2,0.5-0.4,0.8-0.5c0.2-0.2,0.3-0.5,0.4-0.7c0.1-0.6,0.1-1.2,0.1-1.8c-0.1-1.2-0.3-2.5-0.7-3.6c-0.1-0.3-0.2-0.6-0.4-0.8
		c-0.1-0.1-0.2-0.3-0.3-0.3c-0.1,0,0,0-0.1,0l-0.2,0.1c-0.5,0.4-1.1,0.6-1.7,0.9c-1.2,0.5-2.4,0.9-3.7,0.8c-0.6-0.1-1.3-0.2-1.8-0.7
		c-0.4-0.5-0.6-1.2-0.7-1.8c-0.1-1.3,0-2.5,0.2-3.8l0.3-1.9c0.1-0.6,0.1-1.2,0.3-1.9c1-2.4,3.4-3.8,4.3-6.1c0.1-0.3,0.2-0.6,0.3-0.9
		c0.1-0.3,0.3-0.6,0.5-0.8c0.4-0.5,0.9-0.9,1.4-1.3c1-0.7,2.2-1.3,3.3-1.8c1.1-0.5,2.3-1,3.5-1.4c1.2-0.4,2.4-0.8,3.4-1.5
		c1.1-0.7,1.8-1.6,2.7-2.6c0.4-0.4,0.5-1,0.4-1.6c0-0.1,0-0.4,0.2-0.5c0.1-0.1,0.2-0.2,0.2-0.4c0.1-0.2,0-0.5-0.1-0.8l0-0.1l0.1-0.1
		c0.1-0.1,0.2-0.4,0.3-0.7c0.1-0.3,0.1-0.6,0.2-0.9c0-0.2,0.1-0.3,0.2-0.5c0.1-0.2,0.2-0.2,0.2-0.4c0-0.1,0-0.3,0-0.4l0-0.2
		c0-0.1,0-0.1,0-0.3c0,0,0-0.1,0.1-0.1c0.1,0,0,0,0.1,0l0,0c0,0,0,0,0,0s0,0,0,0c0,0,0.1-0.1,0.1-0.2c0.1-0.1,0.1-0.3,0.1-0.4
		c0.1-0.3,0.1-0.6,0.3-0.9c0.4-0.6,1-0.8,1.5-1.2l0.1,0.3c-1.9,0.3-3.8,0.7-5.6,1.5c-0.9,0.4-1.7,0.9-2.5,1.5
		c-0.4,0.3-0.7,0.6-1.1,0.9c-0.4,0.3-0.7,0.7-1.4,0.8l0.1,0c-1.1,0.5-2,1.4-2.6,2.4c-0.7,1-1.2,2.1-1.7,3.3
		c-0.5,1.1-0.8,2.3-1.2,3.5c-0.4,1.2-0.6,2.4-1.1,3.6l0,0.1l-0.1,0c-1.8,0.9-3.1,2.5-4.1,4.2c-0.5,0.9-0.9,1.7-1.4,2.7
		c0,0,0,0.1-0.1,0.1l-0.1,0c0,0-0.1,0.1-0.2,0c-0.1,0-0.1-0.1-0.1,0l0,0l0,0c0,0,0,0-0.1,0c-0.1,0-0.2,0-0.3,0.1
		c-0.2,0.1-0.4,0.2-0.6,0.3c-0.4,0.3-0.7,0.6-0.7,1.1l0,0.1l0,0c-1,1.2-1.6,2.7-2,4.2c-0.4,1.5-0.5,3.1-0.4,4.7
		c0,1.6,0.2,3.2,0.5,4.8c0.2,1.6,0.5,3.2,0.5,4.8l0,0.2l-0.2,0c-0.2,0-0.2,0-0.2,0.2c0,0.2,0.1,0.4,0.2,0.6c0.1,0.2,0.2,0.4,0.3,0.6
		c0,0,0.1,0.1,0.1,0.1l0,0c0,0-0.1,0-0.1,0l0,0l0.1,0c0.1,0,0.3,0,0.4,0.1c0.5,0.1,1,0.4,1.4,0.8c0.4,0.4,0.5,1,0.7,1.3
		c0.5,0.7,1.4,1.1,2.2,1.1c0.9,0,1.8-0.3,2.5-0.9l0.1-0.1l0.1,0.1c1.5,0.6,3.1,0.9,4.7,0.9c0.8,0,1.6,0,2.4-0.1
		c0.8-0.1,1.6-0.3,2.2-0.7l0.3,0.4c-0.5,0.3-0.9,0.2-1.3,0.3c-0.4,0-0.8,0-1.2-0.1c-0.8-0.1-1.6-0.2-2.3-0.4
		c-0.8-0.2-1.5-0.3-2.3-0.6c-0.2-0.1-0.4-0.1-0.6-0.2c-0.1,0-0.2-0.1-0.3-0.1c0,0-0.1,0-0.1-0.1c-0.1-0.1-0.1-0.1-0.1-0.2
		c0-0.1,0-0.3,0.1-0.4c0.3-0.3,0.4-0.3,0.6-0.4c0.2-0.1,0.4-0.1,0.6-0.1l0.1,0l0.1,0c0.8,0.4,1.8,0.6,2.7,0.7c0.5,0,0.9-0.1,1.4-0.2
		c0.4-0.1,0.8-0.3,1.2-0.6l0.3,0.5c-0.7,0.5-1.5,0.3-2.2,0.2c-0.4-0.1-0.7-0.2-1-0.4c-0.2-0.1-0.3-0.2-0.5-0.3
		c-0.1-0.1-0.2-0.1-0.2-0.2c-0.1-0.1-0.2-0.1-0.2-0.4c0-0.2,0.1-0.3,0.2-0.3c0.1-0.1,0.1-0.1,0.2-0.1c0.1,0,0.2,0,0.3,0
		c0.1,0,0.3,0,0.4-0.1c0.3-0.1,0.6-0.2,0.9-0.4c0.6-0.3,1.1-0.8,1.6-1.2c1-0.9,2-1.9,2.9-2.9c0,0,0.1-0.2,0.1-0.1
		c0.1-0.2,0.2-0.3,0.2-0.3c0.2-0.1,0.3-0.2,0.5-0.3c0.4-0.1,0.8-0.1,1.2,0.1c0.7,0.3,1.2,1,1.6,1.6l0,0c1.6,2.3,3.5,4.4,5.6,6.2
		c2.1,1.8,4.5,3.3,7.2,4c1.3,0.3,2.7,0.5,4.1,0.3c0.7-0.1,1.4-0.2,2-0.4c0.3-0.1,0.6-0.2,0.9-0.4l0.2-0.1c0,0,0.1-0.1,0,0
		c-0.1,0-0.1,0.5,0,0.5c0.1,0,0.1,0.1,0.2,0.1c0.1,0,0,0,0,0l0,0l-0.1,0c0,0-0.1,0-0.1,0c-0.3,0-0.5-0.1-0.6-0.2
		c-0.4-0.2-0.7-0.4-0.9-0.7c-0.1-0.1-0.3-0.3-0.4-0.5c0-0.1-0.1-0.3-0.1-0.3c0,0,0-0.1-0.1-0.1c-0.1-0.2-0.5-0.2-0.9-0.6
		c-0.2-0.2-0.2-0.6-0.2-0.8c0.1-0.3,0.1-0.2,0.1-0.4c0-0.2-0.3-0.4-0.6-0.6l-0.4-0.3c-0.1-0.1-0.2-0.1-0.2-0.2c0,0-0.1-0.1-0.1-0.1
		c0,0-0.2-0.2-0.1-0.5c0.1-0.2,0.2-0.2,0.3-0.2l0.1,0c0,0,0.1,0,0.1-0.1c0-0.1,0-0.2,0-0.3c-0.1-0.2-0.3-0.4-0.4-0.4l-0.5,0l0.2-0.5
		c0,0,0,0,0,0c0,0,0,0-0.1-0.1c-0.1-0.1-0.3-0.1-0.5-0.2l-0.4-0.1l0.2-0.4c0.1-0.2,0.1-0.2-0.1-0.4c-0.2-0.2-0.5-0.3-0.8-0.6
		l-0.1-0.1l0-0.2c0.1-0.3,0-0.6-0.1-0.8c-0.1-0.1-0.2-0.2-0.3-0.3c-0.1-0.1-0.3-0.1-0.5-0.3l-0.2-0.2l0.2-0.2c0.1-0.1,0-0.4-0.2-0.6
		c-0.1-0.1-0.2-0.2-0.3-0.3c-0.1-0.1-0.3-0.1-0.2-0.1l-0.3-0.6c0,0.1,0-0.1,0-0.2c0-0.1-0.1-0.3-0.2-0.4c-0.2-0.2-0.4-0.3-0.7-0.4
		l-0.3,0l0-0.3c0-0.3-0.4-0.4-0.8-0.5c-0.5-0.1-1,0-1.5,0c-0.3,0-0.5,0-0.8-0.1c-0.1,0-0.2,0-0.3-0.2c-0.1-0.1-0.1-0.2-0.1-0.3
		c0-0.1,0-0.2,0.1-0.2c0.1-0.1,0.1-0.2,0.2-0.2c0,0,0.1-0.1,0.1-0.1c0-0.1,0,0,0,0c0,0-0.1-0.1-0.1-0.1c-0.2-0.1-0.4-0.1-0.7-0.2
		c-0.1,0-0.1,0-0.2-0.1c-0.1,0-0.2,0-0.3-0.2c-0.1-0.1-0.1-0.3,0-0.4c0.1-0.1,0.1-0.1,0.1-0.2c0.1-0.1,0.1-0.1,0.2-0.1
		c0.3-0.1,0.5-0.2,0.8-0.3c0.5-0.2,1-0.3,1.5-0.3c1-0.1,2.1,0,3.1,0.2c2,0.5,3.8,1.6,5.4,2.9c1.6,1.3,2.9,2.9,4.1,4.5l0.1,0.1l0,0.1
		c-0.1,1.2,0.3,2.5,0.8,3.7c0.5,1.2,1.3,2.2,2.1,3.2c0.8,1,1.8,1.9,2.8,2.7c0.5,0.4,1,0.8,1.6,1c0.3,0.1,0.6,0.3,0.8,0.4
		c0.3,0.1,0.6,0.1,0.7,0.1l0,0.6l-0.1,0c0,0-0.1,0-0.2-0.2c0-0.1,0-0.3,0.1-0.3c0.1-0.1,0.1-0.1,0.1-0.1c0.1,0,0.1,0,0.2,0
		c0.2,0,0.1,0,0.1,0l0.1,0l0.2,0.1l0.4,0.2l0.7,0.3c0.5,0.2,1,0.4,1.5,0.6c0.5,0.2,1,0.3,1.5,0.4c0.5,0.1,1,0.1,1.4-0.1l0,0
		c0.1-0.1,0.1-0.1,0.1,0c0.1,0.1,0,0-0.1,0c-0.1-0.1-0.2-0.1-0.3-0.2c-0.1-0.1-0.3-0.1-0.5-0.3l-0.1-0.1l0-0.2c0-0.2,0-0.3-0.3-0.4
		c-0.1-0.1-0.3-0.1-0.4-0.2c-0.2-0.1-0.3-0.1-0.6-0.3l-0.1-0.1l0.1-0.2c0-0.2,0-0.2,0-0.3c0-0.1-0.2-0.1-0.4-0.2
		c-0.4-0.1-0.8-0.1-1.3-0.4c-0.1-0.1-0.2-0.1-0.2-0.2c-0.1-0.1-0.1-0.3-0.1-0.4c0-0.2,0-0.1,0-0.1c0,0-0.2-0.1-0.4-0.3
		c-0.2-0.1-0.4-0.3-0.6-0.6c-0.1-0.3-0.1-0.6-0.1-0.9l0.1-0.7l0.5,0.5c0.5,0.4,1.4,0.4,2.3,0.2c0.8-0.2,1.7-0.4,2.6-0.6
		c1.7-0.5,3.4-1.1,5.3-1.3l0.2,0l0.1,0.1c0.6,0.5,1.3,0.9,2,1.2c0.7,0.3,1.5,0.6,2.2,0.8c0.8,0.2,1.6,0.4,2.3,0.4c0.4,0,0.8,0,1.1,0
		c0.4,0,0.7-0.1,0.9-0.3l0.1-0.1l0.2,0c0.6,0.1,1.1,0.2,1.5,0c0.4-0.1,0.8-0.5,1.2-0.8l0.1-0.1l0.2,0c0.6,0,1.2-0.2,1.8-0.6
		c0.3-0.2,0.5-0.4,0.8-0.6c0.1-0.1,0.2-0.3,0.2-0.3c0,0,0,0,0,0.1c0,0,0,0,0,0.1c0,0,0,0.1,0,0.2c0,0.1,0.2,0.2,0.2,0.2
		c0,0,0.1,0,0.1,0c0.1,0,0,0-0.1,0l-0.3,0.1c-0.7,0.1-1.4,0.2-2.1,0.2c-0.7,0-1.4,0-2.2-0.1l-0.2,0l-0.1-0.2
		c-0.1-0.1-0.1-0.2-0.2-0.3c-0.1-0.1-0.1-0.1-0.2,0c-0.1,0-0.1,0-0.2,0.1c0,0-0.1,0-0.2,0c-0.1,0-0.3,0-0.5-0.2
		c-0.1-0.2-0.1-0.3-0.2-0.4l0-0.1l0,0c0,0,0,0,0.1,0.1c0.1,0,0,0,0,0c-0.1,0-0.1,0-0.4,0c-0.1,0-0.2-0.1-0.3-0.3
		c-0.1-0.1-0.1-0.2,0-0.3c0,0,0-0.1,0-0.1l0,0c0,0,0,0,0,0c0,0-0.1-0.1-0.2-0.1c-0.1-0.1-0.3-0.1-0.5-0.2l-1.5-0.5l1.6-0.3
		c0.7-0.1,1.4-0.6,2.1-1c0.7-0.4,1.3-0.9,2-1.4l0,0l0.1,0c0.3-0.2,0.8-0.6,1.1-1c0.4-0.4,0.7-0.8,1.1-1.3c0.7-0.9,1.4-1.7,2.1-2.6
		c0.7-0.9,1.3-1.8,1.9-2.8c0.6-0.9,1.2-1.9,1.6-2.9l0,0l0,0c0.6-1.3,0.9-2.8,1.1-4.2c0.2-1.5,0.2-3,0.2-4.5c0-3-0.1-6-0.2-9.1
		l0.2,0.4c-0.3-0.1-0.4-0.1-0.6,0.1c-0.2,0.3-0.3,0.7-0.5,1.1c0,0.1-0.1,0.2-0.1,0.3c-0.1,0.1-0.1,0.2-0.3,0.4
		c-0.1,0.1-0.2,0.1-0.3,0.1c-0.1,0-0.1,0-0.2,0c-0.1,0-0.1,0-0.1,0c0,0-0.1,0-0.1,0c-0.1,0-0.1,0-0.2,0c-0.2,0-0.3,0.2-0.4,0.6
		l-0.1,0.4l-0.5,0c0,0,0,0,0.1,0c0,0,0,0,0,0.1c-0.1,0.1-0.2,0.3-0.2,0.5c0,0.1-0.1,0.2-0.2,0.3c-0.1,0.1-0.1,0.1-0.2,0.2
		c-0.1,0.1-0.5,0.1-0.5,0c0.1,0,0,0-0.1,0.1c-0.2,0.2-0.4,0.5-0.6,0.8c-0.2,0.3-0.3,0.7-0.4,1.1l-0.3,1.1l-0.4-0.8
		c0,0-0.2-0.1-0.4,0.1c-0.2,0.1-0.5,0.3-0.7,0.5c-0.2,0.2-0.4,0.4-0.5,0.6c0,0.2-0.1-0.2,0,0.1c0.1,0.2,0.1,0.3,0.1,0.5
		c0.3,1.3,0.5,2.6,0.5,4c0,0.3,0,0.7-0.1,1.1c0,0.2-0.1,0.4-0.2,0.6c0,0.1-0.1,0.2-0.2,0.3l-0.2,0.1l-0.1,0.1
		c-0.2,0.2-0.3,0.3-0.4,0.5c0,0.2-0.1,0.6-0.1,0.9c0,1.3-0.2,2.7-0.5,4l-0.8-0.4c0.1-0.1,0.2-0.6,0.2-0.9c0-0.4,0-0.8,0-1.2
		c0-0.8-0.1-1.7-0.2-2.5c-0.1-0.9-0.2-1.7-0.2-2.6c0-0.2,0-0.4,0-0.7c0-0.2,0-0.3-0.1-0.4c-0.1-0.3-0.4-0.6-0.6-1
		c-0.5-0.6-1.1-1.2-1.7-1.8c-0.3-0.3-0.6-0.6-0.9-0.9c-0.1-0.2-0.3-0.3-0.4-0.5c-0.1-0.1-0.1-0.2-0.2-0.3c0-0.1-0.1-0.1-0.1-0.2
		c-0.1-0.1-0.3-0.1-0.7,0l-0.3,0.1c-0.1,0-0.2,0.1-0.6,0.1c-0.2-0.1-0.4-0.3-0.4-0.4c0-0.1,0-0.2,0-0.3c0,0,0-0.1,0-0.1
		c-0.2-0.5-1.1-0.9-1.6-0.7l-0.4,0.1l-0.2-0.4c-0.2-0.3-0.4-0.6-0.6-0.7c-0.2-0.1-0.6-0.1-1-0.1l-0.4,0l-0.1-0.4
		c-0.1-0.3-0.3-0.7-0.5-1c-0.2-0.3-0.5-0.7-0.7-1c-0.3-0.3-0.5-0.6-0.8-0.8c-0.1-0.1-0.3-0.2-0.4-0.2c-0.1,0-0.1,0,0,0
		c0,0,0.1,0,0,0l-0.4,0.5l-0.3-0.4c-0.2-0.2-0.4-0.3-0.5-0.4c-0.1,0-0.4,0.1-0.7,0.2l-0.3,0.1l-0.2-0.2c-0.2-0.3-0.5-0.5-0.8-0.6
		c-0.3-0.1-0.5-0.1-0.7,0l-0.4,0.2l-0.2-0.4c-0.2-0.2-0.3-0.4-0.5-0.5c-0.2,0-0.4,0-0.7,0.1l-0.3,0.1l-0.2-0.3
		c-0.1-0.1-0.2-0.3-0.3-0.3c-0.1-0.1-0.2-0.1-0.2-0.1c-0.2,0-0.7,0.1-1.2,0l-0.1,0l-0.1-0.1c-0.2-0.1-0.3-0.2-0.5-0.2
		c-0.1,0-0.1,0-0.2,0c-0.1,0-0.2,0.1-0.2,0.1l-0.4,0.3l-0.3-0.3c-0.2-0.2-0.2-0.3-0.2-0.3l-0.1-0.2c0-0.1-0.1-0.1-0.1-0.2
		c-0.1-0.1-0.2-0.1-0.4-0.1l0.4-0.3c-0.1,0.1,0.1,0.6,0.3,1c0.2,0.4,0.5,0.8,0.8,1.2c0.6,0.8,1.2,1.5,1.9,2.2
		c1.3,1.4,2.8,2.8,4.2,4.2c1.4,1.4,2.8,2.8,4.2,4.2c1.4,1.4,2.7,2.9,3.8,4.6l-0.1-0.1c0.3,0.3,0.3,0.4,0.5,0.6l0.4,0.6
		c0.2,0.4,0.5,0.8,0.7,1.2c0.4,0.8,0.8,1.7,1.1,2.5c0.3,0.9,0.5,1.8,0.5,2.8c0,1-0.2,2-1,2.8l-0.1,0.1l-0.1,0
		c-1.1,0.2-2.2,0.1-3.2,0c-1-0.1-2-0.4-3-0.6c-1-0.3-1.9-0.6-2.9-0.9l-1.4-0.5l-0.2-0.1l0,0l0.1,0c0,0,0.1,0,0.1,0
		c-0.2-0.1,0.3,0.4,0.4-0.7c-0.3-0.4-0.1-0.1-0.2-0.2l0,0c0,0,0,0,0,0c0,0,0,0,0,0c0.1,0,0.2-0.2,0.2-0.2l0-1.1l0.9,1c0,0,0,0,0.1,0
		c0.2,0,0.4-0.1,0.6-0.1c0.1,0,0.3-0.1,0.4-0.1c0.3,0,0.2,0,0.2,0c0.1,0,0.2-0.1,0.3-0.3l0.2-0.4l0.4,0.2c0,0,0.1,0.1,0.2,0.1
		c0.1,0,0.1,0,0.1,0c0,0,0,0,0,0c0,0,0-0.1,0-0.1l0.5,0.6c-0.3,0-0.5,0-0.7-0.1c-0.2-0.1-0.3-0.1-0.5-0.2c-0.3-0.1-0.6-0.2-0.9-0.4
		c-0.6-0.3-1.1-0.5-1.7-0.8c-1.1-0.6-2.2-1.2-3.3-1.8l-3.2-1.9l-0.8-0.5l-0.4-0.2c-0.2-0.1-0.3-0.2-0.4-0.3
		c-0.5-0.4-0.9-0.9-1.4-1.4c-1.6-1.9-3-4-4.3-6.1c-0.3-0.5-0.6-1.1-0.9-1.7c-0.1-0.2-0.1-0.3-0.2-0.5c0-0.2,0-0.3-0.1-0.4
		c-0.1-0.3-0.2-0.5-0.3-0.8c-0.6-1-1.4-2-2.3-2.5l-0.2-0.1l0-0.2c-0.1-0.4-0.2-0.7-0.4-0.8c-0.2-0.2-0.8-0.1-1.3-0.5l0,0l0-0.1
		c-0.2-0.3-0.4-0.6-0.6-0.9c-0.1-0.1-0.2-0.1-0.3-0.2c-0.1,0-0.6-0.1-0.7-0.3l-0.1-0.1l0-0.1c0-0.2-0.3-0.4-0.6-0.6
		c-0.3-0.2-0.6-0.3-1-0.3l-0.3-0.1l0-0.3c0-0.3-0.4-0.5-0.9-0.7c-0.5-0.2-1-0.2-1.5-0.3l-0.2,0l-0.1-0.2c-0.1-0.3-0.7-0.5-1.3-0.5
		c-0.6-0.1-1.2-0.1-1.9-0.2c-0.2,0-0.4-0.1-0.6-0.3c-0.2-0.3-0.2-0.3-0.3-0.3c-0.1-0.1-0.3-0.1-0.6-0.1c-0.6,0-1.2,0.1-1.9,0
		c-0.7-0.1-1.2-0.2-1.7-0.1c-0.5,0.1-1.1,0.3-1.6,0.6c-1,0.6-1.9,1.4-2.9,2.1l0,0l-0.1,0c-0.5,0.1-1,0.6-1.5,1
		c-0.5,0.4-1,0.9-1.4,1.4l-1.4,1.4c-0.2,0.2-0.4,0.5-0.8,0.7c-0.2,0.1-0.5,0.2-0.7,0.2c0,0-0.1,0-0.1,0c0,0,0.1,0,0.1,0
		c0,0,0,0,0,0.1c-0.4,0.7-0.8,1.2-1.2,1.7l-1.2,1.6l-0.6,0.8l-0.3,0.4l-0.1,0.2c0,0-0.1,0.2-0.1,0.1c0-0.1-0.1-0.3-0.2-0.3
		c-0.1,0-0.2,0-0.2,0c0,0,0,0,0,0l0.1-0.1l0.2-0.1l0.4-0.3l0.8-0.6c2.2-1.6,4.7-2.7,7.4-3.3c1.3-0.3,2.7-0.5,4-0.5
		c1.4,0,2.7,0.1,4.1,0.4c2.7,0.6,5.2,1.7,7.5,3.1c1.1,0.7,2.2,1.5,3.2,2.5c1,0.9,1.8,2,2.7,3l5.2,6.2c1.7,2,3.4,4.1,5.3,6l0,0l0,0
		c1.5,1.7,3.2,3.1,5.2,4.1c1,0.5,2.1,0.9,3.2,1c1.1,0.2,2.2,0.2,3.3,0l0,0.3c-0.7-0.2-1.5-0.3-2.2-0.5c-0.4-0.1-0.8-0.2-1.1-0.4
		c-0.4-0.2-0.5-0.6-0.7-1c-0.1-0.4-0.3-0.6-0.7-0.7c-0.4-0.1-0.7-0.4-0.9-0.7c-0.2-0.3-0.4-0.6-0.7-0.8c-0.3-0.2-0.7-0.3-0.9-0.7
		c-0.2-0.4-0.3-0.7-0.6-1c-0.2-0.3-0.6-0.4-0.9-0.7c-0.5-0.6-0.7-1.4-1-2.1c-0.9-1.2-2-2.3-2.5-3.8l0.1,0c0.2,0.7,0.7,1.3,1.1,2
		c0.2,0.3,0.5,0.6,0.7,0.9c0.1,0.2,0.3,0.3,0.4,0.4c0.1,0.2,0.2,0.3,0.3,0.5c0.4,0.7,0.5,1.5,1,2c0.3,0.3,0.6,0.4,0.9,0.7
		c0.3,0.3,0.4,0.7,0.6,1c0.2,0.3,0.5,0.4,0.9,0.6c0.4,0.2,0.6,0.5,0.8,0.9c0.2,0.3,0.4,0.6,0.8,0.6c0.2,0.1,0.4,0.1,0.5,0.3
		c0.1,0.2,0.2,0.3,0.3,0.5c0.1,0.3,0.3,0.7,0.6,0.9c0.3,0.2,0.7,0.3,1,0.4c0.7,0.2,1.5,0.3,2.2,0.5l0.6,0.1l-0.6,0.1
		c-1.1,0.2-2.3,0.3-3.4,0.1c-1.1-0.2-2.2-0.5-3.2-1c-1-0.5-2-1.1-2.9-1.8c-0.9-0.7-1.7-1.5-2.5-2.3l0,0c-1.9-1.9-3.6-4-5.4-6
		l-5.2-6.1c-0.9-1-1.7-2.1-2.7-3c-1-0.9-2-1.7-3.2-2.4c-2.2-1.4-4.7-2.5-7.3-3c-1.3-0.3-2.6-0.4-3.9-0.4c-1.3,0.1-2.6,0.2-3.9,0.5
		c-2.6,0.6-5,1.7-7.2,3.3l-0.8,0.6l-0.4,0.3l-0.2,0.2l-0.1,0.1l-0.1,0.1c0,0-0.2,0-0.2,0c-0.1,0-0.3-0.2-0.2-0.3
		c0-0.3,0.1-0.3,0.1-0.4l0.1-0.2l0.3-0.4l0.6-0.8l1.2-1.6c0.4-0.5,0.8-1.1,1.1-1.6c0-0.1,0.1-0.2,0.2-0.3c0.1-0.1,0.2-0.1,0.3-0.1
		c0.1,0,0.1,0,0.2,0c0.1,0,0.2,0,0.3-0.1c0.2-0.1,0.4-0.4,0.7-0.6l1.4-1.4c0.5-0.5,1-1,1.5-1.4c0.3-0.2,0.5-0.4,0.8-0.6
		c0.3-0.2,0.6-0.4,1-0.5l-0.2,0.1c0.9-0.8,1.9-1.6,2.9-2.2c0.5-0.3,1.1-0.6,1.8-0.7c0.6-0.2,1.4,0,1.9,0c0.6,0.1,1.1,0,1.8,0
		c0.3,0,0.7-0.1,1.1,0.2c0.2,0.1,0.3,0.4,0.3,0.4c0,0,0.1,0.1,0.3,0.1c0.5,0.1,1.1,0.1,1.7,0.2c0.3,0,0.6,0.1,1,0.2
		c0.3,0.1,0.7,0.3,0.9,0.8L418,211c0.5,0.1,1.1,0.1,1.6,0.3c0.3,0.1,0.5,0.2,0.8,0.4c0.3,0.2,0.5,0.5,0.6,0.9l-0.3-0.3
		c0.4,0.1,0.8,0.2,1.2,0.4c0.4,0.2,0.8,0.5,1,1.1l-0.1-0.2c0.1,0.1,0.1,0.1,0.4,0.1c0.3,0,0.6,0.2,0.7,0.4c0.3,0.3,0.5,0.7,0.8,1
		l-0.1-0.1c0.1,0.1,0.3,0.1,0.5,0.2c0.2,0.1,0.5,0.1,0.7,0.3c0.3,0.1,0.5,0.4,0.6,0.7c0.1,0.3,0.2,0.5,0.2,0.7l-0.2-0.3
		c1.2,0.7,2,1.7,2.7,2.8c0.2,0.3,0.3,0.6,0.4,0.9c0.1,0.1,0.1,0.4,0.1,0.5c0,0.1,0.1,0.2,0.1,0.4c0.2,0.5,0.5,1.1,0.8,1.6
		c1.2,2.1,2.6,4.1,4.2,6c0.4,0.5,0.8,0.9,1.2,1.3c0.1,0.1,0.2,0.2,0.3,0.2l0.4,0.2l0.8,0.5l3.2,1.8c1.1,0.6,2.2,1.2,3.2,1.7
		c0.5,0.3,1.1,0.6,1.6,0.8c0.3,0.1,0.6,0.2,0.8,0.3c0.2,0.1,0.6,0.2,0.7,0.2l0.7-0.1l-0.2,0.6c0,0.2-0.1,0.3-0.2,0.5
		c-0.1,0.2-0.4,0.3-0.6,0.4c-0.2,0-0.4,0-0.5,0c-0.2,0-0.3-0.1-0.4-0.2l0.7-0.2c-0.2,0.3-0.4,0.5-0.8,0.7c-0.2,0.1-0.5,0-0.5,0
		c-0.1,0-0.2,0-0.3,0c-0.2,0.1-0.5,0.1-0.8,0.1c-0.2,0-0.4,0-0.6-0.1c-0.2-0.1-0.4-0.3-0.5-0.5l0.9-0.1c-0.1,0.4-0.3,0.7-0.7,0.9
		c-0.2,0.1-0.5,0.1-0.7,0.1c-0.1,0-0.1,0-0.2-0.1l-0.1,0c0-0.1,0.1,0.1-0.2-0.2c0.1-1,0.6-0.6,0.4-0.7c0,0,0.1,0,0.1,0
		c0.1,0,0.1,0,0.1,0l0.1,0l0.2,0.1l1.4,0.5c0.9,0.3,1.9,0.6,2.8,0.9c1,0.3,1.9,0.5,2.9,0.6c1,0.1,1.9,0.2,2.8,0l-0.2,0.1
		c0.5-0.5,0.7-1.3,0.7-2.1c0-0.8-0.2-1.7-0.5-2.5c-0.3-0.8-0.6-1.6-1-2.4c-0.2-0.4-0.4-0.8-0.6-1.1l-0.3-0.5
		c-0.1-0.2-0.3-0.4-0.3-0.4l-0.1-0.1l0,0c-1-1.6-2.4-3-3.7-4.5c-1.4-1.4-2.8-2.8-4.2-4.2c-1.4-1.4-2.8-2.8-4.2-4.2
		c-0.7-0.7-1.3-1.5-2-2.3c-0.3-0.4-0.6-0.8-0.9-1.3c-0.1-0.2-0.2-0.5-0.3-0.8c-0.1-0.3-0.1-0.6,0-1l0.1-0.3l0.3,0
		c0.3,0,0.8,0,1.1,0.3c0.2,0.1,0.3,0.3,0.4,0.4l0.1,0.2c0,0.1,0.1,0.1,0,0l-0.6,0c0.2-0.2,0.3-0.2,0.5-0.3c0.2-0.1,0.4-0.1,0.6,0
		c0.4,0,0.7,0.2,1,0.4l-0.2-0.1c0.1,0,0.3,0,0.4,0c0.2,0,0.4,0,0.6,0c0.3,0,0.6,0.2,0.8,0.4c0.2,0.2,0.3,0.3,0.4,0.5l-0.6-0.2
		c0.4-0.1,0.8-0.3,1.3-0.2c0.5,0.1,0.9,0.5,1.1,0.9l-0.6-0.2c0.4-0.3,1.1-0.3,1.5-0.1c0.5,0.2,0.8,0.5,1.1,0.8l-0.5-0.1
		c0.3-0.1,0.7-0.3,1.2-0.3c0.5,0.1,0.8,0.4,1.1,0.7l-0.8,0.1c0.1-0.2,0.3-0.4,0.5-0.4c0.2-0.1,0.4,0,0.6,0c0.3,0.1,0.5,0.3,0.7,0.4
		c0.4,0.3,0.7,0.6,0.9,1c0.3,0.3,0.5,0.7,0.8,1.1c0.2,0.4,0.5,0.7,0.6,1.2l-0.5-0.3c0.4,0,0.9-0.1,1.4,0.1c0.5,0.2,0.8,0.7,1.1,1.1
		l-0.6-0.2c0.6-0.2,1.1-0.1,1.6,0.1c0.5,0.2,0.9,0.5,1.2,1.1c0.1,0.1,0.1,0.3,0.1,0.5c0,0.1,0,0.1,0,0c0,0-0.1-0.2-0.2-0.2
		c-0.2,0,0,0,0,0l0.3-0.1c0.2-0.1,0.5-0.2,0.8-0.2c0.3,0,0.7,0.2,0.9,0.4c0.1,0.1,0.2,0.2,0.3,0.4c0,0.1,0.1,0.2,0.1,0.2
		c0.1,0.2,0.2,0.3,0.4,0.5c0.3,0.3,0.6,0.6,0.9,0.9c0.6,0.6,1.2,1.2,1.8,1.9c0.3,0.4,0.6,0.7,0.8,1.2c0.1,0.2,0.2,0.5,0.2,0.8
		c0,0.2,0,0.4,0,0.6c0.1,0.8,0.1,1.7,0.2,2.5c0.1,0.9,0.1,1.7,0.2,2.6c0,0.4,0,0.9,0,1.3c-0.1,0.5,0,0.9-0.5,1.5l-1.1,1.4l0.3-1.8
		c0.2-1.3,0.4-2.5,0.4-3.8c0-0.3,0-0.6,0.1-1c0.1-0.4,0.4-0.9,0.7-1.1c0.3-0.2,0.4-0.8,0.4-1.4c0-1.2-0.2-2.5-0.5-3.8
		c0-0.2-0.1-0.3-0.1-0.4l0-0.1c0,0,0,0,0,0c0-0.1-0.1-0.2-0.1-0.2c0-0.2,0-0.4,0.1-0.5c0.2-0.4,0.4-0.7,0.7-0.9
		c0.3-0.3,0.5-0.5,0.9-0.7c0.2-0.1,0.4-0.2,0.6-0.2c0.2,0,0.6,0,0.8,0.2l-0.7,0.2c0.1-0.4,0.3-0.8,0.4-1.2c0.2-0.4,0.4-0.8,0.9-1.1
		c0.2-0.1,0.5-0.3,1-0.2c0,0-0.2,0-0.2,0c-0.1,0,0,0,0,0c0,0,0.1-0.1,0.1-0.2c0.1-0.2,0.2-0.4,0.3-0.6c0.1-0.1,0.2-0.2,0.4-0.3
		c0.2-0.1,0.5-0.1,0.6,0l-0.6,0.3c0.1-0.3,0.1-0.5,0.3-0.8c0.2-0.3,0.5-0.5,0.9-0.5c0.2,0,0.3,0,0.5,0c0.1,0,0.1,0,0.2,0.1
		c0,0-0.2,0-0.3,0c-0.1,0.1,0,0,0-0.1l0.1-0.3c0.1-0.4,0.3-0.9,0.6-1.3c0.2-0.2,0.4-0.5,0.8-0.5c0.4-0.1,0.7,0,0.9,0.1l0.2,0.1
		l0,0.3c0,3,0.2,6.1,0.2,9.1c0,1.5-0.1,3.1-0.2,4.6c-0.2,1.5-0.5,3.1-1.2,4.5l0,0c-0.4,1.1-1,2.1-1.7,3.1c-0.6,1-1.3,1.9-2,2.8
		c-0.7,0.9-1.4,1.8-2.1,2.7c-0.4,0.4-0.7,0.9-1.1,1.3c-0.2,0.2-0.4,0.4-0.6,0.6c-0.2,0.2-0.4,0.4-0.8,0.6l0.1,0
		c-0.7,0.5-1.3,1-2,1.4c-0.7,0.4-1.4,0.9-2.4,1.1l0-0.8c0.2,0.1,0.4,0.1,0.6,0.2c0.2,0.1,0.4,0.2,0.6,0.5c0.1,0.2,0.1,0.4,0.1,0.5
		l0,0.1c0,0,0,0,0,0c0,0,0-0.1,0-0.2c-0.1-0.1-0.1-0.2-0.2-0.2c-0.1,0,0.1,0,0.2,0c0.1,0,0.3,0,0.5,0.1c0.2,0.2,0.3,0.4,0.3,0.5
		l0,0.1c0,0,0,0-0.1-0.1c-0.1-0.1-0.2-0.1-0.2-0.1l0.1,0c0.1,0,0.2-0.1,0.3-0.1c0.3-0.1,0.6,0,0.8,0.2c0.2,0.2,0.3,0.4,0.4,0.6
		l-0.3-0.2c0.6,0.1,1.3,0.1,2,0.1c0.7,0,1.4-0.1,2-0.2l0.2,0c0,0,0,0,0.2,0c0,0,0.1,0,0.2,0c0.1,0,0.3,0.1,0.3,0.2
		c0,0.1,0,0.1,0,0.2c0,0,0,0.1,0,0.1c0,0.1,0,0.1,0,0.1c-0.2,0.3-0.3,0.4-0.4,0.5c-0.3,0.3-0.6,0.5-0.9,0.7
		c-0.6,0.4-1.4,0.7-2.2,0.7l0.3-0.1c-0.4,0.4-0.9,0.8-1.6,1c-0.3,0.1-0.7,0.1-1,0.1l-0.8-0.1l0.3-0.1c-0.5,0.4-0.9,0.4-1.4,0.5
		c-0.4,0-0.9,0-1.3,0c-0.8-0.1-1.7-0.2-2.5-0.5c-0.8-0.2-1.6-0.5-2.4-0.8c-0.8-0.3-1.5-0.7-2.2-1.3l0.3,0.1
		c-1.7,0.2-3.4,0.7-5.1,1.2c-0.9,0.2-1.7,0.5-2.6,0.7c-0.5,0.1-0.9,0.1-1.4,0.1c-0.5,0-1-0.1-1.5-0.5l0.6-0.2c0,0.4,0,0.5,0.3,0.7
		c0.2,0.1,0.4,0.2,0.6,0.6c0.1,0.2,0.1,0.5,0.1,0.5c0-0.1-0.1-0.2,0-0.1c0.2,0.1,0.7,0.2,1.2,0.3c0.2,0.1,0.5,0.2,0.7,0.5
		c0.2,0.3,0.2,0.7,0.1,1l-0.1-0.4c0,0,0.1,0.1,0.3,0.1c0.2,0.1,0.3,0.1,0.5,0.2c0.2,0.1,0.4,0.2,0.5,0.4c0.1,0.2,0.2,0.5,0.2,0.7
		l-0.1-0.3c-0.1,0,0.1,0.1,0.2,0.1c0.1,0.1,0.3,0.1,0.4,0.2c0.1,0.1,0.4,0.2,0.5,0.6c0,0.2-0.1,0.4-0.1,0.5
		c-0.1,0.1-0.2,0.2-0.2,0.2l0,0l0,0c-0.7,0.3-1.3,0.2-1.9,0.1c-0.6-0.1-1.1-0.3-1.6-0.5c-0.5-0.2-1-0.4-1.6-0.6l-0.8-0.4l-0.4-0.2
		l-0.2-0.1l-0.1,0c0,0,0,0,0.1,0c0.1,0,0.1,0,0.2,0c0,0,0.1,0,0.2-0.1c0.1-0.1,0.1-0.2,0.1-0.3c-0.1-0.2-0.1-0.2-0.2-0.2l0,0
		l0.6,0.4l-0.6,0.3c-0.5,0.2-0.9,0.1-1.3,0c-0.3-0.1-0.7-0.3-1-0.4c-0.6-0.3-1.2-0.7-1.7-1.1c-1.1-0.8-2-1.8-2.9-2.8
		c-0.9-1-1.6-2.1-2.2-3.4c-0.6-1.2-0.9-2.6-0.9-4l0.1,0.2c-1.2-1.6-2.5-3.1-4-4.4c-1.5-1.3-3.2-2.3-5.1-2.8
		c-0.9-0.2-1.9-0.3-2.9-0.2c-0.5,0.1-0.9,0.2-1.4,0.3c-0.2,0.1-0.5,0.2-0.6,0.3c0,0-0.1,0-0.1,0.1c0,0,0,0,0,0c0,0,0-0.2,0-0.3
		c-0.1-0.1,0,0,0,0l0.1,0c0.2,0.1,0.5,0.1,0.8,0.2c0.1,0.1,0.3,0.1,0.4,0.4c0.2,0.2,0.1,0.6,0,0.7c0,0.1-0.1,0.1-0.1,0.2
		c0,0-0.1,0.1-0.1,0.1c0,0,0,0,0,0c0-0.1,0-0.1,0-0.1c-0.1-0.1-0.1,0,0,0c0.2,0,0.4,0,0.7,0c0.5,0,1,0,1.6,0c0.3,0,0.6,0.1,0.8,0.3
		c0.3,0.1,0.6,0.5,0.6,0.9l-0.3-0.3c0.4,0,0.9,0.2,1.2,0.6c0.1,0.2,0.2,0.4,0.3,0.6c0,0.2,0.1,0.5-0.2,0.9l-0.3-0.6
		c0.4,0,0.5,0.1,0.7,0.3c0.2,0.1,0.3,0.3,0.4,0.4c0.1,0.2,0.2,0.3,0.3,0.6c0.1,0.2,0.1,0.5-0.1,0.8l-0.1-0.4c0,0,0.3,0.1,0.4,0.3
		c0.2,0.1,0.4,0.3,0.5,0.5c0.3,0.4,0.3,0.9,0.2,1.3l-0.1-0.3c0.1,0.2,0.4,0.3,0.7,0.6c0.1,0.1,0.3,0.3,0.3,0.6
		c0,0.3-0.1,0.5-0.2,0.7l-0.2-0.5c0.3,0.1,0.5,0.1,0.7,0.3c0.1,0.1,0.3,0.2,0.3,0.4c0.1,0.2,0,0.5-0.1,0.6l-0.3-0.5
		c0.5,0,0.9,0.4,1.1,0.9c0.1,0.2,0.1,0.5-0.1,0.8c-0.1,0.1-0.2,0.2-0.3,0.3l-0.2,0.1c0,0,0,0,0.1-0.1c0.1-0.2,0-0.2,0-0.2
		c0,0,0,0,0,0c0,0,0.1,0.1,0.2,0.1l0.4,0.3c0.3,0.2,0.6,0.4,0.8,1c0.1,0.2-0.1,0.6-0.1,0.7c0,0.1,0,0.2,0,0.2
		c0.1,0.1,0.5,0.2,0.9,0.6c0.1,0.1,0.1,0.2,0.2,0.4c0,0.1,0,0.1,0.1,0.2c0,0.1,0.1,0.2,0.2,0.3c0.2,0.2,0.5,0.4,0.7,0.6
		c0.1,0.1,0.3,0.1,0.4,0.1c0,0,0,0,0,0l0,0l0,0c0,0,0,0,0.1,0c0.1,0,0.2,0,0.2,0c0.1,0,0.2,0.5,0,0.5c-0.1,0.1-0.1,0.1-0.2,0.1
		c-0.1,0.1-0.2,0.1-0.3,0.1c-0.3,0.2-0.7,0.3-1,0.4c-0.7,0.2-1.4,0.4-2.1,0.4c-1.4,0.1-2.9,0-4.3-0.4c-2.8-0.7-5.3-2.3-7.4-4.1
		c-2.2-1.9-4-4-5.7-6.3l0,0l0,0c-0.3-0.6-0.8-1.1-1.3-1.3c-0.5-0.2-1.1-0.1-1.4,0.5c-0.9,1.1-1.9,2-3,2.9c-0.5,0.4-1.1,0.9-1.7,1.3
		c-0.3,0.2-0.6,0.4-1,0.5c-0.2,0.1-0.4,0.1-0.6,0.1c-0.1,0-0.1,0-0.2,0c-0.1,0,0,0.1,0-0.1c0-0.1,0,0,0,0c0,0,0.1,0.1,0.2,0.1
		c0.1,0.1,0.3,0.2,0.4,0.2c0.3,0.1,0.6,0.3,0.9,0.3c0.6,0.2,1.3,0.2,1.8-0.1l0.3,0.5c-0.4,0.3-0.9,0.5-1.4,0.7
		c-0.5,0.1-1,0.2-1.5,0.2c-1,0-2-0.3-2.9-0.7l0.2,0c-0.2,0-0.4,0.1-0.5,0.1c-0.2,0-0.4,0.1-0.4,0.2c0,0,0-0.1,0-0.1
		c0,0,0-0.1-0.1-0.1c0,0,0,0,0,0c0.1,0,0.1,0.1,0.2,0.1c0.2,0.1,0.4,0.1,0.5,0.2c0.7,0.2,1.5,0.4,2.2,0.6c0.8,0.2,1.5,0.3,2.3,0.4
		c0.4,0,0.8,0.1,1.1,0.1c0.4,0,0.8,0,1-0.1l0.3,0.4c-0.8,0.4-1.6,0.6-2.4,0.8c-0.8,0.1-1.7,0.1-2.5,0.1c-1.6-0.1-3.3-0.3-4.8-1
		l0.3,0c-0.8,0.6-1.8,1-2.8,1c-1,0-2.1-0.5-2.7-1.4c-0.2-0.2-0.2-0.5-0.3-0.7c-0.1-0.2-0.2-0.4-0.4-0.5c-0.3-0.3-0.7-0.5-1.1-0.6
		c-0.1,0-0.2,0-0.3,0l-0.1,0l0,0c0,0-0.1,0-0.1,0l-0.1,0c-0.1-0.1-0.1-0.1-0.2-0.2c-0.2-0.2-0.3-0.4-0.4-0.7
		c-0.1-0.2-0.2-0.5-0.2-0.8c0-0.1,0-0.3,0.2-0.5c0.1-0.2,0.3-0.2,0.5-0.2l-0.2,0.2c0-1.6-0.3-3.2-0.5-4.7c-0.2-1.6-0.4-3.2-0.4-4.8
		c0-1.6,0.1-3.3,0.5-4.8c0.4-1.6,1.1-3.1,2.1-4.4l0,0.1c0.1-0.6,0.5-1.1,0.9-1.4c0.2-0.2,0.5-0.3,0.7-0.4c0.1,0,0.3-0.1,0.4-0.1
		c0.1,0,0.2,0,0.3,0l0.1,0l0,0c0,0,0,0,0,0c-0.1-0.1-0.2,0-0.2,0l0,0c0,0,0,0,0,0c0.5-0.8,0.9-1.8,1.4-2.6c1.1-1.7,2.4-3.4,4.3-4.3
		l-0.1,0.1c0.4-1.1,0.7-2.4,1-3.5c0.3-1.2,0.7-2.4,1.2-3.5c0.5-1.2,1-2.3,1.7-3.3c0.7-1,1.6-2,2.8-2.5l0,0l0,0
		c0.4,0,0.8-0.4,1.1-0.7c0.4-0.3,0.7-0.7,1.1-1c0.8-0.6,1.6-1.1,2.5-1.5c1.8-0.8,3.8-1.3,5.7-1.5l0.7-0.1l-0.6,0.4
		c-0.5,0.4-1.1,0.6-1.4,1.1c-0.2,0.2-0.2,0.5-0.3,0.8c0,0.2-0.1,0.3-0.2,0.5c0,0.1-0.1,0.2-0.1,0.2c0,0-0.1,0.1-0.2,0.1
		c0,0-0.1,0-0.1,0l0,0l0,0c0,0,0.1-0.1,0.1-0.1c0,0,0,0.1,0,0.2l0,0.2c0,0.2,0,0.3,0,0.5c0,0.1,0,0.2-0.1,0.3c0,0.1-0.1,0.2-0.1,0.2
		c-0.1,0.1-0.1,0.2-0.1,0.4c-0.1,0.3-0.1,0.6-0.2,0.9c-0.1,0.3-0.1,0.7-0.5,0.9l0.1-0.2c0.1,0.3,0.2,0.7,0,1
		c-0.1,0.2-0.2,0.3-0.3,0.4c-0.1,0.1-0.1,0.2-0.1,0.4c0,0.6,0,1.4-0.5,1.9c-0.8,0.9-1.6,1.9-2.7,2.6c-1.1,0.7-2.3,1.1-3.5,1.5
		c-1.2,0.4-2.3,0.9-3.5,1.4c-1.1,0.5-2.2,1.1-3.3,1.8c-0.5,0.4-1,0.8-1.4,1.2c-0.2,0.2-0.4,0.5-0.5,0.8l-0.3,0.9
		c-1,2.4-3.5,3.7-4.3,6c-0.2,0.6-0.2,1.2-0.3,1.8l-0.3,1.8c-0.2,1.2-0.3,2.5-0.2,3.7c0.1,0.6,0.2,1.2,0.6,1.7c0.4,0.4,1,0.6,1.6,0.6
		c1.2,0.1,2.4-0.3,3.6-0.7c0.6-0.2,1.1-0.5,1.6-0.9l0.2-0.1c0.1-0.1,0.3-0.1,0.3,0c0.2,0.1,0.2,0.3,0.3,0.4c0.2,0.3,0.3,0.6,0.4,0.9
		c0.4,1.2,0.6,2.4,0.7,3.7c0,0.6,0.1,1.3-0.1,1.9c-0.1,0.3-0.2,0.7-0.5,0.9c-0.3,0.2-0.5,0.3-0.8,0.5c-0.5,0.4-1,0.8-1.4,1.2
		c-0.2,0.2-0.4,0.4-0.6,0.7c-0.2,0.2-0.4,0.5-0.4,0.8l-0.2,0c0.1-0.2,0.3-0.3,0.5-0.3c0.2,0,0.4,0.1,0.6,0.1c0.2,0.1,0.3,0.1,0.5,0
		c0.2,0,0.4-0.1,0.5-0.2c0.3-0.1,0.6-0.3,0.8-0.7c0.2-0.3,0.2-0.7,0.1-1.1c0-0.2-0.1-0.4-0.1-0.6c0.1-0.2,0.3-0.4,0.4-0.4
		c0.4-0.1,0.8-0.1,1.2-0.1c0.8,0,1.5,0.1,2.3,0.2c0.8,0.1,1.5,0.2,2.3,0.1c0.2,0,0.4-0.1,0.5-0.2c0.1-0.1,0.1-0.3,0.2-0.5
		c0.1-0.4,0.3-0.7,0.4-1.1c0.2-0.7,0.4-1.5,0.3-2.2c0-0.8-0.3-1.5-0.6-2.1c-0.3-0.7-0.7-1.3-1.4-1.7c-0.3-0.2-0.7-0.3-1.1-0.2
		c-0.2,0-0.4,0.1-0.6,0.1c-0.2,0-0.4-0.2-0.5-0.3c-0.2-0.4-0.2-0.8,0-1.2c0.1-0.2,0.2-0.4,0.4-0.4c0.2-0.1,0.4-0.1,0.6,0
		c0.8,0.1,1.5,0.3,2.2,0.6c0.4,0.1,0.7,0.3,1,0.5c0.2,0.1,0.3,0.3,0.4,0.5c0,0.2,0.1,0.4,0.1,0.6l0.3,2.3c0.1,0.7,0.2,1.5,0.4,2.2
		c0,0.1,0.1,0.2,0.1,0.2c0,0,0.1-0.1,0.1-0.2c0.1-0.2,0.2-0.3,0.3-0.5c0.2-0.3,0.6-0.5,1-0.5L405.8,237.5z"/>
	<path class="st2" d="M122.6,258.8"/>
	<path class="st1" d="M253.3,273.3l0.7,0.9c0.3,0.3,0.5,0.6,0.8,0.9c0.6,0.5,1.3,0.9,2.1,1c0.8,0,1.5-0.3,2.1-0.8
		c0.6-0.5,1.1-1.1,1.5-1.8l0,0.1c0,0,0,0,0-0.1c0-0.1,0.1-0.1,0.1-0.1c0,0,0.1,0,0.1,0c0,0,0.1,0,0.1,0l0.3,0.1l0.5,0.2l1,0.5
		l-0.1,0.1c-0.7-0.8-1.4-1.5-2.3-2c-0.9-0.5-1.9-0.8-2.9-0.8c-1,0-2.1,0.2-3,0.6c-0.5,0.2-1,0.4-1.4,0.6c-0.2,0.1-0.5,0.2-0.7,0.3
		c-0.1,0-0.3,0.1-0.4,0c-0.1-0.1-0.2-0.2-0.2-0.3c-0.3-1-1.1-1.7-2-2.2c-0.4-0.3-0.9-0.5-1.4-0.7c-0.4-0.3-0.9-0.6-1.1-1.1
		c-0.2-0.5,0-1.1,0.3-1.5c0.4-0.4,0.8-0.7,1.2-1c0.9-0.5,1.9-0.8,2.9-1.1l0,0.1c-0.6-0.4-1.4-0.6-2.1-0.6c-0.7,0-1.5,0.2-2.2,0.4
		c-1.4,0.4-2.8,1.1-4,1.9l0,0l0,0c-0.7,0-1.4,0.2-2,0.5c-0.6,0.3-1.1,0.8-1.5,1.4c-0.8,1.2-1.1,2.6-0.8,4l0,0l0,0
		c-0.3,0.5-0.5,1.1-0.5,1.7c0,0.6,0.2,1.2,0.4,1.8c0.2,0.6,0.5,1.1,0.8,1.7c0.3,0.6,0.5,1.1,0.7,1.8l0,0.1l-0.1,0
		c-1.2-0.2-2.4-0.6-3.3-1.4c-0.5-0.4-0.9-0.8-1.2-1.4c-0.3-0.5-0.4-1.2-0.2-1.8l0,0.1c-0.3-0.3-0.6-0.6-0.7-1.1
		c0-0.2,0.1-0.4,0.1-0.6c0.1-0.2,0-0.3-0.2-0.4l0,0c-0.5-0.3-1-0.7-1.1-1.4c-0.1-0.7,0.4-1.2,0.8-1.6c0.2-0.2,0.4-0.4,0.6-0.7
		c0.2-0.2,0.3-0.5,0.5-0.7c0.2-0.2,0.5-0.3,0.6-0.6c0.1-0.2,0.1-0.5,0.1-0.8l0,0c-0.4-0.4-0.7-1.1-0.5-1.7c0.2-0.6,0.7-1,1.2-1.3
		c0.3-0.1,0.6-0.3,0.9-0.3c0.3,0,0.6,0,0.8-0.1c0.5-0.2,1-0.6,1.5-0.8l0,0.2c-0.3-0.2-0.6-0.5-0.7-0.9c-0.1-0.4,0.3-0.8,0.6-1
		c0.6-0.4,1.4-0.6,2.1-0.8c1.4-0.4,2.9-0.6,4.4-0.7l-0.1,0.2c-0.2-0.3-0.3-0.6-0.2-0.9c0.1-0.4,0.4-0.5,0.7-0.6
		c0.6-0.1,1.2-0.1,1.8,0l0,0c2.1,0,4.2-0.1,6.3-0.3c1.1-0.1,2.1-0.3,3.1-0.5c1-0.3,2-0.6,2.9-1.2c0.4-0.3,0.7-0.7,0.9-1.2
		c0.1-0.5,0.1-1,0-1.5c-0.2-1-0.8-1.9-1.3-2.8c-1.2-1.8-2.4-3.5-4-4.9c-3.1-2.8-7-4.8-10.8-6.5c-3.9-1.7-7.9-3.1-12-4.3l0.1-0.3
		c0.9,0.3,1.9,0.6,2.9,0.6c0.1,0,0.2,0,0.3-0.1c0,0,0-0.1,0-0.2c-0.1-0.2-0.2-0.4-0.4-0.5c-0.4-0.3-0.9-0.4-1.3-0.6
		c-0.5-0.2-0.9-0.6-1.1-1.1c-0.1-0.2-0.2-0.5-0.3-0.7c-0.1-0.2-0.1-0.6,0.1-0.8c0.1-0.1,0.2-0.2,0.4-0.2c0,0,0,0,0,0
		c-0.1,0,0,0.1,0,0.1c0,0-0.1-0.1-0.1-0.1c-0.2-0.1-0.4-0.3-0.6-0.5c-0.4-0.4-0.6-0.9-0.6-1.4l0,0.1c-0.1-0.2-0.3-0.4-0.4-0.6
		c-0.1-0.3-0.1-0.5,0-0.8c0.1-0.3,0.1-0.4,0-0.6c-0.1-0.2-0.3-0.3-0.4-0.5c-0.3-0.3-0.6-0.7-0.8-1.1c-0.2-0.4-0.2-1-0.1-1.4l0.1,0.2
		c-0.5-0.3-0.9-0.6-1.3-1.1c-0.3-0.4-0.7-0.9-0.7-1.6c0-0.1,0.1-0.2,0.1-0.2c0.1,0,0,0,0,0c0,0,0,0,0,0c-0.1-0.1-0.2-0.1-0.3-0.2
		c-0.2-0.1-0.5-0.2-0.7-0.4c-0.2-0.1-0.5-0.3-0.7-0.5c-0.1-0.1-0.2-0.4-0.1-0.5c0.1-0.2,0.2-0.3,0.3-0.4c0.5-0.4,1.1-0.4,1.7-0.3
		c0.6,0,1.1,0.2,1.7,0.3c1.1,0.3,2.1,0.7,3.1,1.1c1,0.5,2,1,2.9,1.6c0.5,0.3,0.9,0.7,1.3,1.1c0.4,0.3,0.9,0.5,1.4,0.7
		c1,0.4,2.1,0.8,3,1.5c0.9,0.7,1.6,1.6,2.2,2.6l-0.1-0.1c0.9,0.3,1.5,0.9,2.1,1.4c0.6,0.6,1.1,1.2,1.7,1.8c1,1.2,2,2.6,2.9,3.9
		c0.9,1.4,1.6,2.8,2.2,4.4c0.6,1.5,1,3.1,0.9,4.8l-0.3-0.1c0.6-0.5,1.3-0.7,2-0.6c0.7,0.1,1.4,0.3,2,0.6c1.2,0.6,2.4,1.4,3.4,2.3
		c2.1,1.7,4,3.7,5.7,5.8c1.7,2.1,3.3,4.3,4.7,6.6c0.7,1.2,1.4,2.4,1.9,3.6c0.6,1.2,1.1,2.5,1.3,3.9l-0.2-0.2c0.6,0,1.2,0,1.7,0.3
		c0.5,0.3,0.9,0.8,1.1,1.4c0.2,0.5,0.3,1.1,0.3,1.7c0,0.6,0,1.1-0.1,1.7l0,0.1l-0.1,0c-0.8,0.8-1.6,1.7-1.7,2.8c0,0.3,0,0.5,0.1,0.8
		c0.1,0.2,0.1,0.6,0.1,0.9c-0.1,0.6-0.3,1.2-0.6,1.7c-0.6,1.1-1.3,2-2.2,2.8c-0.9,0.8-1.9,1.5-3.2,1.6l0.1,0
		c-1.4,1.1-2.7,2.3-3.4,3.8c-0.8,1.7-2.1,2.9-3.6,3.9c-2.9,2.1-6.4,3.2-9.9,3.7l-1.5,0.2l1.4-0.6c2.3-1.1,4.5-2.4,6.5-4.1
		c1-0.8,1.9-1.7,2.7-2.7c0.8-1,1.6-2.1,1.8-3.2l0.2,0.3c-0.3,0-0.6-0.1-0.8-0.3c-0.1,0-0.1,0-0.1,0c-0.1,0-0.1,0.1-0.2,0.2l-1,0.9
		c-0.7,0.6-1.4,1.2-2.1,1.8c-1.5,1.1-3.2,2.1-5.1,2.4l-1,0.2l0.9-0.6c0.9-0.6,1.9-1.2,2.7-1.9c0.8-0.7,1.6-1.6,1.7-2.6l0.3,0.3
		c-5.4,0.5-10.7,0.5-16.1,0.1c-2.7-0.2-5.4-0.5-8-1c-1.3-0.2-2.6-0.5-4-0.8c-1.3-0.3-2.6-0.7-3.9-1.3l0.2,0
		c-3.8,1.5-7.7,2.7-11.6,3.5c-4,0.9-8,1.5-12,1.6c-4.1,0.2-8.2,0-12.1-1.1c-3.9-1-7.8-3-10.3-6.3l-0.2-0.2l0.2-0.2
		c0.2-0.2,0.4-0.3,0.6-0.4c0.2-0.1,0.4-0.2,0.6-0.2c0.4-0.1,0.9,0,1.3,0.1l-0.2,0c0.5-0.2,1-0.3,1.5-0.3c0.3,0,0.5,0,0.8,0.1
		c0.3,0.1,0.5,0.1,0.8,0.4l-0.5,0.2c0-0.3,0-0.6,0.1-0.9c0.1-0.3,0.3-0.5,0.5-0.7c0.5-0.4,1-0.5,1.5-0.5l-0.3,0.3
		c-0.1-0.7,0.4-1.3,1-1.6c0.3-0.1,0.7-0.2,1-0.1c0.2,0.1,0.2,0.1,0.3,0.1c0.1,0,0.1,0,0.2-0.1c0.2-0.1,0.3-0.3,0.4-0.5
		c0,0,0-0.1,0-0.1c0,0,0,0,0-0.1c0-0.1,0-0.1,0-0.2c0-0.2,0.1-0.4,0.2-0.5c0.4-0.5,1.1-0.8,1.8-0.6l-0.4,0.1c0.5-1.1,1.6-1.8,2.8-2
		c0.3-0.1,0.6-0.1,0.9-0.1c0.2,0,0.5,0,0.6-0.1c0.1-0.1,0.1-0.1,0.2-0.2c0,0,0-0.1,0.1-0.2c0,0,0,0,0.1-0.1c0.1-0.1,0.1-0.1,0.2-0.2
		c0.3-0.2,0.6-0.2,0.9-0.3c0.3,0,0.6-0.1,0.9,0c0.2,0,0.4,0.2,0.5,0.4l0,0.1l0,0c0,0,0,0,0,0c0-0.1-0.1-0.1-0.1-0.1
		c-0.2,0-0.1,0-0.1,0l0,0l0.5-0.6c0.2-0.2,0.4-0.5,0.9-0.5c0.1,0,0.3-0.2,0.4-0.4c0.2-0.2,0.3-0.4,0.5-0.7c0.1-0.1,0.2-0.2,0.4-0.3
		c0.1,0,0.2-0.1,0.3-0.1c0,0,0.1,0,0,0c-0.1,0-0.1,0.1-0.1,0.2c0,0,0,0.1,0,0.2l0,0c-0.1-0.1-0.4-0.3-0.6-0.5
		c-1.7-1.3-3.6-2.4-5.4-3.6c-0.9-0.6-1.8-1.2-2.7-2c-0.1-0.1-0.2-0.2-0.3-0.3c0,0-0.1-0.1-0.2-0.1c-0.2-0.1-0.5-0.1-0.7-0.1
		c-0.5,0-1.1,0-1.6,0c-4.3,0.3-8.6,1.1-13,1.4c-1.1,0.1-2.2,0.1-3.3-0.1c-1.1-0.3-2.1-0.5-3.2-0.7l-3.2-0.6
		c-1.1-0.3-2.2-0.4-3.2-1.1l-0.1-0.1l-0.1-0.1l0-0.1c0-0.2,0-0.4,0.1-0.6c0-0.2,0.2-0.5,0.4-0.7c0.3-0.2,0.6-0.1,0.7-0.1
		c0.1,0,0.2,0,0.2,0c-0.1,0.1,0,0,0-0.1c0.1-0.3,0.4-0.8,0.8-1c0.4-0.3,0.9-0.2,1.2-0.3c0.3-0.1,0.4-0.3,0.7-0.6
		c0.1-0.2,0.4-0.4,0.7-0.4c0.2,0,0.5,0,0.7,0c0.2,0,0.2,0,0.3,0c0.1-0.1,0.2-0.2,0.3-0.4c0.2-0.3,0.3-0.7,0.6-1
		c0.3-0.4,0.9-0.5,1.3-0.5c0.4,0,0.9,0.1,1.1,0.1c0.2,0,0.5-0.4,0.8-0.6c0.1-0.1,0.3-0.2,0.3-0.3c0,0,0,0,0,0c0,0-0.1-0.1-0.1-0.1
		c-0.5-0.3-1.3-0.7-2-0.9c-0.7-0.3-1.4-0.5-2.1-0.8c-1.4-0.4-2.9-0.8-4.4-0.7c-0.7,0.1-1.4,0.4-2.1,0.7c-0.7,0.3-1.4,0.6-2.1,0.9
		c-2.8,1.2-5.6,2.5-8.5,3.5c-0.4,0.1-0.7,0.2-1.1,0.3c-0.2,0-0.4,0.1-0.6,0.1l-0.3,0l-0.3,0c-0.3,0-0.6,0.1-0.8,0.2
		c-0.1,0.2-0.1,0.5-0.1,0.9c0.3,1.6-0.2,3.2-0.8,4.6c-1.2,2.9-3.1,5.4-5,7.7c-0.9,1.2-1.6,2.5-2,4c-0.5,1.4-0.8,2.9-1.2,4.4
		c-0.1,0.4-0.2,0.7-0.4,1.1c-0.2,0.4-0.5,0.8-0.7,1c-0.5,0.6-1.1,1.1-1.8,1.5c-0.6,0.5-1.3,0.9-2,1.2c-0.7,0.3-1.6,0.6-2.4,0.4
		l-0.3-0.1l0-0.3c0-0.4,0-0.7,0.2-1.1c0.1-0.2,0.3-0.5,0.5-0.5c0.2-0.1,0.2-0.1,0.3-0.2c0.1-0.2,0.2-0.6,0.2-0.9
		c0.1-0.1-0.3-0.5-0.4-0.8c-0.3-0.7-0.4-1.5-0.3-2.2c0-0.2,0.1-0.4,0.2-0.6c0-0.1,0.1-0.2,0.2-0.3c0,0,0.1-0.1,0.1-0.2c0,0,0,0,0,0
		c0,0,0,0.1,0,0.1c0,0,0,0,0,0l-0.1-0.2c-0.1-0.1-0.2-0.3-0.3-0.5c-0.2-0.4-0.3-0.6-0.5-0.8c-0.1-0.1-0.3-0.2-0.5-0.4
		c-0.2-0.2-0.2-0.6-0.2-0.6c0-0.2-0.3-0.4-0.5-0.7c-0.1-0.2-0.2-0.4-0.2-0.7c0-0.1,0-0.3,0-0.3c0,0,0-0.1,0-0.1
		c0-0.2-0.3-0.4-0.5-0.7c-0.1-0.2-0.3-0.4-0.3-0.7c0-0.2,0.1-0.3,0.1-0.4c0-0.1,0-0.1,0-0.1c0-0.1-0.2-0.4-0.4-0.7
		c-0.2-0.3-0.5-0.5-0.6-1.1c0-0.1,0-0.3,0.1-0.4c0-0.1,0-0.1,0-0.2c0-0.1,0-0.3-0.1-0.4c-0.1-0.3-0.2-0.7-0.3-1.1c0-0.2,0-0.4,0-0.6
		c0-0.2,0-0.3,0-0.5c0-0.3,0-0.7,0.1-1.1c0-0.4,0.1-0.7,0.2-1.1c0.1-0.2,0.2-0.4,0.3-0.6c0.1-0.2,0.5-0.3,0.7-0.3
		c0.2,0,0.3-0.1,0.3-0.4c0-0.3,0-0.6,0.1-1.1c0.1-0.3,0.2-0.4,0.3-0.5l0.3-0.4l0.6-0.8c0.4-0.6,0.9-1.1,1.3-1.7
		c0.5-0.5,0.9-1.1,1.4-1.6c0.5-0.5,1-1,1.8-1.4l0.2,0.6c-1.6,0.8-3.2,1.7-4.8,2.4c-1.6,0.8-3.3,1.5-5.1,2c-1.8,0.5-3.6,0.8-5.4,0.7
		c-1.8-0.1-3.7-0.4-5.4-1.1l0.1,0c-0.5,0-1.1-0.2-1.5-0.7c-0.2-0.2-0.3-0.4-0.5-0.7c-0.1-0.2-0.2-0.5-0.2-0.8l0.2,0.3
		c-0.9-0.4-1.8-0.8-2.6-1.3c-0.8-0.5-1.7-1-2.4-1.6c-0.8-0.6-1.5-1.3-2.1-2.1c-0.6-0.8-1-1.8-1.1-2.8l0.1,0.2
		c-0.4-0.3-0.7-0.7-1.1-1.1c-0.3-0.4-0.6-0.8-0.8-1.3c-0.2-0.5-0.3-1.1-0.2-1.6c0.1-0.6,0.4-1,0.9-1.4l-0.1,0.5
		c-0.4-0.7-0.6-1.5-0.7-2.3c-0.1-0.8,0-1.7,0.5-2.4l-0.1,0.2c0-0.6,0-1.1-0.1-1.7c-0.1-0.3,0-0.8,0.2-1.1c0.1-0.1,0.2-0.3,0.2-0.4
		c0-0.1,0.1-0.1,0.1-0.3c0.1-0.5-0.1-1.1-0.2-1.6l-0.4-1.7c-0.2-1.2-0.6-2.3-0.2-3.7c0-0.2,0.1-0.3,0.2-0.5l0.2-0.4
		c0.1-0.2,0.2-0.4,0.1-0.7c0-0.5-0.3-1-0.5-1.5c-0.1-0.3-0.3-0.6-0.2-1c0-0.2,0.2-0.5,0.4-0.6c0.2-0.2,0.2-0.2,0.3-0.2
		c0.1-0.1,0.1-0.2,0-0.5c-0.1-0.2-0.3-0.4-0.4-0.6c-0.7-0.8-1.7-1.4-2.8-1.7c-0.2,0-0.3-0.2-0.5-0.3c-0.1-0.1-0.2-0.2-0.2-0.3
		c0-0.1-0.1-0.3,0-0.4c0.1-0.5,0.6-0.7,0.9-0.8c0.7-0.2,1.3-0.1,1.9,0.1c1.2,0.3,2.2,1,3.2,1.7l-0.1-0.1c0.4,0.1,0.9,0.3,1.3,0.4
		c0.4,0.2,0.9,0.4,1.3,0.8c0.1,0.1,0.2,0.2,0.2,0.4c0,0.1,0.1,0.1,0.1,0.1c0,0,0,0,0.1,0.1c0.1,0.1,0.3,0.2,0.5,0.3
		c0.4,0.2,0.8,0.5,1.2,0.8c0.7,0.6,1.3,1.4,1.7,2.3c0.4,0.9,0.5,1.8,0.6,2.7l-0.3-0.3c0.5,0.1,0.8,0.4,1.1,0.7
		c0.2,0.3,0.4,0.7,0.6,1c0.3,0.7,0.5,1.4,0.6,2.1c0,0,0,0,0,0c0,0,0,0,0.1,0c0.1,0,0.3,0,0.5,0c0.2,0,0.4,0,0.7,0.1
		c0.3,0.1,0.5,0.4,0.5,0.5c0,0.1,0.1,0.1,0.2,0.1c0.1,0,0.3,0,0.5,0.1c0.4,0.1,0.8,0.4,1.1,0.7c0.5,0.6,0.7,1.4,0.9,2
		c0.2,0.7,0.5,1.3,0.7,2c0.3,0.6,0.6,1.3,0.9,1.9c0.2,0.3,0.3,0.6,0.5,0.9c0.2,0.3,0.4,0.6,0.6,0.6l-0.5,0.4c0-0.3-0.1-0.6,0-0.9
		c0.1-0.4,0.4-0.7,0.7-0.8c0.3-0.1,0.7-0.1,0.9-0.1c0.3,0,0.6,0.1,0.9,0.2c1,0.5,1.9,0.9,2.9,1.3c1.9,0.8,3.9,1.4,5.9,1.7
		c2,0.3,4.1,0.3,6-0.2c1-0.3,1.9-0.7,2.7-1.3c0.8-0.6,1.7-1.2,2.6-1.7c7.2-4.4,14.9-7.6,22.9-10.1l6-1.9c2-0.7,4-1.1,6.1-1.6
		c4.1-0.8,8.2-1.5,12.4-2c4.1-0.5,8.3-0.9,12.5-1c2.1-0.1,4.2-0.2,6.3,0.1c0.1,0,0.3,0.1,0.4,0.1c0.1,0,0.2,0.1,0.3,0.2l0.1,0.1
		c0.1,0.2,0.3,0.4,0.5,0.5c0.4,0.3,0.8,0.5,1.3,0.7c0.2,0.1,0.5,0.1,0.7,0.2l0.4,0.1l0.2,0l0.1,0l0,0c0,0,0,0-0.1,0
		c0,0.1-0.1,0-0.2,0.3c0.1,0.3,0,0.1,0.1,0.2c-0.1-0.1-0.4-0.3-0.6-0.4c-0.2-0.2-0.4-0.4-0.6-0.6l0-0.1l0-0.1c0-0.3,0.1-0.7,0.4-0.8
		c0.3-0.2,0.6-0.2,0.8-0.2c0.5,0,1,0.2,1.5,0.3c0.9,0.3,1.8,0.7,2.7,1.1c0.4,0.2,0.9,0.5,1.3,0.7c0.4,0.3,0.9,0.5,1.2,0.9
		c0.2,0.2,0.3,0.4,0.4,0.6c0.1,0.2,0.3,0.3,0.5,0.4c0.4,0.3,0.8,0.5,1.2,0.7l-0.2,0c0.3-0.2,0.7-0.2,1-0.2c0.3,0,0.7,0.2,1,0.3
		c0.6,0.3,1.1,0.7,1.5,1.2c0.9,0.9,1.7,1.8,2.4,2.8c0.7,1,1.4,2,2.1,3c0.3,0.5,0.7,1,1,1.5c0.4,0.4,0.9,0.7,1.5,0.8
		c0.6,0.2,1.2,0.3,1.8,0.5c0.4,0.2,0.6,0.4,0.8,0.7c0.2,0.2,0.4,0.5,0.6,0.7c0.7,1,1.4,2,2.1,3c1.3,2.1,2.6,4.2,3.8,6.3l0.7,1.2
		l-1-1c-1.4-1.3-3.2-2.3-4.9-3.1c-1.8-0.8-3.6-1.6-5.4-2.3c-3.7-1.4-7.5-2.5-11.3-3.4c-7.6-1.9-15.4-3.2-23.2-4.1
		c-7.8-0.8-15.7-1.1-23.6-0.6c-7.8,0.5-15.7,1.8-23,4.6l-0.5,0.2l0.4-0.3c2.4-1.7,4.8-3.2,7.4-4.6c1.3-0.7,2.5-1.4,3.8-2l1-0.5
		c0.2-0.1,0.3-0.2,0.5-0.2c0.2,0,0.4,0,0.6,0.1c0.2,0,0.4,0.1,0.5,0.1c0.1,0,0.2,0,0.2,0c0.1,0,0.1-0.1,0.1-0.2
		c0.1-0.4,0.5-0.6,0.8-0.8l0,0c0.3-0.4,0.6-0.7,1-1c0.4-0.3,0.8-0.4,1.2-0.6l2.6-0.8l0,0.1l-2.6,0.8c-0.4,0.1-0.9,0.3-1.2,0.6
		c-0.4,0.3-0.7,0.6-1,0.9l0,0l0,0c-0.3,0.2-0.7,0.4-0.7,0.7c0,0.1,0,0.2-0.1,0.3c-0.1,0-0.2,0-0.3,0c-0.2,0-0.4-0.1-0.5-0.1
		c-0.2,0-0.4-0.1-0.5-0.1c-0.2,0-0.3,0.1-0.5,0.2l-1,0.5c-1.3,0.7-2.6,1.3-3.8,2.1c-2.5,1.4-5,2.9-7.3,4.6l-0.1-0.1
		c7.4-2.9,15.2-4.1,23.1-4.7c7.9-0.5,15.8-0.2,23.6,0.5c7.8,0.8,15.6,2.1,23.3,4c3.8,0.9,7.6,2,11.3,3.4c1.9,0.7,3.7,1.4,5.5,2.3
		c1.8,0.9,3.5,1.8,5,3.2l-0.3,0.3c-1.2-2.1-2.5-4.2-3.8-6.2c-0.7-1-1.3-2-2.1-3c-0.3-0.5-0.8-1-1.1-1.3c-0.6-0.2-1.2-0.3-1.8-0.5
		c-0.6-0.2-1.2-0.5-1.7-1c-0.4-0.5-0.7-1-1.1-1.5c-0.7-1-1.3-2-2.1-3c-0.7-1-1.5-1.9-2.3-2.8c-0.4-0.4-0.9-0.8-1.4-1.1
		c-0.5-0.3-1.1-0.4-1.5-0.1l-0.1,0.1l-0.1-0.1c-0.4-0.2-0.9-0.4-1.3-0.7c-0.2-0.1-0.4-0.3-0.6-0.5c-0.2-0.2-0.3-0.4-0.4-0.6
		c-0.3-0.3-0.7-0.6-1.1-0.8c-0.4-0.2-0.8-0.5-1.3-0.7c-0.9-0.4-1.7-0.8-2.6-1.1c-0.4-0.1-0.9-0.3-1.3-0.3c-0.2,0-0.4,0-0.6,0.1
		c-0.1,0.1-0.2,0.2-0.2,0.4l0-0.1c0.1,0.2,0.3,0.4,0.5,0.5c0.2,0.2,0.4,0.2,0.7,0.5c0,0.1,0-0.1,0.1,0.2c-0.1,0.3-0.1,0.2-0.2,0.3
		c-0.1,0-0.1,0-0.1,0l0,0l-0.1,0l-0.2,0l-0.4-0.1c-0.3-0.1-0.5-0.1-0.8-0.2c-0.5-0.2-1-0.4-1.5-0.8c-0.2-0.2-0.4-0.4-0.6-0.6
		l-0.1-0.2c0,0,0,0,0,0c-0.1,0-0.2-0.1-0.3-0.1c-2-0.3-4.1-0.1-6.2-0.1c-4.1,0.2-8.3,0.6-12.4,1.1c-4.1,0.5-8.2,1.1-12.3,2
		c-2,0.4-4,0.9-6,1.6l-6,1.9c-7.9,2.5-15.6,5.8-22.7,10.1c-0.9,0.5-1.7,1.1-2.6,1.7c-0.9,0.6-1.9,1.1-2.9,1.4
		c-2.1,0.6-4.3,0.6-6.3,0.2c-2.1-0.3-4.1-1-6.1-1.7c-1-0.4-1.9-0.8-2.9-1.3c-0.4-0.2-0.9-0.2-1.3-0.1c-0.2,0.1-0.2,0.1-0.3,0.3
		c0,0.2,0,0.4,0,0.6l0.1,0.8l-0.7-0.4c-0.5-0.3-0.6-0.6-0.9-0.9c-0.2-0.3-0.4-0.6-0.6-0.9c-0.3-0.6-0.6-1.3-0.9-2
		c-0.3-0.7-0.5-1.3-0.8-2c-0.2-0.7-0.4-1.3-0.8-1.8c-0.2-0.2-0.4-0.4-0.7-0.4c-0.1,0-0.3,0-0.5-0.1c-0.2,0-0.6-0.2-0.7-0.4
		c-0.1-0.2-0.1-0.2-0.2-0.2c-0.1,0-0.2,0-0.4,0c-0.2,0-0.3,0-0.6,0c-0.1,0-0.3,0-0.4-0.1c-0.2-0.1-0.3-0.3-0.3-0.4
		c-0.1-0.7-0.3-1.3-0.6-2c-0.3-0.6-0.7-1.2-1.1-1.3l-0.3-0.1l0-0.3c-0.2-1.7-0.7-3.5-2-4.5c-0.3-0.3-0.7-0.5-1.1-0.7
		c-0.2-0.1-0.4-0.2-0.6-0.4c-0.1,0-0.3-0.3-0.3-0.4c0-0.1-0.1-0.1-0.1-0.2c-0.4-0.5-1.4-0.8-2.2-1l-0.1,0l-0.1,0
		c-0.9-0.7-1.9-1.3-2.9-1.6c-0.5-0.2-1.1-0.2-1.5-0.1c-0.2,0.1-0.4,0.2-0.4,0.3c0,0,0.1,0.2,0.3,0.2c1.1,0.3,2.3,1,3.1,1.9
		c0.2,0.2,0.4,0.5,0.6,0.8c0.1,0.3,0.3,0.8,0,1.2c-0.4,0.4-0.5,0.3-0.5,0.5c0,0.1,0.1,0.4,0.2,0.6c0.2,0.5,0.5,1.1,0.6,1.8
		c0,0.3-0.1,0.7-0.2,1c-0.2,0.4-0.3,0.5-0.4,0.7c-0.3,1,0,2.2,0.3,3.3l0.4,1.7c0.1,0.6,0.2,1.2,0.2,1.9c0,0.2-0.1,0.4-0.2,0.5
		c-0.1,0.1-0.2,0.2-0.2,0.4c-0.1,0.2-0.2,0.4-0.1,0.6c0.1,0.6,0.1,1.2,0.1,1.8l0,0.1l0,0.1c-0.3,0.6-0.4,1.3-0.4,2
		c0.1,0.7,0.3,1.4,0.6,2l0.1,0.3l-0.2,0.2c-0.3,0.2-0.6,0.6-0.6,1c-0.1,0.4,0,0.8,0.1,1.2c0.2,0.4,0.4,0.8,0.7,1.2
		c0.3,0.4,0.6,0.7,1,1l0.1,0.1l0,0.1c0.1,0.9,0.4,1.7,1,2.5c0.5,0.7,1.2,1.4,1.9,2c1.5,1.2,3.2,2.1,4.9,2.8l0.2,0.1l0,0.2
		c0,0.2,0.1,0.4,0.2,0.6c0.1,0.2,0.2,0.4,0.3,0.5c0.3,0.3,0.6,0.4,1,0.5l0.1,0l0.1,0c1.6,0.7,3.4,1,5.1,1.1c1.8,0.1,3.5-0.2,5.2-0.7
		c1.7-0.5,3.4-1.2,5-1.9c1.6-0.8,3.2-1.7,4.8-2.4l0.2,0.6c-0.5,0.2-1,0.8-1.5,1.2c-0.5,0.5-0.9,1-1.4,1.6c-0.4,0.5-0.9,1.1-1.3,1.6
		l-0.6,0.8l-0.3,0.4c-0.1,0.1-0.2,0.3-0.2,0.4c-0.1,0.2,0,0.6-0.1,1c0,0.2-0.1,0.4-0.3,0.7c-0.2,0.2-0.5,0.3-0.7,0.3
		c-0.4,0-0.6,0.8-0.6,1.4c0,0.3,0,0.7-0.1,1c0,0.2,0,0.4,0,0.6c0,0.2,0,0.3,0,0.4c0,0.3,0.2,0.6,0.3,1c0,0.2,0.1,0.4,0.1,0.6
		c0,0.1,0,0.2-0.1,0.3c0,0.1,0,0.1,0,0.1c0,0.2,0.2,0.5,0.5,0.7c0.2,0.3,0.5,0.6,0.5,1.1c0,0.1-0.1,0.3-0.1,0.4c0,0,0,0.1,0,0.1
		c0,0,0,0.1,0.1,0.3c0.2,0.2,0.5,0.5,0.6,1c0,0.1,0,0.3,0,0.4c0,0.1,0,0.1,0,0.2c0,0.1,0,0.2,0.1,0.3c0.1,0.2,0.5,0.4,0.7,1l0,0.3
		c0,0.1,0,0.1,0,0.1c0,0.1,0.2,0.1,0.4,0.3c0.3,0.2,0.6,0.7,0.7,1c0.1,0.1,0.2,0.3,0.3,0.4c0.1,0.1,0.1,0.1,0.2,0.2
		c0,0.1,0.1,0.1,0.1,0.2c0,0.1,0,0.3-0.1,0.4c-0.1,0.1-0.1,0.1-0.2,0.2c0,0,0,0,0,0c0,0-0.1,0.1-0.1,0.2c-0.1,0.1-0.1,0.3-0.1,0.4
		c-0.1,0.6,0,1.3,0.2,1.9c0.1,0.2,0.1,0.3,0.2,0.4c0,0.1,0.1,0.1,0.1,0.3c0.1,0.1,0.1,0.3,0.1,0.4c-0.1,0.5-0.1,0.7-0.3,1.2
		c-0.1,0.2-0.5,0.4-0.6,0.4c-0.1,0-0.1,0.1-0.2,0.2c-0.1,0.2-0.1,0.6-0.2,0.9l-0.3-0.3c0.6,0.1,1.4-0.1,2-0.4
		c0.7-0.3,1.3-0.7,1.9-1.2c0.6-0.5,1.2-1,1.7-1.5c0.3-0.3,0.5-0.5,0.6-0.8c0.1-0.3,0.3-0.7,0.4-1c0.8-2.9,1.4-6.1,3.4-8.6
		c1.9-2.4,3.7-4.8,4.9-7.6c0.6-1.4,1-2.8,0.8-4.3c0-0.4-0.1-0.8,0.2-1.3c0.3-0.5,0.9-0.5,1.3-0.5l0.3,0l0.2,0c0.1,0,0.3-0.1,0.5-0.1
		c0.4-0.1,0.7-0.2,1.1-0.3c2.9-1,5.6-2.3,8.4-3.5c0.7-0.3,1.4-0.6,2.1-0.9c0.7-0.3,1.4-0.6,2.3-0.7c1.6-0.1,3.2,0.3,4.6,0.7
		c0.7,0.2,1.5,0.5,2.2,0.8c0.7,0.3,1.4,0.5,2.2,1.1c0.1,0.1,0.2,0.2,0.2,0.3c0.1,0.1,0.1,0.4,0,0.5c-0.2,0.3-0.4,0.4-0.5,0.5
		c-0.2,0.1-0.3,0.2-0.4,0.3c-0.2,0.1-0.4,0.3-0.6,0.3c-0.3,0.1-0.5,0-0.7,0c-0.2,0-0.3,0-0.5,0c-0.4,0-0.7,0.1-0.8,0.3
		c-0.2,0.2-0.4,0.6-0.6,0.9c-0.1,0.2-0.2,0.4-0.4,0.5c-0.1,0.1-0.2,0.2-0.4,0.2c-0.2,0-0.3,0-0.4,0c-0.2,0-0.3-0.1-0.5,0
		c-0.1,0-0.2,0-0.3,0.2c-0.1,0.1-0.2,0.3-0.4,0.5c-0.2,0.2-0.4,0.3-0.6,0.4c-0.5,0.1-0.8,0.1-1,0.3c-0.3,0.2-0.4,0.4-0.6,0.8
		c-0.1,0.1-0.1,0.3-0.4,0.4c-0.2,0-0.3,0-0.4,0c-0.2,0-0.3,0-0.4,0c-0.1,0-0.2,0.4-0.2,0.8l-0.1-0.2l0.1,0c0.8,0.5,1.9,0.7,3,1
		l3.2,0.6c1.1,0.2,2.2,0.4,3.2,0.7c1,0.2,2.1,0.1,3.2,0.1c4.3-0.3,8.6-1.1,13-1.3c0.6,0,1.1,0,1.7,0c0.3,0,0.6,0.1,0.9,0.1
		c0.2,0.1,0.3,0.1,0.5,0.3c0.1,0.1,0.2,0.2,0.3,0.3c0.8,0.7,1.7,1.3,2.6,1.9c1.8,1.2,3.6,2.4,5.4,3.6c0.2,0.2,0.4,0.3,0.7,0.6l0,0.1
		c0,0.1,0,0.2,0,0.3c0,0.1-0.1,0.2-0.2,0.2l-0.1,0c0,0-0.1,0-0.1,0.1c-0.1,0-0.2,0.1-0.3,0.2c-0.2,0.2-0.3,0.4-0.5,0.6
		c-0.1,0.1-0.2,0.2-0.3,0.3c-0.1,0.1-0.3,0.2-0.6,0.2c-0.1,0-0.3,0.1-0.4,0.3l-0.5,0.6l-0.1,0.1c-0.1,0-0.1,0.1-0.3,0.1
		c-0.1,0-0.2-0.1-0.2-0.1c-0.1-0.1,0-0.1-0.1-0.1l0-0.1l0,0c0,0,0,0-0.1-0.1c-0.2,0-0.5,0-0.7,0c-0.2,0-0.5,0.1-0.7,0.2
		c0-0.1,0,0.1-0.1,0.3c-0.1,0.1-0.2,0.3-0.4,0.4c-0.3,0.2-0.6,0.2-0.9,0.2c-0.3,0-0.5,0-0.8,0.1c-1,0.2-2,0.8-2.4,1.7l-0.1,0.2
		l-0.2-0.1c-0.4-0.2-0.9,0-1.1,0.4c-0.1,0.1-0.1,0.2-0.1,0.2c0,0,0,0,0,0c0,0,0,0.1,0,0.1c0,0.1,0,0.2,0,0.3
		c-0.1,0.3-0.3,0.6-0.6,0.8c-0.1,0.1-0.3,0.2-0.6,0.2c-0.2,0-0.4-0.2-0.5-0.2c-0.2-0.1-0.4,0-0.6,0c-0.4,0.2-0.7,0.6-0.6,1l0,0.3
		l-0.3,0c-0.4,0-0.9,0.1-1.2,0.4c-0.3,0.3-0.4,0.7-0.4,1.1l0.1,0.8l-0.6-0.6c-0.1-0.1-0.3-0.2-0.5-0.2c-0.2,0-0.4-0.1-0.7-0.1
		c-0.5,0-0.9,0.1-1.3,0.3l-0.1,0l-0.1,0c-0.3-0.1-0.7-0.2-1-0.1c-0.2,0-0.3,0.1-0.5,0.2c-0.2,0.1-0.3,0.2-0.4,0.3l0-0.4
		c2.5,3.2,6.2,5.1,10,6.1c3.9,1,7.9,1.2,12,1.1c4-0.2,8-0.8,12-1.6c3.9-0.9,7.8-2,11.6-3.5l0.1,0l0.1,0c1.2,0.6,2.5,0.9,3.8,1.3
		c1.3,0.3,2.6,0.6,3.9,0.8c2.6,0.4,5.3,0.8,8,1c5.3,0.4,10.7,0.4,16-0.1l0.3,0l0,0.3c-0.1,0.6-0.4,1.2-0.7,1.6
		c-0.3,0.5-0.8,0.9-1.2,1.3c-0.9,0.8-1.8,1.4-2.8,2l-0.2-0.4c1.8-0.3,3.4-1.2,4.9-2.3c0.7-0.5,1.4-1.1,2.1-1.8l1-1
		c0.1-0.1,0.2-0.2,0.3-0.2c0.1-0.1,0.4,0,0.5,0c0.2,0.2,0.3,0.2,0.5,0.2l0.3,0l-0.1,0.2c-0.4,1.4-1.1,2.4-1.9,3.4
		c-0.8,1-1.8,1.9-2.7,2.8c-2,1.7-4.2,3-6.6,4.1l-0.1-0.4c3.4-0.5,6.9-1.6,9.7-3.6c1.4-1,2.7-2.2,3.5-3.8c0.8-1.6,2.2-2.9,3.6-4l0,0
		l0.1,0c1.1-0.1,2.1-0.8,3-1.5c0.9-0.8,1.6-1.7,2.1-2.7c0.3-0.5,0.5-1.1,0.5-1.6c0-0.3,0-0.5-0.1-0.8c-0.1-0.3-0.1-0.6-0.1-0.9
		c0.1-1.3,1-2.3,1.8-3.1l-0.1,0.1c0.1-0.5,0.1-1.1,0.1-1.6c0-0.5-0.1-1.1-0.3-1.6c-0.2-0.5-0.5-0.9-1-1.2c-0.4-0.2-1-0.3-1.5-0.3
		l-0.2,0l0-0.2c-0.2-1.3-0.7-2.6-1.3-3.8c-0.6-1.2-1.2-2.4-1.9-3.5c-1.4-2.3-2.9-4.5-4.7-6.6c-1.7-2.1-3.6-4-5.6-5.7
		c-1-0.8-2.1-1.6-3.3-2.2c-0.6-0.3-1.2-0.5-1.9-0.6c-0.6-0.1-1.3,0.1-1.8,0.5l-0.3,0.3l0-0.4c0.1-1.6-0.3-3.2-0.9-4.7
		c-0.6-1.5-1.3-2.9-2.2-4.3c-0.9-1.4-1.8-2.7-2.8-3.9c-0.5-0.6-1.1-1.2-1.6-1.8c-0.6-0.5-1.2-1.1-1.9-1.3l-0.1,0l0-0.1
		c-0.5-1-1.2-1.8-2.1-2.5c-0.9-0.7-1.9-1.1-2.9-1.5c-0.5-0.2-1.1-0.4-1.5-0.8c-0.4-0.4-0.8-0.7-1.2-1c-0.9-0.6-1.9-1.1-2.9-1.5
		c-1-0.4-2-0.8-3.1-1.1c-0.5-0.1-1.1-0.3-1.6-0.3c-0.5-0.1-1.1,0-1.5,0.3c-0.2,0.2-0.3,0.3-0.2,0.5c0.1,0.2,0.4,0.3,0.6,0.4
		c0.2,0.1,0.5,0.2,0.7,0.4c0.1,0.1,0.3,0.1,0.4,0.2c0,0,0.1,0.1,0.1,0.2c0,0.1-0.1,0.2-0.1,0.2c0,0,0,0.1-0.1,0.1
		c-0.1,0.4,0.3,1,0.6,1.3c0.4,0.4,0.8,0.7,1.2,1l0.1,0.1l0,0.1c-0.1,0.4-0.1,0.9,0.1,1.3c0.2,0.4,0.5,0.7,0.8,1.1
		c0.2,0.2,0.3,0.3,0.5,0.6c0.1,0.1,0.1,0.2,0.1,0.4c0,0.2,0,0.3-0.1,0.4c0,0.2-0.1,0.4,0,0.6c0.1,0.2,0.2,0.4,0.4,0.5l0,0l0,0
		c0,0.5,0.2,0.9,0.5,1.3c0.2,0.2,0.4,0.3,0.6,0.4c0.1,0,0.1,0.1,0.2,0.1c0.1,0,0.1,0.2,0,0.3c0,0-0.1,0.1-0.1,0.1
		c-0.1,0-0.2,0.1-0.3,0.2c-0.3,0.3,0,0.8,0.2,1.2c0.2,0.4,0.6,0.7,1,0.9c0.4,0.2,0.9,0.4,1.4,0.7c0.2,0.1,0.4,0.4,0.5,0.6
		c0.1,0.1,0.1,0.3-0.1,0.5c-0.1,0.1-0.3,0.1-0.4,0.2c-1.1,0-2-0.3-3-0.6l0.1-0.3c4.1,1.2,8.1,2.6,12,4.3c3.9,1.8,7.7,3.7,10.9,6.6
		c1.5,1.5,2.8,3.2,4,5c0.6,0.9,1.1,1.8,1.4,2.9c0.1,0.5,0.2,1.1,0,1.6c-0.2,0.5-0.5,1-0.9,1.3c-0.9,0.7-1.9,1-2.9,1.3
		c-1,0.3-2.1,0.4-3.2,0.5c-2.1,0.2-4.2,0.3-6.4,0.3l0,0l0,0c-0.6-0.1-1.2-0.1-1.7,0c-0.3,0.1-0.5,0.2-0.6,0.5
		c-0.1,0.2,0,0.5,0.2,0.8l0.1,0.1l-0.2,0c-1.5,0.1-2.9,0.4-4.4,0.7c-0.7,0.2-1.4,0.4-2,0.8c-0.3,0.2-0.5,0.5-0.5,0.8
		c0.1,0.3,0.3,0.6,0.6,0.8l0.1,0.1l-0.1,0.1c-0.5,0.3-1,0.6-1.6,0.8c-0.3,0.1-0.6,0.1-0.9,0.1c-0.3,0-0.5,0.1-0.8,0.3
		c-0.5,0.3-1,0.7-1.1,1.2c-0.1,0.5,0.1,1.1,0.5,1.5l0,0l0,0c0,0.3,0,0.6-0.1,0.9c-0.2,0.3-0.5,0.4-0.7,0.6c-0.2,0.2-0.3,0.4-0.5,0.7
		c-0.2,0.2-0.4,0.5-0.6,0.7c-0.4,0.4-0.8,0.9-0.7,1.5c0.1,0.6,0.6,1,1,1.3l0,0c0.2,0.1,0.3,0.4,0.2,0.6c-0.1,0.2-0.2,0.4-0.1,0.6
		c0,0.4,0.3,0.7,0.6,0.9l0,0l0,0c-0.1,0.6-0.1,1.2,0.2,1.7c0.3,0.5,0.7,1,1.1,1.3c0.9,0.7,2.1,1.1,3.2,1.3l-0.1,0.1
		c-0.1-0.6-0.4-1.2-0.6-1.7c-0.3-0.6-0.5-1.1-0.8-1.7c-0.2-0.6-0.4-1.2-0.4-1.8c0-0.6,0.1-1.3,0.5-1.8l0,0.1c-0.3-1.4,0-2.9,0.8-4.1
		c0.4-0.6,0.9-1.1,1.6-1.4c0.6-0.3,1.4-0.5,2.1-0.5l0,0c1.3-0.8,2.6-1.5,4-1.9c0.7-0.2,1.5-0.4,2.2-0.4c0.8,0,1.5,0.2,2.2,0.6
		l0.1,0.1l-0.1,0c-1,0.3-2,0.6-2.9,1.1c-0.4,0.3-0.9,0.5-1.2,0.9c-0.3,0.4-0.5,0.9-0.3,1.4c0.2,0.5,0.6,0.8,1,1.1
		c0.4,0.2,0.9,0.4,1.4,0.7c0.9,0.5,1.7,1.3,2,2.3c0,0.1,0.1,0.2,0.2,0.3c0.1,0.1,0.2,0,0.3,0c0.2-0.1,0.5-0.2,0.7-0.3
		c0.5-0.2,0.9-0.4,1.4-0.6c1-0.4,2-0.6,3-0.6c1,0,2.1,0.3,3,0.8c0.9,0.5,1.7,1.2,2.4,2l0.2,0.2l-0.2-0.1l-1-0.5l-0.5-0.2l-0.3-0.1
		l-0.1,0c0,0,0,0-0.1,0c0,0,0,0,0,0c0,0,0,0,0,0l0,0l0,0c-0.4,0.7-0.9,1.3-1.5,1.8c-0.6,0.5-1.4,0.9-2.2,0.8c-0.8,0-1.5-0.5-2.1-1
		c-0.3-0.3-0.6-0.6-0.8-0.9L253.3,273.3L253.3,273.3z"/>
</g>
</svg>
