<svg xmlns="http://www.w3.org/2000/svg" viewBox="0 0 119.07 118.45"><defs><style>.cls-1{isolation:isolate;}.cls-2{fill:#c0955f;}.cls-3{fill:none;}.cls-4{opacity:0.5;mix-blend-mode:darken;}.cls-5{opacity:0.25;mix-blend-mode:screen;}</style></defs><g class="cls-1"><g id="Calque_1" data-name="Calque 1"><path class="cls-2" d="M60.16,119.31a66.68,66.68,0,0,1-8.93-.64,66.53,66.53,0,0,1-8.74-2,66.28,66.28,0,0,1-8.35-3.27A62.21,62.21,0,0,1,26.39,109a59,59,0,0,1-5.54-93.32,59.56,59.56,0,0,1,92.33,17.52,55.58,55.58,0,0,1,3.48,8.28,54.76,54.76,0,0,1,2.17,8.72,56.88,56.88,0,0,1,.77,8.94A55.51,55.51,0,0,1,119,68h-.1a59.51,59.51,0,0,0-6.33-34.57A59.4,59.4,0,0,0,21.38,16.23a58.47,58.47,0,0,0,5.18,92.47,60.42,60.42,0,0,0,7.69,4.51,65.23,65.23,0,0,0,8.3,3.31,66.44,66.44,0,0,0,8.7,2,66.44,66.44,0,0,0,8.91.69Z" transform="translate(-0.54 -0.86)"/><path class="cls-3" d="M119,68" transform="translate(-0.54 -0.86)"/><path class="cls-3" d="M114,86" transform="translate(-0.54 -0.86)"/><g id="photoshop"><g class="cls-4"><path class="cls-2" d="M38.52,87.56H27.17V35.3l.87-.16a84.48,84.48,0,0,1,14.41-1.07c6.9,0,12.17,1.48,15.67,4.4a15.52,15.52,0,0,1,5.37,12.09c0,5.07-1.6,9.31-4.63,12.27C55,66.63,49.14,68.65,42,68.65a26.45,26.45,0,0,1-3.48-.18Zm0-28.52a19.48,19.48,0,0,0,3.48.22c6.34,0,10.13-3.11,10.13-8.32,0-4.87-3.3-7.56-9.3-7.56a27.93,27.93,0,0,0-4.31.28Z" transform="translate(-0.54 -0.86)"/><path class="cls-2" d="M77.48,87.57a24.9,24.9,0,0,1-11.71-2.71l-.73-.4,2.5-9,1.21.76a18.77,18.77,0,0,0,8.81,2.56c1.81,0,4.84-.4,4.84-3.1,0-1.45-.38-2.54-5.36-4.37-9-3-10.83-8.05-10.83-11.74,0-7.4,6.16-12.56,15-12.56a22.59,22.59,0,0,1,10.35,2.32l.75.41L89.77,58.4l-1.18-.72a15.25,15.25,0,0,0-7.25-2c-2.51,0-4.08,1.1-4.08,2.87,0,1.49.87,2.34,5.74,4.14C90.2,65.24,93.45,69,93.53,74.92,93.53,82.72,87.38,87.57,77.48,87.57Z" transform="translate(-0.54 -0.86)"/></g><path class="cls-2" d="M57.6,38.1c-3.43-2.87-8.62-4.32-15.43-4.32a83.73,83.73,0,0,0-14.35,1.07l-.58.1V86.56H37.89V67.42a24.93,24.93,0,0,0,3.82.23c7,0,12.79-2,16.61-5.72,3-2.88,4.53-7,4.53-12A15.14,15.14,0,0,0,57.6,38.1ZM41.71,59a17.28,17.28,0,0,1-3.82-.29v-16a27.88,27.88,0,0,1,4.66-.33c6.22,0,9.65,2.81,9.65,7.92C52.2,55.73,48.28,59,41.71,59Z" transform="translate(-0.54 -0.86)"/><path class="cls-2" d="M82.59,62.42c-4.74-1.75-6-2.68-6-4.48,0-2,1.7-3.22,4.44-3.22a15.51,15.51,0,0,1,7.43,2l.79.47,2.3-7.93-.5-.28a22.1,22.1,0,0,0-10.17-2.28c-8.62,0-14.63,5-14.63,12.21,0,3.58,1.84,8.46,10.6,11.41,4.78,1.75,5.59,2.86,5.59,4.7,0,3-3.26,3.45-5.19,3.45a19.34,19.34,0,0,1-9-2.61l-.8-.51-2.3,8.27.49.27A24.55,24.55,0,0,0,77.2,86.57c9.68,0,15.69-4.71,15.69-12.29C92.81,68.53,89.63,64.88,82.59,62.42Z" transform="translate(-0.54 -0.86)"/><g class="cls-5"><path class="cls-2" d="M42.17,34.32c6.68,0,11.76,1.41,15.09,4.2a14.6,14.6,0,0,1,5.05,11.4c0,4.83-1.51,8.84-4.36,11.62-3.72,3.65-9.33,5.57-16.24,5.57A25.4,25.4,0,0,1,38,66.89l-.62-.1V86H27.78V35.4l.14,0a82.51,82.51,0,0,1,14.25-1.06m-.46,25.19c6.91,0,11-3.45,11-9.21,0-5.37-3.71-8.45-10.19-8.45a28.77,28.77,0,0,0-4.76.33l-.44.08V59.11l.42.09a18,18,0,0,0,3.94.31m.46-25.73a83.73,83.73,0,0,0-14.35,1.07l-.58.1V86.56H37.89V67.42a24.93,24.93,0,0,0,3.82.23c7,0,12.79-2,16.61-5.72,3-2.88,4.53-7,4.53-12A15.14,15.14,0,0,0,57.6,38.1c-3.43-2.87-8.62-4.32-15.43-4.32ZM41.71,59a17.28,17.28,0,0,1-3.82-.29v-16a27.88,27.88,0,0,1,4.66-.33c6.22,0,9.65,2.81,9.65,7.92,0,5.43-3.92,8.67-10.49,8.67Z" transform="translate(-0.54 -0.86)"/><path class="cls-2" d="M80.91,47.26a21.59,21.59,0,0,1,9.92,2.21l.12.07-2,6.85-.19-.12a16.17,16.17,0,0,0-7.7-2.09c-3,0-5,1.48-5,3.76s1.65,3.26,6.33,5c6.79,2.37,9.85,5.87,9.93,11.35C92.35,81.53,86.55,86,77.2,86a24,24,0,0,1-11.28-2.59l-.12-.07,2-7.16.2.12A19.85,19.85,0,0,0,77.28,79C80.92,79,83,77.58,83,75c0-2.32-1.39-3.54-6-5.21-8.46-2.85-10.23-7.5-10.23-10.9,0-6.87,5.79-11.67,14.09-11.67m0-.54c-8.62,0-14.63,5-14.63,12.21,0,3.58,1.84,8.46,10.6,11.41,4.78,1.75,5.59,2.86,5.59,4.7,0,3-3.26,3.45-5.19,3.45a19.34,19.34,0,0,1-9-2.61l-.8-.51-2.3,8.27.49.27A24.55,24.55,0,0,0,77.2,86.57c9.68,0,15.69-4.71,15.69-12.29-.08-5.75-3.26-9.4-10.3-11.86-4.74-1.75-6-2.68-6-4.48,0-2,1.7-3.22,4.44-3.22a15.51,15.51,0,0,1,7.43,2l.79.47,2.3-7.93-.5-.28a22.1,22.1,0,0,0-10.17-2.28Z" transform="translate(-0.54 -0.86)"/></g></g></g></g></svg>