<?xml version="1.0" encoding="utf-8"?>
<!-- Generator: Adobe Illustrator 25.0.0, SVG Export Plug-In . SVG Version: 6.00 Build 0)  -->
<svg version="1.1" id="Calque_1" xmlns="http://www.w3.org/2000/svg" xmlns:xlink="http://www.w3.org/1999/xlink" x="0px" y="0px"
	 viewBox="0 0 19.1 69.4" style="enable-background:new 0 0 19.1 69.4;" xml:space="preserve">
<style type="text/css">
	.st0{fill:#BA9664;}
</style>
<path class="st0" d="M12.8,18.4c1.9-0.9,3.6-2.3,4.6-4.1c1.1-1.8,1.5-4,1.1-6c-0.4-2.1-1.4-4-3-5.3C14,1.6,11.9,0.8,9.9,0.8
	c-2-0.1-4,0.6-5.6,1.9c-1.6,1.3-2.8,3-3.2,5c-0.5,1.9-0.3,4.1,0.6,5.9C2.6,15.5,4.1,17,6,18v0.1c-2-0.7-3.8-2.2-4.8-4.1
	c-1.1-2-1.4-4.3-1-6.5c0.4-2.2,1.7-4.2,3.5-5.6C5.5,0.6,7.8-0.1,10,0s4.4,1,6,2.5s2.7,3.5,3,5.7c0.3,2.2-0.2,4.5-1.3,6.3
	C16.6,16.3,14.8,17.7,12.8,18.4L12.8,18.4z"/>
<path class="st0" d="M9.7,69.4C9.6,69.4,9.6,69.4,9.7,69.4L9.2,39.7C9.1,34.8,9,29.8,9.1,24.9S9.3,15,9.6,10.1l0,0
	c0.1,0,0.1,0,0.1,0C9.9,15,10,20,10.1,24.9c0.1,4.9,0,9.9-0.1,14.8L9.7,69.4L9.7,69.4z"/>
</svg>
