<?xml version="1.0" encoding="utf-8"?>
<!-- Generator: Adobe Illustrator 25.0.0, SVG Export Plug-In . SVG Version: 6.00 Build 0)  -->
<svg version="1.1" id="Calque_1" xmlns="http://www.w3.org/2000/svg" xmlns:xlink="http://www.w3.org/1999/xlink" x="0px" y="0px"
	 viewBox="0 0 69.4 19.1" style="enable-background:new 0 0 69.4 19.1;" xml:space="preserve">
<style type="text/css">
	.st0{fill:#B99564;}
</style>
<g>
	<path class="st0" d="M51,6.3c0.7-2,2.1-3.8,3.9-4.9c1.8-1.1,4.1-1.6,6.3-1.3c2.2,0.3,4.2,1.4,5.7,3c1.5,1.6,2.4,3.8,2.5,6
		c0.1,2.2-0.6,4.5-1.9,6.3c-1.4,1.8-3.4,3.1-5.6,3.5c-2.2,0.4-4.5,0.1-6.5-1c-1.9-1.1-3.4-2.8-4.2-4.9l0.1,0c1,1.9,2.5,3.4,4.4,4.3
		c1.8,0.9,4,1.1,5.9,0.6c2-0.4,3.7-1.6,5-3.2c1.3-1.6,2-3.6,1.9-5.6c0-2-0.8-4.1-2.2-5.6c-1.3-1.6-3.2-2.6-5.3-3c-2-0.4-4.2,0-6,1.1
		C53.3,2.7,51.9,4.4,51,6.3L51,6.3z"/>
</g>
<g>
	<path class="st0" d="M0,9.4l29.7-0.3C34.7,9,39.6,8.9,44.6,9c4.9,0.1,9.9,0.2,14.8,0.5c0,0,0,0,0,0.1c0,0,0,0,0,0
		c-4.9,0.3-9.9,0.4-14.8,0.4c-4.9,0.1-9.9,0-14.8-0.1L0,9.4C0,9.5,0,9.5,0,9.4C0,9.4,0,9.4,0,9.4z"/>
</g>
</svg>
