<?xml version="1.0" encoding="utf-8"?>
<!-- Generator: Adobe Illustrator 25.0.0, SVG Export Plug-In . SVG Version: 6.00 Build 0)  -->
<svg version="1.1" id="Calque_1" xmlns="http://www.w3.org/2000/svg" xmlns:xlink="http://www.w3.org/1999/xlink" x="0px" y="0px"
	 viewBox="0 0 19.1 69.4" style="enable-background:new 0 0 19.1 69.4;" xml:space="preserve">
<style type="text/css">
	.st0{fill:#BA9664;}
</style>
<path class="st0" d="M12.8,51c2,0.7,3.8,2.1,4.9,3.9c1.1,1.8,1.6,4.1,1.3,6.3c-0.3,2.2-1.4,4.2-3,5.7c-1.6,1.5-3.8,2.4-6,2.5
	c-2.2,0.1-4.5-0.6-6.3-1.9c-1.8-1.4-3.1-3.4-3.5-5.6c-0.4-2.2-0.1-4.5,1-6.5C2.2,53.5,4,52,6,51.3l0,0.1c-1.9,1-3.4,2.5-4.3,4.4
	c-0.9,1.8-1.1,4-0.6,5.9c0.4,2,1.6,3.7,3.2,5c1.6,1.3,3.6,2,5.6,1.9c2,0,4.1-0.8,5.6-2.2c1.6-1.3,2.6-3.2,3-5.3c0.4-2,0-4.2-1.1-6
	C16.4,53.3,14.7,51.9,12.8,51L12.8,51z"/>
<path class="st0" d="M9.7,0l0.3,29.7c0.1,4.9,0.2,9.9,0.1,14.8c-0.1,4.9-0.2,9.9-0.4,14.8c0,0,0,0-0.1,0c0,0,0,0,0,0
	c-0.3-4.9-0.4-9.9-0.5-14.8c-0.1-4.9,0-9.9,0.1-14.8L9.7,0C9.6,0,9.6,0,9.7,0C9.7,0,9.7,0,9.7,0z"/>
</svg>
