<?xml version="1.0" encoding="utf-8"?>
<!-- Generator: Adobe Illustrator 25.0.0, SVG Export Plug-In . SVG Version: 6.00 Build 0)  -->
<svg version="1.1" id="Calque_1" xmlns="http://www.w3.org/2000/svg" xmlns:xlink="http://www.w3.org/1999/xlink" x="0px" y="0px"
	 viewBox="0 0 69.4 19.1" style="enable-background:new 0 0 69.4 19.1;" xml:space="preserve">
<style type="text/css">
	.st0{fill:#BA9664;}
</style>
<g>
	<path class="st0" d="M18.3,6.4c-0.7-2-2.2-3.7-4-4.7c-1.8-1-4-1.4-6-1.1C6.2,0.9,4.3,2,3,3.6C1.6,5.1,0.8,7.1,0.8,9.2
		c0,2,0.6,4.1,1.9,5.6c1.3,1.6,3,2.7,5,3.2c2,0.5,4.1,0.3,5.9-0.6c1.9-0.9,3.4-2.4,4.4-4.3l0.1,0c-0.7,2-2.2,3.8-4.2,4.9
		c-1.9,1.1-4.3,1.4-6.5,1c-2.2-0.5-4.2-1.8-5.6-3.5c-1.4-1.8-2-4.1-1.9-6.3c0.1-2.2,1-4.4,2.5-6c1.5-1.6,3.5-2.7,5.7-3
		c2.2-0.3,4.4,0.2,6.3,1.3C16.3,2.5,17.7,4.3,18.3,6.4L18.3,6.4z"/>
</g>
<g>
	<path class="st0" d="M69.4,9.5L39.7,9.9C34.7,9.9,29.8,10,24.8,10C19.9,9.9,14.9,9.8,10,9.5c0,0,0,0,0-0.1c0,0,0,0,0,0
		C14.9,9.1,19.9,9,24.8,9c4.9-0.1,9.9,0,14.8,0.1L69.4,9.5C69.4,9.4,69.4,9.4,69.4,9.5C69.4,9.5,69.4,9.5,69.4,9.5z"/>
</g>
</svg>
