<svg id="Calque_1" data-name="Calque 1" xmlns="http://www.w3.org/2000/svg" viewBox="0 0 496 496"><defs><style>.cls-1{fill:#c0955f;}</style></defs><path class="cls-1" d="M61.7,169.4l101.5,278a212.79,212.79,0,0,1-101.5-278Zm337.9,75.9c0-26.3-9.4-44.5-17.5-58.7-10.8-17.5-20.9-32.4-20.9-49.9,0-19.6,14.8-37.8,35.7-37.8.9,0,1.8.1,2.8.2a212.72,212.72,0,0,0-321.5,40c5,.2,9.7.3,13.7.3,22.2,0,56.7-2.7,56.7-2.7,11.5-.7,12.8,16.2,1.4,17.5,0,0-11.5,1.3-24.3,2l77.5,230.4L249.8,247l-33.1-90.8c-11.5-.7-22.3-2-22.3-2-11.5-.7-10.1-18.2,1.3-17.5,0,0,35.1,2.7,56,2.7,22.2,0,56.7-2.7,56.7-2.7,11.5-.7,12.8,16.2,1.4,17.5,0,0-11.5,1.3-24.3,2l76.9,228.7L383.6,314c9-29.4,16-50.5,16-68.7ZM259.7,274.6,195.9,460.1a212,212,0,0,0,130.7-3.4,15.93,15.93,0,0,1-1.5-2.9Zm183-120.7a165.74,165.74,0,0,1,1.4,21.9c0,21.6-4,45.8-16.2,76.2l-65,187.9a213,213,0,0,0,79.8-286ZM504,256c0,136.8-111.3,248-248,248S8,392.7,8,256,119.2,8,256,8,504,119.2,504,256Zm-11.4,0C492.6,125.5,386.4,19.4,256,19.4S19.4,125.5,19.4,256,125.6,492.6,256,492.6,492.6,386.5,492.6,256Z" transform="translate(-8 -8)"/></svg>